<?xml version="1.0" standalone="no"?>
<!DOCTYPE svg PUBLIC "-//W3C//DTD SVG 1.1//EN" "http://www.w3.org/Graphics/SVG/1.1/DTD/svg11.dtd" >
<svg xmlns="http://www.w3.org/2000/svg">
<metadata>
Created by FontPrep 20130207 at Fri Jan 13 11:53:24 2017
 By Martijn Eerens
Bij regeling van 16 juni 2008 (Stcrt. 2008, nr. 115) heeft de Staat der Nederlanden (Ministerie van Algemene Zaken) een auteursrechtelijk voorbehoud gemaakt, als bedoeld in artikel 15b van de Auteurswet 1912, met betrekking tot het gebruik en de toepassing van het ontwerp van het voor de Rijksoverheid algemeen geldende Rijkslogo en de huisstijl, waaronder begrepen het gebruik van de lettertypes RijksoverheidSerif en RijksoverheidSans.   Genoemd voorbehoud is niet van toepassing op partijen aan wie door of vanwege de Rijksoverheid het Rijkslogo en de huisstijl ter beschikking is gesteld met het oog op het gebruik bij de uitoefening van werkzaamheden of diensten in opdracht van de Rijksoverheid. Ieder gebruik in welke vorm of wijze, hetzij elektronisch, mechanisch, door fotokopiee:n, opnamen of enige andere manier is verboden tenzij er voorafgaand schriftelijke toestemming van de Rijksoverheid is verkregen. Voor toestemming kunt u zich wenden tot de Rijksvoorlichtingsdienst.   Auteur: Peter Verheul.
</metadata>
<defs>
<font id="ba645c3184cc3376cef3eebb7c748e6d" horiz-adv-x='1024' >
  <font-face 
    font-family="RijksoverheidSansText-Regular"
    font-weight="400"
    font-stretch="normal"
    units-per-em="2048"
    panose-1="2 11 5 3 4 2 2 6 2 3"
    ascent="1657"
    descent="-391"
    x-height="1001"
    cap-height="1343"
    bbox="-379 -569 2378 1841"
    underline-thickness="102"
    underline-position="-102"
    unicode-range="U+0020-FB04"
  />
<missing-glyph horiz-adv-x="372" 
 />
    <glyph glyph-name="f_f" unicode="ff" horiz-adv-x="1275" 
d="M831 874h-481v-874h-155v874h-123v127h123v115q0 150 87 235t255 85q66 0 139 -17l-19 -133q-57 14 -125 14q-182 0 -182 -180v-119h481v115q1 150 89 235t256 85q66 0 139 -17l-19 -133q-59 14 -127 14q-182 0 -182 -180v-119h258v-127h-258v-874h-156v874z" />
    <glyph glyph-name="f_i" unicode="fi" horiz-adv-x="1120" 
d="M956 0h-153v874h-453v-874h-155v874h-123v127h123v115q0 319 391 320q195 0 383 -17l-13 -133q-188 14 -344 14t-210 -40q-52 -41 -52 -140v-119h453l153 7v-1008z" />
    <glyph glyph-name="f_l" unicode="fl" horiz-adv-x="1120" 
d="M956 0h-153v1286q-101 14 -227 14t-176 -43t-50 -137v-119h256v-127h-256v-874h-155v874h-123v127h123v115q0 152 92 236t280 84q131 0 242 -17l147 13v-1432z" />
    <glyph glyph-name="f_f_i" unicode="ffi" horiz-adv-x="1759" 
d="M1595 0h-155v874h-453v-874h-156v874h-481v-874h-155v874h-123v127h123v115q0 150 87 235t255 85q66 0 139 -17l-19 -133q-57 14 -125 14q-182 0 -182 -180v-119h481v115q0 319 394 320q195 0 381 -17l-11 -133q-193 14 -348 14t-208 -40q-52 -41 -52 -140v-119h453
l155 7v-1008z" />
    <glyph glyph-name="f_f_l" unicode="ffl" horiz-adv-x="1759" 
d="M1595 0h-155v1286q-98 14 -226 14t-177 -44q-50 -44 -50 -136v-119h254v-127h-254v-874h-156v874h-481v-874h-155v874h-123v127h123v115q0 150 87 235t255 85q66 0 139 -17l-19 -133q-57 14 -125 14q-182 0 -182 -180v-119h481v115q-1 152 93 236t282 84q127 0 242 -17
l147 13v-1432z" />
    <glyph glyph-name="f_b" unicode="fb" horiz-adv-x="1734" 
d="M1470 516q0 354 -296 354q-106 0 -218 -51v-682q74 -12 170 -12q154 0 249 98t95 293zM1221 1014q191 0 301 -123t110 -369t-145 -390t-383 -144q-164 0 -301 22v1276q-99 14 -227 14t-177 -43t-49 -137v-119h256v-127h-256v-874h-155v874h-123v127h123v115q0 152 92 236
t280 84q129 0 240 -17l149 13v-486q129 68 265 68z" />
    <glyph glyph-name="f_f_b" unicode="ffb" horiz-adv-x="2371" 
d="M2107 516q0 354 -295 354q-109 0 -217 -51v-682q74 -12 168 -12q154 0 249 98t95 293zM1860 1014q188 0 300 -123t111 -369q0 -246 -145 -390t-383 -144q-166 0 -303 22v1276q-98 14 -226 14t-177 -44q-50 -44 -50 -136v-119h254v-127h-254v-874h-156v874h-481v-874h-155
v874h-123v127h123v115q0 150 87 235t255 85q66 0 139 -17l-19 -133q-57 14 -125 14q-182 0 -182 -180v-119h481v115q-1 152 93 236t282 84q129 0 238 -17l151 13v-486q127 68 265 68z" />
    <glyph glyph-name="f_f_h" unicode="ffh" horiz-adv-x="2363" 
d="M2060 0v657q0 97 -59 155t-171 58t-235 -51v-819h-155v1286q-98 14 -226 14t-177 -44q-50 -44 -50 -136v-119h254v-127h-254v-874h-156v874h-481v-874h-155v874h-123v127h123v115q0 150 87 235t255 85q66 0 139 -17l-19 -133q-57 14 -125 14q-182 0 -182 -180v-119h481
v115q-1 152 93 236t282 84q127 0 242 -17l147 13v-488q125 70 282 70t247 -88t90 -252v-674h-154z" />
    <glyph glyph-name="f_f_j" unicode="ffj" horiz-adv-x="1759" 
d="M831 874h-481v-874h-155v874h-123v127h123v115q0 150 87 235t255 85q66 0 139 -17l-19 -133q-57 14 -125 14q-182 0 -182 -180v-119h481v115q0 319 394 320q195 0 381 -17l-11 -133q-193 14 -348 14t-208 -40q-52 -41 -52 -140v-119h453l155 7v-1065q1 -150 -79 -235
t-216 -109l-20 133q84 26 122 74t38 137v931h-453v-874h-156v874z" />
    <glyph glyph-name="f_f_k" unicode="ffk" horiz-adv-x="2252" 
d="M1595 479v-479h-155v1286q-98 14 -226 14t-177 -44q-50 -44 -50 -136v-119h254v-127h-254v-874h-156v874h-481v-874h-155v874h-123v127h123v115q0 150 87 235t255 85q66 0 139 -17l-19 -133q-57 14 -125 14q-182 0 -182 -180v-119h481v115q-1 152 93 236t282 84
q127 0 242 -17l147 13v-818h88l336 387h193l-389 -432l424 -569h-197l-348 479h-107z" />
    <glyph glyph-name="f_f_t" unicode="fft" horiz-adv-x="1955" 
d="M831 874h-481v-874h-155v874h-123v127h123v115q0 150 87 235t255 85q66 0 139 -17l-19 -133q-57 14 -125 14q-182 0 -182 -180v-119h481v115q1 150 89 235t256 85q66 0 139 -17l-19 -133q-59 14 -127 14q-182 0 -182 -180v-119h483v177l154 22v-199h262v-127h-262v-563
q0 -92 43 -138t113 -46t137 16v-133q-88 -23 -174 -22q-272 0 -273 313v573h-483v-874h-156v874z" />
    <glyph glyph-name="f_h" unicode="fh" horiz-adv-x="1726" 
d="M1421 0v657q0 97 -58 155t-171 58t-236 -51v-819h-153v1286q-101 14 -227 14t-176 -43t-50 -137v-119h256v-127h-256v-874h-155v874h-123v127h123v115q0 152 92 236t280 84q131 0 242 -17l147 13v-488q129 70 285 70t246 -88t90 -252v-674h-156z" />
    <glyph glyph-name="f_j" unicode="fj" horiz-adv-x="1120" 
d="M195 874h-123v127h123v115q0 319 391 320q195 0 383 -17l-13 -133q-188 14 -344 14t-210 -40q-52 -41 -52 -140v-119h457l149 7v-1065q0 -291 -294 -344l-21 133q84 26 123 74t39 137v931h-453v-874h-155v874z" />
    <glyph glyph-name="f_k" unicode="fk" horiz-adv-x="1613" 
d="M956 479v-479h-153v1286q-101 14 -227 14t-176 -43t-50 -137v-119h256v-127h-256v-874h-155v874h-123v127h123v115q0 152 92 236t280 84q131 0 242 -17l147 13v-818h88l336 387h193l-387 -432l422 -569h-195l-350 479h-107z" />
    <glyph glyph-name="f_t" unicode="ft" horiz-adv-x="1316" 
d="M350 874v-874h-155v874h-123v127h123v115q0 150 87 235t255 85q66 0 139 -17l-19 -133q-57 14 -125 14q-182 0 -182 -180v-119h481v177l156 22v-199h260v-127h-260v-563q0 -92 42 -138t111 -46t140 16v-133q-88 -23 -174 -22q-274 0 -275 313v573h-481z" />
    <glyph glyph-name="t_t" unicode="tt" horiz-adv-x="1359" 
d="M74 874v127h121v177l153 22v-199h526v177l154 22v-199h260v-127h-260v-563q0 -92 42 -138t113 -46t138 16v-133q-88 -23 -174 -22q-272 0 -273 313v573h-526v-563q0 -92 43 -138t113 -46t137 16v-133q-88 -23 -174 -22q-272 0 -272 313v573h-121z" />
    <glyph glyph-name=".notdef" horiz-adv-x="372" 
 />
    <glyph glyph-name=".null" horiz-adv-x="0" 
 />
    <glyph glyph-name="nonmarkingreturn" horiz-adv-x="681" 
 />
    <glyph glyph-name="space" unicode=" " horiz-adv-x="421" 
 />
    <glyph glyph-name="exclam" unicode="!" horiz-adv-x="587" 
d="M174 113q0 57 31 91t88 34q119 0 119 -125q0 -55 -32 -88t-87 -33q-119 0 -119 121zM215 1337l172 19l-14 -613v-372l-158 -9v975z" />
    <glyph glyph-name="quotedbl" unicode="&#x22;" horiz-adv-x="720" 
d="M465 989l-25 424h162l-24 -424h-113zM143 989l-24 424h162l-25 -424h-113z" />
    <glyph glyph-name="numbersign" unicode="#" horiz-adv-x="1214" 
d="M483 870l-49 -395h301l49 395h-301zM111 870l14 121h248l45 352h123l-43 -352h299l45 352h127l-45 -352h245l-14 -121h-246l-49 -395h244l-14 -121h-246l-41 -354h-127l43 354h-301l-43 -354h-123l43 354h-248l12 121h250l49 395h-247z" />
    <glyph glyph-name="dollar" unicode="$" 
d="M453 -215v203h-2q-164 0 -310 28v150q171 -37 319 -37t234 66t86 161t-48 148t-163 92l-166 57q-245 84 -245 331q0 130 93 231t253 128v216h121v-203q147 0 270 -25l-16 -143q-131 26 -267 26t-215 -60q-78 -60 -78 -148t42 -134q42 -47 141 -79l172 -58
q137 -47 203 -129q65 -82 65 -224t-99 -250t-270 -136v-211h-120z" />
    <glyph glyph-name="percent" unicode="%" horiz-adv-x="1695" 
d="M1300 645q-84 -1 -132 -69t-48 -201q0 -272 183 -273q84 0 134 69t50 200q-1 274 -187 274zM979 360q1 194 95 298q94 102 236 102t228 -94t86 -284t-95 -294q-95 -102 -237 -102t-228 90q-85 90 -85 284zM393 1243q-84 -1 -133 -69t-49 -201q0 -272 184 -273
q82 0 132 69t51 200q-1 274 -185 274zM72 958q0 194 94 298q94 102 236 102t228 -94t87 -284q0 -190 -96 -292q-95 -104 -237 -104t-227 90t-85 284zM1063 1380l113 -45l-545 -1382l-113 45z" />
    <glyph glyph-name="ampersand" unicode="&#x26;" horiz-adv-x="1458" 
d="M648 -18q-253 0 -377 98t-124 276q0 117 79 211t212 129v6q-233 72 -233 297q0 154 113 258q114 105 272 105t264 -33l-12 -139q-115 29 -225 29q-109 1 -177 -59t-67 -154q0 -122 86 -180t264 -58h45v-139h-82q-172 0 -270 -75q-98 -76 -98 -188t84 -178q85 -66 243 -65
q195 -1 326 149t131 426h-150v136h430v-136h-127q0 -334 -177 -525t-430 -191z" />
    <glyph glyph-name="quotesingle" unicode="'" horiz-adv-x="399" 
d="M143 989l-24 424h162l-25 -424h-113z" />
    <glyph glyph-name="parenleft" unicode="(" horiz-adv-x="579" 
d="M100 495q0 467 308 848h135q-303 -408 -303 -849q0 -206 81 -430t222 -420h-135q-308 384 -308 851z" />
    <glyph glyph-name="parenright" unicode=")" horiz-adv-x="579" 
d="M479 492q0 -467 -307 -848h-135q303 414 303 850q0 207 -81 430t-222 419h135q307 -384 307 -851z" />
    <glyph glyph-name="asterisk" unicode="*" horiz-adv-x="1083" 
d="M657 1106l254 100l43 -131l-262 -63l-76 -25l224 -266l-111 -80l-143 227l-45 62l-43 -62l-142 -225l-112 76l174 209l45 59l-72 23l-262 65l39 129l326 -127v76l-21 272h137l-20 -272v-76z" />
    <glyph glyph-name="plus" unicode="+" 
d="M139 539v137h336v336h137v-336h334v-137h-334v-336h-137v336h-336z" />
    <glyph glyph-name="comma" unicode="," horiz-adv-x="503" 
d="M131 106q0 60 34 98t87 38t87 -36t34 -98t-85 -198q-85 -135 -112 -135h-84l98 239q-59 32 -59 92z" />
    <glyph glyph-name="hyphen" unicode="-" horiz-adv-x="811" 
d="M139 514v145h531v-145h-531z" />
    <glyph glyph-name="period" unicode="." horiz-adv-x="503" 
d="M251 -12q-58 0 -90 33t-32 91t32 94t90 36t91 -34t33 -92t-33 -93t-91 -35z" />
    <glyph glyph-name="slash" unicode="/" horiz-adv-x="657" 
d="M580 1372l120 -45l-622 -1712l-121 45z" />
    <glyph glyph-name="zero" unicode="0" 
d="M834 512q0 184 -77 278t-210 93q-133 1 -213 -101t-80 -286t80 -280t208 -97q128 0 210 105q82 104 82 288zM528 -18q-194 0 -312 131t-118 375t132 388t326 144t314 -133t119 -374q0 -241 -133 -386t-328 -145z" />
    <glyph glyph-name="one" unicode="1" horiz-adv-x="743" 
d="M393 1001h111v-1001h-156v852q-137 0 -272 -29v131q156 47 317 47z" />
    <glyph glyph-name="two" unicode="2" horiz-adv-x="997" 
d="M459 1012q153 0 251 -79t99 -196q0 -117 -56 -195t-182 -145l-145 -73q-121 -66 -176 -174v-7h631v-143h-740l-45 127q47 180 252 297l137 76q88 49 125 99t37 117q0 66 -59 108t-180 42t-258 -41v142q156 45 309 45z" />
    <glyph glyph-name="three" unicode="3" horiz-adv-x="907" 
d="M74 862v139h680l43 -108q-86 -299 -310 -434v-4q332 -55 332 -357q0 -194 -169 -326t-427 -132h-155v133h151q197 0 317 88t119 223q0 240 -317 274q-100 -39 -184 -55l-27 119q410 102 508 440h-561z" />
    <glyph glyph-name="four" unicode="4" horiz-adv-x="1064" 
d="M670 133v719h-4q-180 -82 -304 -278t-131 -441h439zM819 1006v-873h154v-133h-154v-360h-149v360h-541l-45 96q10 312 182 576t430 334h123z" />
    <glyph glyph-name="five" unicode="5" horiz-adv-x="993" 
d="M823 1001v-139h-530v-334q70 10 149 11q193 1 310 -105t116 -289q0 -225 -171 -365t-429 -140h-139v133h143q190 0 313 99q122 98 122 240t-86 214t-236 71q-104 0 -233 -14v618h671z" />
    <glyph glyph-name="six" unicode="6" 
d="M293 528q0 -207 71 -311q70 -104 186 -104t182 82q66 81 65 235q0 154 -75 233t-198 79t-223 -27q-8 -76 -8 -187zM788 1346h140v-132h-131q-377 0 -475 -383l2 -4q100 53 233 54q182 0 292 -112q109 -111 109 -317t-114 -338t-304 -132q-188 0 -300 143t-111 414
q0 407 181 607t478 200z" />
    <glyph glyph-name="seven" unicode="7" horiz-adv-x="942" 
d="M45 1001h801l31 -137q-250 -254 -374 -566t-124 -642h-150q0 696 467 1200v6h-651v139z" />
    <glyph glyph-name="eight" unicode="8" 
d="M279 328q0 -100 73 -161q74 -61 189 -61t191 60t75 134q-1 76 -37 128t-149 115l-154 86q-188 -119 -188 -301zM551 1233q-99 -1 -161 -61t-62 -142t28 -129t99 -90l135 -84q96 69 141 141t45 163t-62 147q-63 55 -163 55zM172 992q0 158 114 264t274 106q161 0 264 -90
t104 -221q0 -227 -248 -373l84 -47q205 -117 205 -282t-125 -266t-311 -101t-300 91q-113 91 -112 240q0 225 258 371l-68 49q-139 102 -139 259z" />
    <glyph glyph-name="nine" unicode="9" 
d="M560 260q122 0 222 27q12 115 13 186q0 209 -71 312q-70 103 -186 103t-181 -82q-65 -83 -65 -236q0 -154 73 -232t195 -78zM297 -344h-135v129h129q375 0 477 387l-4 4q-98 -55 -232 -55q-182 -1 -292 111t-111 318q0 206 115 338q116 132 304 132t298 -143t110 -412
q0 -409 -181 -609t-478 -200z" />
    <glyph glyph-name="colon" unicode=":" horiz-adv-x="503" 
d="M251 -12q-58 0 -90 33t-32 91t32 94t90 36t91 -34t33 -92t-33 -93t-91 -35zM251 713q-58 0 -90 33t-32 91t32 94t90 36t91 -34t33 -92t-33 -93t-91 -35z" />
    <glyph glyph-name="semicolon" unicode=";" horiz-adv-x="503" 
d="M131 106q0 60 34 98t87 38t87 -36t34 -98t-85 -198q-85 -135 -112 -135h-84l98 239q-59 32 -59 92zM251 713q-58 0 -90 33t-32 91t32 94t90 36t91 -34t33 -92t-33 -93t-91 -35z" />
    <glyph glyph-name="less" unicode="&#x3c;" 
d="M350 610v-4l553 -319l-69 -119l-672 391v96l672 392l69 -119z" />
    <glyph glyph-name="equal" unicode="=" 
d="M139 723v137h807v-137h-807zM139 354v138h807v-138h-807z" />
    <glyph glyph-name="greater" unicode="&#x3e;" 
d="M737 604v4l-553 320l70 119l672 -392v-96l-672 -391l-70 119z" />
    <glyph glyph-name="question" unicode="?" horiz-adv-x="860" 
d="M207 113q0 57 31 91t88 34q119 0 118 -125q0 -55 -32 -88t-86 -33q-119 0 -119 121zM741 1067q0 -98 -45 -172t-143 -143l-115 -80q-92 -68 -92 -149t49 -150l-131 -11q-68 72 -67 164q0 137 145 244l115 82q66 49 91 93q26 44 26 113q0 70 -56 112q-55 42 -169 42
t-257 -57v135q139 66 301 66t255 -79t93 -210z" />
    <glyph glyph-name="at" unicode="@" horiz-adv-x="1955" 
d="M707 428q0 -299 157 -299q117 0 269 150v585q-61 12 -138 13q-117 0 -203 -120t-85 -329zM125 367q0 205 77 395t206 317t298 199t351 72q340 0 557 -205t217 -535q-1 -276 -147 -452t-326 -176t-215 184h-6q-139 -178 -314 -178q-125 0 -201 100t-77 322q0 270 142 437
t319 167q72 0 147 -21l135 27v-754q0 -156 96 -155q125 0 221 135q95 135 95 354q0 283 -179 457t-481 174q-150 -1 -290 -63q-299 -133 -427 -447q-67 -164 -67 -352q0 -317 160 -481t401 -162q170 0 301 47v-101q-140 -66 -298 -66q-299 1 -487 174q-208 190 -208 587z
" />
    <glyph glyph-name="A" unicode="A" horiz-adv-x="1161" 
d="M797 502l-211 717h-19l-215 -717h445zM713 1343l411 -1343h-180l-108 362h-525l-106 -362h-170l424 1343h254z" />
    <glyph glyph-name="B" unicode="B" horiz-adv-x="1179" 
d="M535 1206h-173v-448h173q153 0 225 57t71 178q1 213 -296 213zM530 623h-168v-486h211q152 0 233 66q81 65 81 183t-82 178t-275 59zM578 0h-377v1343h346q223 0 338 -89t114 -244q0 -225 -186 -299v-4q242 -59 242 -308q0 -187 -123 -293t-354 -106z" />
    <glyph glyph-name="C" unicode="C" horiz-adv-x="1077" 
d="M109 641q0 177 54 319t147 226q188 170 446 170q131 0 264 -27l-19 -143q-133 27 -253 26q-195 0 -332 -141t-137 -404t131 -401t338 -137q149 0 274 29v-140q-152 -33 -297 -32q-272 0 -444 170t-172 485z" />
    <glyph glyph-name="D" unicode="D" horiz-adv-x="1339" 
d="M362 1204v-1065h207q229 -1 361 139t131 406q0 266 -135 393t-381 127h-183zM567 0h-366v1343h356q322 1 498 -161t176 -490t-178 -511q-179 -181 -486 -181z" />
    <glyph glyph-name="E" unicode="E" horiz-adv-x="1001" 
d="M201 0v1343h663v-141h-502v-440h453v-141h-453v-480h508v-141h-669z" />
    <glyph glyph-name="F" unicode="F" horiz-adv-x="956" 
d="M201 0v1343h663v-141h-502v-444h453v-142h-453v-616h-161z" />
    <glyph glyph-name="G" unicode="G" horiz-adv-x="1284" 
d="M717 494v141h407v-612q-186 -37 -383 -37q-274 0 -453 171t-179 484q0 183 60 325q59 142 161 225q202 165 477 165q137 0 291 -27l-19 -143q-176 27 -278 26q-219 0 -371 -138t-152 -404t139 -404q138 -138 343 -139q115 0 205 12v355h-248z" />
    <glyph glyph-name="H" unicode="H" horiz-adv-x="1339" 
d="M977 0v616h-615v-616h-161v1343h161v-583h615v583h162v-1343h-162z" />
    <glyph glyph-name="I" unicode="I" horiz-adv-x="561" 
d="M362 1343v-1343h-161v1343h161z" />
    <glyph glyph-name="J" unicode="J" horiz-adv-x="665" 
d="M471 1343v-1013q0 -164 -91 -253t-241 -89q-70 0 -104 8v143q41 -8 111 -8t117 51q46 51 46 152v1009h162z" />
    <glyph glyph-name="K" unicode="K" horiz-adv-x="1210" 
d="M201 1343h161v-585h115l479 585h191l-524 -634l538 -709h-209l-469 614h-121v-614h-161v1343z" />
    <glyph glyph-name="L" unicode="L" horiz-adv-x="921" 
d="M201 0v1343h161v-1202h506v-141h-667z" />
    <glyph glyph-name="M" unicode="M" horiz-adv-x="1693" 
d="M395 1182h-10l-49 -1182h-154l64 1343h246l358 -888h8l350 888h240l65 -1343h-163l-52 1182h-10l-364 -906h-158z" />
    <glyph glyph-name="N" unicode="N" horiz-adv-x="1339" 
d="M352 1176v-1176h-151v1343h250l528 -1175h10v1175h152v-1343h-252l-529 1176h-8z" />
    <glyph glyph-name="O" unicode="O" horiz-adv-x="1366" 
d="M279 674q-1 -280 111 -414q112 -133 285 -133t293 131t120 413q0 281 -112 413t-285 132t-293 -130q-120 -132 -119 -412zM109 661q0 327 167 514q168 187 419 187t406 -176t155 -504t-166 -514t-418 -186t-408 176q-155 176 -155 503z" />
    <glyph glyph-name="P" unicode="P" horiz-adv-x="1099" 
d="M362 1206v-551q76 -8 142 -8q168 0 254 75t86 216q0 268 -305 268h-177zM362 0h-161v1343h356q217 0 336 -104t119 -283q0 -216 -131 -332t-369 -116q-70 0 -150 8v-516z" />
    <glyph glyph-name="Q" unicode="Q" horiz-adv-x="1366" 
d="M279 674q-1 -280 111 -414q112 -133 285 -133t293 131t120 413q0 281 -112 413t-285 132t-293 -130q-120 -132 -119 -412zM109 661q0 327 167 514q168 187 419 187t406 -176t154 -504q1 -268 -113 -443t-302 -231l288 -362h-194l-258 336h-8q-248 0 -404 176
q-155 176 -155 503z" />
    <glyph glyph-name="R" unicode="R" horiz-adv-x="1157" 
d="M362 1206v-508h189q139 0 217 65t78 195q0 248 -303 248h-181zM362 561v-561h-161v1343h352q221 0 341 -97q120 -98 120 -252t-69 -252t-191 -144l356 -598h-188l-328 561h-232z" />
    <glyph glyph-name="S" unicode="S" horiz-adv-x="1024" 
d="M427 129q148 0 235 66q86 66 86 161t-48 148t-163 92l-166 57q-115 39 -181 120t-65 198q0 169 127 277t340 108q147 0 270 -25l-16 -143q-131 26 -267 26t-214 -60t-78 -148t42 -134q42 -47 140 -79l172 -58q137 -47 203 -129t65 -211q0 -184 -134 -296t-357 -111
q-164 -1 -309 28v150q170 -37 318 -37z" />
    <glyph glyph-name="T" unicode="T" horiz-adv-x="1075" 
d="M618 1202v-1202h-161v1202h-394v141h949v-141h-394z" />
    <glyph glyph-name="U" unicode="U" horiz-adv-x="1329" 
d="M653 -14q-465 0 -465 475v882h162v-862q0 -184 76 -267t235 -83t239 87t81 251v874h158v-868q1 -231 -131 -360t-355 -129z" />
    <glyph glyph-name="V" unicode="V" horiz-adv-x="1159" 
d="M461 0l-426 1343h182l361 -1181h8l368 1181h168l-432 -1343h-229z" />
    <glyph glyph-name="W" unicode="W" horiz-adv-x="1779" 
d="M410 0l-375 1343h182l305 -1181h10l285 829l-117 352h172l381 -1181h11l311 1181h170l-383 -1343h-215l-252 780h-8l-262 -780h-215z" />
    <glyph glyph-name="X" unicode="X" horiz-adv-x="1118" 
d="M63 1343h193l303 -507h8l303 507h177l-402 -647l436 -696h-190l-338 549h-8l-332 -549h-176l430 688z" />
    <glyph glyph-name="Y" unicode="Y" horiz-adv-x="1112" 
d="M637 0h-162v553l-440 790h194l336 -626h6l334 626h172l-440 -790v-553z" />
    <glyph glyph-name="Z" unicode="Z" horiz-adv-x="1052" 
d="M125 1200v143h831v-147l-686 -1044v-9h695v-143h-877v147l686 1047v6h-649z" />
    <glyph glyph-name="bracketleft" unicode="[" horiz-adv-x="524" 
d="M186 1343h306v-112h-179v-1479h179v-110h-306v1701z" />
    <glyph glyph-name="backslash" unicode="\" horiz-adv-x="657" 
d="M-43 1327l121 45l622 -1712l-120 -45z" />
    <glyph glyph-name="bracketright" unicode="]" horiz-adv-x="524" 
d="M338 -358h-305v112h178v1479h-178v110h305v-1701z" />
    <glyph glyph-name="asciicircum" unicode="^" 
d="M545 1368l446 -448l-96 -97l-350 353l-350 -353l-97 97z" />
    <glyph glyph-name="underscore" unicode="_" horiz-adv-x="1060" 
d="M18 -233v135h1024v-135h-1024z" />
    <glyph glyph-name="grave" unicode="`" horiz-adv-x="870" 
d="M401 1425l203 -297h-135l-244 297h176z" />
    <glyph glyph-name="a" unicode="a" horiz-adv-x="993" 
d="M254 272q0 -70 46 -110t134 -39q141 0 260 72v235q-119 4 -155 4q-147 0 -216 -46t-69 -116zM844 692v-692h-146v70q-136 -82 -288 -82t-236 74t-84 201q0 128 116 212t337 84q88 0 151 -2v109q0 205 -229 204q-141 0 -293 -65l-33 131q176 78 348 78q173 0 265 -84
t92 -238z" />
    <glyph glyph-name="b" unicode="b" horiz-adv-x="1095" 
d="M831 516q0 354 -294 354q-109 0 -218 -51v-682q74 -12 168 -12q154 0 249 98t95 293zM584 1014q188 0 298 -123t111 -369q0 -246 -144 -390t-382 -144q-166 0 -303 22v1409l155 13v-486q127 68 265 68z" />
    <glyph glyph-name="c" unicode="c" horiz-adv-x="835" 
d="M264 496q0 -180 85 -274t209 -93q124 0 222 29v-140q-113 -31 -225 -30q-207 0 -330 127t-123 375t136 387t329 139q113 0 211 -27l-18 -139q-106 25 -197 24q-127 0 -213 -99t-86 -279z" />
    <glyph glyph-name="d" unicode="d" horiz-adv-x="1095" 
d="M594 877q-152 -1 -241 -103t-89 -282t80 -271q80 -92 206 -92t226 64v667q-98 17 -182 17zM932 0h-152v66q-111 -78 -256 -78q-188 0 -305 127t-117 371t140 385q140 142 364 143q109 0 170 -23v428l156 13v-1432z" />
    <glyph glyph-name="e" unicode="e" horiz-adv-x="991" 
d="M735 621q0 268 -223 268q-94 1 -164 -71t-84 -197h471zM102 495q0 253 119 389t300 136t281 -104t99 -298q0 -82 -4 -122h-639q2 -184 88 -276t242 -91q156 0 297 64v-140q-156 -66 -324 -65q-215 0 -337 127t-122 380z" />
    <glyph glyph-name="f" unicode="f" horiz-adv-x="638" 
d="M195 874h-123v127h123v115q0 150 87 235t255 85q66 0 139 -17l-19 -133q-57 14 -125 14q-182 0 -182 -180v-119h258v-127h-258v-874h-155v874z" />
    <glyph glyph-name="g" unicode="g" horiz-adv-x="1015" 
d="M209 -111q0 -77 73 -119t205 -42q330 0 330 174q0 55 -36 82t-119 30l-343 17q-110 -40 -110 -142zM483 426q123 0 181 56q57 56 57 174q0 230 -227 233q-111 1 -171 -59t-61 -177q0 -227 221 -227zM287 244q0 -82 125 -84l268 -8q274 -8 274 -220q0 -150 -123 -240
t-335 -91t-320 71q-109 72 -108 191q0 68 47 128t116 91v8q-80 41 -79 125q0 45 29 84q30 39 79 57v6q-154 78 -154 264t106 286q106 99 294 100q92 0 153 -17h308v-116h-189v-7q98 -68 98 -226t-107 -248q-108 -89 -304 -89q-63 0 -113 13q-27 -8 -46 -30t-19 -48z" />
    <glyph glyph-name="h" unicode="h" 
d="M782 0v657q0 97 -58 155t-172 58t-233 -51v-819h-155v1419l155 13v-488q125 70 282 70t247 -88t90 -252v-674h-156z" />
    <glyph glyph-name="i" unicode="i" horiz-adv-x="483" 
d="M141 1330q0 46 27 73t74 27q46 0 72 -27t26 -74t-27 -73t-73 -26t-72 28q-27 26 -27 72zM319 0h-155v995l155 13v-1008z" />
    <glyph glyph-name="j" unicode="j" horiz-adv-x="483" 
d="M141 1330q0 46 27 73t74 27q46 0 72 -27t26 -74t-27 -73t-73 -26t-72 28q-27 26 -27 72zM319 -57q1 -150 -79 -235t-215 -109l-21 133q84 26 122 74t38 137v1052l155 13v-1065z" />
    <glyph glyph-name="k" unicode="k" horiz-adv-x="976" 
d="M319 479v-479h-155v1419l155 13v-818h91l333 387h193l-389 -432l424 -569h-195l-352 479h-105z" />
    <glyph glyph-name="l" unicode="l" horiz-adv-x="483" 
d="M319 0h-155v1419l155 13v-1432z" />
    <glyph glyph-name="m" unicode="m" horiz-adv-x="1689" 
d="M1384 0v655q0 99 -55 157t-165 58t-234 -51v-819h-156v659q0 211 -217 211q-121 0 -238 -51v-819h-155v995l149 13v-68q131 74 271 74q190 0 280 -103q166 103 333 103t255 -88t88 -252v-674h-156z" />
    <glyph glyph-name="n" unicode="n" 
d="M782 0v657q0 97 -58 155t-172 58t-233 -51v-819h-155v995l149 13v-68q127 74 286 74t249 -88t90 -252v-674h-156z" />
    <glyph glyph-name="o" unicode="o" horiz-adv-x="1110" 
d="M264 493q0 -181 76 -277t211 -95q135 -1 215 103t80 285t-76 276t-212 95t-215 -102q-79 -104 -79 -285zM1008 515q0 -245 -136 -389t-336 -144t-317 130t-117 374t136 388q136 146 334 146q200 0 318 -130t118 -375z" />
    <glyph glyph-name="p" unicode="p" horiz-adv-x="1095" 
d="M487 125q154 0 249 99t95 286q0 360 -294 360q-109 0 -218 -51v-678q80 -16 168 -16zM164 -391v1386l149 13v-64q127 70 271 70q190 0 300 -124t110 -370t-146 -389q-145 -143 -383 -143q-76 0 -146 14v-393h-155z" />
    <glyph glyph-name="q" unicode="q" horiz-adv-x="1095" 
d="M608 877q-154 -1 -249 -99t-95 -291q0 -356 297 -356q106 0 215 49v682q-84 15 -168 15zM932 -391h-156v444q-123 -68 -262 -67q-192 0 -302 122t-110 370t146 392q146 143 385 144q113 0 299 -23v-1382z" />
    <glyph glyph-name="r" unicode="r" horiz-adv-x="677" 
d="M514 862q-90 0 -195 -104v-758h-155v995l153 13v-117q106 123 213 123q58 -1 117 -15l-18 -153q-59 16 -115 16z" />
    <glyph glyph-name="s" unicode="s" horiz-adv-x="827" 
d="M346 127q131 0 190 41q58 41 58 103q0 61 -39 99t-129 62l-117 35q-213 61 -213 256q0 125 100 208t254 83q152 0 252 -23l-16 -137q-102 20 -216 20t-169 -38t-55 -96t34 -91t107 -53l117 -31q242 -63 241 -256q0 -143 -105 -232t-269 -89t-287 32v144q131 -37 262 -37z
" />
    <glyph glyph-name="t" unicode="t" horiz-adv-x="679" 
d="M74 874v127h121v177l153 22v-199h262v-127h-262v-563q0 -92 43 -138t113 -46t137 16v-133q-88 -23 -174 -22q-272 0 -272 313v573h-121z" />
    <glyph glyph-name="u" unicode="u" horiz-adv-x="1079" 
d="M305 346q0 -215 219 -215q111 0 236 51v813l155 13v-1008h-151v61q-128 -75 -282 -75t-243 87t-89 255v667l155 13v-662z" />
    <glyph glyph-name="v" unicode="v" horiz-adv-x="948" 
d="M381 0l-348 1001h178l274 -858h11l260 858h159l-335 -1001h-199z" />
    <glyph glyph-name="w" unicode="w" horiz-adv-x="1470" 
d="M1434 1001l-316 -1001h-198l-185 606h-10l-176 -606h-199l-317 1001h178l244 -858h10l199 658l-66 200h172l254 -858h10l240 858h160z" />
    <glyph glyph-name="x" unicode="x" horiz-adv-x="970" 
d="M920 0h-185l-256 406h-8l-250 -406h-172l342 510l-325 491h188l235 -376h9l233 376h172l-325 -481z" />
    <glyph glyph-name="y" unicode="y" horiz-adv-x="925" 
d="M215 -401q-57 0 -106 12v131q55 -8 111 -8q116 0 173 162l49 143h-63l-344 962h172l278 -827h9l239 827h158l-365 -1136q-45 -143 -123 -205t-188 -61z" />
    <glyph glyph-name="z" unicode="z" horiz-adv-x="829" 
d="M90 872v129h668v-129l-525 -735v-8h535v-129h-707v131l525 735v6h-496z" />
    <glyph glyph-name="braceleft" unicode="{" horiz-adv-x="661" 
d="M295 713v401q0 117 58 180t157 64q61 0 94 -8v-93q-100 1 -141 -27t-41 -93v-398q0 -104 -67 -173t-201 -77v-4q268 -20 268 -213v-407q0 -135 194 -135v-88q-44 -14 -120 -14t-139 51q-62 52 -62 143v426q0 68 -54 110t-188 74v119q242 31 242 162z" />
    <glyph glyph-name="bar" unicode="|" horiz-adv-x="493" 
d="M182 1343h129v-1699h-129v1699z" />
    <glyph glyph-name="braceright" unicode="}" horiz-adv-x="661" 
d="M369 274v-403q1 -117 -59 -180t-156 -64q-53 0 -95 11v92q98 0 140 26q41 27 41 94v396q0 106 65 174q66 68 201 76v6q-266 16 -266 213v407q0 133 -195 133v88q37 15 117 15t142 -52q64 -52 65 -143v-424q0 -67 54 -111t183 -75v-119q-237 -31 -237 -160z" />
    <glyph glyph-name="asciitilde" unicode="~" 
d="M713 463q-67 0 -179 78t-163 77q-94 0 -176 -104l-66 94q111 150 262 150q73 0 181 -78t159 -78q88 0 164 98l63 -92q-98 -145 -245 -145z" />
    <glyph glyph-name="uni00A0" unicode="&#xa0;" horiz-adv-x="372" 
 />
    <glyph glyph-name="exclamdown" unicode="&#xa1;" horiz-adv-x="587" 
d="M174 891q0 57 31 91t88 34q119 0 119 -125q0 -55 -32 -88t-87 -33q-119 0 -119 121zM373 -330l-172 -18l14 612v373l158 8v-975z" />
    <glyph glyph-name="cent" unicode="&#xa2;" 
d="M678 -43h-121v207q-174 24 -279 150q-106 126 -106 344t111 351q111 134 274 167v210h121v-200q119 -4 203 -27l-19 -137q-110 22 -226 22t-209 -99t-93 -278t92 -273t224 -93q132 0 235 29v-142q-88 -25 -207 -30v-201z" />
    <glyph glyph-name="sterling" unicode="&#xa3;" 
d="M449 788h315v-135h-315v-229q0 -199 -78 -283h352q125 0 244 52v-146q-90 -47 -256 -47h-611v141h97q90 82 90 269v243h-164v135h164v220q0 164 98 256t281 92q113 0 202 -25v-145q-96 26 -206 26t-161 -52q-52 -52 -52 -142v-230z" />
    <glyph glyph-name="currency" unicode="&#xa4;" 
d="M338 606q0 -86 59 -145t145 -59t146 58q59 60 60 146q0 86 -60 146t-145 59q-86 0 -146 -59q-59 -60 -59 -146zM205 604q0 106 57 189l-115 112l97 96l112 -114q82 57 184 57t189 -57l113 114l98 -96l-117 -112q57 -91 57 -191t-57 -182l115 -111l-96 -96l-113 113
q-79 -58 -187 -58t-186 58l-112 -115l-97 96l115 113q-57 78 -57 184z" />
    <glyph glyph-name="yen" unicode="&#xa5;" 
d="M141 381h322v168h-322v135h252l-358 659h194l324 -626h6l322 626h172l-359 -659h254v-135h-323v-168h323v-135h-323v-246h-162v246h-322v135z" />
    <glyph glyph-name="brokenbar" unicode="&#xa6;" horiz-adv-x="493" 
d="M182 1343h129v-565h-129v565zM182 209h129v-565h-129v565z" />
    <glyph glyph-name="section" unicode="&#xa7;" horiz-adv-x="1024" 
d="M307 506q0 -106 69 -177t171 -71t172 71t69 177q0 106 -69 178q-70 72 -172 72t-171 -72t-69 -178zM287 996q0 -98 71 -154q84 53 189 53q165 0 277 -109q112 -110 112 -272t-100 -266q74 -82 73 -221q0 -180 -137 -292t-354 -112q-152 0 -309 31v149q398 -87 554 29
q87 66 87 162t-62 153q-59 -29 -141 -28q-168 -1 -278 107q-109 108 -109 258t69 245q-104 92 -104 252q0 159 127 267t340 108q147 0 270 -25l-16 -143q-131 26 -267 26t-214 -60t-78 -158z" />
    <glyph glyph-name="dieresis" unicode="&#xa8;" horiz-adv-x="892" 
d="M520 1251q0 45 26 71t70 26t69 -26q26 -26 26 -71t-26 -71t-71 -25q-94 0 -94 96zM201 1251q0 96 94 97q94 0 94 -96t-94 -97q-94 0 -94 96z" />
    <glyph glyph-name="copyright" unicode="&#xa9;" horiz-adv-x="1613" 
d="M438 668q0 194 125 305t305 110q86 0 172 -14l-8 -111q-98 16 -168 17q-127 0 -212 -80t-85 -223t82 -218q83 -75 197 -75t196 16v-106q-92 -18 -194 -19q-184 0 -297 102t-113 296zM217 669q0 -245 173 -420t416 -175t416 176t173 420t-173 420t-416 176t-416 -176
t-173 -421zM111 670q1 286 205 490t491 204t491 -205t203 -491q0 -286 -204 -490q-205 -205 -491 -205t-491 205q-204 205 -204 492z" />
    <glyph glyph-name="ordfeminine" unicode="&#xaa;" horiz-adv-x="731" 
d="M201 870q0 -86 127 -86q92 0 168 35v144q-37 2 -105 2q-190 -1 -190 -95zM623 1130v-440h-123v43q-96 -51 -204 -51t-170 48q-60 48 -60 135t82 142q83 54 243 54q68 0 105 -2v57q0 121 -162 121q-92 0 -209 -43l-23 111q125 49 253 49t198 -59t70 -165z" />
    <glyph glyph-name="guillemotleft" unicode="&#xab;" horiz-adv-x="1169" 
d="M844 74l-332 438l332 438h178l-332 -428l332 -448h-178zM467 74l-332 438l332 438h178l-332 -428l332 -448h-178z" />
    <glyph glyph-name="logicalnot" unicode="&#xac;" 
d="M139 723v137h807v-500h-137v363h-670z" />
    <glyph glyph-name="uni00AD" unicode="&#xad;" horiz-adv-x="811" 
d="M139 514v145h531v-145h-531z" />
    <glyph glyph-name="registered" unicode="&#xae;" horiz-adv-x="1613" 
d="M666 977v-283h102q197 0 197 152q0 131 -177 131h-122zM666 592v-313h-121v796h246q153 0 227 -57q74 -56 74 -152t-46 -157t-126 -86l229 -344h-148l-206 313h-129zM217 669q0 -245 173 -420t416 -175t416 176t173 420t-173 420t-416 176t-416 -176t-173 -421zM111 670
q1 286 205 490t491 204t491 -205t203 -491q0 -286 -204 -490q-205 -205 -491 -205t-491 205q-204 205 -204 492z" />
    <glyph glyph-name="macron" unicode="&#xaf;" horiz-adv-x="813" 
d="M158 1155v117h493v-117h-493z" />
    <glyph glyph-name="degree" unicode="&#xb0;" horiz-adv-x="790" 
d="M86 1042q0 132 91 224t222 92t223 -92t93 -224q0 -132 -92 -222q-91 -91 -223 -91t-223 91t-91 222zM211 1042q0 -78 55 -133t133 -55t135 55q56 55 56 133t-56 134t-134 57q-78 -1 -134 -57q-55 -56 -55 -134z" />
    <glyph glyph-name="plusminus" unicode="&#xb1;" 
d="M139 0v137h807v-137h-807zM139 543v137h336v336h137v-336h334v-137h-334v-332h-137v332h-336z" />
    <glyph glyph-name="two.superscript" unicode="&#xb2;" horiz-adv-x="788" 
d="M378 1411q120 0 200 -63t79 -172q0 -152 -200 -285l-76 -49q-143 -90 -150 -201h453v-111h-555l-25 103q8 158 181 278l90 58q75 51 109 92t34 99t-48 94t-138 36t-189 -26v116q115 31 235 31z" />
    <glyph glyph-name="three.superscript" unicode="&#xb3;" horiz-adv-x="788" 
d="M131 1290v113h498l28 -105q-37 -90 -88 -146t-133 -99v-4q113 -19 173 -79t61 -153q0 -127 -122 -213t-312 -86h-115v109h112q139 0 221 49q81 49 81 131q0 143 -207 168q-55 -29 -142 -45l-22 90q289 68 362 270h-395z" />
    <glyph glyph-name="acute" unicode="&#xb4;" horiz-adv-x="870" 
d="M367 1128l200 297h178l-243 -297h-135z" />
    <glyph glyph-name="uni00B5" unicode="&#xb5;" horiz-adv-x="1095" 
d="M930 203q0 -74 55 -74q33 0 70 10v-121q-49 -30 -111 -30q-116 1 -143 88q-133 -90 -277 -90t-217 67v-116q0 -186 62 -328h-152q-53 121 -53 309v1077l155 13v-662q0 -215 220 -215q113 0 237 51v813l154 13v-805z" />
    <glyph glyph-name="paragraph" unicode="&#xb6;" horiz-adv-x="1351" 
d="M1139 1343v-1759h-154v1641h-121v-1641h-110v625q-68 -23 -179 -23q-223 0 -357 146t-134 430q0 282 161 434t445 152l162 -5h287z" />
    <glyph glyph-name="periodcentered" unicode="&#xb7;" horiz-adv-x="503" 
d="M129 605q0 58 32 94t90 36t91 -34t33 -92t-33 -93t-91 -35t-90 33t-32 91z" />
    <glyph glyph-name="cedilla" unicode="&#xb8;" horiz-adv-x="1589" 
d="M588 -205q0 -84 -73 -135t-208 -51h-92v106h94q141 0 142 60q0 49 -111 61l-39 4v94l117 -8q170 -12 170 -131z" />
    <glyph glyph-name="one.superscript" unicode="&#xb9;" horiz-adv-x="788" 
d="M416 1403h84v-873h-129v754q-92 0 -209 -20v100q129 39 254 39z" />
    <glyph glyph-name="ordmasculine" unicode="&#xba;" horiz-adv-x="796" 
d="M588 1022q0 108 -49 163q-49 56 -139 56t-141 -63q-52 -63 -52 -171t50 -163q50 -56 138 -56t141 63q52 63 52 171zM721 1025q0 -159 -97 -255q-96 -96 -238 -96t-226 85t-84 244t96 255t238 96t227 -85q84 -85 84 -244z" />
    <glyph glyph-name="guillemotright" unicode="&#xbb;" horiz-adv-x="1169" 
d="M702 950l332 -438l-332 -438h-178l332 428l-332 448h178zM326 950l331 -438l-331 -438h-179l332 428l-332 448h179z" />
    <glyph glyph-name="onequarter" unicode="&#xbc;" horiz-adv-x="1695" 
d="M1313 -16v460h-2q-123 -66 -206 -192t-89 -268h297zM1438 569v-585h110v-111h-110v-180h-129v180h-381l-35 86q8 195 129 369t299 241h117zM416 1403h84v-873h-129v754q-92 0 -209 -20v100q129 39 254 39zM1233 1391l108 -64l-938 -1622l-108 64z" />
    <glyph glyph-name="onehalf" unicode="&#xbd;" horiz-adv-x="1695" 
d="M416 1403h84v-873h-129v754q-92 0 -209 -20v100q129 39 254 39zM1540 338q0 -152 -201 -285l-75 -49q-143 -90 -150 -201h453v-110h-555l-25 102q8 158 180 279l90 57q76 51 110 92t34 99t-48 94q-49 36 -139 37q-90 0 -188 -27v117q114 31 234 31t200 -64
q80 -63 80 -172zM1233 1391l108 -64l-938 -1622l-108 64z" />
    <glyph glyph-name="threequarters" unicode="&#xbe;" horiz-adv-x="1695" 
d="M1313 -16v460h-2q-123 -66 -206 -192t-89 -268h297zM1438 569v-585h110v-111h-110v-180h-129v180h-381l-35 86q8 195 129 369t299 241h117zM131 1290v113h498l28 -105q-37 -90 -88 -146t-133 -99v-4q113 -19 173 -79t61 -153q0 -127 -122 -213t-312 -86h-115v109h112
q139 0 221 49q81 49 81 131q0 143 -207 168q-55 -29 -142 -45l-22 90q289 68 362 270h-395zM1233 1391l108 -64l-938 -1622l-108 64z" />
    <glyph glyph-name="questiondown" unicode="&#xbf;" horiz-adv-x="860" 
d="M416 891q0 57 30 91q31 34 89 34q119 0 118 -125q1 -55 -31 -88t-87 -33q-119 0 -119 121zM119 -59q0 98 45 172t143 143l115 80q92 66 92 146t-49 153l131 10q68 -72 68 -164q0 -137 -146 -243l-112 -84q-66 -46 -93 -92t-27 -114t57 -110q56 -43 168 -43t259 58v-136
q-143 -65 -304 -65t-254 79t-93 210z" />
    <glyph glyph-name="Agrave" unicode="&#xc0;" horiz-adv-x="1161" 
d="M459 1774l203 -297h-136l-243 297h176zM797 502l-211 717h-19l-215 -717h445zM713 1343l411 -1343h-180l-108 362h-525l-106 -362h-170l424 1343h254z" />
    <glyph glyph-name="Aacute" unicode="&#xc1;" horiz-adv-x="1161" 
d="M506 1477l201 297h178l-244 -297h-135zM797 502l-211 717h-19l-215 -717h445zM713 1343l411 -1343h-180l-108 362h-525l-106 -362h-170l424 1343h254z" />
    <glyph glyph-name="Acircumflex" unicode="&#xc2;" horiz-adv-x="1161" 
d="M291 1477l211 297h166l202 -297h-155l-123 180h-33l-125 -180h-143zM797 502l-211 717h-19l-215 -717h445zM713 1343l411 -1343h-180l-108 362h-525l-106 -362h-170l424 1343h254z" />
    <glyph glyph-name="Atilde" unicode="&#xc3;" horiz-adv-x="1161" 
d="M707 1464q-51 0 -141 60t-122 59q-74 0 -135 -78l-47 94q84 117 201 117q57 0 144 -59t118 -60q68 0 123 74l47 -94q-74 -113 -188 -113zM797 502l-211 717h-19l-215 -717h445zM713 1343l411 -1343h-180l-108 362h-525l-106 -362h-170l424 1343h254z" />
    <glyph glyph-name="Adieresis" unicode="&#xc4;" horiz-adv-x="1161" 
d="M645 1563q0 45 26 71q25 26 69 25q44 0 70 -26q26 -27 26 -71t-26 -70t-71 -26q-94 1 -94 97zM326 1563q0 96 94 96t94 -96t-94 -97q-94 1 -94 97zM797 502l-211 717h-19l-215 -717h445zM713 1343l411 -1343h-180l-108 362h-525l-106 -362h-170l424 1343h254z" />
    <glyph glyph-name="Aring" unicode="&#xc5;" horiz-adv-x="1161" 
d="M498 1623q0 -35 24 -61t59 -26t59 26t24 62t-25 60q-25 26 -59 26t-58 -26t-24 -61zM410 1623q0 71 50 120t122 49t120 -49t50 -120q0 -71 -50 -121t-120 -50t-121 50t-51 121zM797 502l-211 717h-19l-215 -717h445zM713 1343l411 -1343h-180l-108 362h-525l-106 -362
h-170l424 1343h254z" />
    <glyph glyph-name="AE" unicode="&#xc6;" horiz-adv-x="1656" 
d="M854 502v717h-16l-371 -717h387zM854 0v362h-457l-188 -362h-176l717 1343h768v-141h-502v-440h452v-141h-452v-480h508v-141h-670z" />
    <glyph glyph-name="Ccedilla" unicode="&#xc7;" horiz-adv-x="1077" 
d="M891 -205q0 -82 -80 -134t-215 -52h-104v112h106q147 0 147 56q0 43 -122 55l-48 6v101l119 -11q197 -14 197 -133zM109 641q0 177 54 319t147 226q188 170 446 170q131 0 264 -27l-19 -143q-133 27 -253 26q-195 0 -332 -141t-137 -404t131 -401t338 -137q149 0 274 29
v-140q-152 -33 -297 -32q-272 0 -444 170t-172 485z" />
    <glyph glyph-name="Egrave" unicode="&#xc8;" horiz-adv-x="1001" 
d="M389 1774l203 -297h-135l-244 297h176zM201 0v1343h663v-141h-502v-440h453v-141h-453v-480h508v-141h-669z" />
    <glyph glyph-name="Eacute" unicode="&#xc9;" horiz-adv-x="1001" 
d="M436 1477l201 297h178l-244 -297h-135zM201 0v1343h663v-141h-502v-440h453v-141h-453v-480h508v-141h-669z" />
    <glyph glyph-name="Ecircumflex" unicode="&#xca;" horiz-adv-x="1001" 
d="M221 1477l211 297h166l203 -297h-156l-123 180h-33l-124 -180h-144zM201 0v1343h663v-141h-502v-440h453v-141h-453v-480h508v-141h-669z" />
    <glyph glyph-name="Edieresis" unicode="&#xcb;" horiz-adv-x="1001" 
d="M575 1563q0 45 26 71t70 25q43 0 69 -26q26 -27 26 -71t-26 -70t-70 -26q-95 1 -95 97zM256 1563q0 96 94 96t94 -96t-94 -97q-94 1 -94 97zM201 0v1343h663v-141h-502v-440h453v-141h-453v-480h508v-141h-669z" />
    <glyph glyph-name="Igrave" unicode="&#xcc;" horiz-adv-x="561" 
d="M160 1774l202 -297h-135l-243 297h176zM362 1343v-1343h-161v1343h161z" />
    <glyph glyph-name="Iacute" unicode="&#xcd;" horiz-adv-x="561" 
d="M205 1477l201 297h178l-244 -297h-135zM362 1343v-1343h-161v1343h161z" />
    <glyph glyph-name="Icircumflex" unicode="&#xce;" horiz-adv-x="561" 
d="M-8 1477l211 297h166l202 -297h-155l-123 180h-33l-125 -180h-143zM362 1343v-1343h-161v1343h161z" />
    <glyph glyph-name="Idieresis" unicode="&#xcf;" horiz-adv-x="561" 
d="M346 1563q0 45 26 71t70 25q44 0 69 -26q26 -27 26 -71t-26 -70t-71 -26q-94 1 -94 97zM27 1563q0 96 94 96t94 -96t-94 -97q-94 1 -94 97zM362 1343v-1343h-161v1343h161z" />
    <glyph glyph-name="Eth" unicode="&#xd0;" horiz-adv-x="1339" 
d="M362 1204v-442h254v-129h-254v-494h207q229 -1 361 139t131 406q0 266 -135 393t-381 127h-183zM567 0h-366v633h-135v129h135v581h356q322 1 498 -161t176 -490t-178 -511q-179 -181 -486 -181z" />
    <glyph glyph-name="Ntilde" unicode="&#xd1;" horiz-adv-x="1339" 
d="M799 1464q-51 0 -141 60t-121 59q-74 0 -136 -78l-47 94q84 117 201 117q57 0 144 -59t118 -60q68 0 123 74l47 -94q-74 -113 -188 -113zM352 1176v-1176h-151v1343h250l528 -1175h10v1175h152v-1343h-252l-529 1176h-8z" />
    <glyph glyph-name="Ograve" unicode="&#xd2;" horiz-adv-x="1366" 
d="M561 1774l203 -297h-135l-244 297h176zM279 674q-1 -280 111 -414q112 -133 285 -133t293 131t120 413q0 281 -112 413t-285 132t-293 -130q-120 -132 -119 -412zM109 661q0 327 167 514q168 187 419 187t406 -176t155 -504t-166 -514t-418 -186t-408 176
q-155 176 -155 503z" />
    <glyph glyph-name="Oacute" unicode="&#xd3;" horiz-adv-x="1366" 
d="M608 1477l201 297h178l-244 -297h-135zM279 674q-1 -280 111 -414q112 -133 285 -133t293 131t120 413q0 281 -112 413t-285 132t-293 -130q-120 -132 -119 -412zM109 661q0 327 167 514q168 187 419 187t406 -176t155 -504t-166 -514t-418 -186t-408 176
q-155 176 -155 503z" />
    <glyph glyph-name="Ocircumflex" unicode="&#xd4;" horiz-adv-x="1366" 
d="M393 1477l211 297h166l203 -297h-156l-123 180h-32l-125 -180h-144zM279 674q-1 -280 111 -414q112 -133 285 -133t293 131t120 413q0 281 -112 413t-285 132t-293 -130q-120 -132 -119 -412zM109 661q0 327 167 514q168 187 419 187t406 -176t155 -504t-166 -514
t-418 -186t-408 176q-155 176 -155 503z" />
    <glyph glyph-name="Otilde" unicode="&#xd5;" horiz-adv-x="1366" 
d="M811 1464q-51 0 -141 60t-121 59q-74 0 -135 -78l-47 94q84 117 200 117q57 0 145 -59t117 -60q68 0 123 74l47 -94q-74 -113 -188 -113zM279 674q-1 -280 111 -414q112 -133 285 -133t293 131t120 413q0 281 -112 413t-285 132t-293 -130q-120 -132 -119 -412zM109 661
q0 327 167 514q168 187 419 187t406 -176t155 -504t-166 -514t-418 -186t-408 176q-155 176 -155 503z" />
    <glyph glyph-name="Odieresis" unicode="&#xd6;" horiz-adv-x="1366" 
d="M748 1563q0 45 26 71t69 25q43 0 69 -26q26 -27 26 -71t-26 -70t-70 -26q-94 1 -94 97zM428 1563q0 96 94 96t94 -96t-94 -97q-94 1 -94 97zM279 674q-1 -280 111 -414q112 -133 285 -133t293 131t120 413q0 281 -112 413t-285 132t-293 -130q-120 -132 -119 -412z
M109 661q0 327 167 514q168 187 419 187t406 -176t155 -504t-166 -514t-418 -186t-408 176q-155 176 -155 503z" />
    <glyph glyph-name="multiply" unicode="&#xd7;" 
d="M268 236l-96 96l274 274l-274 275l96 96l275 -275l274 275l98 -96l-276 -275l274 -272l-96 -96l-274 272z" />
    <glyph glyph-name="Oslash" unicode="&#xd8;" horiz-adv-x="1366" 
d="M1087 662q0 272 -100 415l-516 -897q88 -55 211 -55q166 0 286 132q119 133 119 405zM279 676q0 -278 108 -420l516 901q-85 61 -235 61t-270 -132t-119 -410zM109 642q0 346 167 533q168 187 424 187q156 0 279 -74l80 135l98 -55l-86 -149q184 -185 184 -525
q1 -340 -165 -526t-422 -186q-154 0 -271 67l-75 -129l-99 55l80 142q-194 179 -194 525z" />
    <glyph glyph-name="Ugrave" unicode="&#xd9;" horiz-adv-x="1329" 
d="M543 1774l202 -297h-135l-243 297h176zM653 -14q-465 0 -465 475v882h162v-862q0 -184 76 -267t235 -83t239 87t81 251v874h158v-868q1 -231 -131 -360t-355 -129z" />
    <glyph glyph-name="Uacute" unicode="&#xda;" horiz-adv-x="1329" 
d="M590 1477l201 297h178l-244 -297h-135zM653 -14q-465 0 -465 475v882h162v-862q0 -184 76 -267t235 -83t239 87t81 251v874h158v-868q1 -231 -131 -360t-355 -129z" />
    <glyph glyph-name="Ucircumflex" unicode="&#xdb;" horiz-adv-x="1329" 
d="M375 1477l211 297h166l202 -297h-155l-123 180h-33l-125 -180h-143zM653 -14q-465 0 -465 475v882h162v-862q0 -184 76 -267t235 -83t239 87t81 251v874h158v-868q1 -231 -131 -360t-355 -129z" />
    <glyph glyph-name="Udieresis" unicode="&#xdc;" horiz-adv-x="1329" 
d="M729 1563q0 45 26 71q25 26 69 25q44 0 70 -26q26 -27 26 -71t-26 -70t-71 -26q-94 1 -94 97zM410 1563q0 96 94 96t94 -96t-94 -97q-94 1 -94 97zM653 -14q-465 0 -465 475v882h162v-862q0 -184 76 -267t235 -83t239 87t81 251v874h158v-868q1 -231 -131 -360t-355 -129
z" />
    <glyph glyph-name="Yacute" unicode="&#xdd;" horiz-adv-x="1112" 
d="M481 1477l201 297h178l-244 -297h-135zM637 0h-162v553l-440 790h194l336 -626h6l334 626h172l-440 -790v-553z" />
    <glyph glyph-name="Thorn" unicode="&#xde;" horiz-adv-x="1099" 
d="M362 975v-551q76 -8 142 -8q168 0 254 76t86 215q0 268 -305 268h-177zM362 1343v-231h195q217 0 336 -104t119 -283q0 -217 -131 -333t-369 -116q-70 0 -150 9v-285h-161v1343h161z" />
    <glyph glyph-name="germandbls" unicode="&#xdf;" horiz-adv-x="1138" 
d="M706 127q202 0 203 145q0 49 -29 86q-30 37 -104 72l-88 43q-158 77 -158 222q0 125 114 217t114 214q0 74 -58 124t-165 50q-186 0 -187 -180v-1120h-153v1118q0 142 88 230t258 88t269 -84t99 -226q0 -76 -37 -140q-38 -64 -80 -100q-116 -97 -116 -149q0 -51 22 -79
t80 -56l90 -43q190 -90 191 -258q0 -143 -98 -228q-99 -85 -237 -85t-253 32v144q131 -37 235 -37z" />
    <glyph glyph-name="agrave" unicode="&#xe0;" horiz-adv-x="993" 
d="M367 1425l202 -297h-135l-244 297h177zM254 272q0 -70 46 -110t134 -39q141 0 260 72v235q-119 4 -155 4q-147 0 -216 -46t-69 -116zM844 692v-692h-146v70q-136 -82 -288 -82t-236 74t-84 201q0 128 116 212t337 84q88 0 151 -2v109q0 205 -229 204q-141 0 -293 -65
l-33 131q176 78 348 78q173 0 265 -84t92 -238z" />
    <glyph glyph-name="aacute" unicode="&#xe1;" horiz-adv-x="993" 
d="M414 1128l200 297h179l-244 -297h-135zM254 272q0 -70 46 -110t134 -39q141 0 260 72v235q-119 4 -155 4q-147 0 -216 -46t-69 -116zM844 692v-692h-146v70q-136 -82 -288 -82t-236 74t-84 201q0 128 116 212t337 84q88 0 151 -2v109q0 205 -229 204q-141 0 -293 -65
l-33 131q176 78 348 78q173 0 265 -84t92 -238z" />
    <glyph glyph-name="acircumflex" unicode="&#xe2;" horiz-adv-x="993" 
d="M199 1128l211 297h165l203 -297h-155l-123 181h-33l-125 -181h-143zM254 272q0 -70 46 -110t134 -39q141 0 260 72v235q-119 4 -155 4q-147 0 -216 -46t-69 -116zM844 692v-692h-146v70q-136 -82 -288 -82t-236 74t-84 201q0 128 116 212t337 84q88 0 151 -2v109
q0 205 -229 204q-141 0 -293 -65l-33 131q176 78 348 78q173 0 265 -84t92 -238z" />
    <glyph glyph-name="atilde" unicode="&#xe3;" horiz-adv-x="993" 
d="M354 1255q-74 0 -135 -77l-47 94q84 117 201 117q57 1 144 -59t118 -60q68 -1 123 73l47 -94q-74 -113 -189 -112q-51 0 -141 59t-121 59zM254 272q0 -70 46 -110t134 -39q141 0 260 72v235q-119 4 -155 4q-147 0 -216 -46t-69 -116zM844 692v-692h-146v70
q-136 -82 -288 -82t-236 74t-84 201q0 128 116 212t337 84q88 0 151 -2v109q0 205 -229 204q-141 0 -293 -65l-33 131q176 78 348 78q173 0 265 -84t92 -238z" />
    <glyph glyph-name="adieresis" unicode="&#xe4;" horiz-adv-x="993" 
d="M535 1251q0 45 25 71q26 26 70 26t70 -26t25 -71q0 -45 -26 -71t-70 -25q-94 0 -94 96zM215 1251q0 96 94 97q94 0 94 -96t-94 -97q-94 0 -94 96zM254 272q0 -70 46 -110t134 -39q141 0 260 72v235q-119 4 -155 4q-147 0 -216 -46t-69 -116zM844 692v-692h-146v70
q-136 -82 -288 -82t-236 74t-84 201q0 128 116 212t337 84q88 0 151 -2v109q0 205 -229 204q-141 0 -293 -65l-33 131q176 78 348 78q173 0 265 -84t92 -238z" />
    <glyph glyph-name="aring" unicode="&#xe5;" horiz-adv-x="993" 
d="M406 1295q0 -35 24 -61t58 -26t59 26t25 62t-25 61t-59 25t-58 -26t-24 -61zM659 1295q0 -71 -50 -121t-121 -50t-121 50t-50 121q1 71 51 120t122 49t120 -49q49 -49 49 -120zM254 272q0 -70 46 -110t134 -39q141 0 260 72v235q-119 4 -155 4q-147 0 -216 -46t-69 -116z
M844 692v-692h-146v70q-136 -82 -288 -82t-236 74t-84 201q0 128 116 212t337 84q88 0 151 -2v109q0 205 -229 204q-141 0 -293 -65l-33 131q176 78 348 78q173 0 265 -84t92 -238z" />
    <glyph glyph-name="ae" unicode="&#xe6;" horiz-adv-x="1574" 
d="M1319 621q0 268 -223 268q-94 1 -164 -71t-84 -197h471zM254 270q0 -147 197 -147q172 0 290 96q-41 86 -49 207q-88 6 -153 6q-285 -2 -285 -162zM487 1014q225 0 310 -142q115 148 302 148t286 -104t100 -298q0 -41 -4 -122h-639q2 -184 88 -276t240 -91q154 0 298 64
v-140q-152 -66 -321 -65q-223 0 -350 139q-162 -139 -379 -139q-156 0 -242 72t-86 203q0 130 117 213t336 83q90 0 151 -2v109q0 205 -229 204q-129 0 -293 -67l-33 133q176 78 348 78z" />
    <glyph glyph-name="ccedilla" unicode="&#xe7;" horiz-adv-x="835" 
d="M702 -205q0 -84 -72 -135t-208 -51h-92v106h94q141 0 141 60q0 49 -110 61l-39 4v94l116 -8q170 -12 170 -131zM264 496q0 -180 85 -274t209 -93q124 0 222 29v-140q-113 -31 -225 -30q-207 0 -330 127t-123 375t136 387t329 139q113 0 211 -27l-18 -139q-106 25 -197 24
q-127 0 -213 -99t-86 -279z" />
    <glyph glyph-name="egrave" unicode="&#xe8;" horiz-adv-x="991" 
d="M399 1425l203 -297h-135l-244 297h176zM735 621q0 268 -223 268q-94 1 -164 -71t-84 -197h471zM102 495q0 253 119 389t300 136t281 -104t99 -298q0 -82 -4 -122h-639q2 -184 88 -276t242 -91q156 0 297 64v-140q-156 -66 -324 -65q-215 0 -337 127t-122 380z" />
    <glyph glyph-name="eacute" unicode="&#xe9;" horiz-adv-x="991" 
d="M735 621q0 268 -223 268q-94 1 -164 -71t-84 -197h471zM102 495q0 253 119 389t300 136t281 -104t99 -298q0 -82 -4 -122h-639q2 -184 88 -276t242 -91q156 0 297 64v-140q-156 -66 -324 -65q-215 0 -337 127t-122 380zM444 1128l201 297h178l-243 -297h-136z" />
    <glyph glyph-name="ecircumflex" unicode="&#xea;" horiz-adv-x="991" 
d="M735 621q0 268 -223 268q-94 1 -164 -71t-84 -197h471zM102 495q0 253 119 389t300 136t281 -104t99 -298q0 -82 -4 -122h-639q2 -184 88 -276t242 -91q156 0 297 64v-140q-156 -66 -324 -65q-215 0 -337 127t-122 380zM231 1128l211 297h166l203 -297h-156l-123 181h-32
l-125 -181h-144z" />
    <glyph glyph-name="edieresis" unicode="&#xeb;" horiz-adv-x="991" 
d="M735 621q0 268 -223 268q-94 1 -164 -71t-84 -197h471zM102 495q0 253 119 389t300 136t281 -104t99 -298q0 -82 -4 -122h-639q2 -184 88 -276t242 -91q156 0 297 64v-140q-156 -66 -324 -65q-215 0 -337 127t-122 380zM584 1251q0 45 25 71q26 26 70 26t70 -26
q25 -26 25 -71t-26 -71t-70 -25q-94 0 -94 96zM264 1251q0 96 94 97q94 0 94 -96t-94 -97q-94 0 -94 96z" />
    <glyph glyph-name="igrave" unicode="&#xec;" horiz-adv-x="483" 
d="M121 1425l203 -297h-136l-243 297h176zM319 0h-155v995l155 13v-1008z" />
    <glyph glyph-name="iacute" unicode="&#xed;" horiz-adv-x="483" 
d="M319 0h-155v995l155 13v-1008zM166 1128l201 297h178l-244 -297h-135z" />
    <glyph glyph-name="icircumflex" unicode="&#xee;" horiz-adv-x="483" 
d="M319 0h-155v995l155 13v-1008zM-47 1128l211 297h166l202 -297h-155l-123 181h-33l-125 -181h-143z" />
    <glyph glyph-name="idieresis" unicode="&#xef;" horiz-adv-x="483" 
d="M319 0h-155v995l155 13v-1008zM307 1251q0 45 26 71q25 26 69 26t70 -26t26 -71t-26 -71t-71 -25q-94 0 -94 96zM-12 1251q0 96 94 97q94 0 94 -96t-94 -97q-94 0 -94 96z" />
    <glyph glyph-name="eth" unicode="&#xf0;" horiz-adv-x="1091" 
d="M541 885q-121 1 -199 -105t-78 -288t76 -278t199 -95q123 -1 203 107t79 278q0 170 -16 272q-104 109 -264 109zM531 -18q-201 0 -315 130t-114 374t134 388q134 145 319 146q137 0 229 -92l9 4q-39 186 -158 282l-115 -110l-69 74l94 92q-123 63 -359 0v135
q113 31 240 31t223 -58l109 105l78 -82l-93 -88q231 -197 232 -674q0 -333 -122 -495t-322 -162z" />
    <glyph glyph-name="ntilde" unicode="&#xf1;" 
d="M416 1255q-74 0 -135 -77l-48 94q84 117 201 117q56 1 144 -59t118 -60q68 -1 123 73l47 -94q-74 -113 -188 -112q-51 0 -141 59t-121 59zM782 0v657q0 97 -58 155t-172 58t-233 -51v-819h-155v995l149 13v-68q127 74 286 74t249 -88t90 -252v-674h-156z" />
    <glyph glyph-name="ograve" unicode="&#xf2;" horiz-adv-x="1110" 
d="M434 1425l203 -297h-135l-244 297h176zM264 493q0 -181 76 -277t211 -95q135 -1 215 103t80 285t-76 276t-212 95t-215 -102q-79 -104 -79 -285zM1008 515q0 -245 -136 -389t-336 -144t-317 130t-117 374t136 388q136 146 334 146q200 0 318 -130t118 -375z" />
    <glyph glyph-name="oacute" unicode="&#xf3;" horiz-adv-x="1110" 
d="M264 493q0 -181 76 -277t211 -95q135 -1 215 103t80 285t-76 276t-212 95t-215 -102q-79 -104 -79 -285zM1008 515q0 -245 -136 -389t-336 -144t-317 130t-117 374t136 388q136 146 334 146q200 0 318 -130t118 -375zM481 1128l201 297h178l-244 -297h-135z" />
    <glyph glyph-name="ocircumflex" unicode="&#xf4;" horiz-adv-x="1110" 
d="M264 493q0 -181 76 -277t211 -95q135 -1 215 103t80 285t-76 276t-212 95t-215 -102q-79 -104 -79 -285zM1008 515q0 -245 -136 -389t-336 -144t-317 130t-117 374t136 388q136 146 334 146q200 0 318 -130t118 -375zM266 1128l211 297h166l203 -297h-156l-123 181h-32
l-125 -181h-144z" />
    <glyph glyph-name="otilde" unicode="&#xf5;" horiz-adv-x="1110" 
d="M420 1255q-74 0 -135 -77l-47 94q84 117 200 117q56 1 144 -59t118 -60q68 -1 123 73l47 -94q-74 -113 -188 -112q-51 0 -141 59t-121 59zM264 493q0 -181 76 -277t211 -95q135 -1 215 103t80 285t-76 276t-212 95t-215 -102q-79 -104 -79 -285zM1008 515
q0 -245 -136 -389t-336 -144t-317 130t-117 374t136 388q136 146 334 146q200 0 318 -130t118 -375z" />
    <glyph glyph-name="odieresis" unicode="&#xf6;" horiz-adv-x="1110" 
d="M264 493q0 -181 76 -277t211 -95q135 -1 215 103t80 285t-76 276t-212 95t-215 -102q-79 -104 -79 -285zM1008 515q0 -245 -136 -389t-336 -144t-317 130t-117 374t136 388q136 146 334 146q200 0 318 -130t118 -375zM621 1251q0 45 25 71q26 26 70 26t70 -26t25 -71
q0 -45 -26 -71t-70 -25q-94 0 -94 96zM301 1251q0 96 94 97q94 0 94 -96t-94 -97q-94 0 -94 96z" />
    <glyph glyph-name="divide" unicode="&#xf7;" 
d="M449 291q0 94 94 94t94 -94t-94 -94t-94 94zM449 924q0 94 94 94t94 -94t-94 -95q-94 1 -94 95zM139 539v137h807v-137h-807z" />
    <glyph glyph-name="oslash" unicode="&#xf8;" horiz-adv-x="1110" 
d="M557 117q129 -1 210 105t81 285t-74 286l-371 -641q74 -35 154 -35zM553 885q-131 -1 -211 -105t-80 -278t64 -279l366 633q-61 29 -139 29zM1008 529q0 -259 -136 -403t-331 -144q-111 0 -207 43l-72 -125l-94 55l76 131q-142 135 -142 389t136 399t329 146
q109 0 195 -37l69 121l95 -55l-72 -123q154 -138 154 -397z" />
    <glyph glyph-name="ugrave" unicode="&#xf9;" horiz-adv-x="1079" 
d="M412 1425l202 -297h-135l-243 297h176zM305 346q0 -215 219 -215q111 0 236 51v813l155 13v-1008h-151v61q-128 -75 -282 -75t-243 87t-89 255v667l155 13v-662z" />
    <glyph glyph-name="uacute" unicode="&#xfa;" horiz-adv-x="1079" 
d="M305 346q0 -215 219 -215q111 0 236 51v813l155 13v-1008h-151v61q-128 -75 -282 -75t-243 87t-89 255v667l155 13v-662zM459 1128l200 297h179l-244 -297h-135z" />
    <glyph glyph-name="ucircumflex" unicode="&#xfb;" horiz-adv-x="1079" 
d="M305 346q0 -215 219 -215q111 0 236 51v813l155 13v-1008h-151v61q-128 -75 -282 -75t-243 87t-89 255v667l155 13v-662zM244 1128l211 297h166l202 -297h-155l-123 181h-33l-125 -181h-143z" />
    <glyph glyph-name="udieresis" unicode="&#xfc;" horiz-adv-x="1079" 
d="M305 346q0 -215 219 -215q111 0 236 51v813l155 13v-1008h-151v61q-128 -75 -282 -75t-243 87t-89 255v667l155 13v-662zM598 1251q0 45 26 71t70 26t69 -26t25 -71t-26 -71t-70 -25q-94 0 -94 96zM279 1251q0 96 94 97q94 0 94 -96t-94 -97q-94 0 -94 96z" />
    <glyph glyph-name="yacute" unicode="&#xfd;" horiz-adv-x="925" 
d="M387 1128l201 297h178l-244 -297h-135zM215 -401q-57 0 -106 12v131q55 -8 111 -8q116 0 173 162l49 143h-63l-344 962h172l278 -827h9l239 827h158l-365 -1136q-45 -143 -123 -205t-188 -61z" />
    <glyph glyph-name="thorn" unicode="&#xfe;" horiz-adv-x="1095" 
d="M487 125q154 0 249 99t95 292q0 354 -294 354q-113 0 -218 -49v-682q84 -14 168 -14zM584 1014q190 0 300 -121t110 -370t-145 -392q-144 -143 -380 -143q-84 0 -150 8v-387h-155v1810l155 13v-488q123 70 265 70z" />
    <glyph glyph-name="ydieresis" unicode="&#xff;" horiz-adv-x="925" 
d="M528 1251q0 45 26 71t70 26t70 -26t25 -71q0 -45 -26 -71t-70 -25q-95 0 -95 96zM209 1251q0 96 94 97q94 0 94 -96t-94 -97q-94 0 -94 96zM215 -401q-57 0 -106 12v131q55 -8 111 -8q116 0 173 162l49 143h-63l-344 962h172l278 -827h9l239 827h158l-365 -1136
q-45 -143 -123 -205t-188 -61z" />
    <glyph glyph-name="Amacron" unicode="&#x100;" horiz-adv-x="1161" 
d="M334 1503v117h493v-117h-493zM797 502l-211 717h-19l-215 -717h445zM713 1343l411 -1343h-180l-108 362h-525l-106 -362h-170l424 1343h254z" />
    <glyph glyph-name="amacron" unicode="&#x101;" horiz-adv-x="993" 
d="M242 1155v117h493v-117h-493zM254 272q0 -70 46 -110t134 -39q141 0 260 72v235q-119 4 -155 4q-147 0 -216 -46t-69 -116zM844 692v-692h-146v70q-136 -82 -288 -82t-236 74t-84 201q0 128 116 212t337 84q88 0 151 -2v109q0 205 -229 204q-141 0 -293 -65l-33 131
q176 78 348 78q173 0 265 -84t92 -238z" />
    <glyph glyph-name="Abreve" unicode="&#x102;" horiz-adv-x="1161" 
d="M588 1477h-17q-121 -1 -193 77t-73 220h139q0 -88 36 -138t91 -49h29q53 0 92 50t39 137h125q0 -139 -76 -218t-192 -79zM797 502l-211 717h-19l-215 -717h445zM713 1343l411 -1343h-180l-108 362h-525l-106 -362h-170l424 1343h254z" />
    <glyph glyph-name="abreve" unicode="&#x103;" horiz-adv-x="993" 
d="M496 1128h-17q-121 0 -193 78t-73 219h139q0 -88 36 -137t91 -49h29q53 0 92 50t39 136h125q0 -139 -76 -218t-192 -79zM254 272q0 -70 46 -110t134 -39q141 0 260 72v235q-119 4 -155 4q-147 0 -216 -46t-69 -116zM844 692v-692h-146v70q-136 -82 -288 -82t-236 74
t-84 201q0 128 116 212t337 84q88 0 151 -2v109q0 205 -229 204q-141 0 -293 -65l-33 131q176 78 348 78q173 0 265 -84t92 -238z" />
    <glyph glyph-name="Aogonek" unicode="&#x104;" horiz-adv-x="1161" 
d="M797 502l-211 717h-19l-215 -717h445zM938 -203q0 -76 86 -76q66 0 127 21v-104q-57 -29 -145 -29q-217 0 -218 168q0 121 168 223h-12l-108 362h-525l-106 -362h-170l424 1343h254l411 -1343h-14q-172 -104 -172 -203z" />
    <glyph glyph-name="aogonek" unicode="&#x105;" horiz-adv-x="993" 
d="M254 272q0 -70 46 -110t134 -39q141 0 260 72v233q-119 4 -155 4q-147 0 -216 -45t-69 -115zM745 -391q-217 0 -217 168q0 55 44 115t126 108v70q-136 -82 -288 -82t-236 74t-84 201q0 128 116 212t337 84q90 0 151 -2v109q0 205 -229 204q-141 0 -293 -65l-33 131
q176 78 348 78q173 0 265 -84t92 -238v-692q-166 -111 -166 -203q0 -76 88 -76q63 0 125 21v-104q-58 -29 -146 -29z" />
    <glyph glyph-name="Cacute" unicode="&#x106;" horiz-adv-x="1077" 
d="M612 1477l201 297h178l-243 -297h-136zM109 641q0 177 54 319t147 226q188 170 446 170q131 0 264 -27l-19 -143q-133 27 -253 26q-195 0 -332 -141t-137 -404t131 -401t338 -137q149 0 274 29v-140q-152 -33 -297 -32q-272 0 -444 170t-172 485z" />
    <glyph glyph-name="cacute" unicode="&#x107;" horiz-adv-x="835" 
d="M264 496q0 -180 85 -274t209 -93q124 0 222 29v-140q-113 -31 -225 -30q-207 0 -330 127t-123 375t136 387t329 139q113 0 211 -27l-18 -139q-106 25 -197 24q-127 0 -213 -99t-86 -279zM424 1128l201 297h178l-244 -297h-135z" />
    <glyph glyph-name="Ccircumflex" unicode="&#x108;" horiz-adv-x="1077" 
d="M389 1477l211 297h166l203 -297h-156l-123 180h-33l-125 -180h-143zM109 641q0 177 54 319t147 226q188 170 446 170q131 0 264 -27l-19 -143q-133 27 -253 26q-195 0 -332 -141t-137 -404t131 -401t338 -137q149 0 274 29v-140q-152 -33 -297 -32q-272 0 -444 170
t-172 485z" />
    <glyph glyph-name="ccircumflex" unicode="&#x109;" horiz-adv-x="835" 
d="M264 496q0 -180 85 -274t209 -93q124 0 222 29v-140q-113 -31 -225 -30q-207 0 -330 127t-123 375t136 387t329 139q113 0 211 -27l-18 -139q-106 25 -197 24q-127 0 -213 -99t-86 -279zM207 1128l211 297h166l202 -297h-155l-123 181h-33l-125 -181h-143z" />
    <glyph glyph-name="Cdotaccent" unicode="&#x10a;" horiz-adv-x="1077" 
d="M588 1585q0 45 25 72q26 27 73 26q98 0 98 -97t-98 -97t-98 96zM109 641q0 177 54 319t147 226q188 170 446 170q131 0 264 -27l-19 -143q-133 27 -253 26q-195 0 -332 -141t-137 -404t131 -401t338 -137q149 0 274 29v-140q-152 -33 -297 -32q-272 0 -444 170t-172 485z
" />
    <glyph glyph-name="cdotaccent" unicode="&#x10b;" horiz-adv-x="835" 
d="M406 1237q0 45 26 72q27 27 72 26q98 0 98 -97t-98 -97t-98 96zM264 496q0 -180 85 -274t209 -93q124 0 222 29v-140q-113 -31 -225 -30q-207 0 -330 127t-123 375t136 387t329 139q113 0 211 -27l-18 -139q-106 25 -197 24q-127 0 -213 -99t-86 -279z" />
    <glyph glyph-name="Ccaron" unicode="&#x10c;" horiz-adv-x="1077" 
d="M973 1774l-211 -297h-168l-201 297h156l123 -181h33l124 181h144zM109 641q0 177 54 319t147 226q188 170 446 170q131 0 264 -27l-19 -143q-133 27 -253 26q-195 0 -332 -141t-137 -404t131 -401t338 -137q149 0 274 29v-140q-152 -33 -297 -32q-272 0 -444 170
t-172 485z" />
    <glyph glyph-name="ccaron" unicode="&#x10d;" horiz-adv-x="835" 
d="M264 496q0 -180 85 -274t209 -93q124 0 222 29v-140q-113 -31 -225 -30q-207 0 -330 127t-123 375t136 387t329 139q113 0 211 -27l-18 -139q-106 25 -197 24q-127 0 -213 -99t-86 -279zM788 1425l-210 -297h-168l-201 297h156l122 -180h33l125 180h143z" />
    <glyph glyph-name="Dcaron" unicode="&#x10e;" horiz-adv-x="1339" 
d="M950 1774l-211 -297h-168l-200 297h155l123 -181h33l125 181h143zM362 1204v-1065h207q229 -1 361 139t131 406q0 266 -135 393t-381 127h-183zM567 0h-366v1343h356q322 1 498 -161t176 -490t-178 -511q-179 -181 -486 -181z" />
    <glyph glyph-name="dcaron" unicode="&#x10f;" horiz-adv-x="1095" 
d="M594 877q-152 -1 -241 -103t-89 -282t80 -271q80 -92 206 -92t226 64v667q-98 17 -182 17zM932 0h-152v66q-111 -78 -256 -78q-188 0 -305 127t-117 371t140 385q140 142 364 143q109 0 170 -23v428l156 13v-1432zM1042 1316q0 58 28 87t71 29t69 -29t25 -84
q0 -55 -35 -134t-82 -130h-71l51 176q-56 27 -56 85z" />
    <glyph glyph-name="Dcroat" unicode="&#x110;" horiz-adv-x="1339" 
d="M362 1204v-442h254v-129h-254v-494h207q229 -1 361 139t131 406q0 266 -135 393t-381 127h-183zM567 0h-366v633h-135v129h135v581h356q322 1 498 -161t176 -490t-178 -511q-179 -181 -486 -181z" />
    <glyph glyph-name="dcroat" unicode="&#x111;" horiz-adv-x="1095" 
d="M594 877q-152 -1 -241 -103t-89 -282t80 -271q80 -92 206 -92t226 64v667q-98 17 -182 17zM932 1266h139v-121h-139v-1145h-152v66q-111 -78 -256 -78q-188 0 -305 127t-117 371t140 385q140 142 364 143q109 0 170 -23v154h-207v121h207v153l156 13v-166z" />
    <glyph glyph-name="Emacron" unicode="&#x112;" horiz-adv-x="1001" 
d="M264 1503v117h494v-117h-494zM201 0v1343h663v-141h-502v-440h453v-141h-453v-480h508v-141h-669z" />
    <glyph glyph-name="emacron" unicode="&#x113;" horiz-adv-x="991" 
d="M274 1155v117h494v-117h-494zM735 621q0 268 -223 268q-94 1 -164 -71t-84 -197h471zM102 495q0 253 119 389t300 136t281 -104t99 -298q0 -82 -4 -122h-639q2 -184 88 -276t242 -91q156 0 297 64v-140q-156 -66 -324 -65q-215 0 -337 127t-122 380z" />
    <glyph glyph-name="Ebreve" unicode="&#x114;" horiz-adv-x="1001" 
d="M518 1477h-16q-121 -1 -194 77t-72 220h139q0 -88 36 -138t91 -49h28q53 0 93 50q39 50 39 137h124q0 -139 -75 -219q-76 -78 -193 -78zM201 0v1343h663v-141h-502v-440h453v-141h-453v-480h508v-141h-669z" />
    <glyph glyph-name="ebreve" unicode="&#x115;" horiz-adv-x="991" 
d="M528 1128h-16q-121 0 -194 78t-72 219h139q0 -88 36 -137t91 -49h29q53 0 92 50t39 136h125q0 -139 -76 -218t-193 -79zM735 621q0 268 -223 268q-94 1 -164 -71t-84 -197h471zM102 495q0 253 119 389t300 136t281 -104t99 -298q0 -82 -4 -122h-639q2 -184 88 -276
t242 -91q156 0 297 64v-140q-156 -66 -324 -65q-215 0 -337 127t-122 380z" />
    <glyph glyph-name="Edotaccent" unicode="&#x116;" horiz-adv-x="1001" 
d="M412 1585q0 45 25 72q26 27 73 26q98 0 98 -97t-98 -97t-98 96zM201 0v1343h663v-141h-502v-440h453v-141h-453v-480h508v-141h-669z" />
    <glyph glyph-name="edotaccent" unicode="&#x117;" horiz-adv-x="991" 
d="M422 1237q0 45 27 72t71 26q98 0 98 -97t-98 -97t-98 96zM735 621q0 268 -223 268q-94 1 -164 -71t-84 -197h471zM102 495q0 253 119 389t300 136t281 -104t99 -298q0 -82 -4 -122h-639q2 -184 88 -276t242 -91q156 0 297 64v-140q-156 -66 -324 -65q-215 0 -337 127
t-122 380z" />
    <glyph glyph-name="Eogonek" unicode="&#x118;" horiz-adv-x="1001" 
d="M201 0v1343h663v-141h-502v-440h453v-141h-453v-480h508v-141h-204q-174 -104 -174 -203q0 -76 86 -76q66 0 127 21v-104q-57 -29 -146 -29q-217 0 -217 168q0 55 44 115t126 108h-311z" />
    <glyph glyph-name="eogonek" unicode="&#x119;" horiz-adv-x="991" 
d="M735 621q0 268 -223 268q-94 1 -164 -71t-84 -197h471zM102 505q0 243 119 379t300 136t281 -104t99 -298q0 -82 -4 -122h-639q2 -184 88 -276t242 -91q156 0 297 64v-140q-127 -55 -246 -63q-152 -102 -152 -193q0 -76 88 -76q63 0 125 21v-104q-57 -29 -145 -29
q-217 0 -217 168q0 117 156 215q-184 18 -288 144t-104 369z" />
    <glyph glyph-name="Ecaron" unicode="&#x11a;" horiz-adv-x="1001" 
d="M803 1774l-211 -297h-168l-201 297h156l123 -181h33l124 181h144zM201 0v1343h663v-141h-502v-440h453v-141h-453v-480h508v-141h-669z" />
    <glyph glyph-name="ecaron" unicode="&#x11b;" horiz-adv-x="991" 
d="M735 621q0 268 -223 268q-94 1 -164 -71t-84 -197h471zM102 495q0 253 119 389t300 136t281 -104t99 -298q0 -82 -4 -122h-639q2 -184 88 -276t242 -91q156 0 297 64v-140q-156 -66 -324 -65q-215 0 -337 127t-122 380zM811 1425l-211 -297h-168l-201 297h156l123 -180
h33l125 180h143z" />
    <glyph glyph-name="Gcircumflex" unicode="&#x11c;" horiz-adv-x="1284" 
d="M397 1477l211 297h166l203 -297h-156l-123 180h-32l-125 -180h-144zM717 494v141h407v-612q-186 -37 -383 -37q-274 0 -453 171t-179 484q0 183 60 325q59 142 161 225q202 165 477 165q137 0 291 -27l-19 -143q-176 27 -278 26q-219 0 -371 -138t-152 -404t139 -404
q138 -138 343 -139q115 0 205 12v355h-248z" />
    <glyph glyph-name="gcircumflex" unicode="&#x11d;" horiz-adv-x="1015" 
d="M209 -111q0 -77 73 -119t205 -42q330 0 330 174q0 55 -36 82t-119 30l-343 17q-110 -40 -110 -142zM483 426q123 0 181 56q57 56 57 174q0 230 -227 233q-111 1 -171 -59t-61 -177q0 -227 221 -227zM287 244q0 -82 125 -84l268 -8q274 -8 274 -220q0 -150 -123 -240
t-335 -91t-320 71q-109 72 -108 191q0 68 47 128t116 91v8q-80 41 -79 125q0 45 29 84q30 39 79 57v6q-154 78 -154 264t106 286q106 99 294 100q92 0 153 -17h308v-116h-189v-7q98 -68 98 -226t-107 -248q-108 -89 -304 -89q-63 0 -113 13q-27 -8 -46 -30t-19 -48z
M223 1128l211 297h166l203 -297h-156l-123 181h-32l-125 -181h-144z" />
    <glyph glyph-name="Gbreve" unicode="&#x11e;" horiz-adv-x="1284" 
d="M705 1477h-17q-122 -1 -194 77t-72 220h139q0 -88 36 -138t91 -49h29q53 0 92 50t39 137h125q1 -139 -75 -218t-193 -79zM717 494v141h407v-612q-186 -37 -383 -37q-274 0 -453 171t-179 484q0 183 60 325q59 142 161 225q202 165 477 165q137 0 291 -27l-19 -143
q-176 27 -278 26q-219 0 -371 -138t-152 -404t139 -404q138 -138 343 -139q115 0 205 12v355h-248z" />
    <glyph glyph-name="gbreve" unicode="&#x11f;" horiz-adv-x="1015" 
d="M520 1128h-16q-121 0 -194 78t-72 219h139q0 -88 36 -137t91 -49h28q53 0 93 50q39 50 39 136h124q0 -139 -76 -218t-192 -79zM209 -111q0 -77 73 -119t205 -42q330 0 330 174q0 55 -36 82t-119 30l-343 17q-110 -40 -110 -142zM483 426q123 0 181 56q57 56 57 174
q0 230 -227 233q-111 1 -171 -59t-61 -177q0 -227 221 -227zM287 244q0 -82 125 -84l268 -8q274 -8 274 -220q0 -150 -123 -240t-335 -91t-320 71q-109 72 -108 191q0 68 47 128t116 91v8q-80 41 -79 125q0 45 29 84q30 39 79 57v6q-154 78 -154 264t106 286q106 99 294 100
q92 0 153 -17h308v-116h-189v-7q98 -68 98 -226t-107 -248q-108 -89 -304 -89q-63 0 -113 13q-27 -8 -46 -30t-19 -48z" />
    <glyph glyph-name="Gdotaccent" unicode="&#x120;" horiz-adv-x="1284" 
d="M604 1585q0 45 26 72t72 26q98 0 99 -98q-1 -96 -99 -96t-98 96zM717 494v141h407v-612q-186 -37 -383 -37q-274 0 -453 171t-179 484q0 183 60 325q59 142 161 225q202 165 477 165q137 0 291 -27l-19 -143q-176 27 -278 26q-219 0 -371 -138t-152 -404t139 -404
q138 -138 343 -139q115 0 205 12v355h-248z" />
    <glyph glyph-name="gdotaccent" unicode="&#x121;" horiz-adv-x="1015" 
d="M414 1237q0 45 26 72q27 27 72 26q98 0 98 -97t-98 -97t-98 96zM209 -111q0 -77 73 -119t205 -42q330 0 330 174q0 55 -36 82t-119 30l-343 17q-110 -40 -110 -142zM483 426q123 0 181 56q57 56 57 174q0 230 -227 233q-111 1 -171 -59t-61 -177q0 -227 221 -227z
M287 244q0 -82 125 -84l268 -8q274 -8 274 -220q0 -150 -123 -240t-335 -91t-320 71q-109 72 -108 191q0 68 47 128t116 91v8q-80 41 -79 125q0 45 29 84q30 39 79 57v6q-154 78 -154 264t106 286q106 99 294 100q92 0 153 -17h308v-116h-189v-7q98 -68 98 -226t-107 -248
q-108 -89 -304 -89q-63 0 -113 13q-27 -8 -46 -30t-19 -48z" />
    <glyph glyph-name="Gcommaaccent" unicode="&#x122;" horiz-adv-x="1284" 
d="M717 494v141h407v-612q-186 -37 -383 -37q-274 0 -453 171t-179 484q0 183 60 325q59 142 161 225q202 165 477 165q137 0 291 -27l-19 -143q-176 27 -278 26q-219 0 -371 -138t-152 -404t139 -404q138 -138 343 -139q115 0 205 12v355h-248zM606 -214q0 58 28 87t73 29
t71 -29t25 -86q0 -57 -36 -145t-83 -138h-74l54 193q-58 31 -58 89z" />
    <glyph glyph-name="gcommaaccent" unicode="&#x123;" horiz-adv-x="1015" 
d="M209 -111q0 -77 73 -119t205 -42q330 0 330 174q0 55 -36 82t-119 30l-343 17q-110 -40 -110 -142zM483 426q123 0 181 56q57 56 57 174q0 230 -227 233q-111 1 -171 -59t-61 -177q0 -227 221 -227zM287 244q0 -82 125 -84l268 -8q274 -8 274 -220q0 -150 -123 -240
t-335 -91t-320 71q-109 72 -108 191q0 68 47 128t116 91v8q-80 41 -79 125q0 45 29 84q30 39 79 57v6q-154 78 -154 264t106 286q106 99 294 100q92 0 153 -17h308v-116h-189v-7q98 -68 98 -226t-107 -248q-108 -89 -304 -89q-63 0 -113 13q-27 -8 -46 -30t-19 -48z
M575 1212q1 -58 -27 -86t-71 -28t-69 28t-25 84q0 54 35 134t82 131h71l-51 -177q55 -28 55 -86z" />
    <glyph glyph-name="Hcircumflex" unicode="&#x124;" horiz-adv-x="1339" 
d="M379 1477l211 297h166l202 -297h-155l-123 180h-33l-125 -180h-143zM977 0v616h-615v-616h-161v1343h161v-583h615v583h162v-1343h-162z" />
    <glyph glyph-name="hcircumflex" unicode="&#x125;" 
d="M782 0v657q0 97 -58 155t-172 58t-233 -51v-819h-155v1419l155 13v-488q125 70 282 70t247 -88t90 -252v-674h-156zM-43 1485l211 297h166l203 -297h-156l-123 180h-33l-125 -180h-143z" />
    <glyph glyph-name="Hbar" unicode="&#x126;" horiz-adv-x="1339" 
d="M360 760h619v229h-619v-229zM76 989v115h125v239h161v-239h615v239h162v-239h125v-115h-125v-989h-162v616h-615v-616h-161v989h-125z" />
    <glyph glyph-name="hbar" unicode="&#x127;" 
d="M25 1141v119h139v159l155 13v-172h211v-119h-211v-197q125 70 282 70t247 -88t90 -252v-674h-156v657q0 97 -58 155t-172 58t-233 -51v-819h-155v1141h-139z" />
    <glyph glyph-name="Itilde" unicode="&#x128;" horiz-adv-x="561" 
d="M408 1464q-52 0 -142 60t-121 59q-74 0 -135 -78l-47 94q84 117 201 117q57 0 144 -59t118 -60q68 0 123 74l47 -94q-74 -113 -188 -113zM362 1343v-1343h-161v1343h161z" />
    <glyph glyph-name="itilde" unicode="&#x129;" horiz-adv-x="483" 
d="M106 1255q-74 0 -135 -77l-47 94q84 117 201 117q57 1 144 -59t118 -60q68 -1 123 73l47 -94q-74 -113 -188 -112q-51 0 -141 59t-122 59zM319 0h-155v995l155 13v-1008z" />
    <glyph glyph-name="Imacron" unicode="&#x12a;" horiz-adv-x="561" 
d="M35 1503v117h493v-117h-493zM362 1343v-1343h-161v1343h161z" />
    <glyph glyph-name="imacron" unicode="&#x12b;" horiz-adv-x="483" 
d="M-4 1155v117h493v-117h-493zM319 0h-155v995l155 13v-1008z" />
    <glyph glyph-name="Ibreve" unicode="&#x12c;" horiz-adv-x="561" 
d="M289 1477h-17q-122 -1 -194 77t-72 220h139q0 -88 36 -138t91 -49h29q53 0 92 50t39 137h125q1 -139 -75 -218t-193 -79zM362 1343v-1343h-161v1343h161z" />
    <glyph glyph-name="ibreve" unicode="&#x12d;" horiz-adv-x="483" 
d="M250 1128h-17q-121 0 -193 78t-73 219h139q0 -88 36 -137t91 -49h29q53 0 92 50t39 136h125q0 -139 -76 -218t-192 -79zM319 0h-155v995l155 13v-1008z" />
    <glyph glyph-name="Iogonek" unicode="&#x12e;" horiz-adv-x="561" 
d="M201 0v1343h161v-1343h-2q-174 -106 -174 -203q0 -76 88 -76q63 0 125 21v-104q-57 -29 -145 -29q-217 0 -217 168q0 55 44 115t126 108h-6z" />
    <glyph glyph-name="iogonek" unicode="&#x12f;" horiz-adv-x="483" 
d="M141 1330q0 46 27 73t74 27q46 0 72 -27t26 -74t-27 -73t-73 -26t-72 28q-27 26 -27 72zM164 0v995l155 13v-1008q-166 -111 -165 -203q0 -76 88 -76q63 0 125 21v-104q-57 -29 -146 -29q-217 0 -217 168q0 55 44 115t126 108h-10z" />
    <glyph glyph-name="Idotaccent" unicode="&#x130;" horiz-adv-x="561" 
d="M182 1585q0 45 26 72t73 26q98 0 98 -97q-1 -97 -99 -97t-98 96zM362 1343v-1343h-161v1343h161z" />
    <glyph glyph-name="dotlessi" unicode="&#x131;" horiz-adv-x="483" 
d="M319 0h-155v995l155 13v-1008z" />
    <glyph glyph-name="IJ" unicode="&#x132;" horiz-adv-x="1226" 
d="M1032 1343v-1013q0 -164 -91 -253t-241 -89q-70 0 -104 8v143q42 -8 112 -8t116 51t46 152v1009h162zM362 1343v-1343h-161v1343h161z" />
    <glyph glyph-name="ij" unicode="&#x133;" horiz-adv-x="966" 
d="M625 1330q0 46 26 73q27 27 74 27t73 -27t26 -74t-28 -73q-26 -26 -72 -26t-73 27q-26 27 -26 73zM803 -57q0 -150 -80 -235t-215 -109l-21 133q84 26 122 74t38 137v1052l156 13v-1065zM141 1330q0 46 27 73t74 27q46 0 72 -27t26 -74t-27 -73t-73 -26t-72 28
q-27 26 -27 72zM319 0h-155v995l155 13v-1008z" />
    <glyph glyph-name="Jcircumflex" unicode="&#x134;" horiz-adv-x="665" 
d="M100 1477l211 297h166l203 -297h-156l-123 180h-32l-125 -180h-144zM471 1343v-1013q0 -164 -91 -253t-241 -89q-70 0 -104 8v143q41 -8 111 -8t117 51q46 51 46 152v1009h162z" />
    <glyph glyph-name="jcircumflex" unicode="&#x135;" horiz-adv-x="483" 
d="M319 -57q1 -150 -79 -235t-215 -109l-21 133q84 26 122 74t38 137v1052l155 13v-1065zM-47 1128l211 297h166l202 -297h-155l-123 181h-33l-125 -181h-143z" />
    <glyph glyph-name="Kcommaaccent" unicode="&#x136;" horiz-adv-x="1210" 
d="M584 -214q0 58 27 87q28 29 73 29t71 -29q25 -29 25 -86t-36 -145t-82 -138h-74l53 193q-57 31 -57 89zM201 1343h161v-585h115l479 585h191l-524 -634l538 -709h-209l-469 614h-121v-614h-161v1343z" />
    <glyph glyph-name="kcommaaccent" unicode="&#x137;" horiz-adv-x="976" 
d="M473 -214q0 58 28 87q29 29 71 29t68 -29t26 -84t-35 -134t-82 -130h-72l51 176q-55 27 -55 85zM319 479v-479h-155v1419l155 13v-818h91l333 387h193l-389 -432l424 -569h-195l-352 479h-105z" />
    <glyph glyph-name="Lacute" unicode="&#x139;" horiz-adv-x="921" 
d="M193 1477l200 297h178l-243 -297h-135zM201 0v1343h161v-1202h506v-141h-667z" />
    <glyph glyph-name="lacute" unicode="&#x13a;" horiz-adv-x="483" 
d="M319 0h-155v1419l155 13v-1432zM162 1544l200 297h179l-244 -297h-135z" />
    <glyph glyph-name="Lcommaaccent" unicode="&#x13b;" horiz-adv-x="921" 
d="M436 -214q0 58 28 87t73 29t71 -29t25 -86q0 -57 -36 -145t-83 -138h-74l54 193q-58 31 -58 89zM201 0v1343h161v-1202h506v-141h-667z" />
    <glyph glyph-name="lcommaaccent" unicode="&#x13c;" horiz-adv-x="483" 
d="M319 0h-155v1419l155 13v-1432zM147 -214q0 58 28 87t71 29q42 0 68 -29t26 -84t-35 -134t-82 -130h-71l51 176q-56 27 -56 85z" />
    <glyph glyph-name="Lcaron" unicode="&#x13d;" horiz-adv-x="921" 
d="M545 1228q0 58 27 87q28 29 73 29t71 -30q57 -62 -10 -231q-36 -88 -83 -137h-74l53 193q-57 31 -57 89zM201 0v1343h161v-1202h506v-141h-667z" />
    <glyph glyph-name="lcaron" unicode="&#x13e;" horiz-adv-x="483" 
d="M319 0h-155v1419l155 13v-1432zM430 1316q0 58 28 87t70 29t69 -29q26 -29 26 -84t-35 -134t-82 -130h-72l51 176q-55 27 -55 85z" />
    <glyph glyph-name="Ldot" unicode="&#x13f;" horiz-adv-x="921" 
d="M526 672q0 46 26 72t73 26q98 0 98 -97q-1 -97 -99 -97t-98 96zM201 0v1343h161v-1202h506v-141h-667z" />
    <glyph glyph-name="ldot" unicode="&#x140;" horiz-adv-x="550" 
d="M401 707q0 47 27 73t72 25q98 0 98 -97t-98 -97t-99 96zM319 0h-155v1419l155 13v-1432z" />
    <glyph glyph-name="Lslash" unicode="&#x141;" horiz-adv-x="921" 
d="M201 1343h161v-606l222 131v-145l-222 -129v-453h506v-141h-667v502l-152 -86v143l152 86v698z" />
    <glyph glyph-name="lslash" unicode="&#x142;" horiz-adv-x="483" 
d="M319 0h-155v573l-125 -71v141l125 72v704l155 13v-627l140 82v-144l-140 -81v-662z" />
    <glyph glyph-name="Nacute" unicode="&#x143;" horiz-adv-x="1339" 
d="M596 1477l201 297h178l-244 -297h-135zM352 1176v-1176h-151v1343h250l528 -1175h10v1175h152v-1343h-252l-529 1176h-8z" />
    <glyph glyph-name="nacute" unicode="&#x144;" 
d="M782 0v657q0 97 -58 155t-172 58t-233 -51v-819h-155v995l149 13v-68q127 74 286 74t249 -88t90 -252v-674h-156zM475 1128l201 297h178l-244 -297h-135z" />
    <glyph glyph-name="Ncommaaccent" unicode="&#x145;" horiz-adv-x="1339" 
d="M352 1176v-1176h-151v1343h250l528 -1175h10v1175h152v-1343h-252l-529 1176h-8zM573 -214q0 58 28 87t73 29q44 0 70 -29t26 -86t-36 -145t-83 -138h-73l53 193q-58 31 -58 89z" />
    <glyph glyph-name="ncommaaccent" unicode="&#x146;" 
d="M782 0v657q0 97 -58 155t-172 58t-233 -51v-819h-155v995l149 13v-68q127 74 286 74t249 -88t90 -252v-674h-156zM457 -214q0 58 27 87q28 29 71 29t69 -29t26 -84t-36 -134q-35 -79 -82 -130h-71l51 176q-55 27 -55 85z" />
    <glyph glyph-name="Ncaron" unicode="&#x147;" horiz-adv-x="1339" 
d="M963 1774l-211 -297h-168l-201 297h156l123 -181h32l125 181h144zM352 1176v-1176h-151v1343h250l528 -1175h10v1175h152v-1343h-252l-529 1176h-8z" />
    <glyph glyph-name="ncaron" unicode="&#x148;" 
d="M782 0v657q0 97 -58 155t-172 58t-233 -51v-819h-155v995l149 13v-68q127 74 286 74t249 -88t90 -252v-674h-156zM842 1425l-211 -297h-168l-201 297h156l123 -180h32l125 180h144z" />
    <glyph glyph-name="napostrophe" unicode="&#x149;" 
d="M782 0v657q0 97 -58 155t-172 58t-233 -51v-819h-155v995l149 13v-68q127 74 286 74t249 -88t90 -252v-674h-156zM145 1318q0 58 28 87t71 29q42 0 68 -29t26 -84t-35 -134t-82 -130h-71l51 176q-56 27 -56 85z" />
    <glyph glyph-name="Eng" unicode="&#x14a;" horiz-adv-x="1339" 
d="M352 1171v-1171h-151v1343h250l528 -1175h10v1175h152v-1394q-2 -162 -90 -250t-236 -88q-70 0 -104 8v143q41 -8 111 -8t120 49q49 49 49 148v49h-102l-529 1171h-8z" />
    <glyph glyph-name="eng" unicode="&#x14b;" 
d="M938 674v-731q0 -147 -80 -233t-215 -111l-20 127q160 51 159 217v714q0 97 -58 155t-170 58t-235 -47v-823h-155v995l149 13v-68q139 74 292 74t243 -88t90 -252z" />
    <glyph glyph-name="Omacron" unicode="&#x14c;" horiz-adv-x="1366" 
d="M436 1503v117h494v-117h-494zM279 674q-1 -280 111 -414q112 -133 285 -133t293 131t120 413q0 281 -112 413t-285 132t-293 -130q-120 -132 -119 -412zM109 661q0 327 167 514q168 187 419 187t406 -176t155 -504t-166 -514t-418 -186t-408 176q-155 176 -155 503z" />
    <glyph glyph-name="omacron" unicode="&#x14d;" horiz-adv-x="1110" 
d="M264 493q0 -181 76 -277t211 -95q135 -1 215 103t80 285t-76 276t-212 95t-215 -102q-79 -104 -79 -285zM1008 515q0 -245 -136 -389t-336 -144t-317 130t-117 374t136 388q136 146 334 146q200 0 318 -130t118 -375zM309 1155v117h494v-117h-494z" />
    <glyph glyph-name="Obreve" unicode="&#x14e;" horiz-adv-x="1366" 
d="M690 1477h-16q-121 -1 -194 77t-72 220h139q0 -88 36 -138t91 -49h28q53 0 93 50q39 50 39 137h124q0 -139 -75 -219q-76 -78 -193 -78zM279 674q-1 -280 111 -414q112 -133 285 -133t293 131t120 413q0 281 -112 413t-285 132t-293 -130q-120 -132 -119 -412zM109 661
q0 327 167 514q168 187 419 187t406 -176t155 -504t-166 -514t-418 -186t-408 176q-155 176 -155 503z" />
    <glyph glyph-name="obreve" unicode="&#x14f;" horiz-adv-x="1110" 
d="M563 1128h-16q-121 0 -194 78t-72 219h139q0 -88 36 -137t91 -49h28q53 0 93 50q39 50 39 136h124q1 -139 -75 -218t-193 -79zM264 493q0 -181 76 -277t211 -95q135 -1 215 103t80 285t-76 276t-212 95t-215 -102q-79 -104 -79 -285zM1008 515q0 -245 -136 -389
t-336 -144t-317 130t-117 374t136 388q136 146 334 146q200 0 318 -130t118 -375z" />
    <glyph glyph-name="Ohungarumlaut" unicode="&#x150;" horiz-adv-x="1366" 
d="M754 1477l227 297h168l-262 -297h-133zM432 1477l227 297h168l-262 -297h-133zM279 674q-1 -280 111 -414q112 -133 285 -133t293 131t120 413q0 281 -112 413t-285 132t-293 -130q-120 -132 -119 -412zM109 661q0 327 167 514q168 187 419 187t406 -176t155 -504
t-166 -514t-418 -186t-408 176q-155 176 -155 503z" />
    <glyph glyph-name="ohungarumlaut" unicode="&#x151;" horiz-adv-x="1110" 
d="M264 493q0 -181 76 -277t211 -95q135 -1 215 103t80 285t-76 276t-212 95t-215 -102q-79 -104 -79 -285zM1008 515q0 -245 -136 -389t-336 -144t-317 130t-117 374t136 388q136 146 334 146q200 0 318 -130t118 -375zM625 1128l227 297h168l-262 -297h-133zM303 1128
l227 297h168l-262 -297h-133z" />
    <glyph glyph-name="OE" unicode="&#x152;" horiz-adv-x="1835" 
d="M279 674q-1 -280 111 -414q112 -133 292 -133q102 0 196 48t154 142v715q-113 184 -348 185q-166 1 -286 -131t-119 -412zM1032 0v117q-144 -135 -378 -135t-390 176t-156 503t168 514t424 187q197 0 332 -117v98h664v-141h-502v-440h453v-141h-453v-480h508v-141h-670z
" />
    <glyph glyph-name="oe" unicode="&#x153;" horiz-adv-x="1712" 
d="M1456 621q0 268 -223 268q-94 1 -164 -71t-84 -197h471zM264 493q0 -181 75 -277t207 -95q132 -1 210 103t78 285t-75 276t-207 95t-210 -102q-78 -104 -78 -285zM561 1020q240 0 350 -178q117 178 330 178q181 0 281 -104t100 -298q0 -41 -4 -122h-639q2 -184 87 -276
q84 -92 240 -91q156 0 300 64l-2 -140q-152 -66 -322 -65q-266 0 -383 190q-61 -94 -157 -145t-207 -51q-201 0 -317 130t-116 374t134 388q134 146 325 146z" />
    <glyph glyph-name="Racute" unicode="&#x154;" horiz-adv-x="1157" 
d="M487 1477l201 297h178l-243 -297h-136zM362 1206v-508h189q139 0 217 65t78 195q0 248 -303 248h-181zM362 561v-561h-161v1343h352q221 0 341 -97q120 -98 120 -252t-69 -252t-191 -144l356 -598h-188l-328 561h-232z" />
    <glyph glyph-name="racute" unicode="&#x155;" horiz-adv-x="677" 
d="M514 862q-90 0 -195 -104v-758h-155v995l153 13v-117q106 123 213 123q58 -1 117 -15l-18 -153q-59 16 -115 16zM332 1128l200 297h179l-244 -297h-135z" />
    <glyph glyph-name="Rcommaaccent" unicode="&#x156;" horiz-adv-x="1157" 
d="M528 -214q0 58 28 87t73 29t71 -29t25 -86q0 -57 -36 -145t-83 -138h-74l54 193q-58 31 -58 89zM362 1206v-508h189q139 0 217 65t78 195q0 248 -303 248h-181zM362 561v-561h-161v1343h352q221 0 341 -97q120 -98 120 -252t-69 -252t-191 -144l356 -598h-188l-328 561
h-232z" />
    <glyph glyph-name="rcommaaccent" unicode="&#x157;" horiz-adv-x="677" 
d="M143 -214q0 58 28 87t71 29q42 0 68 -29t26 -84t-35 -134t-82 -130h-72l52 176q-56 27 -56 85zM514 862q-90 0 -195 -104v-758h-155v995l153 13v-117q106 123 213 123q58 -1 117 -15l-18 -153q-59 16 -115 16z" />
    <glyph glyph-name="Rcaron" unicode="&#x158;" horiz-adv-x="1157" 
d="M862 1774l-211 -297h-168l-200 297h155l123 -181h33l125 181h143zM362 1206v-508h189q139 0 217 65t78 195q0 248 -303 248h-181zM362 561v-561h-161v1343h352q221 0 341 -97q120 -98 120 -252t-69 -252t-191 -144l356 -598h-188l-328 561h-232z" />
    <glyph glyph-name="rcaron" unicode="&#x159;" horiz-adv-x="677" 
d="M514 862q-90 0 -195 -104v-758h-155v995l153 13v-117q106 123 213 123q58 -1 117 -15l-18 -153q-59 16 -115 16zM696 1425l-211 -297h-168l-200 297h155l123 -180h33l125 180h143z" />
    <glyph glyph-name="Sacute" unicode="&#x15a;" horiz-adv-x="1024" 
d="M434 1477l201 297h178l-244 -297h-135zM427 129q148 0 235 66q86 66 86 161t-48 148t-163 92l-166 57q-115 39 -181 120t-65 198q0 169 127 277t340 108q147 0 270 -25l-16 -143q-131 26 -267 26t-214 -60t-78 -148t42 -134q42 -47 140 -79l172 -58q137 -47 203 -129
t65 -211q0 -184 -134 -296t-357 -111q-164 -1 -309 28v150q170 -37 318 -37z" />
    <glyph glyph-name="sacute" unicode="&#x15b;" horiz-adv-x="827" 
d="M346 127q131 0 190 41q58 41 58 103q0 61 -39 99t-129 62l-117 35q-213 61 -213 256q0 125 100 208t254 83q152 0 252 -23l-16 -137q-102 20 -216 20t-169 -38t-55 -96t34 -91t107 -53l117 -31q242 -63 241 -256q0 -143 -105 -232t-269 -89t-287 32v144q131 -37 262 -37z
M340 1128l201 297h178l-244 -297h-135z" />
    <glyph glyph-name="Scircumflex" unicode="&#x15c;" horiz-adv-x="1024" 
d="M221 1477l211 297h166l203 -297h-156l-123 180h-33l-124 -180h-144zM427 129q148 0 235 66q86 66 86 161t-48 148t-163 92l-166 57q-115 39 -181 120t-65 198q0 169 127 277t340 108q147 0 270 -25l-16 -143q-131 26 -267 26t-214 -60t-78 -148t42 -134q42 -47 140 -79
l172 -58q137 -47 203 -129t65 -211q0 -184 -134 -296t-357 -111q-164 -1 -309 28v150q170 -37 318 -37z" />
    <glyph glyph-name="scircumflex" unicode="&#x15d;" horiz-adv-x="827" 
d="M346 127q131 0 190 41q58 41 58 103q0 61 -39 99t-129 62l-117 35q-213 61 -213 256q0 125 100 208t254 83q152 0 252 -23l-16 -137q-102 20 -216 20t-169 -38t-55 -96t34 -91t107 -53l117 -31q242 -63 241 -256q0 -143 -105 -232t-269 -89t-287 32v144q131 -37 262 -37z
M127 1128l211 297h166l203 -297h-156l-123 181h-33l-125 -181h-143z" />
    <glyph glyph-name="Scedilla" unicode="&#x15e;" horiz-adv-x="1024" 
d="M711 -205q0 -82 -80 -134t-215 -52h-105v112h107q147 0 147 56q0 43 -123 55l-47 6v101l119 -11q197 -14 197 -133zM427 129q148 0 235 66q86 66 86 161t-48 148t-163 92l-166 57q-115 39 -181 120t-65 198q0 169 127 277t340 108q147 0 270 -25l-16 -143
q-131 26 -267 26t-214 -60t-78 -148t42 -134q42 -47 140 -79l172 -58q137 -47 203 -129t65 -211q0 -184 -134 -296t-357 -111q-164 -1 -309 28v150q170 -37 318 -37z" />
    <glyph glyph-name="scedilla" unicode="&#x15f;" horiz-adv-x="827" 
d="M598 -205q0 -84 -73 -135t-208 -51h-92v106h94q141 0 142 60q0 49 -111 61l-39 4v94l117 -8q170 -12 170 -131zM346 127q131 0 190 41q58 41 58 103q0 61 -39 99t-129 62l-117 35q-213 61 -213 256q0 125 100 208t254 83q152 0 252 -23l-16 -137q-102 20 -216 20
t-169 -38t-55 -96t34 -91t107 -53l117 -31q242 -63 241 -256q0 -143 -105 -232t-269 -89t-287 32v144q131 -37 262 -37z" />
    <glyph glyph-name="Scaron" unicode="&#x160;" horiz-adv-x="1024" 
d="M801 1774l-211 -297h-168l-201 297h156l123 -181h32l125 181h144zM427 129q148 0 235 66q86 66 86 161t-48 148t-163 92l-166 57q-115 39 -181 120t-65 198q0 169 127 277t340 108q147 0 270 -25l-16 -143q-131 26 -267 26t-214 -60t-78 -148t42 -134q42 -47 140 -79
l172 -58q137 -47 203 -129t65 -211q0 -184 -134 -296t-357 -111q-164 -1 -309 28v150q170 -37 318 -37z" />
    <glyph glyph-name="scaron" unicode="&#x161;" horiz-adv-x="827" 
d="M346 127q131 0 190 41q58 41 58 103q0 61 -39 99t-129 62l-117 35q-213 61 -213 256q0 125 100 208t254 83q152 0 252 -23l-16 -137q-102 20 -216 20t-169 -38t-55 -96t34 -91t107 -53l117 -31q242 -63 241 -256q0 -143 -105 -232t-269 -89t-287 32v144q131 -37 262 -37z
M707 1425l-211 -297h-168l-201 297h156l123 -180h32l125 180h144z" />
    <glyph glyph-name="Tcommaaccent" unicode="&#x162;" horiz-adv-x="1075" 
d="M440 -214q0 58 28 87t73 29t71 -29t25 -86q0 -57 -36 -145t-83 -138h-74l54 193q-58 31 -58 89zM618 1202v-1202h-161v1202h-394v141h949v-141h-394z" />
    <glyph glyph-name="tcommaaccent" unicode="&#x163;" horiz-adv-x="679" 
d="M74 874v127h121v177l153 22v-199h262v-127h-262v-563q0 -92 43 -138t113 -46t137 16v-133q-88 -23 -174 -22q-272 0 -272 313v573h-121zM322 -214q0 58 27 87q28 29 71 29q42 0 68 -29t26 -84t-35 -134t-82 -130h-71l51 176q-55 27 -55 85z" />
    <glyph glyph-name="Tcaron" unicode="&#x164;" horiz-adv-x="1075" 
d="M829 1774l-211 -297h-167l-201 297h156l122 -181h33l125 181h143zM618 1202v-1202h-161v1202h-394v141h949v-141h-394z" />
    <glyph glyph-name="tcaron" unicode="&#x165;" horiz-adv-x="679" 
d="M74 874v127h121v177l153 22v-199h262v-127h-262v-563q0 -92 43 -138t113 -46t137 16v-133q-88 -23 -174 -22q-272 0 -272 313v573h-121zM434 1352q0 58 28 86t71 28t69 -28t25 -84q0 -55 -35 -134t-82 -130h-72l51 176q-55 28 -55 86z" />
    <glyph glyph-name="Tbar" unicode="&#x166;" horiz-adv-x="1075" 
d="M618 1202v-373h271v-118h-271v-711h-161v711h-271v118h271v373h-394v141h949v-141h-394z" />
    <glyph glyph-name="tbar" unicode="&#x167;" horiz-adv-x="679" 
d="M74 874v127h121v177l153 22v-199h262v-127h-262v-237h262v-119h-262v-207q0 -92 43 -138t113 -46t137 16v-133q-88 -23 -174 -22q-272 0 -272 313v217h-121v119h121v237h-121z" />
    <glyph glyph-name="Utilde" unicode="&#x168;" horiz-adv-x="1329" 
d="M791 1464q-51 0 -141 60t-122 59q-74 0 -135 -78l-47 94q84 117 201 117q57 0 144 -59t118 -60q68 0 123 74l47 -94q-74 -113 -188 -113zM653 -14q-465 0 -465 475v882h162v-862q0 -184 76 -267t235 -83t239 87t81 251v874h158v-868q1 -231 -131 -360t-355 -129z" />
    <glyph glyph-name="utilde" unicode="&#x169;" horiz-adv-x="1079" 
d="M397 1255q-74 0 -135 -77l-47 94q84 117 201 117q57 1 144 -59t118 -60q68 -1 123 73l47 -94q-74 -113 -189 -112q-51 0 -141 59t-121 59zM305 346q0 -215 219 -215q111 0 236 51v813l155 13v-1008h-151v61q-128 -75 -282 -75t-243 87t-89 255v667l155 13v-662z" />
    <glyph glyph-name="Umacron" unicode="&#x16a;" horiz-adv-x="1329" 
d="M418 1503v117h493v-117h-493zM653 -14q-465 0 -465 475v882h162v-862q0 -184 76 -267t235 -83t239 87t81 251v874h158v-868q1 -231 -131 -360t-355 -129z" />
    <glyph glyph-name="umacron" unicode="&#x16b;" horiz-adv-x="1079" 
d="M287 1155v117h493v-117h-493zM305 346q0 -215 219 -215q111 0 236 51v813l155 13v-1008h-151v61q-128 -75 -282 -75t-243 87t-89 255v667l155 13v-662z" />
    <glyph glyph-name="Ubreve" unicode="&#x16c;" horiz-adv-x="1329" 
d="M672 1477h-17q-121 -1 -193 77t-73 220h139q0 -88 36 -138t91 -49h29q53 0 92 50t39 137h125q0 -139 -76 -218t-192 -79zM653 -14q-465 0 -465 475v882h162v-862q0 -184 76 -267t235 -83t239 87t81 251v874h158v-868q1 -231 -131 -360t-355 -129z" />
    <glyph glyph-name="ubreve" unicode="&#x16d;" horiz-adv-x="1079" 
d="M541 1128h-17q-122 0 -194 78t-72 219h139q0 -88 36 -137t91 -49h29q53 0 92 50t39 136h125q1 -139 -75 -218t-193 -79zM305 346q0 -215 219 -215q111 0 236 51v813l155 13v-1008h-151v61q-128 -75 -282 -75t-243 87t-89 255v667l155 13v-662z" />
    <glyph glyph-name="Uring" unicode="&#x16e;" horiz-adv-x="1329" 
d="M582 1623q0 -35 24 -61t59 -26t59 26t24 62t-25 60q-25 26 -59 26t-58 -26t-24 -61zM494 1623q0 71 50 120t122 49t120 -49t50 -120q0 -71 -50 -121t-122 -50q-70 0 -120 50t-50 121zM653 -14q-465 0 -465 475v882h162v-862q0 -184 76 -267t235 -83t239 87t81 251v874
h158v-868q1 -231 -131 -360t-355 -129z" />
    <glyph glyph-name="uring" unicode="&#x16f;" horiz-adv-x="1079" 
d="M305 346q0 -215 219 -215q111 0 236 51v813l155 13v-1008h-151v61q-128 -75 -282 -75t-243 87t-89 255v667l155 13v-662zM451 1275q1 -36 25 -62q24 -25 58 -25t58 26t24 61t-24 61t-58 26t-58 -26t-25 -61zM535 1444q73 0 121 -49t48 -120t-50 -121t-120 -50t-122 50
q-50 50 -50 121t50 120t123 49z" />
    <glyph glyph-name="Uhungarumlaut" unicode="&#x170;" horiz-adv-x="1329" 
d="M733 1477l228 297h167l-262 -297h-133zM412 1477l227 297h168l-262 -297h-133zM653 -14q-465 0 -465 475v882h162v-862q0 -184 76 -267t235 -83t239 87t81 251v874h158v-868q1 -231 -131 -360t-355 -129z" />
    <glyph glyph-name="uhungarumlaut" unicode="&#x171;" horiz-adv-x="1079" 
d="M602 1128l227 297h168l-262 -297h-133zM281 1128l227 297h168l-262 -297h-133zM305 346q0 -215 219 -215q111 0 236 51v813l155 13v-1008h-151v61q-128 -75 -282 -75t-243 87t-89 255v667l155 13v-662z" />
    <glyph glyph-name="Uogonek" unicode="&#x172;" horiz-adv-x="1329" 
d="M1139 1343v-868q0 -195 -92 -317t-254 -158q-170 -106 -170 -203q0 -76 86 -76q66 0 127 21v-104q-57 -29 -146 -29q-217 0 -217 168q0 115 148 211q-211 6 -322 125t-111 348v882h162v-862q0 -184 76 -267t235 -83t239 87t81 251v874h158z" />
    <glyph glyph-name="uogonek" unicode="&#x173;" horiz-adv-x="1079" 
d="M766 0v66q-126 -80 -282 -80t-245 87t-89 255v667l155 13v-662q0 -215 219 -215q111 0 236 51v813l155 13v-1008q-166 -111 -165 -203q0 -76 88 -76q63 0 125 21v-104q-57 -29 -146 -29q-217 0 -217 168q0 55 44 115t126 108h-4z" />
    <glyph glyph-name="Wcircumflex" unicode="&#x174;" horiz-adv-x="1779" 
d="M600 1477l211 297h166l203 -297h-156l-123 180h-33l-125 -180h-143zM410 0l-375 1343h182l305 -1181h10l285 829l-117 352h172l381 -1181h11l311 1181h170l-383 -1343h-215l-252 780h-8l-262 -780h-215z" />
    <glyph glyph-name="wcircumflex" unicode="&#x175;" horiz-adv-x="1470" 
d="M1434 1001l-316 -1001h-198l-185 606h-10l-176 -606h-199l-317 1001h178l244 -858h10l199 658l-66 200h172l254 -858h10l240 858h160zM442 1128l211 297h166l203 -297h-156l-123 181h-32l-125 -181h-144z" />
    <glyph glyph-name="Ycircumflex" unicode="&#x176;" horiz-adv-x="1112" 
d="M266 1477l211 297h166l203 -297h-156l-123 180h-32l-125 -180h-144zM637 0h-162v553l-440 790h194l336 -626h6l334 626h172l-440 -790v-553z" />
    <glyph glyph-name="ycircumflex" unicode="&#x177;" horiz-adv-x="925" 
d="M174 1128l211 297h166l203 -297h-156l-123 181h-33l-125 -181h-143zM215 -401q-57 0 -106 12v131q55 -8 111 -8q116 0 173 162l49 143h-63l-344 962h172l278 -827h9l239 827h158l-365 -1136q-45 -143 -123 -205t-188 -61z" />
    <glyph glyph-name="Ydieresis" unicode="&#x178;" horiz-adv-x="1112" 
d="M621 1563q-1 45 25 71t70 25q44 0 70 -26q26 -27 25 -71q0 -44 -26 -70t-70 -26q-94 1 -94 97zM301 1563q0 96 94 96t94 -96t-94 -97q-94 1 -94 97zM637 0h-162v553l-440 790h194l336 -626h6l334 626h172l-440 -790v-553z" />
    <glyph glyph-name="Zacute" unicode="&#x179;" horiz-adv-x="1052" 
d="M451 1477l200 297h178l-243 -297h-135zM125 1200v143h831v-147l-686 -1044v-9h695v-143h-877v147l686 1047v6h-649z" />
    <glyph glyph-name="zacute" unicode="&#x17a;" horiz-adv-x="829" 
d="M90 872v129h668v-129l-525 -735v-8h535v-129h-707v131l525 735v6h-496zM348 1128l201 297h178l-244 -297h-135z" />
    <glyph glyph-name="Zdotaccent" unicode="&#x17b;" horiz-adv-x="1052" 
d="M426 1585q0 45 27 72t71 26q98 0 99 -98q-1 -96 -99 -96t-98 96zM125 1200v143h831v-147l-686 -1044v-9h695v-143h-877v147l686 1047v6h-649z" />
    <glyph glyph-name="zdotaccent" unicode="&#x17c;" horiz-adv-x="829" 
d="M324 1237q0 45 26 72q27 27 72 26q98 0 98 -97t-98 -97t-98 96zM90 872v129h668v-129l-525 -735v-8h535v-129h-707v131l525 735v6h-496z" />
    <glyph glyph-name="Zcaron" unicode="&#x17d;" horiz-adv-x="1052" 
d="M817 1774l-211 -297h-168l-200 297h155l123 -181h33l125 181h143zM125 1200v143h831v-147l-686 -1044v-9h695v-143h-877v147l686 1047v6h-649z" />
    <glyph glyph-name="zcaron" unicode="&#x17e;" horiz-adv-x="829" 
d="M90 872v129h668v-129l-525 -735v-8h535v-129h-707v131l525 735v6h-496zM713 1425l-211 -297h-168l-201 297h156l123 -180h32l125 180h144z" />
    <glyph glyph-name="longs" unicode="&#x17f;" horiz-adv-x="581" 
d="M195 0v1120q0 144 86 230t256 86q66 0 139 -17l-19 -135q-61 12 -125 12q-182 0 -182 -176v-1120h-155z" />
    <glyph glyph-name="florin" unicode="&#x192;" 
d="M256 805v117h174l12 118q14 144 106 230t230 86q80 0 154 -15l-14 -122q-74 10 -149 10t-122 -48t-55 -139l-12 -120h251l-14 -117h-246l-106 -1159h-152l109 1159h-166z" />
    <glyph glyph-name="Scommaaccent" unicode="&#x218;" horiz-adv-x="1024" 
d="M414 -214q0 58 27 87q28 29 73 29t71 -29q25 -29 25 -86t-36 -145t-82 -138h-74l53 193q-57 31 -57 89zM427 129q148 0 235 66q86 66 86 161t-48 148t-163 92l-166 57q-115 39 -181 120t-65 198q0 169 127 277t340 108q147 0 270 -25l-16 -143q-131 26 -267 26t-214 -60
t-78 -148t42 -134q42 -47 140 -79l172 -58q137 -47 203 -129t65 -211q0 -184 -134 -296t-357 -111q-164 -1 -309 28v150q170 -37 318 -37z" />
    <glyph glyph-name="scommaaccent" unicode="&#x219;" horiz-adv-x="827" 
d="M322 -214q0 58 27 87q28 29 71 29q42 0 68 -29t26 -84t-35 -134t-82 -130h-71l51 176q-55 27 -55 85zM346 127q131 0 190 41q58 41 58 103q0 61 -39 99t-129 62l-117 35q-213 61 -213 256q0 125 100 208t254 83q152 0 252 -23l-16 -137q-102 20 -216 20t-169 -38t-55 -96
t34 -91t107 -53l117 -31q242 -63 241 -256q0 -143 -105 -232t-269 -89t-287 32v144q131 -37 262 -37z" />
    <glyph glyph-name="uni0237" unicode="&#x237;" horiz-adv-x="483" 
d="M319 -57q1 -150 -79 -235t-215 -109l-21 133q84 26 122 74t38 137v1052l155 13v-1065z" />
    <glyph glyph-name="circumflex" unicode="&#x2c6;" horiz-adv-x="765" 
d="M90 1128l211 297h166l203 -297h-156l-123 181h-33l-125 -181h-143z" />
    <glyph glyph-name="caron" unicode="&#x2c7;" horiz-adv-x="741" 
d="M674 1425l-211 -297h-168l-201 297h156l123 -180h33l124 180h144z" />
    <glyph glyph-name="uni02C9" unicode="&#x2c9;" horiz-adv-x="813" 
d="M158 1155v117h493v-117h-493z" />
    <glyph glyph-name="breve" unicode="&#x2d8;" horiz-adv-x="874" 
d="M504 1128h-17q-121 0 -193 78t-73 219h139q0 -88 36 -137t91 -49h29q53 0 92 50t39 136h125q0 -139 -76 -218t-192 -79z" />
    <glyph glyph-name="dotaccent" unicode="&#x2d9;" horiz-adv-x="464" 
d="M143 1237q0 45 27 72t72 26q98 0 98 -97t-98 -97t-99 96z" />
    <glyph glyph-name="ring" unicode="&#x2da;" horiz-adv-x="894" 
d="M476 1362q-34 0 -58 -26t-25 -61q0 -36 25 -62q24 -25 58 -25t59 26t25 61t-26 61q-24 26 -58 26zM305 1275q0 71 50 120t122 49t121 -49t49 -120t-50 -121t-121 -50t-121 50t-50 121z" />
    <glyph glyph-name="ogonek" unicode="&#x2db;" horiz-adv-x="608" 
d="M262 -203q0 -76 88 -76q63 0 125 21v-104q-57 -29 -145 -29q-217 0 -217 168q0 55 44 115t126 108h145q-166 -111 -166 -203z" />
    <glyph glyph-name="tilde" unicode="&#x2dc;" horiz-adv-x="811" 
d="M262 1255q-74 0 -135 -77l-47 94q84 117 201 117q57 1 144 -59t118 -60q68 -1 123 73l47 -94q-74 -113 -189 -112q-51 0 -141 59t-121 59z" />
    <glyph glyph-name="hungarumlaut" unicode="&#x2dd;" horiz-adv-x="956" 
d="M483 1128l228 297h168l-263 -297h-133zM162 1128l227 297h168l-262 -297h-133z" />
    <glyph glyph-name="tonos" unicode="&#x384;" horiz-adv-x="870" 
d="M360 1106l109 319h164l-146 -319h-127z" />
    <glyph glyph-name="dieresistonos" unicode="&#x385;" horiz-adv-x="876" 
d="M350 1106l109 319h155l-145 -319h-119zM586 1186q0 40 22 64t64 24q86 0 86 -88q0 -39 -23 -63t-63 -23q-86 0 -86 86zM135 1187q0 87 85 87t85 -87t-85 -87t-85 87z" />
    <glyph glyph-name="Alphatonos" unicode="&#x386;" horiz-adv-x="1161" 
d="M797 502l-211 717h-19l-215 -717h445zM713 1343l411 -1343h-180l-108 362h-525l-106 -362h-170l424 1343h254zM35 1024l108 319h164l-145 -319h-127z" />
    <glyph glyph-name="Epsilontonos" unicode="&#x388;" horiz-adv-x="1001" 
d="M201 0v1343h663v-141h-502v-440h453v-141h-453v-480h508v-141h-669zM-166 1024l109 319h163l-145 -319h-127z" />
    <glyph glyph-name="Etatonos" unicode="&#x389;" horiz-adv-x="1339" 
d="M977 0v616h-615v-616h-161v1343h161v-583h615v583h162v-1343h-162zM-166 1024l109 319h163l-145 -319h-127z" />
    <glyph glyph-name="Iotatonos" unicode="&#x38a;" horiz-adv-x="561" 
d="M362 1343v-1343h-161v1343h161zM-166 1024l109 319h163l-145 -319h-127z" />
    <glyph glyph-name="Omicrontonos" unicode="&#x38c;" horiz-adv-x="1366" 
d="M279 674q-1 -280 111 -414q112 -133 285 -133t293 131t120 413q0 281 -112 413t-285 132t-293 -130q-120 -132 -119 -412zM109 661q0 327 167 514q168 187 419 187t406 -176t155 -504t-166 -514t-418 -186t-408 176q-155 176 -155 503zM-115 1024l109 319h164l-146 -319
h-127z" />
    <glyph glyph-name="Upsilontonos" unicode="&#x38e;" horiz-adv-x="1112" 
d="M639 0h-164v553q-168 406 -440 790h194q213 -287 336 -628h6q129 352 334 628h172q-245 -339 -438 -790v-553zM-272 1024l108 319h164l-145 -319h-127z" />
    <glyph glyph-name="Omegatonos" unicode="&#x38f;" horiz-adv-x="1368" 
d="M1087 684q-1 268 -111 400t-284 132t-294 -130q-120 -132 -119 -404q0 -483 335 -549l-24 -133h-502v135h223v8q-201 173 -201 509t168 523t418 187t405 -176t155 -514t-232 -529v-8h256v-135h-504l-22 133q143 29 238 156t95 395zM-115 1024l109 319h164l-146 -319h-127
z" />
    <glyph glyph-name="iotadieresistonos" unicode="&#x390;" horiz-adv-x="638" 
d="M150 274v721l153 13v-691q0 -197 117 -196q72 0 160 24v-129q-90 -32 -201 -32t-170 67t-59 223zM156 1106l108 319h156l-146 -319h-118zM391 1186q0 40 23 64t63 24q86 0 86 -88q1 -39 -23 -63t-63 -23q-86 0 -86 86zM-59 1187q0 87 85 87t85 -87t-85 -87t-85 87z" />
    <glyph glyph-name="Alpha" unicode="&#x391;" horiz-adv-x="1161" 
d="M797 502l-211 717h-19l-215 -717h445zM713 1343l411 -1343h-180l-108 362h-525l-106 -362h-170l424 1343h254z" />
    <glyph glyph-name="Beta" unicode="&#x392;" horiz-adv-x="1179" 
d="M535 1206h-173v-448h173q153 0 225 57t71 178q1 213 -296 213zM530 623h-168v-486h211q152 0 233 66q81 65 81 183t-82 178t-275 59zM578 0h-377v1343h346q223 0 338 -89t114 -244q0 -225 -186 -299v-4q242 -59 242 -308q0 -187 -123 -293t-354 -106z" />
    <glyph glyph-name="Gamma" unicode="&#x393;" horiz-adv-x="956" 
d="M201 0v1343h661v-141h-500v-1202h-161z" />
    <glyph glyph-name="Delta" unicode="&#x394;" horiz-adv-x="1253" 
d="M618 1028l-346 -889h686l-329 889h-11zM1186 0h-1127l535 1348h86z" />
    <glyph glyph-name="Epsilon" unicode="&#x395;" horiz-adv-x="1001" 
d="M201 0v1343h663v-141h-502v-440h453v-141h-453v-480h508v-141h-669z" />
    <glyph glyph-name="Zeta" unicode="&#x396;" horiz-adv-x="1052" 
d="M125 1200v143h831v-147l-686 -1044v-9h695v-143h-877v147l686 1047v6h-649z" />
    <glyph glyph-name="Eta" unicode="&#x397;" horiz-adv-x="1339" 
d="M977 0v616h-615v-616h-161v1343h161v-583h615v583h162v-1343h-162z" />
    <glyph glyph-name="Theta" unicode="&#x398;" horiz-adv-x="1366" 
d="M977 760v-144h-594v144h594zM279 674q-1 -280 111 -414q112 -133 285 -133t293 131t120 413q0 281 -112 413t-285 132t-293 -130q-120 -132 -119 -412zM109 661q0 327 167 514q168 187 419 187t406 -176t155 -504t-166 -514t-418 -186t-408 176q-155 176 -155 503z" />
    <glyph glyph-name="Iota" unicode="&#x399;" horiz-adv-x="561" 
d="M362 1343v-1343h-161v1343h161z" />
    <glyph glyph-name="Kappa" unicode="&#x39a;" horiz-adv-x="1210" 
d="M201 1343h161v-585h115l479 585h191l-524 -634l538 -709h-209l-469 614h-121v-614h-161v1343z" />
    <glyph glyph-name="Lambda" unicode="&#x39b;" horiz-adv-x="1159" 
d="M698 1343l424 -1343h-180l-360 1171h-11l-368 -1171h-168l432 1343h231z" />
    <glyph glyph-name="Mu" unicode="&#x39c;" horiz-adv-x="1693" 
d="M395 1182h-10l-49 -1182h-154l64 1343h246l358 -888h8l350 888h240l65 -1343h-163l-52 1182h-10l-364 -906h-158z" />
    <glyph glyph-name="Nu" unicode="&#x39d;" horiz-adv-x="1339" 
d="M352 1176v-1176h-151v1343h250l528 -1175h10v1175h152v-1343h-252l-529 1176h-8z" />
    <glyph glyph-name="Xi" unicode="&#x39e;" horiz-adv-x="1208" 
d="M188 618v144h832v-144h-832zM141 1202v141h926v-141h-926zM135 0v141h938v-141h-938z" />
    <glyph glyph-name="Omicron" unicode="&#x39f;" horiz-adv-x="1366" 
d="M279 674q-1 -280 111 -414q112 -133 285 -133t293 131t120 413q0 281 -112 413t-285 132t-293 -130q-120 -132 -119 -412zM109 661q0 327 167 514q168 187 419 187t406 -176t155 -504t-166 -514t-418 -186t-408 176q-155 176 -155 503z" />
    <glyph glyph-name="Pi" unicode="&#x3a0;" horiz-adv-x="1339" 
d="M72 1198v145h1196v-145h-129v-1198h-162v1198h-615v-1198h-161v1198h-129z" />
    <glyph glyph-name="Rho" unicode="&#x3a1;" horiz-adv-x="1099" 
d="M362 1206v-551q76 -8 142 -8q168 0 254 75t86 216q0 268 -305 268h-177zM362 0h-161v1343h356q217 0 336 -104t119 -283q0 -216 -131 -332t-369 -116q-70 0 -150 8v-516z" />
    <glyph glyph-name="Sigma" unicode="&#x3a3;" horiz-adv-x="1024" 
d="M139 1343h776v-141h-567v-6l381 -436v-111l-410 -502v-6h607v-141h-807v125l463 575l-443 512v131z" />
    <glyph glyph-name="Tau" unicode="&#x3a4;" horiz-adv-x="1075" 
d="M618 1202v-1202h-161v1202h-394v141h949v-141h-394z" />
    <glyph glyph-name="Upsilon" unicode="&#x3a5;" horiz-adv-x="1112" 
d="M639 0h-164v553q-168 406 -440 790h194q213 -287 336 -628h6q129 352 334 628h172q-245 -339 -438 -790v-553z" />
    <glyph glyph-name="Phi" unicode="&#x3a6;" horiz-adv-x="1509" 
d="M1241 689q0 200 -106 333t-304 147v-989q186 12 298 160t112 349zM270 663q0 -200 106 -334t298 -149v987q-184 -12 -294 -158t-110 -346zM674 -53v104q-281 14 -427 176q-147 162 -147 423q0 260 161 446t413 200v105h157v-105q285 -12 433 -173t147 -423
q0 -262 -163 -447t-417 -200v-106h-157z" />
    <glyph glyph-name="Chi" unicode="&#x3a7;" horiz-adv-x="1118" 
d="M63 1343h193l303 -507h8l303 507h177l-402 -647l436 -696h-190l-338 549h-8l-332 -549h-176l430 688z" />
    <glyph glyph-name="Psi" unicode="&#x3a8;" horiz-adv-x="1622" 
d="M322 1343v-632q0 -197 84 -279t327 -88v999h162v-999q240 6 326 86t86 264v649h161v-641q0 -256 -126 -372t-447 -125v-205h-162v205q-333 6 -453 117t-120 364v657h162z" />
    <glyph glyph-name="Omega" unicode="&#x3a9;" horiz-adv-x="1368" 
d="M1087 684q-1 268 -111 400t-284 132t-294 -130q-120 -132 -119 -404q0 -483 335 -549l-24 -133h-502v135h223v8q-201 173 -201 509t168 523t418 187t405 -176t155 -514t-232 -529v-8h256v-135h-504l-22 133q143 29 238 156t95 395z" />
    <glyph glyph-name="Iotadieresis" unicode="&#x3aa;" horiz-adv-x="561" 
d="M362 1343v-1343h-161v1343h161zM346 1563q0 45 26 71t70 25q44 0 69 -26q26 -27 26 -71t-26 -70t-71 -26q-94 1 -94 97zM27 1563q0 96 94 96t94 -96t-94 -97q-94 1 -94 97z" />
    <glyph glyph-name="Upsilondieresis" unicode="&#x3ab;" horiz-adv-x="1112" 
d="M627 1563q-1 45 25 71t70 25q44 0 70 -26q26 -27 26 -71t-26 -70t-71 -26q-94 1 -94 97zM307 1563q0 96 94 96q95 0 95 -96t-95 -97q-94 1 -94 97zM639 0h-164v553q-168 406 -440 790h194q213 -287 336 -628h6q129 352 334 628h172q-245 -339 -438 -790v-553z" />
    <glyph glyph-name="alphatonos" unicode="&#x3ac;" horiz-adv-x="1239" 
d="M264 468q0 -182 58 -264t148 -81q89 0 170 104t122 285q-18 172 -91 270t-168 98t-167 -115t-72 -297zM1097 125q30 0 66 10v-119q-53 -31 -121 -30q-125 0 -161 155l-47 199h-9q-55 -164 -152 -261t-222 -97q-160 0 -254 116q-95 116 -95 356q0 238 120 402t292 164
q140 0 234 -97t116 -274h13q68 137 139 352h137q-55 -245 -231 -493l92 -289q18 -55 36 -75t47 -19zM555 1106l109 319h163l-145 -319h-127z" />
    <glyph glyph-name="epsilontonos" unicode="&#x3ad;" horiz-adv-x="856" 
d="M480 -18q-171 0 -269 72t-98 198q0 68 43 136t110 108v10q-66 25 -106 78t-39 125q0 125 113 216q114 91 292 91q117 0 228 -23v-141q-122 18 -234 18t-176 -43t-63 -117q0 -152 329 -151q49 0 111 8v-135q-49 -8 -143 -8t-199 27q-106 -59 -107 -175q0 -152 234 -151
q145 0 280 33v-138q-135 -38 -306 -38zM412 1106l108 319h164l-145 -319h-127z" />
    <glyph glyph-name="etatonos" unicode="&#x3ae;" horiz-adv-x="1077" 
d="M764 -391v1048q0 213 -121 213q-145 0 -324 -145v-725h-155v995l149 13v-138h11q176 143 348 144q125 0 185 -80t61 -260v-1065h-154zM508 1106l108 319h164l-145 -319h-127z" />
    <glyph glyph-name="iotatonos" unicode="&#x3af;" horiz-adv-x="638" 
d="M150 274v721l153 13v-691q0 -197 117 -196q72 0 160 24v-129q-90 -32 -201 -32t-170 67t-59 223zM182 1106l109 319h164l-146 -319h-127z" />
    <glyph glyph-name="upsilondieresistonos" unicode="&#x3b0;" horiz-adv-x="1042" 
d="M778 504v131q0 193 -55 360l154 13q51 -147 51 -355v-135q0 -266 -119 -401t-326 -135q-334 0 -333 378v635l153 13v-629q0 -258 197 -258q137 0 208 91q70 91 70 292zM440 1106l109 319h156l-146 -319h-119zM676 1186q0 40 22 64t64 24q86 0 86 -88q0 -39 -23 -63
t-63 -23q-86 0 -86 86zM225 1187q0 87 85 87t85 -87t-85 -87t-85 87z" />
    <glyph glyph-name="alpha" unicode="&#x3b1;" horiz-adv-x="1228" 
d="M264 468q0 -182 58 -264t148 -81q89 0 170 104t122 285q-18 172 -91 270t-168 98t-167 -115t-72 -297zM1097 125q30 0 66 10v-119q-53 -31 -121 -30q-125 0 -161 155l-47 199h-9q-55 -164 -152 -261t-222 -97q-160 0 -254 116q-95 116 -95 356q0 238 120 402t292 164
q140 0 234 -97t116 -274h13q68 137 139 352h137q-55 -245 -231 -493l92 -289q18 -55 36 -75t47 -19z" />
    <glyph glyph-name="beta" unicode="&#x3b2;" horiz-adv-x="1097" 
d="M319 1047v-900q106 -25 228 -25t205 67q82 67 82 183t-78 184t-230 67h-82v122h15q111 1 197 91t87 212q0 122 -57 188t-150 64q-93 0 -155 -70t-62 -183zM164 -391v1452q0 164 115 270q115 107 273 107t255 -100q98 -100 98 -255q0 -115 -62 -207t-163 -147v-6
q141 -14 229 -103t88 -229q0 -176 -132 -291t-339 -114q-102 0 -207 26v-403h-155z" />
    <glyph glyph-name="gamma" unicode="&#x3b3;" horiz-adv-x="966" 
d="M381 -389q0 238 39 403q-152 473 -391 987h174q182 -367 289 -763h8q111 420 276 763h160q-231 -463 -367 -956q0 -266 -63 -434h-125z" />
    <glyph glyph-name="delta" unicode="&#x3b4;" horiz-adv-x="1110" 
d="M264 397q0 -120 81 -199t206 -79t212 87t87 220q0 160 -170 262l-166 103q-114 -61 -182 -167t-68 -227zM539 -18q-193 0 -315 112t-122 293q0 137 79 259t231 210v10l-62 47q-110 84 -110 216q0 133 106 223t274 90t285 -76v-139q-159 76 -275 76q-116 -1 -174 -47
t-59 -115q0 -98 205 -217l154 -90q137 -82 196 -171t60 -219q0 -194 -140 -328t-333 -134z" />
    <glyph glyph-name="epsilon" unicode="&#x3b5;" horiz-adv-x="851" 
d="M480 -18q-171 0 -269 72t-98 198q0 68 43 136t110 108v10q-66 25 -106 78t-39 125q0 125 113 216q114 91 292 91q117 0 228 -23v-141q-122 18 -234 18t-176 -43t-63 -117q0 -152 329 -151q49 0 111 8v-135q-49 -8 -143 -8t-199 27q-106 -59 -107 -175q0 -152 234 -151
q145 0 280 33v-138q-135 -38 -306 -38z" />
    <glyph glyph-name="zeta" unicode="&#x3b6;" horiz-adv-x="804" 
d="M518 1290h-346v131h539v-125q-444 -377 -445 -825q0 -117 36 -175t112 -81l174 -55q186 -57 186 -189q0 -92 -79 -193t-214 -181l-75 98q98 61 154 123t56 102q0 39 -27 63q-28 24 -104 48l-166 53q-211 70 -210 362q0 228 108 446t301 384v14z" />
    <glyph glyph-name="eta" unicode="&#x3b7;" horiz-adv-x="1073" 
d="M764 -391v1048q0 213 -121 213q-145 0 -324 -145v-725h-155v995l149 13v-138h11q176 143 348 144q125 0 185 -80t61 -260v-1065h-154z" />
    <glyph glyph-name="theta" unicode="&#x3b8;" horiz-adv-x="1099" 
d="M553 1303q-121 -1 -199 -139t-88 -378h568q-8 252 -84 384t-197 133zM548 119q118 0 198 144t90 390h-572q6 -258 86 -396t198 -138zM561 1440q193 0 316 -188t123 -526q0 -339 -136 -542q-134 -202 -328 -202t-314 182t-120 529t133 547t326 200z" />
    <glyph glyph-name="iota" unicode="&#x3b9;" horiz-adv-x="638" 
d="M150 274v721l153 13v-691q0 -197 117 -196q72 0 160 24v-129q-90 -32 -201 -32t-170 67t-59 223z" />
    <glyph glyph-name="kappa" unicode="&#x3ba;" horiz-adv-x="1044" 
d="M319 0h-155v995l155 13v-559h11l510 552h178l-424 -460l223 -303q80 -109 122 -109t87 10v-121q-48 -30 -116 -30t-118 34t-120 134l-195 276l-158 -168v-264z" />
    <glyph glyph-name="lambda" unicode="&#x3bb;" horiz-adv-x="929" 
d="M169 1288q-71 0 -114 -4v129q69 21 169 21t168 -52t108 -174l395 -1208h-172l-250 805h-8l-272 -805h-158l366 1004l-47 133q-30 83 -72 117t-113 34z" />
    <glyph glyph-name="mu" unicode="&#x3bc;" horiz-adv-x="1095" 
d="M930 203q0 -74 55 -74q33 0 70 10v-121q-49 -30 -111 -30q-116 1 -143 88q-133 -90 -277 -90t-217 67v-116q0 -186 62 -328h-152q-53 121 -53 309v1077l155 13v-662q0 -215 220 -215q113 0 237 51v813l154 13v-805z" />
    <glyph glyph-name="nu" unicode="&#x3bd;" horiz-adv-x="944" 
d="M713 844v157h157v-143q0 -134 -106 -414t-223 -444h-172l-336 1001h178l262 -845h8q88 139 160 351t72 337z" />
    <glyph glyph-name="xi" unicode="&#x3be;" horiz-adv-x="804" 
d="M113 995q0 185 143 311t360 126q80 0 125 -11v-125q-41 6 -133 7q-147 0 -243 -85q-97 -85 -97 -199t71 -165t232 -51q74 0 140 10v-131q-51 -14 -133 -14t-117 6q-95 -60 -151 -142t-56 -152t37 -108t119 -63l172 -51q106 -31 146 -73t40 -120t-80 -181t-217 -185
l-78 98q96 59 157 126q60 67 60 103t-26 57q-27 22 -105 46l-164 49q-100 30 -158 100q-59 70 -59 169t60 193t172 148v12q-96 25 -157 102q-60 77 -60 193z" />
    <glyph glyph-name="omicron" unicode="&#x3bf;" horiz-adv-x="1110" 
d="M264 493q0 -181 76 -277t211 -95q135 -1 215 103t80 285t-76 276t-212 95t-215 -102q-79 -104 -79 -285zM1008 515q0 -245 -136 -389t-336 -144t-317 130t-117 374t136 388q136 146 334 146q200 0 318 -130t118 -375z" />
    <glyph glyph-name="pi" unicode="&#x3c0;" horiz-adv-x="1304" 
d="M1008 860h-31v-524q1 -121 25 -168t74 -47t106 16v-131q-72 -22 -161 -22t-143 70t-55 243v565h-389v-549q0 -166 -63 -313h-150q59 156 60 299v561h-27q-82 0 -172 -51v133q86 61 219 62h700q117 0 205 30v-137q-73 -37 -198 -37z" />
    <glyph glyph-name="rho" unicode="&#x3c1;" horiz-adv-x="1095" 
d="M487 125q154 0 249 99q95 98 95 282t-71 279q-72 95 -187 95t-185 -74q-70 -75 -69 -192v-467q78 -22 168 -22zM164 -391v1012q0 173 120 287t308 114t294 -128t107 -374q0 -246 -145 -390t-383 -144q-76 0 -146 28v-405h-155z" />
    <glyph glyph-name="sigma1" unicode="&#x3c2;" horiz-adv-x="835" 
d="M553 870q-119 0 -204 -97t-85 -263t60 -255t157 -108l115 -22q207 -41 207 -193q0 -80 -65 -172t-171 -161l-84 90q164 119 164 209q0 70 -115 90l-108 20q-141 27 -231 149q-91 121 -91 351t136 369t329 139q101 0 193 -25v-141q-88 20 -207 20z" />
    <glyph glyph-name="sigma" unicode="&#x3c3;" horiz-adv-x="1132" 
d="M553 885q-129 -1 -209 -105t-80 -286t76 -278t211 -95q135 -1 215 103t80 300t-127 336q-70 25 -166 25zM872 866v-12q136 -112 136 -348t-136 -380t-336 -144t-317 130t-117 374t136 388q136 145 329 146l260 -16q180 0 297 26v-139q-100 -25 -252 -25z" />
    <glyph glyph-name="tau" unicode="&#x3c4;" horiz-adv-x="966" 
d="M709 860h-174v-520q-1 -123 25 -168t69 -45t112 16v-131q-67 -24 -161 -24t-147 71q-52 72 -52 242v561l-143 -2q-92 0 -177 -39v140q92 43 211 43h449q104 0 180 18v-137q-75 -25 -192 -25z" />
    <glyph glyph-name="upsilon" unicode="&#x3c5;" horiz-adv-x="1042" 
d="M778 504v131q0 193 -55 360l154 13q51 -147 51 -355v-135q0 -266 -119 -401t-326 -135q-334 0 -333 378v635l153 13v-629q0 -258 197 -258q137 0 208 91q70 91 70 292z" />
    <glyph glyph-name="phi" unicode="&#x3c6;" horiz-adv-x="1632" 
d="M887 621v-496q483 0 483 401q0 172 -67 264q-69 91 -177 91q-108 -1 -174 -73t-65 -187zM733 -391v377q-331 0 -481 128t-150 376t131 389t328 141q78 0 131 -12v-140q-63 14 -141 15q-129 1 -208 -101t-79 -272q0 -385 469 -385v493q0 176 113 290t296 114t286 -122
q104 -122 104 -368t-168 -397q-168 -150 -477 -149v-377h-154z" />
    <glyph glyph-name="chi" unicode="&#x3c7;" horiz-adv-x="972" 
d="M387 326l-209 465q-33 72 -127 96l49 125q158 0 209 -127l174 -422h9l245 538h158l-332 -675l242 -514q18 -40 43 -58t76 -28l-52 -121q-154 0 -206 125l-197 452h-10l-262 -571h-158z" />
    <glyph glyph-name="psi" unicode="&#x3c8;" horiz-adv-x="1517" 
d="M848 -391h-152v375q-325 8 -441 136q-58 66 -82 142t-23 182v551l153 13v-543q0 -174 90 -254t303 -86v1294l152 13v-1307q188 0 294 98q105 98 105 283v131q0 184 -57 360l156 13q49 -150 49 -355v-135q1 -248 -145 -391t-402 -143v-377z" />
    <glyph glyph-name="omega" unicode="&#x3c9;" horiz-adv-x="1523" 
d="M264 475q0 -172 70 -263t178 -91t186 63q-32 137 -32 305t45 318l94 12q35 -139 35 -313t-33 -334q95 -51 205 -51t179 100q69 101 69 319t-113 457l166 13q111 -227 111 -477t-120 -401q-118 -150 -298 -150t-256 92h-19q-82 -92 -247 -92q-166 0 -274 124t-108 340
q0 301 166 551l160 13q-164 -295 -164 -535z" />
    <glyph glyph-name="iotadieresis" unicode="&#x3ca;" horiz-adv-x="638" 
d="M150 274v721l153 13v-691q0 -197 117 -196q72 0 160 24v-129q-90 -32 -201 -32t-170 67t-59 223zM291 1251q0 45 25 71q26 26 70 26t70 -26t26 -71t-26 -71t-71 -25q-94 0 -94 96zM-29 1251q0 96 95 97q94 0 94 -96t-94 -97q-94 0 -95 96z" />
    <glyph glyph-name="upsilondieresis" unicode="&#x3cb;" horiz-adv-x="1042" 
d="M778 504v131q0 193 -55 360l154 13q51 -147 51 -355v-135q0 -266 -119 -401t-326 -135q-334 0 -333 378v635l153 13v-629q0 -258 197 -258q137 0 208 91q70 91 70 292zM592 1251q0 45 25 71q26 26 70 26t70 -26q25 -26 25 -71t-26 -71t-70 -25q-94 0 -94 96zM272 1251
q0 96 95 97q94 0 94 -96q-1 -96 -95 -97q-94 0 -94 96z" />
    <glyph glyph-name="omicrontonos" unicode="&#x3cc;" horiz-adv-x="1110" 
d="M264 493q0 -181 76 -277t211 -95q135 -1 215 103t80 285t-76 276t-212 95t-215 -102q-79 -104 -79 -285zM1008 515q0 -245 -136 -389t-336 -144t-317 130t-117 374t136 388q136 146 334 146q200 0 318 -130t118 -375zM494 1106l108 319h164l-145 -319h-127z" />
    <glyph glyph-name="upsilontonos" unicode="&#x3cd;" horiz-adv-x="1042" 
d="M778 504v131q0 193 -55 360l154 13q51 -147 51 -355v-135q0 -266 -119 -401t-326 -135q-334 0 -333 378v635l153 13v-629q0 -258 197 -258q137 0 208 91q70 91 70 292zM469 1106l109 319h163l-145 -319h-127z" />
    <glyph glyph-name="omegatonos" unicode="&#x3ce;" horiz-adv-x="1523" 
d="M264 475q0 -172 70 -263t178 -91t186 63q-32 137 -32 305t45 318l94 12q35 -139 35 -313t-33 -334q95 -51 205 -51t179 100q69 101 69 319t-113 457l166 13q111 -227 111 -477t-120 -401q-118 -150 -298 -150t-256 92h-19q-82 -92 -247 -92q-166 0 -274 124t-108 340
q0 301 166 551l160 13q-164 -295 -164 -535zM719 1106l108 319h164l-145 -319h-127z" />
    <glyph glyph-name="uni03D0" unicode="&#x3d0;" horiz-adv-x="1101" 
d="M319 1047v-289h123q127 0 215 85t88 205t-60 184t-153 64t-153 -66t-60 -183zM510 631h-191v-283q0 -225 224 -225q135 1 216 69t81 186t-86 186t-244 67zM164 311v750q0 166 108 271q109 106 272 106t263 -100t100 -255q0 -115 -62 -205t-171 -141v-6q145 -14 236 -105
t91 -233q0 -174 -132 -291t-330 -116q-375 -1 -375 325z" />
    <glyph glyph-name="theta1" unicode="&#x3d1;" horiz-adv-x="1044" 
d="M408 1104q0 -131 103 -215t286 -101v37q0 238 -66 358t-166 120q-69 1 -113 -53t-44 -146zM344 256q0 -135 123 -135t212 141t107 404q-240 14 -383 132t-143 281t89 261t239 98t254 -146t104 -413q0 -441 -145 -669t-377 -228q-111 0 -172 63t-62 174v254q0 47 -34 83
q-35 36 -84 46l59 117q101 -7 157 -63t56 -146v-254z" />
    <glyph glyph-name="phi1" unicode="&#x3d5;" horiz-adv-x="1497" 
d="M264 490q0 -194 91 -282q91 -87 319 -97v782q-214 -9 -312 -109t-98 -294zM1233 516q0 194 -93 282q-93 87 -321 97v-784q217 10 316 110q98 101 98 295zM819 -391h-145v371q-313 10 -443 125q-129 116 -129 372t144 395t428 152v395l145 13v-406q313 -8 445 -126
t131 -373t-147 -395t-429 -152v-371z" />
    <glyph glyph-name="omega1" unicode="&#x3d6;" horiz-adv-x="1523" 
d="M102 446q0 301 162 545l156 2q-156 -287 -156 -518q0 -172 70 -263t178 -91t186 63q-32 137 -32 305t45 318l94 12q35 -139 35 -313t-33 -334q95 -51 205 -51t179 100t69 295q0 266 -92 387t-281 121h-236q-155 2 -231 61t-76 139t21 119h112q0 -98 41 -136t152 -38h233
q520 0 520 -630q-1 -256 -119 -407q-118 -150 -298 -150t-256 92h-19q-82 -92 -247 -92q-166 0 -274 124t-108 340z" />
    <glyph glyph-name="uni03D9" unicode="&#x3d9;" horiz-adv-x="1110" 
d="M264 493q0 -181 76 -277t211 -95q135 -1 215 103t80 285t-76 276t-212 95t-215 -102q-79 -104 -79 -285zM1008 528q0 -232 -111 -372q-111 -139 -279 -168v-260l-135 -37v293q-178 18 -279 147q-102 129 -102 363t136 380t334 146q200 0 318 -130t118 -362z" />
    <glyph glyph-name="uni03F0" unicode="&#x3f0;" horiz-adv-x="1181" 
d="M1065 113q41 0 84 10v-113q-53 -27 -123 -26q-248 0 -248 338q0 180 21 362l-8 2q-322 -408 -613 -706l-86 92q72 66 125 135q20 207 21 498q0 100 -28 141t-83 41t-94 -10v110q98 25 177 25t129 -58t50 -166q0 -193 -20 -405h10q242 326 592 641l84 -92
q-41 -27 -105 -90q-25 -176 -24 -473q0 -256 139 -256z" />
    <glyph glyph-name="uni03F1" unicode="&#x3f1;" horiz-adv-x="1120" 
d="M274 493q0 -181 76 -277t211 -95q135 -1 215 103t80 285t-76 276t-212 95t-215 -102q-79 -104 -79 -285zM1020 515q0 -245 -136 -387t-318 -142t-285 116l-9 -8q14 -98 76 -160t152 -67l184 -17q127 -10 203 -78t76 -163h-101q-31 43 -79 63t-136 29l-170 16
q-90 8 -152 45q-144 86 -187 354q-24 151 -22 382t135 376q134 146 333 146q200 0 318 -130t118 -375z" />
    <glyph glyph-name="Wgrave" unicode="&#x1e80;" horiz-adv-x="1779" 
d="M768 1774l203 -297h-135l-244 297h176zM410 0l-375 1343h182l305 -1181h10l285 829l-117 352h172l381 -1181h11l311 1181h170l-383 -1343h-215l-252 780h-8l-262 -780h-215z" />
    <glyph glyph-name="wgrave" unicode="&#x1e81;" horiz-adv-x="1470" 
d="M1434 1001l-316 -1001h-198l-185 606h-10l-176 -606h-199l-317 1001h178l244 -858h10l199 658l-66 200h172l254 -858h10l240 858h160zM610 1425l203 -297h-135l-244 297h176z" />
    <glyph glyph-name="Wacute" unicode="&#x1e82;" horiz-adv-x="1779" 
d="M815 1477l201 297h178l-244 -297h-135zM410 0l-375 1343h182l305 -1181h10l285 829l-117 352h172l381 -1181h11l311 1181h170l-383 -1343h-215l-252 780h-8l-262 -780h-215z" />
    <glyph glyph-name="wacute" unicode="&#x1e83;" horiz-adv-x="1470" 
d="M1434 1001l-316 -1001h-198l-185 606h-10l-176 -606h-199l-317 1001h178l244 -858h10l199 658l-66 200h172l254 -858h10l240 858h160zM657 1128l201 297h178l-243 -297h-136z" />
    <glyph glyph-name="Wdieresis" unicode="&#x1e84;" horiz-adv-x="1779" 
d="M954 1563q0 45 26 71t70 25q44 0 70 -26q26 -27 25 -71q0 -44 -26 -70t-70 -26q-95 1 -95 97zM635 1563q0 96 94 96t94 -96t-94 -97q-94 1 -94 97zM410 0l-375 1343h182l305 -1181h10l285 829l-117 352h172l381 -1181h11l311 1181h170l-383 -1343h-215l-252 780h-8
l-262 -780h-215z" />
    <glyph glyph-name="wdieresis" unicode="&#x1e85;" horiz-adv-x="1470" 
d="M1434 1001l-316 -1001h-198l-185 606h-10l-176 -606h-199l-317 1001h178l244 -858h10l199 658l-66 200h172l254 -858h10l240 858h160zM797 1251q0 45 25 71q26 26 70 26t70 -26t26 -71t-26 -71t-71 -25q-94 0 -94 96zM477 1251q0 96 94 97q95 0 95 -96t-94 -97
q-94 0 -95 96z" />
    <glyph glyph-name="Ygrave" unicode="&#x1ef2;" horiz-adv-x="1112" 
d="M434 1774l203 -297h-135l-244 297h176zM637 0h-162v553l-440 790h194l336 -626h6l334 626h172l-440 -790v-553z" />
    <glyph glyph-name="ygrave" unicode="&#x1ef3;" horiz-adv-x="925" 
d="M342 1425l203 -297h-135l-244 297h176zM215 -401q-57 0 -106 12v131q55 -8 111 -8q116 0 173 162l49 143h-63l-344 962h172l278 -827h9l239 827h158l-365 -1136q-45 -143 -123 -205t-188 -61z" />
    <glyph glyph-name="endash" unicode="&#x2013;" horiz-adv-x="1024" 
d="M59 516v141h906v-141h-906z" />
    <glyph glyph-name="emdash" unicode="&#x2014;" horiz-adv-x="2048" 
d="M59 516v141h1930v-141h-1930z" />
    <glyph glyph-name="quoteleft" unicode="&#x2018;" horiz-adv-x="503" 
d="M373 1094q0 -62 -34 -100t-87 -38t-87 36t-34 98t85 198q85 135 112 135h84l-99 -239q60 -28 60 -90z" />
    <glyph glyph-name="quoteright" unicode="&#x2019;" horiz-adv-x="503" 
d="M131 1288q0 60 34 100q34 38 87 38t87 -36t34 -99t-85 -197t-112 -136h-84l98 240q-59 30 -59 90z" />
    <glyph glyph-name="quotesinglbase" unicode="&#x201a;" horiz-adv-x="503" 
d="M131 106q0 60 34 98t87 38t87 -36t34 -98t-85 -198q-85 -135 -112 -135h-84l98 239q-59 32 -59 92z" />
    <glyph glyph-name="quotedblleft" unicode="&#x201c;" horiz-adv-x="831" 
d="M373 1094q0 -62 -34 -100t-87 -38t-87 36t-34 98t85 198q85 135 112 135h84l-99 -239q60 -28 60 -90zM700 1094q0 -62 -34 -100t-86 -38q-53 0 -87 36t-34 98t85 198q85 135 111 135h84l-98 -239q59 -28 59 -90z" />
    <glyph glyph-name="quotedblright" unicode="&#x201d;" horiz-adv-x="831" 
d="M459 1288q0 60 34 100q34 38 87 38t87 -36q33 -36 33 -99t-85 -197t-111 -136h-84l98 240q-59 30 -59 90zM131 1288q0 60 34 100q34 38 87 38t87 -36t34 -99t-85 -197t-112 -136h-84l98 240q-59 30 -59 90z" />
    <glyph glyph-name="quotedblbase" unicode="&#x201e;" horiz-adv-x="831" 
d="M459 106q0 60 34 98t87 38t87 -36q33 -36 33 -98t-85 -198q-85 -135 -111 -135h-84l98 239q-59 32 -59 92zM131 106q0 60 34 98t87 38t87 -36t34 -98t-85 -198q-85 -135 -112 -135h-84l98 239q-59 32 -59 92z" />
    <glyph glyph-name="dagger" unicode="&#x2020;" horiz-adv-x="821" 
d="M463 1075h74l229 8v-110l-229 6h-74v-111l6 -1259h-117l6 1259v111h-73l-230 -6v110l230 -8h73v76l-6 274h117l-6 -274v-76z" />
    <glyph glyph-name="daggerdbl" unicode="&#x2021;" horiz-adv-x="821" 
d="M358 -41h-73l-230 -8v110l230 -6h73v924h-73l-230 -6v110l230 -8h73v76l-6 274h117l-6 -274v-76l303 8v-110l-229 6h-74v-924h74l229 6v-110l-229 8h-74v-76l6 -274h-117l6 274v76z" />
    <glyph glyph-name="bullet" unicode="&#x2022;" horiz-adv-x="581" 
d="M76 604q0 102 57 164t157 61q100 0 158 -58q58 -59 58 -161t-58 -164t-159 -61q-100 0 -157 58q-56 59 -56 161z" />
    <glyph glyph-name="ellipsis" unicode="&#x2026;" horiz-adv-x="1353" 
d="M979 116q0 58 32 94t90 36t91 -34t33 -92t-33 -93t-91 -35t-90 33t-32 91zM555 116q0 58 32 94t90 36t91 -34t33 -92t-33 -93t-91 -35t-90 33t-32 91zM129 116q0 58 32 94t90 36t91 -34t33 -92t-33 -93t-91 -35t-90 33t-32 91z" />
    <glyph glyph-name="perthousand" unicode="&#x2030;" horiz-adv-x="2449" 
d="M2056 645q-84 -1 -133 -69t-49 -201q0 -272 182 -273q84 0 134 69t51 200q-1 274 -185 274zM2064 760q142 0 228 -94t86 -284t-96 -294q-96 -102 -236 -102q-141 0 -226 90t-85 284t94 298q94 102 235 102zM1300 645q-84 -1 -132 -69t-48 -201q0 -272 183 -273
q84 0 134 69t50 200q-1 274 -187 274zM979 360q1 194 95 298q94 102 236 102t228 -94t86 -284t-95 -294q-95 -102 -237 -102t-228 90q-85 90 -85 284zM393 1243q-84 -1 -133 -69t-49 -201q0 -272 184 -273q82 0 132 69t51 200q-1 274 -185 274zM72 958q0 194 94 298
q94 102 236 102t228 -94t87 -284q0 -190 -96 -292q-95 -104 -237 -104t-227 90t-85 284zM1063 1380l113 -45l-545 -1382l-113 45z" />
    <glyph glyph-name="guilsinglleft" unicode="&#x2039;" horiz-adv-x="792" 
d="M467 74l-332 438l332 438h178l-332 -428l332 -448h-178z" />
    <glyph glyph-name="guilsinglright" unicode="&#x203a;" horiz-adv-x="792" 
d="M326 950l331 -438l-331 -438h-179l332 428l-332 448h179z" />
    <glyph glyph-name="fraction" unicode="&#x2044;" horiz-adv-x="290" 
d="M559 1391l109 -64l-938 -1622l-109 64z" />
    <glyph glyph-name="zero.superscript" unicode="&#x2070;" horiz-adv-x="788" 
d="M393 1300q-84 0 -133 -82t-49 -249q0 -334 184 -334q82 0 132 84t51 246q-1 335 -185 335zM402 1415q142 0 229 -107q86 -108 86 -331t-95 -341t-237 -118q-313 0 -313 436q0 227 94 344t236 117z" />
    <glyph glyph-name="four.superscript" unicode="&#x2074;" horiz-adv-x="788" 
d="M492 821v461h-3q-123 -66 -205 -192t-89 -269h297zM616 1407v-586h111v-110h-111v-181h-129v181h-381l-34 86q8 195 129 369t299 241h116z" />
    <glyph glyph-name="five.superscript" unicode="&#x2075;" horiz-adv-x="788" 
d="M631 1403v-113h-379v-192q55 6 104 6q138 0 224 -70t86 -186q0 -154 -125 -242t-318 -88h-102v109h106q131 -2 216 55t85 149q0 158 -223 158q-98 0 -166 -8v422h492z" />
    <glyph glyph-name="six.superscript" unicode="&#x2076;" horiz-adv-x="788" 
d="M225 870q0 -246 178 -245q158 0 158 185t-174 185q-78 0 -156 -16q-6 -55 -6 -109zM586 1403h90v-107h-88q-281 0 -344 -225l2 -4q72 39 186 39t191 -71q75 -71 75 -209t-85 -223t-221 -85t-219 94t-83 269q0 522 496 522z" />
    <glyph glyph-name="seven.superscript" unicode="&#x2077;" horiz-adv-x="788" 
d="M100 1403h580l25 -113q-344 -336 -345 -760h-131q0 434 324 756v2h-453v115z" />
    <glyph glyph-name="eight.superscript" unicode="&#x2078;" horiz-adv-x="788" 
d="M213 748q0 -56 50 -90t130 -34t129 32q49 30 49 75t-24 75t-96 66l-107 56q-131 -74 -131 -180zM401 1313q-71 0 -111 -35t-40 -84q0 -76 84 -123l92 -55q127 80 127 182q0 53 -41 84t-111 31zM117 1178q-1 102 83 170t205 67q121 0 198 -60q77 -61 77 -141t-42 -135
t-136 -104l59 -31q82 -45 115 -88t33 -104q1 -100 -93 -167t-232 -67t-220 58t-82 157q0 143 188 240l-49 31q-104 72 -104 174z" />
    <glyph glyph-name="nine.superscript" unicode="&#x2079;" horiz-adv-x="788" 
d="M563 1065q0 127 -49 186t-127 59q-162 1 -162 -185q0 -187 174 -187q97 0 158 16q6 49 6 111zM203 530h-90v107h86q141 0 226 52t120 175l-2 2q-77 -39 -189 -39t-189 72t-77 209t85 222t221 85t220 -94t84 -268q1 -523 -495 -523z" />
    <glyph glyph-name="uni207A" unicode="&#x207a;" horiz-adv-x="788" 
d="M449 981h231v-111h-231v-231h-111v231h-232v111h232v229h111v-229z" />
    <glyph glyph-name="uni207B" unicode="&#x207b;" horiz-adv-x="788" 
d="M104 870v111h578v-111h-578z" />
    <glyph glyph-name="uni207C" unicode="&#x207c;" horiz-adv-x="788" 
d="M104 989v111h578v-111h-578zM104 750v110h578v-110h-578z" />
    <glyph glyph-name="parenleft.superscript" unicode="&#x207d;" horiz-adv-x="425" 
d="M70 853q0 306 219 550h106q-213 -260 -213 -549t213 -555h-106q-219 248 -219 554z" />
    <glyph glyph-name="parenright.superscript" unicode="&#x207e;" horiz-adv-x="425" 
d="M356 849q0 -306 -219 -550h-106q215 266 215 551t-215 553h106q219 -248 219 -554z" />
    <glyph glyph-name="zero.subscript" unicode="&#x2080;" horiz-adv-x="788" 
d="M393 463q-84 0 -133 -82t-49 -250q0 -334 184 -334q82 0 132 84t51 246q-1 336 -185 336zM402 578q142 0 228 -108t87 -331q0 -223 -95 -341t-237 -117q-313 0 -313 436q0 227 94 344t236 117z" />
    <glyph glyph-name="one.subscript" unicode="&#x2081;" horiz-adv-x="788" 
d="M416 565h84v-872h-129v753q-92 0 -209 -20v100q129 39 254 39z" />
    <glyph glyph-name="two.subscript" unicode="&#x2082;" horiz-adv-x="788" 
d="M684 -197v-110h-555l-25 102q8 158 181 279l90 57q75 51 109 92t34 99t-48 94t-138 37q-90 0 -189 -27v117q113 31 233 31t202 -64q80 -63 79 -172q0 -152 -200 -285l-76 -49q-143 -90 -150 -201h453z" />
    <glyph glyph-name="three.subscript" unicode="&#x2083;" horiz-adv-x="788" 
d="M131 453v112h498l28 -104q-37 -91 -88 -147t-133 -99v-4q113 -19 173 -79t61 -152q0 -127 -122 -213t-312 -86h-115v108h112q139 0 221 49q81 49 81 131q0 143 -207 168q-55 -29 -142 -45l-22 90q289 68 362 271h-395z" />
    <glyph glyph-name="four.subscript" unicode="&#x2084;" horiz-adv-x="788" 
d="M492 -16v460h-3q-123 -66 -205 -192t-89 -268h297zM616 569v-585h111v-111h-111v-180h-129v180h-381l-34 86q8 195 129 369t299 241h116z" />
    <glyph glyph-name="five.subscript" unicode="&#x2085;" horiz-adv-x="788" 
d="M631 565v-112h-379v-193q55 6 104 6q139 0 225 -69q85 -70 85 -187q0 -154 -125 -242t-318 -87h-102v108h106q131 -2 216 55t85 150q0 158 -223 158q-98 0 -166 -9v422h492z" />
    <glyph glyph-name="six.subscript" unicode="&#x2086;" horiz-adv-x="788" 
d="M225 33q0 -246 178 -246q158 0 158 185t-174 186q-78 -1 -156 -17q-6 -55 -6 -108zM586 565h90v-106h-88q-281 0 -344 -226l2 -4q72 39 186 39t191 -70q75 -70 75 -209q0 -138 -85 -223t-221 -85t-219 94t-83 268q0 522 496 522z" />
    <glyph glyph-name="seven.subscript" unicode="&#x2087;" horiz-adv-x="788" 
d="M100 565h580l25 -112q-344 -336 -345 -760h-131q0 434 324 756v2h-453v114z" />
    <glyph glyph-name="eight.subscript" unicode="&#x2088;" horiz-adv-x="788" 
d="M213 -90q0 -57 50 -90t130 -33t129 31t49 76q0 44 -24 74t-96 67l-107 55q-131 -74 -131 -180zM401 475q-71 0 -111 -35t-40 -84q0 -76 84 -123l92 -55q127 80 127 182q0 53 -41 84t-111 31zM117 340q-1 102 83 170t205 68t198 -60t77 -141q0 -80 -42 -135t-136 -105
l59 -31q82 -45 115 -88t33 -104q1 -100 -93 -167t-232 -67t-220 59q-82 58 -82 157q0 143 188 239l-49 31q-104 72 -104 174z" />
    <glyph glyph-name="nine.subscript" unicode="&#x2089;" horiz-adv-x="788" 
d="M563 227q0 127 -49 187t-127 59q-162 0 -162 -186t174 -187q97 1 158 17q6 49 6 110zM203 -307h-90v106h86q141 1 226 53t120 175l-2 2q-77 -39 -189 -39t-189 72t-77 208t85 222t221 86t220 -94t84 -269q1 -522 -495 -522z" />
    <glyph glyph-name="uni208A" unicode="&#x208a;" horiz-adv-x="788" 
d="M449 143h231v-110h-231v-232h-111v232h-232v110h232v230h111v-230z" />
    <glyph glyph-name="uni208B" unicode="&#x208b;" horiz-adv-x="788" 
d="M104 33v110h578v-110h-578z" />
    <glyph glyph-name="uni208C" unicode="&#x208c;" horiz-adv-x="788" 
d="M104 152v110h578v-110h-578zM104 -88v111h578v-111h-578z" />
    <glyph glyph-name="parenleft.subscript" unicode="&#x208d;" horiz-adv-x="425" 
d="M70 15q0 306 219 550h106q-213 -260 -213 -549t213 -555h-106q-219 248 -219 554z" />
    <glyph glyph-name="parenright.subscript" unicode="&#x208e;" horiz-adv-x="425" 
d="M356 11q0 -306 -219 -550h-106q215 266 215 551t-215 553h106q219 -248 219 -554z" />
    <glyph glyph-name="Euro" unicode="&#x20ac;" 
d="M55 741v131h197q53 232 205 358t352 126q115 0 215 -25v-145q-123 27 -221 26q-143 0 -245 -86t-140 -254h418v-131h-437q-4 -61 -4 -103t2 -67h439v-129h-420q37 -164 133 -240q97 -76 217 -77q120 0 270 29v-138q-131 -33 -264 -32q-209 0 -350 112t-182 346h-185v129
h172v54q0 61 6 116h-178z" />
    <glyph glyph-name="uni2113" unicode="&#x2113;" horiz-adv-x="899" 
d="M190 1018q0 420 312 420q100 0 155 -69t56 -183q0 -176 -85 -300t-286 -278v-293q0 -209 164 -209q104 0 209 160l86 -69q-49 -103 -133 -163t-195 -61q-155 0 -219 86t-64 254v201l-104 -70l-47 113l151 109v352zM342 1038v-270q113 96 174 184t62 207q0 156 -97 156
q-139 -1 -139 -277z" />
    <glyph glyph-name="uni2116" unicode="&#x2116;" horiz-adv-x="2029" 
d="M1821 1022q0 108 -49 163q-48 56 -138 56t-142 -63t-52 -171t50 -163q50 -56 138 -56t140 63t53 171zM1309 1003q0 159 96 255t238 96q143 0 227 -85t84 -244t-97 -255t-239 -96t-225 85q-84 85 -84 244zM352 1176v-1176h-151v1343h250l528 -1175h10v1175h152v-1343h-252
l-529 1176h-8zM1343 430v125h578v-125h-578z" />
    <glyph glyph-name="uni2117" unicode="&#x2117;" horiz-adv-x="1613" 
d="M702 977v-305q35 -4 113 -4t131 42t53 119q0 147 -188 148h-109zM702 279h-120v796h245q143 0 221 -63t78 -182t-86 -191t-237 -72q-46 0 -101 6v-294zM217 669q0 -245 173 -420t416 -175t416 176t173 420t-173 420t-416 176t-416 -176t-173 -421zM111 670q1 286 205 490
t491 204t491 -205t203 -491q0 -286 -204 -490q-205 -205 -491 -205t-491 205q-204 205 -204 492z" />
    <glyph glyph-name="trademark" unicode="&#x2122;" horiz-adv-x="1777" 
d="M958 1186h-6l-16 -572h-125l33 729h176l199 -452h4l196 452h158l31 -729h-123l-15 572h-6l-200 -443h-105zM457 1229v-615h-135v615h-213v114h561v-114h-213z" />
    <glyph glyph-name="uni2126" unicode="&#x2126;" horiz-adv-x="1368" 
d="M1087 684q-1 268 -111 400t-284 132t-294 -130q-120 -132 -119 -404q0 -483 335 -549l-24 -133h-502v135h223v8q-201 173 -201 509t168 523t418 187t405 -176t155 -514t-232 -529v-8h256v-135h-504l-22 133q143 29 238 156t95 395z" />
    <glyph glyph-name="estimated" unicode="&#x212e;" horiz-adv-x="1675" 
d="M1307 682v367q0 29 -17 47q-195 188 -461 188t-456 -194q-18 -27 -19 -50v-358q0 -10 13 -10h933q7 0 7 10zM1583 631h-1216q-12 0 -13 -8v-365q0 -20 19 -47q186 -197 456 -197q145 0 271 60t215 164h110q-102 -121 -260 -193t-336 -72q-311 0 -531 198
q-220 197 -220 479t220 478t531 197q311 0 533 -197t221 -479v-18z" />
    <glyph glyph-name="arrowleft" unicode="&#x2190;" horiz-adv-x="1769" 
d="M332 721h1366v-135h-1366v-4l282 -279l-96 -96l-446 446l446 447l94 -96l-280 -279v-4z" />
    <glyph glyph-name="arrowup" unicode="&#x2191;" horiz-adv-x="1118" 
d="M627 1165v-1366h-135v1366h-5l-278 -282l-96 96l446 446l447 -446l-97 -94l-278 280h-4z" />
    <glyph glyph-name="arrowright" unicode="&#x2192;" horiz-adv-x="1769" 
d="M1438 586h-1366v135h1366v4l-281 279l94 96l447 -447l-447 -446l-96 96l283 279v4z" />
    <glyph glyph-name="arrowdown" unicode="&#x2193;" horiz-adv-x="1118" 
d="M492 59v1366h135v-1366h4l278 281l97 -94l-447 -447l-446 447l96 96l278 -283h5z" />
    <glyph glyph-name="arrowboth" unicode="&#x2194;" horiz-adv-x="1769" 
d="M1438 586h-1106v-4l282 -279l-96 -96l-446 446l446 447l94 -96l-280 -279v-4h1106v4l-283 279l96 96l447 -447l-447 -446l-94 96l281 279v4z" />
    <glyph glyph-name="arrowupdn" unicode="&#x2195;" horiz-adv-x="1118" 
d="M492 59v1106h-5l-278 -282l-96 96l446 446l447 -446l-97 -94l-278 280h-4v-1106h4l278 283l97 -96l-447 -447l-446 447l96 94l278 -281h5z" />
    <glyph glyph-name="uni2196" unicode="&#x2196;" horiz-adv-x="1423" 
d="M113 1425h630v-135l-395 2l-4 -4l967 -964l-97 -97l-964 967l-4 -4l2 -397h-135v632z" />
    <glyph glyph-name="uni2197" unicode="&#x2197;" horiz-adv-x="1423" 
d="M680 1425h631v-632h-135l2 397l-4 4l-965 -967l-96 97l966 964l-4 4l-395 -2v135z" />
    <glyph glyph-name="uni2198" unicode="&#x2198;" horiz-adv-x="1423" 
d="M1311 -201h-631v135l395 -2l4 5l-966 964l96 96l965 -966l4 4l-2 397h135v-633z" />
    <glyph glyph-name="uni2199" unicode="&#x2199;" horiz-adv-x="1423" 
d="M743 -201h-630v633h135l-2 -397l4 -4l964 966l97 -96l-967 -964l4 -5l395 2v-135z" />
    <glyph glyph-name="partialdiff" unicode="&#x2202;" 
d="M254 492q0 -184 80 -280t210 -97t210 107t80 300q0 119 -13 254q-109 102 -280 103q-127 1 -207 -101t-80 -286zM989 639q0 -333 -129 -495t-328 -162q-198 0 -316 131t-118 375t132 388t325 144q150 0 240 -92l10 4q-39 182 -148 275t-235 93t-240 -30v135
q113 31 235 31q243 0 400 -183q80 -91 126 -249t46 -365z" />
    <glyph glyph-name="uni2206" unicode="&#x2206;" horiz-adv-x="1253" 
d="M618 1028l-346 -889h686l-329 889h-11zM1186 0h-1127l535 1348h86z" />
    <glyph glyph-name="product" unicode="&#x220f;" horiz-adv-x="1339" 
d="M72 1198v145h1196v-145h-129v-1403h-162v1403h-615v-1403h-161v1403h-129z" />
    <glyph glyph-name="summation" unicode="&#x2211;" horiz-adv-x="1062" 
d="M139 1343h776v-141h-579v-6l393 -539v-110l-422 -604v-6h619v-142h-807v125l463 678l-443 614v131z" />
    <glyph glyph-name="minus" unicode="&#x2212;" 
d="M139 539v137h807v-137h-807z" />
    <glyph glyph-name="uni2215" unicode="&#x2215;" horiz-adv-x="290" 
d="M559 1391l109 -64l-938 -1622l-109 64z" />
    <glyph glyph-name="uni2219" unicode="&#x2219;" horiz-adv-x="370" 
d="M80 605q0 50 29 81t77 31q104 0 105 -111q0 -49 -28 -79q-28 -29 -78 -29q-49 0 -77 28t-28 79z" />
    <glyph glyph-name="radical" unicode="&#x221a;" 
d="M1026 1583l125 -35l-528 -1560h-131l-287 856l-178 -49l-31 123l326 90l247 -779h6z" />
    <glyph glyph-name="infinity" unicode="&#x221e;" horiz-adv-x="1415" 
d="M1024 434q78 0 132 60t54 152q0 90 -50 148t-112 58t-106 -32q-43 -32 -102 -109l-58 -76q56 -105 110 -153t132 -48zM205 666q0 -90 50 -148q51 -58 113 -57q62 0 104 31t103 108l58 76q-53 104 -109 152t-133 48q-78 0 -132 -60t-54 -150zM1042 987q115 1 204 -99
t89 -242t-88 -236q-89 -94 -199 -94t-200 56q-90 58 -141 171h-2l-56 -76q-111 -141 -276 -141q-115 0 -204 98t-89 240t88 237q88 94 198 94t201 -57q90 -57 140 -168h4l55 74q111 143 276 143z" />
    <glyph glyph-name="intersection" unicode="&#x2229;" horiz-adv-x="1609" 
d="M162 0v709q0 293 174 468t469 175t469 -169t174 -462v-721h-137v709q1 233 -139 371t-373 138t-367 -136t-133 -361v-721h-137z" />
    <glyph glyph-name="integral" unicode="&#x222b;" horiz-adv-x="550" 
d="M352 1122v-1198q0 -143 -86 -231t-237 -88q-63 0 -129 14l18 133q61 -12 128 -12t109 47t42 131v1198q0 144 86 232t237 88q63 0 131 -15l-18 -133q-61 12 -129 12t-110 -47t-42 -131z" />
    <glyph glyph-name="approxequal" unicode="&#x2248;" 
d="M713 299q-67 0 -179 78t-163 78q-94 0 -176 -105l-66 94q111 150 262 150q73 0 181 -78t159 -78q88 1 164 99l63 -93q-98 -145 -245 -145zM713 627q-67 0 -179 78t-163 77q-94 0 -176 -104l-66 94q111 150 262 150q73 0 181 -78t159 -78q88 0 164 98l63 -92
q-98 -145 -245 -145z" />
    <glyph glyph-name="notequal" unicode="&#x2260;" 
d="M139 723v137h414l78 215l125 -45l-64 -170h254v-137h-303l-84 -231h387v-138h-436l-78 -215l-125 45l62 170h-230v138h279l84 231h-363z" />
    <glyph glyph-name="equivalence" unicode="&#x2261;" horiz-adv-x="1089" 
d="M141 901v137h807v-137h-807zM141 539v137h807v-137h-807zM141 176v137h807v-137h-807z" />
    <glyph glyph-name="lessequal" unicode="&#x2264;" 
d="M139 129v135h807v-135h-807zM373 711v-4l538 -254l-57 -125l-688 336v90l688 338l57 -125z" />
    <glyph glyph-name="greaterequal" unicode="&#x2265;" 
d="M946 264v-135h-807v135h807zM713 707v4l-539 256l57 125l689 -338v-90l-689 -336l-57 125z" />
    <glyph glyph-name="lozenge" unicode="&#x25ca;" horiz-adv-x="1097" 
d="M205 682l348 -504l344 496l-348 493zM1051 678l-469 -678h-62l-473 678l471 665h64z" />
    <glyph glyph-name="uni2610" unicode="&#x2610;" horiz-adv-x="1556" 
d="M1552 1483v-1546h-1548v1546h1548zM1489 0v1419h-1421v-1419h1421z" />
    <glyph glyph-name="CR" horiz-adv-x="372" 
 />
    <glyph glyph-name="space_uni0326" horiz-adv-x="385" 
d="M135 -214q0 58 28 87t71 29q42 0 68 -29t26 -84t-35 -134t-82 -130h-72l51 176q-55 27 -55 85z" />
    <glyph glyph-name="zero.lining" 
d="M543 1221q-123 -1 -197 -143t-74 -414t73 -407q73 -134 198 -134t199 144t75 411q0 543 -274 543zM529 -18q-197 0 -313 164t-116 508t130 526t326 182t314 -169t119 -506q0 -337 -132 -521t-328 -184z" />
    <glyph glyph-name="one.lining" 
d="M559 1343h113v-1343h-162v1192q-125 0 -285 -31v129q166 53 334 53z" />
    <glyph glyph-name="two.lining" 
d="M494 1354q186 0 299 -93t112 -251q0 -128 -63 -226t-217 -213l-115 -88q-207 -154 -219 -340h647v-143h-750l-43 127q18 264 248 442l131 101q115 90 163 158t48 166q0 97 -69 155q-70 57 -195 57t-272 -37v140q160 45 295 45z" />
    <glyph glyph-name="three.lining" 
d="M178 1202v141h680l43 -110q-45 -158 -118 -258t-191 -176v-2q334 -55 334 -359q0 -196 -169 -326t-429 -130h-156v131h152q196 0 314 88t118 223q0 238 -314 276q-82 -35 -184 -57l-29 121q414 102 508 438h-559z" />
    <glyph glyph-name="four.lining" 
d="M258 422h430v772h-4q-178 -88 -302 -306t-124 -466zM846 1350v-928h149v-133h-149v-289h-160v289h-534l-46 96q2 207 79 410t218 355t316 200h127z" />
    <glyph glyph-name="five.lining" 
d="M864 1343v-141h-528v-332q57 8 147 9q195 1 312 -105t116 -287q0 -229 -171 -367t-431 -138h-139v133h143q186 -2 309 98q122 101 122 241t-86 212q-85 72 -234 71q-102 0 -231 -14v620h671z" />
    <glyph glyph-name="six.lining" 
d="M299 528q0 -211 69 -313q70 -102 184 -102t176 82q62 83 62 237t-69 231q-70 77 -188 77t-224 -27q-10 -96 -10 -185zM788 1343h140v-129h-131q-371 0 -469 -383l2 -4q96 53 227 54q182 0 292 -112q109 -111 109 -317t-114 -338t-304 -132q-188 0 -300 143t-111 414
q0 412 179 608t480 196z" />
    <glyph glyph-name="seven.lining" 
d="M139 1343h801l31 -137q-248 -256 -371 -566t-123 -640h-158q0 696 472 1198v4h-652v141z" />
    <glyph glyph-name="eight.lining" 
d="M279 328q0 -100 73 -160q74 -59 188 -59t188 58t75 132q0 75 -38 127t-149 115l-151 86q-186 -117 -186 -299zM550 1233q-100 -1 -160 -61t-60 -140t28 -129t99 -92l133 -84q96 69 139 141t43 165t-61 147q-62 53 -161 53zM168 1012q0 138 114 244t276 106q161 0 265 -89
q105 -89 105 -213t-58 -214t-190 -168l84 -45q115 -67 161 -137t46 -156q0 -154 -127 -256t-312 -102t-299 91q-113 91 -112 240q0 227 256 371l-66 47q-143 98 -143 281z" />
    <glyph glyph-name="nine.lining" 
d="M788 815q0 211 -68 313q-69 102 -184 102t-178 -81q-63 -82 -63 -237q0 -156 72 -232t187 -76t226 27q8 115 8 184zM297 0h-137v129h129q371 0 471 383l-4 4q-96 -53 -224 -53q-184 -1 -294 111t-111 318q0 206 116 338q115 132 303 132t300 -143t110 -414
q0 -413 -179 -609t-480 -196z" />
    <glyph glyph-name="one.liningproportional" horiz-adv-x="729" 
d="M393 1343h113v-1343h-162v1192q-123 0 -258 -27v133q156 45 307 45z" />
    <glyph glyph-name="zero.tabular" 
d="M834 512q0 184 -77 278t-210 93q-133 1 -213 -101t-80 -286t80 -280t208 -97q128 0 210 105q82 104 82 288zM528 -18q-194 0 -312 131t-118 375t132 388t326 144t314 -133t119 -374q0 -241 -133 -386t-328 -145z" />
    <glyph glyph-name="one.tabular" 
d="M543 1001h108v-1001h-155v852q-151 0 -303 -35v127q166 57 350 57z" />
    <glyph glyph-name="two.tabular" 
d="M502 1012q154 0 252 -79t98 -196t-56 -195t-182 -145l-145 -73q-121 -66 -176 -174v-7h631v-143h-740l-45 127q47 180 252 297l137 76q88 49 125 99t37 117q0 66 -59 108t-180 42t-258 -41v142q156 45 309 45z" />
    <glyph glyph-name="three.tabular" 
d="M168 862v139h680l43 -108q-86 -299 -309 -434v-4q332 -55 331 -357q0 -194 -169 -326t-427 -132h-155v133h151q197 0 317 88t120 223q0 240 -318 274q-100 -39 -184 -55l-27 119q410 102 508 440h-561z" />
    <glyph glyph-name="four.tabular" 
d="M694 133v719h-4q-180 -82 -304 -278t-130 -441h438zM844 1006v-873h153v-133h-153v-360h-150v360h-540l-45 96q10 312 182 576t430 334h123z" />
    <glyph glyph-name="five.tabular" 
d="M864 1001v-139h-530v-334q70 10 149 11q193 1 310 -105t116 -289q0 -225 -171 -365t-429 -140h-139v133h143q190 0 313 99q122 98 122 240t-86 214t-236 71q-104 0 -233 -14v618h671z" />
    <glyph glyph-name="six.tabular" 
d="M293 528q0 -207 71 -311q70 -104 186 -104t182 82q66 81 65 235q0 154 -75 233t-198 79t-223 -27q-8 -76 -8 -187zM788 1346h140v-132h-131q-377 0 -475 -383l2 -4q100 53 233 54q182 0 292 -112q109 -111 109 -317t-114 -338t-304 -132q-188 0 -300 143t-111 414
q0 407 181 607t478 200z" />
    <glyph glyph-name="seven.tabular" 
d="M139 1001h801l31 -137q-250 -254 -374 -566t-124 -642h-149q0 696 467 1200v6h-652v139z" />
    <glyph glyph-name="eight.tabular" 
d="M279 328q0 -100 73 -161q74 -61 189 -61t191 60t75 134q-1 76 -37 128t-149 115l-154 86q-188 -119 -188 -301zM551 1233q-99 -1 -161 -61t-62 -142t28 -129t99 -90l135 -84q96 69 141 141t45 163t-62 147q-63 55 -163 55zM172 992q0 158 114 264t274 106q161 0 264 -90
t104 -221q0 -227 -248 -373l84 -47q205 -117 205 -282t-125 -266t-311 -101t-300 91q-113 91 -112 240q0 225 258 371l-68 49q-139 102 -139 259z" />
    <glyph glyph-name="nine.tabular" 
d="M560 260q122 0 222 27q12 115 13 186q0 209 -71 312q-70 103 -186 103t-181 -82q-65 -83 -65 -236q0 -154 73 -232t195 -78zM297 -344h-135v129h129q375 0 477 387l-4 4q-98 -55 -232 -55q-182 -1 -292 111t-111 318q0 206 115 338q116 132 304 132t298 -143t110 -412
q0 -409 -181 -609t-478 -200z" />
    <glyph glyph-name="l.alt" horiz-adv-x="522" 
d="M319 215q-1 -47 15 -65t64 -18t100 13v-135q-76 -24 -164 -24t-129 45t-41 149v1239l155 13v-1217z" />
    <glyph glyph-name="ampersand.alt" horiz-adv-x="1398" 
d="M592 123q199 0 326 88l-426 377q-182 -109 -183 -262q0 -92 74 -148t209 -55zM786 1040q0 84 -57 134t-155 49t-160 -57t-62 -130t25 -120t94 -111l72 -70q129 72 186 146q57 75 57 159zM944 606v121h371v-121h-98q0 -229 -105 -366l191 -166v-74h-148l-133 123
q-178 -141 -444 -141q-211 0 -325 85t-114 234q-1 119 63 207t204 162l-82 73q-70 63 -100 123t-27 148q0 147 112 248q113 100 276 100t260 -85t97 -222q0 -248 -311 -393l381 -338q61 106 61 282h-129z" />
    <glyph glyph-name="bar.alt" horiz-adv-x="55" 
d="M18 -446v1863h19v-1863h-19z" />
    <glyph glyph-name="A.sc" horiz-adv-x="995" 
d="M670 383l-170 516h-17l-170 -516h357zM621 1022l340 -1022h-170l-86 254h-429l-83 -254h-160l348 1022h240z" />
    <glyph glyph-name="Agrave.sc" horiz-adv-x="995" 
d="M375 1425l203 -297h-136l-243 297h176zM670 383l-170 516h-17l-170 -516h357zM621 1022l340 -1022h-170l-86 254h-429l-83 -254h-160l348 1022h240z" />
    <glyph glyph-name="Aacute.sc" horiz-adv-x="995" 
d="M670 383l-170 516h-17l-170 -516h357zM621 1022l340 -1022h-170l-86 254h-429l-83 -254h-160l348 1022h240zM422 1128l201 297h178l-244 -297h-135z" />
    <glyph glyph-name="Acircumflex.sc" horiz-adv-x="995" 
d="M670 383l-170 516h-17l-170 -516h357zM621 1022l340 -1022h-170l-86 254h-429l-83 -254h-160l348 1022h240zM207 1128l211 297h166l202 -297h-155l-123 181h-33l-125 -181h-143z" />
    <glyph glyph-name="Atilde.sc" horiz-adv-x="995" 
d="M362 1255q-74 0 -135 -77l-47 94q84 117 201 117q57 1 144 -59t118 -60q68 -1 123 73l47 -94q-74 -113 -188 -112q-51 0 -141 59t-122 59zM670 383l-170 516h-17l-170 -516h357zM621 1022l340 -1022h-170l-86 254h-429l-83 -254h-160l348 1022h240z" />
    <glyph glyph-name="Adieresis.sc" horiz-adv-x="995" 
d="M670 383l-170 516h-17l-170 -516h357zM621 1022l340 -1022h-170l-86 254h-429l-83 -254h-160l348 1022h240zM561 1251q0 45 26 71q25 26 69 26t70 -26t26 -71t-26 -71t-71 -25q-94 0 -94 96zM242 1251q0 96 94 97q94 0 94 -96t-94 -97q-94 0 -94 96z" />
    <glyph glyph-name="Aring.sc" horiz-adv-x="995" 
d="M670 383l-170 516h-17l-170 -516h357zM621 1022l340 -1022h-170l-86 254h-429l-83 -254h-160l348 1022h240zM414 1275q0 -36 24 -62q24 -25 59 -25t59 26t24 61t-25 61t-59 26t-58 -26t-24 -61zM326 1275q0 71 50 120t122 49t120 -49t50 -120q0 -71 -50 -121t-122 -50
q-70 0 -120 50t-50 121z" />
    <glyph glyph-name="Amacron.sc" horiz-adv-x="995" 
d="M250 1155v117h493v-117h-493zM670 383l-170 516h-17l-170 -516h357zM621 1022l340 -1022h-170l-86 254h-429l-83 -254h-160l348 1022h240z" />
    <glyph glyph-name="Abreve.sc" horiz-adv-x="995" 
d="M504 1128h-17q-121 0 -193 78t-73 219h139q0 -88 36 -137t91 -49h29q53 0 92 50t39 136h125q0 -139 -76 -218t-192 -79zM670 383l-170 516h-17l-170 -516h357zM621 1022l340 -1022h-170l-86 254h-429l-83 -254h-160l348 1022h240z" />
    <glyph glyph-name="Aogonek.sc" horiz-adv-x="995" 
d="M670 383l-170 516h-17l-170 -516h357zM778 -203q0 -76 88 -76q63 0 125 21v-104q-57 -29 -145 -29q-217 0 -217 168q0 55 44 115t126 108h-8l-86 254h-429l-83 -254h-160l348 1022h240l340 -1022h-17q-166 -111 -166 -203z" />
    <glyph glyph-name="B.sc" horiz-adv-x="999" 
d="M449 899h-127v-313h135q123 0 177 40t54 120t-55 116t-184 37zM451 463h-129v-338h161q252 0 252 170q0 88 -64 128t-220 40zM489 0h-323v1022h297q195 0 291 -67t96 -185q0 -174 -162 -229v-4q94 -17 152 -81t57 -151q1 -147 -103 -226t-305 -79z" />
    <glyph glyph-name="C.sc" horiz-adv-x="911" 
d="M641 1032q113 0 221 -20l-12 -142q-119 20 -215 21q-161 -1 -271 -103t-110 -285t106 -279t273 -95q120 0 231 23v-138q-121 -25 -248 -24q-236 0 -380 129t-146 379q0 250 160 392t391 142z" />
    <glyph glyph-name="Ccedilla.sc" horiz-adv-x="911" 
d="M772 -205q0 -84 -73 -135t-207 -51h-93v106h95q141 0 141 60q0 49 -111 61l-39 4v94l117 -8q170 -12 170 -131zM641 1032q113 0 221 -20l-12 -142q-119 20 -215 21q-161 -1 -271 -103t-110 -285t106 -279t273 -95q120 0 231 23v-138q-121 -25 -248 -24q-236 0 -380 129
t-146 379q0 250 160 392t391 142z" />
    <glyph glyph-name="Cacute.sc" horiz-adv-x="911" 
d="M641 1032q113 0 221 -20l-12 -142q-119 20 -215 21q-161 -1 -271 -103t-110 -285t106 -279t273 -95q120 0 231 23v-138q-121 -25 -248 -24q-236 0 -380 129t-146 379q0 250 160 392t391 142zM494 1128l200 297h178l-243 -297h-135z" />
    <glyph glyph-name="Ccircumflex.sc" horiz-adv-x="911" 
d="M641 1032q113 0 221 -20l-12 -142q-119 20 -215 21q-161 -1 -271 -103t-110 -285t106 -279t273 -95q120 0 231 23v-138q-121 -25 -248 -24q-236 0 -380 129t-146 379q0 250 160 392t391 142zM274 1128l211 297h166l203 -297h-156l-123 181h-32l-125 -181h-144z" />
    <glyph glyph-name="Cdotaccent.sc" horiz-adv-x="911" 
d="M479 1237q0 45 27 72t72 26q98 0 98 -97t-98 -97t-99 96zM641 1032q113 0 221 -20l-12 -142q-119 20 -215 21q-161 -1 -271 -103t-110 -285t106 -279t273 -95q120 0 231 23v-138q-121 -25 -248 -24q-236 0 -380 129t-146 379q0 250 160 392t391 142z" />
    <glyph glyph-name="Ccaron.sc" horiz-adv-x="911" 
d="M641 1032q113 0 221 -20l-12 -142q-119 20 -215 21q-161 -1 -271 -103t-110 -285t106 -279t273 -95q120 0 231 23v-138q-121 -25 -248 -24q-236 0 -380 129t-146 379q0 250 160 392t391 142zM854 1425l-211 -297h-168l-201 297h156l123 -180h33l125 180h143z" />
    <glyph glyph-name="D.sc" horiz-adv-x="1134" 
d="M324 887v-752h155q188 0 295 98q106 99 106 285t-108 278q-109 92 -305 91h-143zM475 0h-309v1022h311q275 0 421 -124t146 -372t-152 -388q-153 -138 -417 -138z" />
    <glyph glyph-name="Dcaron.sc" horiz-adv-x="1134" 
d="M850 1425l-211 -297h-168l-201 297h156l123 -180h33l125 180h143zM324 887v-752h155q188 0 295 98q106 99 106 285t-108 278q-109 92 -305 91h-143zM475 0h-309v1022h311q275 0 421 -124t146 -372t-152 -388q-153 -138 -417 -138z" />
    <glyph glyph-name="E.sc" horiz-adv-x="847" 
d="M166 0v1022h565v-135h-407v-295h368v-135h-368v-322h411v-135h-569z" />
    <glyph glyph-name="Egrave.sc" horiz-adv-x="847" 
d="M166 0v1022h565v-135h-407v-295h368v-135h-368v-322h411v-135h-569zM330 1425l202 -297h-135l-243 297h176z" />
    <glyph glyph-name="Eacute.sc" horiz-adv-x="847" 
d="M166 0v1022h565v-135h-407v-295h368v-135h-368v-322h411v-135h-569zM375 1128l200 297h179l-244 -297h-135z" />
    <glyph glyph-name="Ecircumflex.sc" horiz-adv-x="847" 
d="M166 0v1022h565v-135h-407v-295h368v-135h-368v-322h411v-135h-569zM162 1128l211 297h166l202 -297h-155l-123 181h-33l-125 -181h-143z" />
    <glyph glyph-name="Edieresis.sc" horiz-adv-x="847" 
d="M166 0v1022h565v-135h-407v-295h368v-135h-368v-322h411v-135h-569zM516 1251q0 45 26 71t70 26t69 -26q26 -26 26 -71t-26 -71t-71 -25q-94 0 -94 96zM197 1251q0 96 94 97q94 0 94 -96t-94 -97q-94 0 -94 96z" />
    <glyph glyph-name="Emacron.sc" horiz-adv-x="847" 
d="M166 0v1022h565v-135h-407v-295h368v-135h-368v-322h411v-135h-569zM205 1155v117h493v-117h-493z" />
    <glyph glyph-name="Ebreve.sc" horiz-adv-x="847" 
d="M459 1128h-17q-122 0 -194 78t-72 219h139q0 -88 36 -137t91 -49h29q53 0 92 50t39 136h125q1 -139 -75 -218t-193 -79zM166 0v1022h565v-135h-407v-295h368v-135h-368v-322h411v-135h-569z" />
    <glyph glyph-name="Edotaccent.sc" horiz-adv-x="847" 
d="M166 0v1022h565v-135h-407v-295h368v-135h-368v-322h411v-135h-569zM352 1237q0 45 27 72t72 26q98 0 98 -97q-1 -97 -99 -97t-98 96z" />
    <glyph glyph-name="Eogonek.sc" horiz-adv-x="847" 
d="M166 0v1022h565v-135h-407v-295h368v-135h-368v-322h411v-135h-162q-166 -111 -165 -203q0 -76 88 -76q63 0 125 21v-104q-57 -29 -146 -29q-217 0 -217 168q0 55 44 115t126 108h-262z" />
    <glyph glyph-name="Ecaron.sc" horiz-adv-x="847" 
d="M166 0v1022h565v-135h-407v-295h368v-135h-368v-322h411v-135h-569zM741 1425l-211 -297h-168l-200 297h155l123 -180h33l125 180h143z" />
    <glyph glyph-name="F.sc" horiz-adv-x="843" 
d="M166 0v1022h565v-135h-407v-301h372v-135h-372v-451h-158z" />
    <glyph glyph-name="G.sc" horiz-adv-x="1083" 
d="M602 367v135h352v-484q-152 -29 -315 -28q-245 0 -397 128t-152 378t170 394q170 142 422 142q137 0 248 -20l-15 -142q-123 20 -237 21q-190 1 -307 -103t-117 -288t108 -280q109 -95 289 -95q74 0 152 10v232h-201z" />
    <glyph glyph-name="Gcircumflex.sc" horiz-adv-x="1083" 
d="M602 367v135h352v-484q-152 -29 -315 -28q-245 0 -397 128t-152 378t170 394q170 142 422 142q137 0 248 -20l-15 -142q-123 20 -237 21q-190 1 -307 -103t-117 -288t108 -280q109 -95 289 -95q74 0 152 10v232h-201zM295 1128l211 297h166l202 -297h-155l-123 181h-33
l-125 -181h-143z" />
    <glyph glyph-name="Gbreve.sc" horiz-adv-x="1083" 
d="M592 1128h-17q-121 0 -193 78t-73 219h140q-1 -88 35 -137t91 -49h29q53 0 92 50t39 136h125q0 -139 -76 -218t-192 -79zM602 367v135h352v-484q-152 -29 -315 -28q-245 0 -397 128t-152 378t170 394q170 142 422 142q137 0 248 -20l-15 -142q-123 20 -237 21
q-190 1 -307 -103t-117 -288t108 -280q109 -95 289 -95q74 0 152 10v232h-201z" />
    <glyph glyph-name="Gdotaccent.sc" horiz-adv-x="1083" 
d="M492 1237q0 45 26 72q27 27 72 26q98 0 98 -97t-98 -97t-98 96zM602 367v135h352v-484q-152 -29 -315 -28q-245 0 -397 128t-152 378t170 394q170 142 422 142q137 0 248 -20l-15 -142q-123 20 -237 21q-190 1 -307 -103t-117 -288t108 -280q109 -95 289 -95q74 0 152 10
v232h-201z" />
    <glyph glyph-name="Gcommaaccent.sc" horiz-adv-x="1083" 
d="M494 -214q0 58 27 87q28 29 71 29q42 0 68 -29t26 -84t-35 -134t-82 -130h-71l51 176q-55 27 -55 85zM602 367v135h352v-484q-152 -29 -315 -28q-245 0 -397 128t-152 378t170 394q170 142 422 142q137 0 248 -20l-15 -142q-123 20 -237 21q-190 1 -307 -103t-117 -288
t108 -280q109 -95 289 -95q74 0 152 10v232h-201z" />
    <glyph glyph-name="H.sc" horiz-adv-x="1140" 
d="M817 0v455h-493v-455h-158v1022h158v-432h493v432h158v-1022h-158z" />
    <glyph glyph-name="Hcircumflex.sc" horiz-adv-x="1140" 
d="M817 0v455h-493v-455h-158v1022h158v-432h493v432h158v-1022h-158zM283 1128l211 297h165l203 -297h-155l-123 181h-33l-125 -181h-143z" />
    <glyph glyph-name="I.sc" horiz-adv-x="489" 
d="M324 1022v-1022h-158v1022h158z" />
    <glyph glyph-name="dotlessi.sc" horiz-adv-x="489" 
d="M324 1022v-1022h-158v1022h158z" />
    <glyph glyph-name="Igrave.sc" horiz-adv-x="489" 
d="M123 1425l203 -297h-136l-243 297h176zM324 1022v-1022h-158v1022h158z" />
    <glyph glyph-name="Iacute.sc" horiz-adv-x="489" 
d="M324 1022v-1022h-158v1022h158zM168 1128l201 297h178l-244 -297h-135z" />
    <glyph glyph-name="Icircumflex.sc" horiz-adv-x="489" 
d="M324 1022v-1022h-158v1022h158zM-45 1128l211 297h166l203 -297h-156l-123 181h-33l-125 -181h-143z" />
    <glyph glyph-name="Idieresis.sc" horiz-adv-x="489" 
d="M324 1022v-1022h-158v1022h158zM309 1251q0 45 26 71q25 26 69 26t70 -26t26 -71t-26 -71t-71 -25q-94 0 -94 96zM-10 1251q0 96 94 97q94 0 94 -96t-94 -97q-94 0 -94 96z" />
    <glyph glyph-name="Itilde.sc" horiz-adv-x="489" 
d="M109 1255q-74 0 -136 -77l-47 94q84 117 201 117q57 1 144 -59t118 -60q68 -1 123 73l47 -94q-74 -113 -188 -112q-51 0 -141 59t-121 59zM324 1022v-1022h-158v1022h158z" />
    <glyph glyph-name="Imacron.sc" horiz-adv-x="489" 
d="M-2 1155v117h494v-117h-494zM324 1022v-1022h-158v1022h158z" />
    <glyph glyph-name="Ibreve.sc" horiz-adv-x="489" 
d="M252 1128h-16q-121 0 -194 78t-73 219h140q-1 -88 35 -137t92 -49h28q53 0 92 50t39 136h125q0 -139 -76 -218t-192 -79zM324 1022v-1022h-158v1022h158z" />
    <glyph glyph-name="Iogonek.sc" horiz-adv-x="489" 
d="M166 0v1022h158v-1022h-9q-164 -111 -163 -203q0 -76 86 -76q66 0 127 21v-104q-57 -29 -146 -29q-217 0 -217 168q0 121 168 223h-4z" />
    <glyph glyph-name="Idotaccent.sc" horiz-adv-x="489" 
d="M145 1237q0 45 26 72t73 26q98 0 98 -97t-98 -97t-99 96zM324 1022v-1022h-158v1022h158z" />
    <glyph glyph-name="J.sc" horiz-adv-x="575" 
d="M416 1022v-746q0 -141 -75 -214t-210 -72q-55 0 -88 8v135q39 -6 91 -6t88 38t36 114v743h158z" />
    <glyph glyph-name="Jcircumflex.sc" horiz-adv-x="575" 
d="M416 1022v-746q0 -141 -75 -214t-210 -72q-55 0 -88 8v135q39 -6 91 -6t88 38t36 114v743h158zM53 1128l211 297h166l203 -297h-156l-123 181h-32l-125 -181h-144z" />
    <glyph glyph-name="K.sc" horiz-adv-x="1034" 
d="M166 1022h158v-436h94l375 436h188l-428 -483l440 -539h-205l-364 449h-100v-449h-158v1022z" />
    <glyph glyph-name="Kcommaaccent.sc" horiz-adv-x="1034" 
d="M166 1022h158v-436h94l375 436h188l-428 -483l440 -539h-205l-364 449h-100v-449h-158v1022zM485 -214q0 58 28 87t71 29q42 0 68 -29t26 -84t-35 -134t-82 -130h-72l52 176q-56 27 -56 85z" />
    <glyph glyph-name="L.sc" horiz-adv-x="780" 
d="M166 0v1022h158v-887h411v-135h-569z" />
    <glyph glyph-name="Lacute.sc" horiz-adv-x="780" 
d="M156 1128l200 297h179l-244 -297h-135zM166 0v1022h158v-887h411v-135h-569z" />
    <glyph glyph-name="Lcommaaccent.sc" horiz-adv-x="780" 
d="M356 -214q0 58 28 87t71 29t69 -29t25 -84q0 -55 -35 -134t-82 -130h-72l52 176q-56 27 -56 85zM166 0v1022h158v-887h411v-135h-569z" />
    <glyph glyph-name="Lcaron.sc" horiz-adv-x="780" 
d="M508 908q0 58 28 86t70 28t69 -29q57 -64 -9 -218q-35 -79 -82 -130h-72l51 176q-55 29 -55 87zM166 0v1022h158v-887h411v-135h-569z" />
    <glyph glyph-name="M.sc" horiz-adv-x="1431" 
d="M344 872h-8l-35 -872h-151l53 1022h239l277 -655h8l268 655h234l51 -1022h-160l-39 872h-8l-280 -667h-162z" />
    <glyph glyph-name="N.sc" horiz-adv-x="1136" 
d="M309 868v-868h-143v1022h235l418 -868h8v868h144v-1022h-236l-418 868h-8z" />
    <glyph glyph-name="Ntilde.sc" horiz-adv-x="1136" 
d="M434 1255q-74 0 -135 -77l-47 94q84 117 201 117q57 1 144 -59t118 -60q68 -1 123 73l47 -94q-74 -113 -189 -112q-51 0 -141 59t-121 59zM309 868v-868h-143v1022h235l418 -868h8v868h144v-1022h-236l-418 868h-8z" />
    <glyph glyph-name="Nacute.sc" horiz-adv-x="1136" 
d="M309 868v-868h-143v1022h235l418 -868h8v868h144v-1022h-236l-418 868h-8zM494 1128l200 297h178l-243 -297h-135z" />
    <glyph glyph-name="Ncommaaccent.sc" horiz-adv-x="1136" 
d="M475 -214q0 58 28 87q29 29 71 29t68 -29t26 -84t-35 -134t-82 -130h-72l51 176q-55 27 -55 85zM309 868v-868h-143v1022h235l418 -868h8v868h144v-1022h-236l-418 868h-8z" />
    <glyph glyph-name="Ncaron.sc" horiz-adv-x="1136" 
d="M309 868v-868h-143v1022h235l418 -868h8v868h144v-1022h-236l-418 868h-8zM860 1425l-211 -297h-168l-200 297h155l123 -180h33l125 180h143z" />
    <glyph glyph-name="O.sc" horiz-adv-x="1153" 
d="M254 512q0 -198 89 -293q89 -96 227 -96t234 94q95 94 95 293t-89 294t-227 95t-234 -94q-95 -95 -95 -293zM90 503q0 251 142 392t354 141t344 -133q131 -133 131 -383t-141 -392q-142 -142 -354 -142t-344 133t-132 384z" />
    <glyph glyph-name="Ograve.sc" horiz-adv-x="1153" 
d="M455 1425l202 -297h-135l-243 297h176zM254 512q0 -198 89 -293q89 -96 227 -96t234 94q95 94 95 293t-89 294t-227 95t-234 -94q-95 -95 -95 -293zM90 503q0 251 142 392t354 141t344 -133q131 -133 131 -383t-141 -392q-142 -142 -354 -142t-344 133t-132 384z" />
    <glyph glyph-name="Oacute.sc" horiz-adv-x="1153" 
d="M500 1128l200 297h179l-244 -297h-135zM254 512q0 -198 89 -293q89 -96 227 -96t234 94q95 94 95 293t-89 294t-227 95t-234 -94q-95 -95 -95 -293zM90 503q0 251 142 392t354 141t344 -133q131 -133 131 -383t-141 -392q-142 -142 -354 -142t-344 133t-132 384z" />
    <glyph glyph-name="Ocircumflex.sc" horiz-adv-x="1153" 
d="M254 512q0 -198 89 -293q89 -96 227 -96t234 94q95 94 95 293t-89 294t-227 95t-234 -94q-95 -95 -95 -293zM90 503q0 251 142 392t354 141t344 -133q131 -133 131 -383t-141 -392q-142 -142 -354 -142t-344 133t-132 384zM287 1128l211 297h166l202 -297h-155l-123 181
h-33l-125 -181h-143z" />
    <glyph glyph-name="Otilde.sc" horiz-adv-x="1153" 
d="M440 1255q-74 0 -135 -77l-47 94q84 117 201 117q57 1 144 -59t118 -60q68 -1 123 73l47 -94q-74 -113 -189 -112q-51 0 -141 59t-121 59zM254 512q0 -198 89 -293q89 -96 227 -96t234 94q95 94 95 293t-89 294t-227 95t-234 -94q-95 -95 -95 -293zM90 503q0 251 142 392
t354 141t344 -133q131 -133 131 -383t-141 -392q-142 -142 -354 -142t-344 133t-132 384z" />
    <glyph glyph-name="Odieresis.sc" horiz-adv-x="1153" 
d="M254 512q0 -198 89 -293q89 -96 227 -96t234 94q95 94 95 293t-89 294t-227 95t-234 -94q-95 -95 -95 -293zM90 503q0 251 142 392t354 141t344 -133q131 -133 131 -383t-141 -392q-142 -142 -354 -142t-344 133t-132 384zM639 1251q0 45 26 71q25 26 69 26t70 -26
t26 -71t-26 -71t-71 -25q-94 0 -94 96zM319 1251q0 96 95 97q94 0 94 -96t-94 -97q-94 0 -95 96z" />
    <glyph glyph-name="Omacron.sc" horiz-adv-x="1153" 
d="M330 1155v117h493v-117h-493zM254 512q0 -198 89 -293q89 -96 227 -96t234 94q95 94 95 293t-89 294t-227 95t-234 -94q-95 -95 -95 -293zM90 503q0 251 142 392t354 141t344 -133q131 -133 131 -383t-141 -392q-142 -142 -354 -142t-344 133t-132 384z" />
    <glyph glyph-name="Obreve.sc" horiz-adv-x="1153" 
d="M584 1128h-17q-121 0 -193 78t-73 219h139q0 -88 36 -137t91 -49h29q53 0 92 50t39 136h125q0 -139 -76 -218t-192 -79zM254 512q0 -198 89 -293q89 -96 227 -96t234 94q95 94 95 293t-89 294t-227 95t-234 -94q-95 -95 -95 -293zM90 503q0 251 142 392t354 141t344 -133
q131 -133 131 -383t-141 -392q-142 -142 -354 -142t-344 133t-132 384z" />
    <glyph glyph-name="Ohungarumlaut.sc" horiz-adv-x="1153" 
d="M645 1128l227 297h168l-262 -297h-133zM324 1128l227 297h168l-262 -297h-133zM254 512q0 -198 89 -293q89 -96 227 -96t234 94q95 94 95 293t-89 294t-227 95t-234 -94q-95 -95 -95 -293zM90 503q0 251 142 392t354 141t344 -133q131 -133 131 -383t-141 -392
q-142 -142 -354 -142t-344 133t-132 384z" />
    <glyph glyph-name="P.sc" horiz-adv-x="933" 
d="M322 893v-389q72 -6 116 -6q127 0 196 54t68 155q0 186 -241 186h-139zM324 0h-158v1022h313q183 0 283 -82t100 -234t-110 -243q-110 -92 -306 -92q-28 0 -122 4v-375z" />
    <glyph glyph-name="Q.sc" horiz-adv-x="1153" 
d="M254 512q0 -198 89 -295q89 -96 227 -96t234 95q95 95 95 294t-89 294t-227 95t-234 -94q-95 -95 -95 -293zM90 503q0 251 142 392t354 141t344 -133q131 -133 131 -383q0 -199 -91 -330t-245 -178l264 -280h-188l-232 254h-6q-209 0 -341 133t-132 384z" />
    <glyph glyph-name="R.sc" horiz-adv-x="985" 
d="M322 895v-365h133q250 0 250 197q0 168 -228 168h-155zM324 403v-403h-158v1022h317q191 0 287 -75t96 -197t-57 -200t-160 -108l293 -442h-190l-263 403h-165z" />
    <glyph glyph-name="Racute.sc" horiz-adv-x="985" 
d="M322 895v-365h133q250 0 250 197q0 168 -228 168h-155zM324 403v-403h-158v1022h317q191 0 287 -75t96 -197t-57 -200t-160 -108l293 -442h-190l-263 403h-165zM403 1128l201 297h178l-243 -297h-136z" />
    <glyph glyph-name="Rcommaaccent.sc" horiz-adv-x="985" 
d="M322 895v-365h133q250 0 250 197q0 168 -228 168h-155zM324 403v-403h-158v1022h317q191 0 287 -75t96 -197t-57 -200t-160 -108l293 -442h-190l-263 403h-165zM430 -214q0 58 28 87t70 29t69 -29q26 -29 26 -84t-35 -134t-82 -130h-72l51 176q-55 27 -55 85z" />
    <glyph glyph-name="Rcaron.sc" horiz-adv-x="985" 
d="M322 895v-365h133q250 0 250 197q0 168 -228 168h-155zM324 403v-403h-158v1022h317q191 0 287 -75t96 -197t-57 -200t-160 -108l293 -442h-190l-263 403h-165zM772 1425l-211 -297h-168l-200 297h155l123 -180h33l125 180h143z" />
    <glyph glyph-name="S.sc" horiz-adv-x="876" 
d="M358 129q138 0 202 40t65 101q0 60 -38 100t-130 66l-131 37q-221 63 -222 258q0 131 106 216t290 85q133 0 237 -18l-10 -142q-109 20 -227 20t-178 -40q-60 -41 -60 -98t34 -91t114 -55l135 -37q238 -66 237 -266q0 -143 -112 -229t-280 -86q-169 0 -294 20v144
q124 -25 262 -25z" />
    <glyph glyph-name="Sacute.sc" horiz-adv-x="876" 
d="M358 129q138 0 202 40t65 101q0 60 -38 100t-130 66l-131 37q-221 63 -222 258q0 131 106 216t290 85q133 0 237 -18l-10 -142q-109 20 -227 20t-178 -40q-60 -41 -60 -98t34 -91t114 -55l135 -37q238 -66 237 -266q0 -143 -112 -229t-280 -86q-169 0 -294 20v144
q124 -25 262 -25zM365 1128l200 297h178l-243 -297h-135z" />
    <glyph glyph-name="Scircumflex.sc" horiz-adv-x="876" 
d="M358 129q138 0 202 40t65 101q0 60 -38 100t-130 66l-131 37q-221 63 -222 258q0 131 106 216t290 85q133 0 237 -18l-10 -142q-109 20 -227 20t-178 -40q-60 -41 -60 -98t34 -91t114 -55l135 -37q238 -66 237 -266q0 -143 -112 -229t-280 -86q-169 0 -294 20v144
q124 -25 262 -25zM150 1128l210 297h166l203 -297h-156l-122 181h-33l-125 -181h-143z" />
    <glyph glyph-name="Scedilla.sc" horiz-adv-x="876" 
d="M625 -205q0 -84 -73 -135t-208 -51h-92v106h94q141 0 141 60q0 49 -110 61l-39 4v94l117 -8q170 -12 170 -131zM358 129q138 0 202 40t65 101q0 60 -38 100t-130 66l-131 37q-221 63 -222 258q0 131 106 216t290 85q133 0 237 -18l-10 -142q-109 20 -227 20t-178 -40
q-60 -41 -60 -98t34 -91t114 -55l135 -37q238 -66 237 -266q0 -143 -112 -229t-280 -86q-169 0 -294 20v144q124 -25 262 -25z" />
    <glyph glyph-name="Scaron.sc" horiz-adv-x="876" 
d="M358 129q138 0 202 40t65 101q0 60 -38 100t-130 66l-131 37q-221 63 -222 258q0 131 106 216t290 85q133 0 237 -18l-10 -142q-109 20 -227 20t-178 -40q-60 -41 -60 -98t34 -91t114 -55l135 -37q238 -66 237 -266q0 -143 -112 -229t-280 -86q-169 0 -294 20v144
q124 -25 262 -25zM729 1425l-211 -297h-168l-200 297h155l123 -180h33l125 180h143z" />
    <glyph glyph-name="Scommaaccent.sc" horiz-adv-x="876" 
d="M358 129q138 0 202 40t65 101q0 60 -38 100t-130 66l-131 37q-221 63 -222 258q0 131 106 216t290 85q133 0 237 -18l-10 -142q-109 20 -227 20t-178 -40q-60 -41 -60 -98t34 -91t114 -55l135 -37q238 -66 237 -266q0 -143 -112 -229t-280 -86q-169 0 -294 20v144
q124 -25 262 -25zM344 -214q0 58 28 87t70 29t69 -29q26 -29 26 -84t-35 -134t-82 -130h-72l51 176q-55 27 -55 85z" />
    <glyph glyph-name="T.sc" horiz-adv-x="913" 
d="M537 887v-887h-158v887h-326v135h805v-135h-321z" />
    <glyph glyph-name="Tcommaaccent.sc" horiz-adv-x="913" 
d="M360 -214q0 58 28 87t71 29t69 -29t25 -84q0 -55 -35 -134t-82 -130h-71l51 176q-56 27 -56 85zM537 887v-887h-158v887h-326v135h805v-135h-321z" />
    <glyph glyph-name="Tcaron.sc" horiz-adv-x="913" 
d="M745 1425l-210 -297h-168l-201 297h156l122 -180h33l125 180h143zM537 887v-887h-158v887h-326v135h805v-135h-321z" />
    <glyph glyph-name="U.sc" horiz-adv-x="1122" 
d="M965 365q0 -177 -111 -277q-110 -100 -304 -100t-294 93t-100 271v670h157v-647q-1 -129 59 -187t186 -59q126 0 191 62t64 178v653h152v-657z" />
    <glyph glyph-name="Ugrave.sc" horiz-adv-x="1122" 
d="M965 365q0 -177 -111 -277q-110 -100 -304 -100t-294 93t-100 271v670h157v-647q-1 -129 59 -187t186 -59q126 0 191 62t64 178v653h152v-657zM440 1425l203 -297h-135l-244 297h176z" />
    <glyph glyph-name="Uacute.sc" horiz-adv-x="1122" 
d="M965 365q0 -177 -111 -277q-110 -100 -304 -100t-294 93t-100 271v670h157v-647q-1 -129 59 -187t186 -59q126 0 191 62t64 178v653h152v-657zM485 1128l201 297h178l-243 -297h-136z" />
    <glyph glyph-name="Ucircumflex.sc" horiz-adv-x="1122" 
d="M965 365q0 -177 -111 -277q-110 -100 -304 -100t-294 93t-100 271v670h157v-647q-1 -129 59 -187t186 -59q126 0 191 62t64 178v653h152v-657zM272 1128l211 297h166l203 -297h-156l-123 181h-32l-125 -181h-144z" />
    <glyph glyph-name="Udieresis.sc" horiz-adv-x="1122" 
d="M965 365q0 -177 -111 -277q-110 -100 -304 -100t-294 93t-100 271v670h157v-647q-1 -129 59 -187t186 -59q126 0 191 62t64 178v653h152v-657zM625 1251q0 45 25 71q26 26 70 26t70 -26t26 -71t-26 -71t-71 -25q-94 0 -94 96zM305 1251q0 96 94 97q95 0 95 -96t-94 -97
q-94 0 -95 96z" />
    <glyph glyph-name="Utilde.sc" horiz-adv-x="1122" 
d="M426 1255q-74 0 -135 -77l-47 94q84 117 200 117q56 1 144 -59t119 -60q67 -1 122 73l48 -94q-74 -113 -189 -112q-51 0 -141 59t-121 59zM965 365q0 -177 -111 -277q-110 -100 -304 -100t-294 93t-100 271v670h157v-647q-1 -129 59 -187t186 -59q126 0 191 62t64 178
v653h152v-657z" />
    <glyph glyph-name="Umacron.sc" horiz-adv-x="1122" 
d="M965 365q0 -177 -111 -277q-110 -100 -304 -100t-294 93t-100 271v670h157v-647q-1 -129 59 -187t186 -59q126 0 191 62t64 178v653h152v-657zM315 1155v117h494v-117h-494z" />
    <glyph glyph-name="Ubreve.sc" horiz-adv-x="1122" 
d="M569 1128h-16q-121 0 -194 78t-72 219h139q0 -88 36 -137t91 -49h29q53 0 92 50t39 136h125q0 -139 -76 -218t-193 -79zM965 365q0 -177 -111 -277q-110 -100 -304 -100t-294 93t-100 271v670h157v-647q-1 -129 59 -187t186 -59q126 0 191 62t64 178v653h152v-657z" />
    <glyph glyph-name="Uring.sc" horiz-adv-x="1122" 
d="M965 365q0 -177 -111 -277q-110 -100 -304 -100t-294 93t-100 271v670h157v-647q-1 -129 59 -187t186 -59q126 0 191 62t64 178v653h152v-657zM562 1362q-34 0 -58 -26t-25 -61q0 -36 25 -62q24 -25 58 -25t59 26t25 61t-26 61q-24 26 -58 26zM391 1275q0 71 50 120
t122 49t121 -49t49 -120t-50 -121t-121 -50t-121 50t-50 121z" />
    <glyph glyph-name="Uhungarumlaut.sc" horiz-adv-x="1122" 
d="M965 365q0 -177 -111 -277q-110 -100 -304 -100t-294 93t-100 271v670h157v-647q-1 -129 59 -187t186 -59q126 0 191 62t64 178v653h152v-657zM631 1128l227 297h168l-262 -297h-133zM309 1128l228 297h168l-263 -297h-133z" />
    <glyph glyph-name="Uogonek.sc" horiz-adv-x="1122" 
d="M965 365q0 -152 -84 -249t-234 -120q-158 -106 -158 -199q0 -76 89 -76q63 0 124 21v-104q-57 -29 -145 -29q-217 0 -217 168q0 53 40 110t114 103q-338 27 -338 362v670h157v-647q-1 -129 59 -187t186 -59q126 0 191 62t64 178v653h152v-657z" />
    <glyph glyph-name="V.sc" horiz-adv-x="989" 
d="M381 0l-348 1022h176l291 -877h8l283 877h165l-352 -1022h-223z" />
    <glyph glyph-name="W.sc" horiz-adv-x="1525" 
d="M338 0l-305 1022h176l246 -877h8l233 627l-94 250h166l309 -877h8l246 877h164l-315 -1022h-211l-203 596h-8l-211 -596h-209z" />
    <glyph glyph-name="Wcircumflex.sc" horiz-adv-x="1525" 
d="M338 0l-305 1022h176l246 -877h8l233 627l-94 250h166l309 -877h8l246 877h164l-315 -1022h-211l-203 596h-8l-211 -596h-209zM475 1128l211 297h166l203 -297h-156l-123 181h-33l-125 -181h-143z" />
    <glyph glyph-name="Wgrave.sc" horiz-adv-x="1525" 
d="M643 1425l203 -297h-135l-244 297h176zM338 0l-305 1022h176l246 -877h8l233 627l-94 250h166l309 -877h8l246 877h164l-315 -1022h-211l-203 596h-8l-211 -596h-209z" />
    <glyph glyph-name="Wacute.sc" horiz-adv-x="1525" 
d="M688 1128l201 297h178l-244 -297h-135zM338 0l-305 1022h176l246 -877h8l233 627l-94 250h166l309 -877h8l246 877h164l-315 -1022h-211l-203 596h-8l-211 -596h-209z" />
    <glyph glyph-name="Wdieresis.sc" horiz-adv-x="1525" 
d="M338 0l-305 1022h176l246 -877h8l233 627l-94 250h166l309 -877h8l246 877h164l-315 -1022h-211l-203 596h-8l-211 -596h-209zM827 1251q0 45 26 71t70 26q43 0 69 -26t26 -71t-26 -71t-70 -25q-95 0 -95 96zM508 1251q0 96 94 97q94 0 94 -96t-94 -97q-94 0 -94 96z" />
    <glyph glyph-name="X.sc" horiz-adv-x="962" 
d="M57 1022h183l241 -369h6l242 369h170l-330 -481l359 -541h-183l-264 406h-8l-268 -406h-170l356 518z" />
    <glyph glyph-name="Y.sc" horiz-adv-x="942" 
d="M551 0h-158v416l-364 606h182l270 -461h6l258 461h168l-362 -606v-416z" />
    <glyph glyph-name="Yacute.sc" horiz-adv-x="942" 
d="M551 0h-158v416l-364 606h182l270 -461h6l258 461h168l-362 -606v-416zM395 1128l201 297h178l-244 -297h-135z" />
    <glyph glyph-name="Ycircumflex.sc" horiz-adv-x="942" 
d="M551 0h-158v416l-364 606h182l270 -461h6l258 461h168l-362 -606v-416zM182 1128l211 297h166l203 -297h-156l-123 181h-32l-125 -181h-144z" />
    <glyph glyph-name="Ydieresis.sc" horiz-adv-x="942" 
d="M551 0h-158v416l-364 606h182l270 -461h6l258 461h168l-362 -606v-416zM537 1251q0 45 25 71q26 26 70 26t70 -26t25 -71q0 -45 -26 -71t-70 -25q-94 0 -94 96zM217 1251q0 96 94 97q95 0 95 -96t-94 -97q-94 0 -95 96z" />
    <glyph glyph-name="Ygrave.sc" horiz-adv-x="942" 
d="M350 1425l203 -297h-135l-244 297h176zM551 0h-158v416l-364 606h182l270 -461h6l258 461h168l-362 -606v-416z" />
    <glyph glyph-name="Z.sc" horiz-adv-x="884" 
d="M104 887v135h701v-129l-547 -752v-6h555v-135h-739v131l547 750v6h-517z" />
    <glyph glyph-name="Zacute.sc" horiz-adv-x="884" 
d="M104 887v135h701v-129l-547 -752v-6h555v-135h-739v131l547 750v6h-517zM369 1128l200 297h179l-244 -297h-135z" />
    <glyph glyph-name="Zdotaccent.sc" horiz-adv-x="884" 
d="M346 1237q0 45 26 72t72 26q98 0 99 -98q-1 -96 -99 -96t-98 96zM104 887v135h701v-129l-547 -752v-6h555v-135h-739v131l547 750v6h-517z" />
    <glyph glyph-name="Zcaron.sc" horiz-adv-x="884" 
d="M104 887v135h701v-129l-547 -752v-6h555v-135h-739v131l547 750v6h-517zM735 1425l-211 -297h-168l-200 297h155l123 -180h33l125 180h143z" />
    <glyph glyph-name="AE.sc" horiz-adv-x="1406" 
d="M725 383v516h-14l-297 -516h311zM725 0v256h-379l-147 -256h-172l602 1022h661v-135h-407v-295h368v-135h-368v-322h411v-135h-569z" />
    <glyph glyph-name="Eth.sc" horiz-adv-x="1134" 
d="M324 887v-295h206v-129h-206v-328h155q188 0 295 98q106 99 106 285t-108 278q-109 92 -305 91h-143zM45 463v129h121v430h311q275 0 421 -124t146 -372t-152 -388q-153 -138 -417 -138h-309v463h-121z" />
    <glyph glyph-name="Oslash.sc" horiz-adv-x="1153" 
d="M899 506q0 195 -74 289l-407 -641q72 -35 160 -35q131 0 226 96t95 291zM254 516q0 -194 76 -293l409 643q-68 37 -161 37q-133 0 -229 -96q-95 -97 -95 -291zM90 492q0 262 142 403t358 141q133 0 227 -51l66 102l96 -51l-72 -110q154 -144 154 -400t-141 -398
t-357 -142q-127 0 -221 47l-63 -96l-97 49l68 106q-160 138 -160 400z" />
    <glyph glyph-name="Thorn.sc" horiz-adv-x="933" 
d="M322 727v-391q68 -6 112 -6q131 0 200 53t68 154q0 190 -241 190h-139zM324 1022v-168h155q183 0 283 -83t100 -235t-110 -241q-110 -90 -306 -90q-53 0 -122 6v-211h-158v1022h158z" />
    <glyph glyph-name="Dcroat.sc" horiz-adv-x="1134" 
d="M324 887v-295h206v-129h-206v-328h155q188 0 295 98q106 99 106 285t-108 278q-109 92 -305 91h-143zM45 463v129h121v430h311q275 0 421 -124t146 -372t-152 -388q-153 -138 -417 -138h-309v463h-121z" />
    <glyph glyph-name="Hbar.sc" horiz-adv-x="1140" 
d="M322 590h497v155h-497v-155zM53 745v103h113v174h158v-174h493v174h158v-174h115v-103h-115v-745h-158v455h-493v-455h-158v745h-113z" />
    <glyph glyph-name="IJ.sc" horiz-adv-x="1064" 
d="M905 1022v-746q0 -141 -75 -214t-209 -72q-55 0 -89 8v135q41 -6 92 -6t88 38q36 38 36 114v743h157zM324 1022v-1022h-158v1022h158z" />
    <glyph glyph-name="Ldot.sc" horiz-adv-x="780" 
d="M469 510q0 47 26 73t72 25q98 0 99 -98q0 -96 -98 -96t-99 96zM166 0v1022h158v-887h411v-135h-569z" />
    <glyph glyph-name="Lslash.sc" horiz-adv-x="780" 
d="M166 1022h158v-449l180 99v-131l-180 -99v-307h411v-135h-569v358l-127 -69v133l127 67v533z" />
    <glyph glyph-name="Eng.sc" horiz-adv-x="1136" 
d="M676 -295q-53 0 -86 6v131q37 -6 84 -6q154 0 153 139v25h-92l-420 866h-6v-866h-143v1022h235l418 -868h8v868h144v-1042q-2 -135 -80 -205t-215 -70z" />
    <glyph glyph-name="OE.sc" horiz-adv-x="1548" 
d="M254 512q0 -198 90 -293q90 -96 236 -96q182 0 286 137v506q-96 133 -284 133q-137 0 -233 -94q-95 -95 -95 -293zM868 0v84q-126 -98 -320 -98t-326 133t-132 384t142 392t362 141q162 0 272 -82v68h566v-135h-408v-295h369v-135h-369v-322h412v-135h-568z" />
    <glyph glyph-name="Tbar.sc" horiz-adv-x="913" 
d="M537 887v-258h217v-115h-217v-514h-158v514h-217v115h217v258h-326v135h805v-135h-321z" />
    <glyph glyph-name="zero.sc" horiz-adv-x="913" 
d="M461 905q-101 0 -159 -98t-58 -293q0 -397 215 -397q98 0 154 99t57 294q0 395 -209 395zM467 1036q166 0 266 -127q101 -127 101 -386t-112 -398t-278 -139t-264 122t-98 388t109 403q110 137 276 137z" />
    <glyph glyph-name="one.sc" horiz-adv-x="913" 
d="M479 1022h103v-1022h-158v877q-137 0 -274 -31v123q162 53 329 53z" />
    <glyph glyph-name="two.sc" horiz-adv-x="913" 
d="M434 1032q146 0 240 -74t94 -186t-53 -188t-178 -158l-99 -64q-150 -96 -174 -221h529v-141h-641l-33 115q18 199 211 329l104 70q92 62 130 114t38 111q0 147 -207 148q-116 0 -233 -27v137q126 35 272 35z" />
    <glyph glyph-name="three.sc" horiz-adv-x="913" 
d="M150 883v141h581l37 -115q-39 -106 -95 -177t-149 -124v-2q262 -43 262 -268q0 -152 -143 -252t-369 -100h-135v131h131q166 0 258 58t93 151q0 158 -238 186q-68 -31 -164 -47l-26 113q313 76 411 305h-454z" />
    <glyph glyph-name="four.sc" horiz-adv-x="913" 
d="M569 338v545h-6q-137 -77 -235 -229t-105 -316h346zM723 1026v-688h123v-133h-123v-205h-156v205h-446l-37 100q6 229 148 438t354 283h137z" />
    <glyph glyph-name="five.sc" horiz-adv-x="913" 
d="M733 1024v-141h-440v-230q68 6 121 6q166 -1 264 -79t98 -213q0 -177 -144 -279t-374 -102h-119v131h125q158 -2 252 61q94 64 94 160q0 190 -256 190q-92 0 -194 -10v506h573z" />
    <glyph glyph-name="six.sc" horiz-adv-x="913" 
d="M264 397q0 -287 203 -286q86 0 136 55q50 56 50 162t-55 161q-56 55 -154 55t-174 -20q-6 -61 -6 -127zM676 1022h110v-131h-104q-315 0 -401 -260l2 -4q94 47 198 47q154 0 245 -85t91 -244t-101 -259t-261 -100t-257 110t-98 316q0 310 155 460t421 150z" />
    <glyph glyph-name="seven.sc" horiz-adv-x="913" 
d="M115 1024h678l26 -129q-397 -383 -397 -895h-160q0 508 375 881v2h-522v141z" />
    <glyph glyph-name="eight.sc" horiz-adv-x="913" 
d="M458 106q96 0 151 40q57 40 57 90t-29 84q-29 32 -115 79l-123 64q-156 -90 -155 -207q0 -68 59 -109t155 -41zM643 778q0 59 -48 98t-131 39q-83 1 -130 -39t-47 -94t20 -81q20 -28 84 -66l105 -62q147 90 147 205zM474 1036q146 0 228 -68q84 -68 84 -167t-44 -161
t-150 -116l67 -35q92 -47 128 -97t36 -124q0 -122 -105 -202t-270 -80t-260 69q-94 70 -94 185q0 84 48 152t163 126l-51 33q-121 74 -121 215q0 106 97 188q98 82 244 82z" />
    <glyph glyph-name="nine.sc" horiz-adv-x="913" 
d="M651 625q0 289 -200 288q-89 0 -139 -56q-50 -57 -50 -163t55 -160t155 -54t173 18q6 57 6 127zM242 -14h-111v131h105q309 0 399 272l-2 4q-88 -43 -199 -43q-154 0 -245 84t-91 244t102 260t261 100q160 0 257 -110t97 -316q1 -310 -155 -468t-418 -158z" />
    <glyph glyph-name="dollar.sc" horiz-adv-x="913" 
d="M379 129q137 0 202 40t65 101q0 60 -39 100q-38 40 -130 66l-131 37q-221 63 -221 258q0 111 77 191t214 102v164h112v-156q125 0 230 -18l-10 -142q-111 20 -229 20t-177 -40q-59 -41 -59 -98q-1 -57 33 -91t114 -55l135 -37q238 -66 238 -266q0 -123 -83 -205
t-231 -104v-160h-110v154q-139 0 -264 20v144q127 -25 264 -25z" />
    <glyph glyph-name="cent.sc" horiz-adv-x="913" 
d="M578 -33h-115v156q-145 21 -231 117t-87 259t91 265t227 131v160h115v-150q94 -4 161 -18l-16 -131q-82 16 -179 16t-171 -70t-74 -196t74 -193q74 -65 180 -65t188 20v-127q-78 -20 -163 -22v-152z" />
    <glyph glyph-name="sterling.sc" horiz-adv-x="913" 
d="M393 606h254v-119h-254v-170q0 -123 -59 -186h278q106 0 205 37v-135q-82 -33 -215 -33h-516v127h80q70 57 70 180v180h-132v119h132v150q0 130 84 202t243 72q96 0 170 -18v-131q-74 18 -178 18q-162 0 -162 -135v-158z" />
    <glyph glyph-name="currency.sc" horiz-adv-x="915" 
d="M295 462q0 -60 47 -102t116 -43q70 0 116 42q46 43 46 103t-46 102q-48 42 -116 42t-115 -42q-48 -42 -48 -102zM174 460q0 73 45 136l-98 90l90 82l94 -88q74 39 150 39t153 -39l97 88l90 -82l-101 -90q47 -63 47 -134t-45 -136l97 -86l-88 -82l-97 86q-66 -41 -152 -41
t-151 41l-94 -88l-90 82l98 88q-45 61 -45 134z" />
    <glyph glyph-name="yen.sc" horiz-adv-x="913" 
d="M803 410h-271v-121h271v-119h-268v-170h-158v170h-248v119h250v121h-250v114h186l-286 498h182l252 -461h8l264 461h166l-305 -498h207v-114z" />
    <glyph glyph-name="Euro.sc" horiz-adv-x="913" 
d="M49 561v111h156q45 174 170 267t297 93q90 0 184 -20v-133q-117 20 -190 20q-231 0 -299 -227h335v-111h-356q-4 -23 -4 -57t4 -66h356v-106h-335q59 -215 282 -215q96 0 217 22v-127q-109 -25 -225 -24q-176 0 -294 85t-152 259h-146v106h133v39q0 55 4 84h-137z" />
    <glyph glyph-name="florin.sc" horiz-adv-x="915" 
d="M219 614v111h133l6 78q12 117 92 183t207 65q80 0 131 -11l-12 -116q-60 10 -122 10t-100 -36t-44 -95l-8 -78h200l-12 -111h-196l-91 -897h-151l90 897h-123z" />
    <glyph glyph-name="ampersand.sc" horiz-adv-x="1251" 
d="M1075 524q-1 -250 -149 -394t-363 -144t-321 76t-107 210q-1 86 59 155t171 101v7q-184 57 -185 219q0 122 98 202t230 80q133 0 225 -22l-10 -129q-94 20 -185 20q-90 0 -142 -40t-52 -107q0 -166 279 -166h41v-121h-70q-139 0 -217 -52t-78 -132q0 -164 262 -164
q170 0 272 107q101 108 101 294h-123v119h373v-119h-109z" />
    <glyph glyph-name="at.sc" horiz-adv-x="1955" 
d="M1151 383l-168 516h-16l-168 -516h352zM1700 600q0 289 -179 460t-481 171q-150 -1 -290 -63q-299 -133 -427 -447q-67 -164 -67 -352q0 -317 160 -481t401 -162q170 0 301 47v-97q-144 -70 -300 -70t-273 44q-260 96 -364 364q-56 147 -56 353q0 205 77 395t206 317
t298 199t351 72q340 0 557 -205t217 -535q0 -266 -137 -438t-303 -172h-117l-86 254h-428l-84 -254h-160l348 1022h240l301 -905q121 12 208 143t87 340z" />
    <glyph glyph-name="ordfeminine.sc" horiz-adv-x="624" 
d="M332 727q-150 0 -150 -61t103 -62q70 0 129 21v102h-82zM537 850v-328h-119v33q-78 -39 -171 -39t-143 37q-49 37 -49 102q0 156 275 156q57 0 84 -2v33q0 84 -133 84q-80 0 -177 -33l-18 100q102 37 215 37t175 -46t61 -134z" />
    <glyph glyph-name="ordmasculine.sc" horiz-adv-x="679" 
d="M489 776q0 152 -151 152q-68 0 -109 -44t-41 -120q0 -150 152 -150q68 0 109 44q40 44 40 118zM616 780q0 -122 -82 -196t-205 -74q-122 0 -194 64t-72 186t83 196t203 74t194 -64q73 -65 73 -186z" />
    <glyph glyph-name="parenleft.sc" horiz-adv-x="491" 
d="M80 504q0 358 256 645h121q-250 -311 -250 -647q1 -158 67 -329t183 -318h-121q-256 291 -256 649z" />
    <glyph glyph-name="parenright.sc" horiz-adv-x="491" 
d="M412 500q0 -358 -256 -645h-121q250 311 250 647q0 158 -67 328t-183 319h121q256 -291 256 -649z" />
    <glyph glyph-name="bracketleft.sc" horiz-adv-x="454" 
d="M156 1149h264v-96h-148v-1102h148v-96h-264v1294z" />
    <glyph glyph-name="bracketright.sc" horiz-adv-x="454" 
d="M299 -145h-264v96h145v1102h-145v96h264v-1294z" />
    <glyph glyph-name="braceleft.sc" horiz-adv-x="561" 
d="M246 674v297q0 90 50 139t138 49q49 0 80 -6v-84q-82 0 -116 -18t-33 -66v-289q1 -82 -61 -135t-179 -61v-4q240 -12 240 -168v-297q0 -96 157 -97v-81q-34 -11 -102 -11t-121 40t-53 112v315q0 100 -199 142v98q199 23 199 125z" />
    <glyph glyph-name="braceright.sc" horiz-adv-x="561" 
d="M315 328v-295q0 -91 -52 -141q-53 -50 -119 -50t-97 6v84q82 0 116 18t34 68v289q0 82 60 135t179 62v4q-240 14 -239 168v297q0 51 -38 73t-120 21v82q29 10 99 10t123 -40q54 -40 54 -111v-314q0 -102 199 -143v-98q-199 -23 -199 -125z" />
    <glyph glyph-name="quotesinglbase.sc" horiz-adv-x="399" 
d="M94 96q0 53 29 82t78 29q106 0 106 -109q0 -58 -74 -164t-98 -106h-78l88 190q-51 25 -51 78z" />
    <glyph glyph-name="quotedblbase.sc" horiz-adv-x="692" 
d="M92 96q0 53 30 82t79 29q106 0 106 -109q0 -58 -74 -164t-98 -106h-78l88 190q-53 25 -53 78zM385 95q0 52 30 82t77 30q109 0 108 -109q0 -58 -74 -164t-100 -106h-74l86 190q-53 25 -53 77z" />
    <glyph glyph-name="quoteleft.sc" horiz-adv-x="401" 
d="M307 816q-1 -52 -29 -82t-77 -30t-79 28t-30 83t74 161t100 107h76l-88 -188q53 -27 53 -79z" />
    <glyph glyph-name="quoteright.sc" horiz-adv-x="401" 
d="M92 973q0 53 30 82t79 28q106 0 106 -108q0 -57 -74 -163t-98 -107h-78l88 190q-53 25 -53 78z" />
    <glyph glyph-name="quotedblleft.sc" horiz-adv-x="692" 
d="M307 816q-1 -54 -29 -84t-77 -30t-79 29t-30 84t74 161t100 107h76l-88 -190q53 -23 53 -77zM600 815q0 -53 -29 -83t-77 -30q-109 0 -109 111q0 57 75 163t99 107h76l-88 -190q53 -25 53 -78z" />
    <glyph glyph-name="quotedblright.sc" horiz-adv-x="692" 
d="M92 973q0 53 30 83t79 29q106 0 106 -108q0 -57 -74 -165t-98 -107h-78l88 190q-53 25 -53 78zM385 973q0 53 30 83t77 29q109 0 108 -108q0 -57 -74 -165t-100 -107h-74l86 190q-53 25 -53 78z" />
    <glyph glyph-name="guilsinglleft.sc" horiz-adv-x="669" 
d="M389 188l-276 334l276 334h160l-275 -326l275 -342h-160z" />
    <glyph glyph-name="guilsinglright.sc" horiz-adv-x="669" 
d="M281 856l278 -334l-278 -334h-160l272 326l-272 342h160z" />
    <glyph glyph-name="guillemotleft.sc" horiz-adv-x="993" 
d="M713 188l-279 334l279 334h159l-274 -326l274 -342h-159zM389 188l-276 334l276 334h160l-275 -326l275 -342h-160z" />
    <glyph glyph-name="guillemotright.sc" horiz-adv-x="993" 
d="M604 856l277 -334l-277 -334h-160l273 326l-273 342h160zM281 856l278 -334l-278 -334h-160l272 326l-272 342h160z" />
    <glyph glyph-name="quotesingle.sc" horiz-adv-x="305" 
d="M100 745l-22 330h151l-22 -330h-107z" />
    <glyph glyph-name="quotedbl.sc" horiz-adv-x="575" 
d="M369 745l-23 330h152l-21 -330h-108zM100 745l-22 330h151l-22 -330h-107z" />
    <glyph glyph-name="exclam.sc" horiz-adv-x="497" 
d="M145 96q0 49 27 79t76 30q104 0 104 -109q0 -44 -28 -74t-75 -30q-48 0 -76 28t-28 76zM176 1020l170 12l-20 -457v-258l-150 -8v711z" />
    <glyph glyph-name="exclamdown.sc" horiz-adv-x="497" 
d="M352 926q0 -49 -26 -78t-76 -29q-49 0 -77 28t-28 77q0 48 28 78t77 30t76 -28q26 -29 26 -78zM322 4l-170 -14l20 456v259l150 8v-709z" />
    <glyph glyph-name="question.sc" horiz-adv-x="669" 
d="M160 96q0 49 26 79q27 30 76 30t77 -29t28 -77q0 -47 -29 -77t-76 -30q-102 0 -102 104zM318 1032q136 0 214 -64t78 -152q0 -89 -35 -141t-120 -100l-82 -45q-84 -45 -84 -104t28 -109l-112 -6q-49 53 -49 123q0 100 116 172l88 53q51 33 72 63q20 30 21 71
q0 102 -164 102q-119 0 -240 -51v137q133 51 269 51z" />
    <glyph glyph-name="questiondown.sc" horiz-adv-x="669" 
d="M510 926q0 -49 -28 -78t-76 -29q-102 0 -103 107q0 46 28 76t76 30q47 0 75 -28t28 -78zM352 -10q-136 0 -216 64q-79 64 -79 152q0 89 36 141t122 99l82 48q84 43 84 102t-29 109l113 8q49 -59 49 -125q0 -102 -117 -170l-90 -56q-92 -53 -92 -131q0 -104 166 -104
q119 0 240 51v-137q-133 -51 -269 -51z" />
    <glyph glyph-name="periodcentered.sc" horiz-adv-x="327" 
d="M68 463q0 43 25 71q26 28 71 27q98 0 98 -98q0 -43 -26 -71t-70 -27q-98 0 -98 98z" />
    <glyph glyph-name="hyphen.sc" horiz-adv-x="811" 
d="M139 451v145h531v-145h-531z" />
    <glyph glyph-name="endash.sc" horiz-adv-x="1060" 
d="M78 453v141h905v-141h-905z" />
    <glyph glyph-name="emdash.sc" horiz-adv-x="2084" 
d="M78 453v141h1929v-141h-1929z" />
    <glyph glyph-name="numbersign.sc" horiz-adv-x="1036" 
d="M416 651l-37 -278h242l38 278h-243zM94 651l12 109h209l37 262h115l-35 -262h242l37 262h116l-36 -262h204l-12 -109h-207l-39 -278h203l-12 -109h-203l-37 -264h-117l37 264h-243l-37 -264h-115l37 264h-209l12 109h211l37 278h-207z" />
    <glyph glyph-name="percent.sc" horiz-adv-x="1425" 
d="M1094 473q-144 0 -144 -188t144 -189q66 0 104 45t39 138q0 194 -143 194zM1101 580q119 0 193 -73t74 -217t-82 -222t-199 -78q-266 0 -266 282q0 150 80 229t200 79zM332 930q-62 0 -102 -47t-40 -142q0 -193 142 -192q63 0 103 47t40 137q0 197 -143 197zM340 1032
q121 0 194 -70q72 -70 72 -216t-82 -224t-200 -78q-264 0 -265 285q0 147 80 225t201 78zM889 1053l104 -39l-456 -1053l-105 41z" />
    <glyph glyph-name="perthousand.sc" horiz-adv-x="2056" 
d="M1723 473q-142 0 -142 -188t143 -189q66 0 104 45t38 138q-1 194 -143 194zM1730 580q120 0 194 -73t73 -217q0 -144 -82 -222t-201 -78q-120 0 -192 66t-72 216t80 229t200 79zM1094 473q-144 0 -144 -188t144 -189q66 0 104 45t39 138q0 194 -143 194zM1101 580
q119 0 193 -73t74 -217t-82 -222t-199 -78q-266 0 -266 282q0 150 80 229t200 79zM332 930q-62 0 -102 -47t-40 -142q0 -193 142 -192q63 0 103 47t40 137q0 197 -143 197zM340 1032q121 0 194 -70q72 -70 72 -216t-82 -224t-200 -78q-264 0 -265 285q0 147 80 225t201 78z
M889 1053l104 -39l-456 -1053l-105 41z" />
    <glyph glyph-name="asterisk.sc" horiz-adv-x="800" 
d="M446 825l246 93l43 -115l-207 -47l-55 -15l186 -198l-102 -74l-127 180l-33 39l-151 -217l-103 68l183 202l-52 15l-208 47l36 115l199 -76l53 -17v49l-16 213h125l-17 -213v-49z" />
    <glyph glyph-name="dagger.sc" horiz-adv-x="694" 
d="M395 821h64l188 6v-94l-188 4h-64v-84l6 -950h-108l4 950v84h-61l-189 -4v94l189 -6h61v58l-4 206h108l-6 -206v-58z" />
    <glyph glyph-name="daggerdbl.sc" horiz-adv-x="694" 
d="M297 -35h-61l-189 -6v96l189 -6h61v688h-61l-189 -4v94l189 -6h61v58l-4 206h108l-6 -206v-58l60 2l192 4v-94l-188 4h-64v-688h64l188 6v-96l-188 6h-64v-57l6 -205h-108l4 205v57z" />
    <glyph glyph-name="slash.sc" horiz-adv-x="557" 
d="M483 1049l111 -43l-520 -1303l-113 43z" />
    <glyph glyph-name="backslash.sc" horiz-adv-x="557" 
d="M-39 1006l113 43l520 -1303l-111 -43z" />
    <glyph glyph-name="paragraph.sc" horiz-adv-x="1169" 
d="M999 1022v-1370h-145v1261h-115v-1261h-104v506q-59 -16 -150 -17q-188 0 -300 112q-111 112 -111 327q0 214 134 330t374 116l137 -4h280z" />
    <glyph glyph-name="section.sc" horiz-adv-x="876" 
d="M461 561q-81 0 -135 -51t-54 -124t54 -124t135 -51q80 0 134 51t54 124t-54 124t-134 51zM492 905q-106 0 -168 -42q-64 -43 -64 -109t55 -103q63 31 146 31q141 0 233 -84t92 -196t-73 -193q70 -70 69 -178q0 -141 -117 -229q-117 -87 -289 -87t-282 21v135
q140 -25 266 -25t198 45t71 111q0 66 -54 104q-55 -16 -114 -16q-141 0 -234 83q-92 83 -92 214q0 84 55 160q-82 69 -82 195t109 208t293 82q127 0 231 -20l-14 -127q-129 20 -235 20z" />
    <glyph glyph-name="copyright.sc" horiz-adv-x="1357" 
d="M188 510q0 -184 144 -317t345 -133q202 0 346 132q144 134 144 317t-144 316t-346 133q-201 0 -345 -132t-144 -316zM96 509q0 218 171 373q171 154 411 154t412 -154t172 -373q0 -218 -172 -374q-172 -155 -412 -155t-411 156t-171 373zM707 203q-141 0 -226 75
q-84 74 -84 224q-1 150 95 236t235 87q76 0 139 -14v-94q-92 10 -141 10q-93 0 -151 -59q-58 -58 -58 -160t53 -154t144 -53q53 0 161 14v-96q-88 -16 -167 -16z" />
    <glyph glyph-name="registered.sc" horiz-adv-x="1357" 
d="M565 729v-205h86q152 0 152 111q0 94 -144 94h-94zM567 434v-225h-116v610h213q258 0 258 -170q0 -143 -138 -182l187 -258h-144l-163 225h-97zM188 510q0 -184 144 -317t345 -133q202 0 346 132q144 134 144 317t-144 316t-346 133q-201 0 -345 -132t-144 -316zM96 509
q0 218 171 373q171 154 411 154t412 -154t172 -373q0 -218 -172 -374q-172 -155 -412 -155t-411 156t-171 373z" />
    <glyph glyph-name="uni2117.sc" horiz-adv-x="1357" 
d="M596 729v-215q45 -4 76 -4q160 0 159 117q0 102 -149 102h-86zM598 209h-117v610h217q123 0 189 -50q65 -50 65 -142t-72 -150q-73 -57 -200 -57q-25 0 -82 4v-215zM188 510q0 -184 144 -317t345 -133q202 0 346 132q144 134 144 317t-144 316t-346 133q-201 0 -345 -132
t-144 -316zM96 509q0 218 171 373q171 154 411 154t412 -154t172 -373q0 -218 -172 -374q-172 -155 -412 -155t-411 156t-171 373z" />
    <glyph glyph-name="trademark.sc" horiz-adv-x="1499" 
d="M807 879h-4l-15 -410h-114l33 553h149l166 -342h4l166 342h133l31 -553h-113l-14 410h-4l-156 -316h-104zM391 926v-457h-125v457h-172v96h471v-96h-174z" />
    <glyph glyph-name="t_f" horiz-adv-x="1316" 
d="M872 874h-524v-563q0 -92 43 -138t113 -46t137 16v-133q-88 -23 -174 -22q-272 0 -272 313v573h-121v127h121v177l153 22v-199h524v115q0 150 88 235t257 85q63 0 137 -17l-19 -133q-57 14 -125 14q-182 0 -182 -180v-119h258v-127h-258v-874h-156v874z" />
    <glyph glyph-name="a.superscript" horiz-adv-x="731" 
d="M201 711q0 -82 127 -82q94 0 170 37v139q-37 2 -107 2q-190 0 -190 -96zM623 973v-443h-123v45q-94 -53 -204 -53t-170 48t-60 136t82 144q83 55 243 55q68 0 105 -4v53q0 55 -41 89t-127 34t-203 -43l-23 111q125 49 252 49q269 0 269 -221z" />
    <glyph glyph-name="b.superscript" horiz-adv-x="806" 
d="M598 868q0 209 -203 209q-74 0 -145 -28v-410q49 -8 108 -8q108 0 174 58t66 179zM733 869q0 -163 -105 -255t-284 -92q-127 0 -223 15v915l129 8v-313q88 47 186 47q137 0 217 -81t80 -244z" />
    <glyph glyph-name="c.superscript" horiz-adv-x="612" 
d="M402 1079q-76 0 -134 -59t-57 -168q0 -109 57 -162q58 -53 146 -53t153 14v-108q-82 -20 -159 -21q-156 0 -244 82t-88 244t98 254t240 92q79 0 153 -16l-14 -111q-75 12 -151 12z" />
    <glyph glyph-name="d.superscript" horiz-adv-x="806" 
d="M438 1085q-106 0 -166 -61q-60 -62 -61 -170q0 -108 54 -162q53 -54 135 -53q82 0 159 33v403q-68 10 -121 10zM688 530h-125v45q-88 -53 -184 -53q-135 0 -219 83t-84 243t101 253t267 93q66 0 115 -12v270l129 8v-930z" />
    <glyph glyph-name="e.superscript" horiz-adv-x="727" 
d="M528 932q0 164 -151 164q-68 0 -114 -43t-56 -121h321zM76 855q0 165 86 254t219 89t206 -69t72 -197q0 -66 -4 -94h-452q12 -201 227 -201q113 0 217 35l-2 -111q-111 -39 -250 -39t-229 84t-90 249z" />
    <glyph glyph-name="f.superscript" horiz-adv-x="497" 
d="M141 1083h-86v103h86v59q0 103 65 161t193 58q49 0 103 -12l-15 -104q-41 8 -88 8q-129 0 -129 -109v-61h187v-103h-187v-553h-129v553z" />
    <glyph glyph-name="g.superscript" horiz-adv-x="739" 
d="M168 467q0 -94 180 -94q227 0 227 98q0 70 -106 72l-246 8q-55 -25 -55 -84zM354 823q82 0 119 34t37 110q0 131 -152 131q-72 0 -112 -37t-39 -103q0 -135 147 -135zM217 698q0 -43 90 -45l180 -4q205 -6 205 -160q0 -98 -88 -158q-88 -61 -246 -61t-233 45
q-74 45 -74 123q0 100 103 148v4q-50 26 -50 88t78 88v4q-104 53 -104 173q0 119 76 185t213 66q59 0 106 -12h225v-92h-133v-5q74 -37 74 -137t-77 -156t-220 -57q-43 0 -88 10q-37 -16 -37 -47z" />
    <glyph glyph-name="h.superscript" horiz-adv-x="800" 
d="M565 530v412q0 135 -155 135q-80 0 -160 -33v-514h-129v922l129 8v-319q94 53 190 53q254 0 254 -229v-435h-129z" />
    <glyph glyph-name="i.superscript" horiz-adv-x="368" 
d="M104 1382q0 35 20 57t58 21q82 0 82 -78q0 -34 -22 -56t-60 -22t-58 22q-20 21 -20 56zM250 530h-129v652l129 8v-660z" />
    <glyph glyph-name="j.superscript" horiz-adv-x="368" 
d="M104 1382q0 35 20 57t58 21q82 0 82 -78q0 -34 -22 -56t-60 -22t-58 22q-20 21 -20 56zM250 516q0 -111 -62 -172t-168 -74l-14 109q115 27 115 135v668l129 8v-674z" />
    <glyph glyph-name="k.superscript" horiz-adv-x="733" 
d="M250 836v-306h-129v922l129 8v-518h63l228 244h155l-266 -281l287 -375h-158l-233 306h-76z" />
    <glyph glyph-name="l.superscript" horiz-adv-x="368" 
d="M250 530h-129v922l129 8v-930z" />
    <glyph glyph-name="m.superscript" horiz-adv-x="1230" 
d="M993 530v412q0 135 -147 135q-80 0 -160 -33v-514h-129v414q0 68 -35 100q-36 32 -116 33q-80 0 -156 -33v-514h-129v652l123 8v-49q98 53 194 53q139 0 201 -70q115 70 238 70q248 0 247 -229v-435h-131z" />
    <glyph glyph-name="n.superscript" horiz-adv-x="800" 
d="M565 530v412q0 135 -155 135q-80 0 -160 -33v-514h-129v652l123 8v-49q98 53 196 53q254 0 254 -229v-435h-129z" />
    <glyph glyph-name="o.superscript" horiz-adv-x="796" 
d="M588 864q0 106 -49 162t-139 57q-90 0 -141 -61q-52 -61 -52 -170t50 -164t138 -55t141 62q52 63 52 169zM721 869q0 -159 -97 -255q-96 -96 -238 -96t-226 85t-84 244t95 255t239 96t227 -85q84 -85 84 -244z" />
    <glyph glyph-name="p.superscript" horiz-adv-x="806" 
d="M383 631q83 0 149 60t66 173q0 213 -199 213q-74 0 -149 -33v-405q49 -8 133 -8zM121 276v906l123 8v-49q90 53 212 53t199 -82q78 -82 78 -242t-105 -254t-276 -94q-45 0 -102 8v-254h-129z" />
    <glyph glyph-name="q.superscript" horiz-adv-x="806" 
d="M449 1085q-111 0 -175 -58t-63 -179q0 -209 201 -209q74 0 147 33v405q-51 8 -110 8zM688 276h-129v295q-89 -49 -207 -49t-197 81t-79 244t105 255t284 92q98 0 223 -16v-902z" />
    <glyph glyph-name="r.superscript" horiz-adv-x="514" 
d="M376 1071q-56 0 -126 -63v-478h-129v652l125 6v-78q76 84 153 84q43 0 86 -8l-14 -125q-39 10 -95 10z" />
    <glyph glyph-name="s.superscript" horiz-adv-x="614" 
d="M424 714q0 36 -20 55t-85 32l-96 20q-154 35 -153 172q0 88 75 145q77 56 187 56t186 -12l-12 -113q-80 14 -157 14q-77 1 -116 -21t-39 -54t22 -53q22 -19 79 -29l92 -17q164 -29 164 -170q0 -98 -79 -157t-200 -59t-209 18v114q85 -23 181 -23t138 24q42 22 42 58z" />
    <glyph glyph-name="t.superscript" horiz-adv-x="514" 
d="M55 1083v103h86v119l129 14v-133h187v-103h-187v-333q0 -57 30 -86t76 -29t103 12v-108q-198 -48 -283 38q-54 54 -55 160v346h-86z" />
    <glyph glyph-name="u.superscript" horiz-adv-x="794" 
d="M236 774q0 -135 151 -135q82 0 158 33v510l129 8v-660h-127v45q-94 -53 -191 -53q-250 0 -250 230v430l130 8v-416z" />
    <glyph glyph-name="v.superscript" horiz-adv-x="698" 
d="M268 530l-241 656h143l184 -541h6l183 541h129l-240 -656h-164z" />
    <glyph glyph-name="w.superscript" horiz-adv-x="1075" 
d="M1047 1186l-218 -656h-157l-129 381h-6l-134 -381h-153l-223 656h143l166 -545h6l145 418l-47 127h131l183 -545h6l155 545h132z" />
    <glyph glyph-name="x.superscript" horiz-adv-x="712" 
d="M674 530h-154l-166 244h-6l-170 -244h-139l242 332l-230 324h156l153 -228h7l153 228h139l-227 -312z" />
    <glyph glyph-name="y.superscript" horiz-adv-x="684" 
d="M162 268q-47 0 -82 8v107q41 -8 76 -8q96 0 133 92l33 84h-56l-239 635h143l186 -527h4l166 527h131l-258 -744q-59 -174 -237 -174z" />
    <glyph glyph-name="z.superscript" horiz-adv-x="626" 
d="M76 1077v109h489v-105l-356 -436v-6h364v-109h-518v105l359 440v2h-338z" />
    <glyph glyph-name="comma.superscript" horiz-adv-x="307" 
d="M80 606q0 43 24 69q25 25 63 25q37 0 59 -24t22 -72q0 -47 -77 -149t-103 -103h-62l103 187q-29 24 -29 67z" />
    <glyph glyph-name="period.superscript" horiz-adv-x="288" 
d="M59 612q0 39 23 64t61 24q86 0 86 -88q-1 -40 -23 -64t-61 -24q-86 0 -86 88z" />
    <glyph glyph-name="hyphen.superscript" horiz-adv-x="589" 
d="M104 911v90h379v-90h-379z" />
    <glyph glyph-name="dollar.superscript" horiz-adv-x="788" 
d="M424 391h-98v131q-141 0 -230 17v123q124 -23 230 -23t167 38q60 38 60 88t-34 81t-118 57l-116 37q-176 55 -176 215q0 94 66 161q67 67 183 87v141h99v-131q98 0 196 -16l-12 -119q-88 16 -189 16t-155 -33q-53 -34 -53 -83t28 -77t101 -48l119 -35q199 -59 198 -223
q0 -98 -73 -170t-193 -95v-139z" />
    <glyph glyph-name="cent.superscript" horiz-adv-x="788" 
d="M498 502h-99v135q-125 18 -197 99q-72 80 -73 220q0 140 77 228t193 110v138h99v-127q80 -4 137 -17l-12 -119q-80 13 -158 13t-139 -58q-62 -58 -62 -162t62 -158t149 -54q88 0 162 18v-119q-66 -16 -139 -18v-129z" />
    <glyph glyph-name="sterling.superscript" horiz-adv-x="788" 
d="M338 1051h215v-109h-215v-143q0 -98 -49 -154h235q82 0 174 31v-119q-70 -27 -182 -27h-442v115h69q57 49 58 143v154h-111v109h111v123q0 111 72 174q73 63 208 63q78 0 148 -16v-121q-70 16 -156 16q-135 0 -135 -110v-129z" />
    <glyph glyph-name="currency.superscript" horiz-adv-x="788" 
d="M256 925q0 -52 40 -89t97 -37t97 37t40 89t-40 89t-97 37t-97 -37t-40 -89zM152 922q0 64 38 116l-84 76l76 74l84 -76q55 33 125 33t131 -33l82 76l78 -74l-86 -76q39 -51 39 -113t-37 -114l82 -76l-76 -71l-82 73q-53 -33 -129 -33t-127 33l-84 -78l-76 76l84 76
q-38 47 -38 111z" />
    <glyph glyph-name="yen.superscript" horiz-adv-x="788" 
d="M109 881v102h170l-252 420h161l215 -387h7l208 387h142l-248 -420h174v-102h-223v-105h223v-102h-221v-144h-137v144h-219v102h221v105h-221z" />
    <glyph glyph-name="Euro.superscript" horiz-adv-x="788" 
d="M45 1010v96h131q38 150 144 228t253 77q80 0 160 -14v-125q-96 18 -164 18q-195 0 -250 -184h283v-96h-303q-4 -37 -4 -59t4 -46h303v-94h-289q51 -172 244 -172q86 0 184 18v-116q-96 -20 -192 -21q-322 0 -383 291h-121v94h111v31q0 25 4 74h-115z" />
    <glyph glyph-name="a.subscript" horiz-adv-x="731" 
d="M201 -127q0 -82 127 -82q94 0 170 37v139q-37 2 -107 2q-190 0 -190 -96zM623 135v-442h-123v45q-94 -53 -204 -53t-170 48t-60 136t82 143q83 55 243 56q68 0 105 -5v54q0 55 -41 89t-127 34t-203 -43l-23 110q125 49 252 49q269 0 269 -221z" />
    <glyph glyph-name="b.subscript" horiz-adv-x="806" 
d="M598 31q0 209 -203 209q-74 0 -145 -29v-410q49 -8 108 -8q108 1 174 59t66 179zM436 356q137 0 217 -80t80 -244q0 -163 -105 -255t-284 -92q-127 0 -223 14v915l129 9v-314q88 47 186 47z" />
    <glyph glyph-name="c.subscript" horiz-adv-x="612" 
d="M211 14q0 -110 57 -162q58 -52 146 -52t153 14v-109q-82 -20 -159 -20q-156 0 -244 82q-88 81 -88 243t98 254t240 92q79 0 153 -16l-14 -111q-79 13 -153 13t-132 -60t-57 -168z" />
    <glyph glyph-name="d.subscript" horiz-adv-x="806" 
d="M438 248q-106 0 -166 -62t-61 -168q0 -108 54 -162q53 -54 135 -54t159 32v404q-68 10 -121 10zM688 -307h-125v45q-88 -53 -184 -53q-135 0 -219 83q-84 82 -84 242t101 253t267 93q66 0 115 -12v270l129 9v-930z" />
    <glyph glyph-name="e.subscript" horiz-adv-x="727" 
d="M528 94q0 164 -151 164q-68 0 -114 -43t-56 -121h321zM395 -315q-139 -1 -229 83t-90 249t86 254t219 89t206 -68t72 -198q0 -66 -4 -94h-452q12 -201 227 -201q113 0 217 35l-2 -110q-111 -39 -250 -39z" />
    <glyph glyph-name="f.subscript" horiz-adv-x="497" 
d="M141 246h-86v102h86v60q0 102 65 160t193 59q49 0 103 -13l-15 -104q-41 8 -88 8q-129 0 -129 -108v-62h187v-102h-187v-553h-129v553z" />
    <glyph glyph-name="g.subscript" horiz-adv-x="739" 
d="M168 -371q0 -94 180 -94q227 0 227 98q0 70 -106 72l-246 8q-55 -25 -55 -84zM354 -14q82 0 119 34t37 109q0 131 -152 131q-72 0 -112 -37t-39 -102q0 -135 147 -135zM217 -139q0 -43 90 -45l180 -4q205 -6 205 -160q0 -98 -88 -158t-246 -61q-158 0 -233 45
q-74 45 -74 123q0 100 103 147v4q-50 26 -50 88t78 88v4q-104 54 -104 174t76 186t213 64q59 0 106 -12h225v-92h-133v-4q74 -38 74 -138t-77 -156t-220 -56q-43 0 -88 10q-37 -14 -37 -47z" />
    <glyph glyph-name="h.subscript" horiz-adv-x="800" 
d="M565 -307v411q0 135 -155 136q-80 0 -160 -33v-514h-129v921l129 9v-320q94 53 190 53q254 0 254 -229v-434h-129z" />
    <glyph glyph-name="i.subscript" horiz-adv-x="368" 
d="M104 545q0 35 20 57t58 21q82 0 82 -78q0 -33 -22 -56t-60 -23t-58 22t-20 57zM250 -307h-129v651l129 8v-659z" />
    <glyph glyph-name="j.subscript" horiz-adv-x="368" 
d="M104 545q0 35 20 57t58 21q82 0 82 -78q0 -33 -22 -56t-60 -23t-58 22t-20 57zM250 -322q0 -111 -62 -172t-168 -73l-14 108q115 27 115 135v668l129 8v-674z" />
    <glyph glyph-name="k.subscript" horiz-adv-x="733" 
d="M250 -2v-305h-129v921l129 9v-519h63l228 244h155l-266 -280l287 -375h-158l-233 305h-76z" />
    <glyph glyph-name="l.subscript" horiz-adv-x="368" 
d="M250 -307h-129v921l129 9v-930z" />
    <glyph glyph-name="m.subscript" horiz-adv-x="1230" 
d="M993 -307v411q0 135 -147 136q-80 0 -160 -33v-514h-129v413q0 68 -35 101q-36 33 -116 33t-156 -33v-514h-129v651l123 8v-49q98 53 194 53q139 0 201 -69q115 70 238 69q248 0 247 -229v-434h-131z" />
    <glyph glyph-name="n.subscript" horiz-adv-x="800" 
d="M565 -307v411q0 135 -155 136q-80 0 -160 -33v-514h-129v651l123 8v-49q98 53 196 53q254 0 254 -229v-434h-129z" />
    <glyph glyph-name="o.subscript" horiz-adv-x="796" 
d="M588 27q0 106 -49 162q-49 57 -139 57t-141 -62q-52 -62 -52 -170q0 -109 50 -164t138 -55t141 63q52 63 52 169zM410 360q144 0 227 -84q84 -84 84 -244q0 -159 -97 -255q-96 -96 -238 -96t-226 85q-84 86 -84 244t95 254t239 96z" />
    <glyph glyph-name="p.subscript" horiz-adv-x="806" 
d="M383 -207q83 1 149 61t66 173q0 213 -199 213q-74 0 -149 -33v-406q49 -8 133 -8zM121 -561v905l123 8v-49q90 53 212 53t199 -82q78 -82 78 -242t-105 -253q-105 -94 -276 -94q-45 0 -102 8v-254h-129z" />
    <glyph glyph-name="q.subscript" horiz-adv-x="806" 
d="M449 248q-111 0 -175 -58t-63 -180q0 -209 201 -209q74 0 147 33v406q-51 8 -110 8zM688 -561h-129v295q-89 -49 -207 -49t-197 81q-79 82 -79 244t105 254t284 92q98 0 223 -16v-901z" />
    <glyph glyph-name="r.subscript" horiz-adv-x="514" 
d="M376 233q-56 0 -126 -63v-477h-129v651l125 6v-78q76 84 153 84q43 0 86 -8l-14 -125q-39 10 -95 10z" />
    <glyph glyph-name="s.subscript" horiz-adv-x="614" 
d="M244 -205q180 0 180 84q0 33 -20 52t-85 32l-96 21q-154 35 -153 172q0 88 75 144q77 56 187 56t186 -12l-12 -113q-199 35 -273 -7q-39 -22 -39 -54t22 -52q22 -19 79 -30l92 -16q164 -29 164 -170q0 -98 -79 -158t-200 -59q-121 0 -209 18v115q85 -23 181 -23z" />
    <glyph glyph-name="t.subscript" horiz-adv-x="514" 
d="M55 246v102h86v119l129 14v-133h187v-102h-187v-334q0 -57 30 -86t76 -29t103 13v-109q-65 -16 -147 -16t-136 54t-55 161v346h-86z" />
    <glyph glyph-name="u.subscript" horiz-adv-x="794" 
d="M236 -63q0 -135 151 -136q82 0 158 33v510l129 8v-659h-127v45q-94 -53 -191 -53q-250 0 -250 229v430l130 8v-415z" />
    <glyph glyph-name="v.subscript" horiz-adv-x="698" 
d="M268 -307l-241 655h143l184 -541h6l183 541h129l-240 -655h-164z" />
    <glyph glyph-name="w.subscript" horiz-adv-x="1075" 
d="M1047 348l-218 -655h-157l-129 381h-6l-134 -381h-153l-223 655h143l166 -545h6l145 418l-47 127h131l183 -545h6l155 545h132z" />
    <glyph glyph-name="x.subscript" horiz-adv-x="712" 
d="M674 -307h-154l-166 244h-6l-170 -244h-139l242 332l-230 323h156l153 -227h7l153 227h139l-227 -311z" />
    <glyph glyph-name="y.subscript" horiz-adv-x="684" 
d="M162 -569q-47 0 -82 8v106q41 -8 76 -8q96 0 133 92l33 84h-56l-239 635h143l186 -526h4l166 526h131l-258 -743q-59 -174 -237 -174z" />
    <glyph glyph-name="z.subscript" horiz-adv-x="626" 
d="M76 240v108h489v-104l-356 -437v-6h364v-108h-518v104l359 441v2h-338z" />
    <glyph glyph-name="period.subscript" horiz-adv-x="288" 
d="M59 -225q0 39 23 63t61 25q86 0 86 -88q-1 -39 -23 -64t-61 -24q-86 0 -86 88z" />
    <glyph glyph-name="comma.subscript" horiz-adv-x="307" 
d="M80 -231q0 43 24 69t63 25q37 0 59 -25q22 -26 22 -72t-77 -148t-103 -103h-62l103 186q-29 25 -29 68z" />
    <glyph glyph-name="hyphen.subscript" horiz-adv-x="589" 
d="M104 74v90h379v-90h-379z" />
    <glyph glyph-name="dollar.subscript" horiz-adv-x="788" 
d="M424 -446h-98v131q-141 0 -230 16v123q124 -23 230 -23t167 38q60 38 60 88t-34 81t-118 58l-116 36q-176 55 -176 215q0 94 66 161q67 67 183 87v142h99v-132q98 0 196 -16l-12 -119q-88 16 -189 16q-100 0 -154 -33q-54 -34 -54 -83t28 -77t101 -48l119 -35
q199 -59 198 -223q0 -98 -73 -170t-193 -94v-139z" />
    <glyph glyph-name="cent.subscript" horiz-adv-x="788" 
d="M498 -336h-99v135q-125 17 -197 99t-73 221q0 139 77 227t193 111v137h99v-127q80 -4 137 -16l-12 -119q-80 12 -158 12t-139 -58q-62 -58 -62 -162t62 -158t149 -54q88 0 162 18v-118q-66 -16 -139 -19v-129z" />
    <glyph glyph-name="sterling.subscript" horiz-adv-x="788" 
d="M338 213h215v-109h-215v-143q0 -98 -49 -154h235q82 0 174 31v-119q-70 -27 -182 -26h-442v114h69q57 49 58 144v153h-111v109h111v123q0 111 72 174q73 63 208 63q78 0 148 -16v-121q-70 16 -156 17q-135 0 -135 -111v-129z" />
    <glyph glyph-name="currency.subscript" horiz-adv-x="788" 
d="M256 87q0 -52 40 -89t97 -37t97 37t40 89t-40 89t-97 37t-97 -37t-40 -89zM152 84q0 64 38 117l-84 75l76 74l84 -76q55 33 125 33t131 -33l82 76l78 -74l-86 -75q39 -51 39 -113t-37 -115l82 -75l-76 -72l-82 74q-53 -33 -129 -33t-127 33l-84 -78l-76 76l84 75
q-38 47 -38 111z" />
    <glyph glyph-name="yen.subscript" horiz-adv-x="788" 
d="M109 43v102h170l-252 420h161l215 -387h7l208 387h142l-248 -420h174v-102h-223v-104h223v-103h-221v-143h-137v143h-219v103h221v104h-221z" />
    <glyph glyph-name="Euro.subscript" horiz-adv-x="788" 
d="M45 172v96h131q38 150 144 228t253 77q80 0 160 -14v-125q-96 18 -164 19q-195 0 -250 -185h283v-96h-303q-4 -36 -4 -58t4 -46h303v-95h-289q51 -172 244 -172q86 0 184 19v-117q-96 -20 -192 -20q-322 0 -383 290h-121v95h111v30q0 25 4 74h-115z" />
    <glyph glyph-name="grave.cap" horiz-adv-x="870" 
d="M401 1774l203 -297h-135l-244 297h176z" />
    <glyph glyph-name="dieresis.cap" horiz-adv-x="892" 
d="M520 1563q0 45 26 71t70 25q44 0 69 -26q26 -27 26 -71t-26 -70t-71 -26q-94 1 -94 97zM201 1563q0 96 94 96t94 -96t-94 -97q-94 1 -94 97z" />
    <glyph glyph-name="macron.cap" horiz-adv-x="813" 
d="M158 1503v117h493v-117h-493z" />
    <glyph glyph-name="acute.cap" horiz-adv-x="870" 
d="M367 1477l200 297h178l-243 -297h-135z" />
    <glyph glyph-name="cedilla.cap" horiz-adv-x="1589" 
d="M319 -391h-104v112h107q147 0 147 56q0 43 -123 55l-47 6v101l119 -11q197 -14 196 -133q0 -82 -80 -134t-215 -52z" />
    <glyph glyph-name="circumflex.cap" horiz-adv-x="765" 
d="M90 1477l211 297h166l203 -297h-156l-123 180h-33l-125 -180h-143z" />
    <glyph glyph-name="caron.cap" horiz-adv-x="741" 
d="M674 1774l-211 -297h-168l-201 297h156l123 -181h33l124 181h144z" />
    <glyph glyph-name="breve.cap" horiz-adv-x="874" 
d="M504 1477h-17q-121 -1 -193 77t-73 220h139q0 -88 36 -138t91 -49h29q53 0 92 50t39 137h125q0 -139 -76 -218t-192 -79z" />
    </font>
</defs>
</svg>
