<svg width="444" height="365" viewBox="0 -1 444 365" xmlns="http://www.w3.org/2000/svg" xmlns:xlink="http://www.w3.org/1999/xlink"><defs><path id="a" d="M0 364h443.19V.553H0z"/><path d="M.752 11.84c5.612 12.243 15.896 21.9 28.57 26.69V.473H.753V11.84z" id="c"/><path d="M.367 37.403c13.828-6.162 24.43-18.255 28.578-33.045V.473H.367v36.93z" id="e"/><path d="M.93 38.037a51.15 51.15 0 0 0 25.547 6.792c10.432 0 20.138-3.11 28.242-8.454V.31H.93v37.727z" id="g"/><path d="M.105 51.458c0 28.37 22.998 51.37 51.372 51.37 28.37 0 51.37-23 51.37-51.37 0-28.37-23-51.373-51.37-51.373C23.103.085.105 23.09.105 51.458z" id="i"/></defs><g fill="none" fill-rule="evenodd"><path d="M211.522 340.446c-63.186 0-114.408-9.3-114.408-20.77 0-11.472 51.222-20.77 114.408-20.77 63.187 0 114.41 9.298 114.41 20.77 0 11.47-51.223 20.77-114.41 20.77z" fill-opacity=".05" fill="#000"/><path fill="#FFF" d="M252.662 311.283h-81.344l5.598-24.756h70.144"/><path fill="#D3D5DB" d="M258.063 318.257h-92.146l5.4-6.975h81.345"/><path fill="#D3D5DB" d="M258.063 318.257h-92.146l5.4-6.975h81.345"/><path fill="#FFF" d="M165.916 320.025h92.146v-1.768h-92.146"/><g transform="translate(0 -.553)"><path d="M333.89 266.93V122.193c0-6.02-4.927-10.947-10.942-10.947H100.105c-6.023 0-10.95 4.928-10.95 10.948V266.93H333.89z" fill="#091A27"/><mask id="b" fill="#fff"><use xlink:href="#a"/></mask><path fill="#85D9F2" mask="url(#b)" d="M100.287 254.873h223.02V120.92h-223.02"/><path d="M89.154 264.726v12.05c0 6.026 4.928 10.956 10.95 10.956h222.843c6.016 0 10.943-4.93 10.943-10.957v-12.05H89.154z" fill="#D3D5DB" mask="url(#b)"/><path fill="#FFF" mask="url(#b)" d="M89.155 266.008H333.89v-1.28H89.156"/><path d="M224.848 188.457c0-28.37-23-51.372-51.37-51.372-28.375 0-51.373 23.003-51.373 51.372 0 28.372 22.998 51.37 51.372 51.37 28.37 0 51.37-22.998 51.37-51.37" fill="#F6F6F6" mask="url(#b)"/></g><g transform="translate(122 136.447)"><g transform="translate(4 61)"><mask id="d" fill="#fff"><use xlink:href="#c"/></mask><path d="M19.766 52.007l9.557-38.17-2.1-13.364s-9.386 4.78-16.123 19.26C8.04 26.312 4.167 39.315.752 52.006h19.014z" fill="#13B5E6" mask="url(#d)"/></g><g transform="translate(72 61)"><mask id="f" fill="#fff"><use xlink:href="#e"/></mask><path d="M28.945 52.007c-3.42-12.69-7.292-25.694-10.354-32.275C11.85 5.252 2.474.472 2.474.472L.367 13.837l9.56 38.17h19.018z" fill="#13B5E6" mask="url(#f)"/></g><path d="M57.607 72.253s-3.3 4.81-4.933 4.81c-1.838 0-5.192-4.848-5.192-4.848s-6.538-13.68-4.46-13.906c2.787-.3 7.11-.595 9.81-.595 2.598 0 7.234.34 9.802.594 1.64.164-5.027 13.943-5.027 13.943" fill="#ECCBA2"/><g transform="translate(25 58)"><mask id="h" fill="#fff"><use xlink:href="#g"/></mask><path d="M54.72 55.007L52.583 7.053c0-3.025-6.157-5.613-14.95-6.743l-9.96 16.894L18.022.31C9.232 1.44 3.068 4.028 3.068 7.053L.93 55.007h53.79z" fill="#7DCFDB" mask="url(#h)"/></g><path d="M55.05 88.79a2.38 2.38 0 0 0-2.377-2.383 2.382 2.382 0 0 0 0 4.763 2.376 2.376 0 0 0 2.376-2.38m.001 18.262c0-1.31-1.06-2.38-2.377-2.38a2.384 2.384 0 1 0 0 4.765 2.379 2.379 0 0 0 2.376-2.385" fill="#FFF"/><path d="M35.26 74.776c-.937 0-1.783-.68-1.947-1.64-.066-.347-1.454-8.47 2.702-13.96 2.067-2.734 5.085-4.31 8.968-4.7 1.135-.122 2.08.7 2.174 1.788.12 1.092-.688 2.067-1.78 2.182-2.764.27-4.79 1.293-6.18 3.123-3.11 4.087-1.98 10.8-1.967 10.865a1.994 1.994 0 0 1-1.616 2.305 1.87 1.87 0 0 1-.353.036m31.095 13.619c-.208 0-.412-.028-.63-.096a1.995 1.995 0 0 1-1.26-2.517c1.552-4.716 4.61-18.315.147-24.482-1.64-2.268-4.174-3.375-7.732-3.375-1.1 0-1.994-.896-1.994-1.987 0-1.104.895-1.995 1.995-1.995 4.863 0 8.557 1.69 10.965 5.03 6.56 9.08.654 27.287.402 28.06a1.974 1.974 0 0 1-1.89 1.364" fill="#06334E"/><mask id="j" fill="#fff"><use xlink:href="#i"/></mask><path fill="#ECCBA2" mask="url(#j)" d="M44.67 65.686h16.32V51.713H44.67"/><path d="M74.17 27.03c0 12.573-9.557 22.758-21.338 22.758-11.788 0-21.338-10.184-21.338-22.758 0-12.58 7.814-20.477 21.338-20.477 14.69 0 21.338 7.897 21.338 20.476" fill="#F87117" mask="url(#j)"/><path d="M71.247 34.83c0 11.944-8.253 21.633-18.416 21.633-10.173 0-18.407-9.69-18.407-21.632 0-11.953 8.234-21.64 18.408-21.64 10.164 0 18.417 9.687 18.417 21.64" fill="#FFE0B8" mask="url(#j)"/><path d="M40.934 36.585c0 2.734-1.865 4.96-4.17 4.96-2.31 0-4.177-2.226-4.177-4.96 0-2.744 1.866-4.96 4.176-4.96 2.306 0 4.17 2.216 4.17 4.96m32.145 0c0 2.734-1.863 4.96-4.166 4.96-2.318 0-4.19-2.226-4.19-4.96 0-2.744 1.872-4.96 4.19-4.96 2.303 0 4.166 2.216 4.166 4.96" fill="#FFE0B8" mask="url(#j)"/><path d="M65.488 14.101c-.896-.043-1.87.106-2.854.347-1.72-1.468-4.318-2.212-5.46-2.6l.948-1.89c-1.184-.118-7.92 1.436-8.477 1.708-.66.336-3.895 1.058-5.91 2.782-.99-.24-1.96-.39-2.86-.345-6.183.31-6.886 18.772-6.886 18.772s2.684 8.873 3.484 7.45c1.135-2.04.297-11.163.433-12.566.624-6.28 3.262-8.498 7.508-8.988 1.5-.19 14.03-.19 15.527 0 4.25.49 6.895 2.707 7.504 8.988.134 1.402-.695 10.525.44 12.566.798 1.424 3.486-7.45 3.486-7.45S71.667 14.41 65.488 14.1" fill="#F87117" mask="url(#j)"/><path fill="#FFF" mask="url(#j)" d="M41.365 66.436l1.956-7.61 4.35 7.61"/><path fill="#FFF" mask="url(#j)" d="M45.872 69.93l-.69-7.848 7.49 13.12m11.473-8.766l-1.98-7.324-4.33 7.324"/><path fill="#FFF" mask="url(#j)" d="M59.63 69.93l.786-7.848-7.742 13.12m16.724 11.851a3.526 3.526 0 0 0-3.536-3.522 3.523 3.523 0 0 0-3.522 3.523c0 1.94 1.58 3.528 3.522 3.528a3.535 3.535 0 0 0 3.536-3.527"/><path d="M68.157 87.053c0-1.26-1.03-2.29-2.295-2.29s-2.278 1.03-2.278 2.29a2.275 2.275 0 0 0 2.278 2.285 2.289 2.289 0 0 0 2.295-2.285" fill="#06334E" mask="url(#j)"/><path d="M32.173 80.47l-1.26.427 2.433 7.177c2.04 6.008 8.395 11.166 16.14 8.892l-.374-1.28c-7.794 2.29-13.032-3.708-14.503-8.036l-2.437-7.18z" fill="#FFF" mask="url(#j)"/><path d="M42.217 75.87l2.8 8.243c1.466 4.333.974 12.283-6.612 15.21l.482 1.233C46.42 97.663 48.315 89.7 46.28 83.69l-2.804-8.25-1.26.43z" fill="#FFF" mask="url(#j)"/><path d="M32.92 80.97v-.016c-.995-2.916.058-5.92 2.335-6.69l.82-.274c2.276-.78 4.932.957 5.922 3.872v.02l2.53-.856c0-.008 0-.008-.005-.022-1.46-4.305-5.64-6.796-9.314-5.55l-.806.28c-3.677 1.242-5.475 5.766-4.015 10.072 0 .01.01.01.01.024l2.523-.86zm4.634 19.492s-.59-1.357.175-1.617a1.48 1.48 0 0 1 .951 2.8c-.772.266-1.126-1.183-1.126-1.183m12.842-4.36s-.364-1.44-1.128-1.173a1.475 1.475 0 0 0-.928 1.872 1.492 1.492 0 0 0 1.87.933c.777-.266.186-1.633.186-1.633" fill="#06334E" mask="url(#j)"/><path d="M48.263 34.843c0-1.31-.978-2.37-2.178-2.37-1.198 0-2.177 1.06-2.177 2.37 0 1.306.98 2.367 2.177 2.367 1.2 0 2.178-1.06 2.178-2.367m14.187 0c0-1.31-.975-2.37-2.177-2.37s-2.173 1.06-2.173 2.37c0 1.306.97 2.367 2.173 2.367 1.202 0 2.177-1.06 2.177-2.367" fill="#272E34" mask="url(#j)"/></g><path d="M390.537 293.933c0 16.422-13.316 29.734-29.737 29.734-16.42 0-29.737-13.312-29.737-29.734 0-16.422 13.317-29.738 29.737-29.738 16.42 0 29.737 13.316 29.737 29.738" fill="#88D9F0"/><path d="M389.2 302.773l-17.763-21.732-1.13.432-1.824-.322-2.418.107-.807-.912-1.082-1.476-1.306-1.28-.67-.04-.755-.44h-2.552l-.08 1.73-.913 1.236-1.613.75-1.714.806-2.957-.43-1.075.753v21.326l-.196 2.292.162.822 13.906 17.035c11.737-1.427 21.37-9.66 24.79-20.657" fill="#59B5CF"/><path fill="#FFF" d="M351.053 305.72h19.552v-24.133h-19.552"/><path d="M370.054 304.978h-18.508v-22.576h3.257v.87h11.84v-.87h3.41v22.576zm-9.335-27.7c.78 0 1.415.57 1.415 1.27 0 .112-.016.22-.05.32h-2.73a.994.994 0 0 1-.052-.32c0-.7.636-1.27 1.416-1.27zm9.495 3.425h-3.573v-1.106a.73.73 0 0 0-.728-.728h-2.832c.014-.103.022-.212.022-.322 0-1.236-1.067-2.244-2.385-2.244-1.314 0-2.384 1.008-2.384 2.244 0 .11.015.22.03.32h-2.835c-.4 0-.727.33-.727.73v1.105h-3.412c-.85 0-1.534.687-1.534 1.533v22.904c0 .848.685 1.537 1.535 1.537h18.825c.85 0 1.534-.69 1.534-1.537v-22.904c0-.846-.685-1.533-1.535-1.533z" fill="#333745"/><path fill="#002E3F" d="M353.717 286.158h14.172v-.402h-14.173m.001 2.099h14.172v-.406h-14.173m.001 2.101h14.172v-.404h-14.173m.001 2.102h14.172v-.406h-14.173m.001 2.101h14.172v-.404h-14.173m.001 2.099h14.172v-.404h-14.173m6.746 2.099h7.427v-.402h-7.428m-6.744 7.047h3.778v-.404h-3.778"/><path d="M443.19 270.334c0 11.762-9.536 21.298-21.298 21.298-11.764 0-21.3-9.536-21.3-21.298 0-11.762 9.536-21.3 21.3-21.3 11.762 0 21.3 9.538 21.3 21.3" fill="#E7E4E5"/><path d="M442.32 276.33l-11.658-14.255-2.154 1.745-6.616 1.488-2.36 1.75-.874 3.893-4.376 6.437 11.39 13.89c7.974-1.427 14.404-7.287 16.65-14.948" fill="#CFCCCD"/><path d="M419.845 266.764l5.32 5.583 5.138-4.895a3.862 3.862 0 1 0-5.33-5.593l-5.136 4.894c.002.007.005.007.008.01" fill="#FFF"/><path d="M419.742 277.514l5.11-4.868-5.322-5.586.003-.002c-.003 0-.006-.006-.01-.006l-5.11 4.872a3.862 3.862 0 1 0 5.33 5.59" fill="#FCCC04"/><path d="M86.28 256.282c0 14.924-12.098 27.02-27.02 27.02-14.925 0-27.02-12.096-27.02-27.02 0-14.92 12.095-27.02 27.02-27.02 14.922 0 27.02 12.1 27.02 27.02" fill="#FF6D3A"/><path d="M85.263 263.55L70.66 245.79h-6.13l-5.27 3.073-.61 2.276-7.72-2.927-3.66 8.068 20.927 25.476c8.273-2.9 14.693-9.7 17.066-18.205" fill="#E85725"/><path d="M72.622 250.65c-.06-2.817-2.156-6.952-7.072-7.25-4.912-.302-6.29 3.774-6.29 3.774s-1.38-4.076-6.292-3.775c-4.916.298-7.012 4.433-7.07 7.25-.038 1.733.244 3.626 1.572 5.72l6.396-.24 1.797-2.604 2.43 4.824 4.072-10.068 3.687 7.58 5.288.365c1.25-2.037 1.517-3.885 1.482-5.578" fill="#F2F2F2"/><path d="M62.255 251.807l-4.043 9.178-2.682-5.84-1.29 1.693-6.587-.185c.825 1.226 2.006 2.515 3.698 3.884 4.274 3.2 7.91 5.454 7.91 5.454s3.634-2.253 7.91-5.453c1.552-1.257 2.68-2.455 3.49-3.59l-5.76.284-2.645-5.423z" fill="#F0F0F2"/><path d="M69.212 301.133c0 18.094-14.668 32.76-32.76 32.76-18.094 0-32.76-14.666-32.76-32.76 0-18.09 14.666-32.758 32.76-32.758 18.092 0 32.76 14.668 32.76 32.758" fill="#8CB302"/><path d="M67.784 310.702l-19.17-23.29-1.115 1.495-7.778 2.727h-5.204l-4.5 2.013v7.487l-.52 5.63-4.564 3.995 18.516 22.37c11.6-2.53 20.905-11.19 24.334-22.428" fill="#7C9E02"/><path d="M48.565 294.592a5.352 5.352 0 0 0-.324-7.564 5.352 5.352 0 0 0-7.565.32l-3.93 4.285 7.886 7.244 3.935-4.285zm-22.998 9.211a5.356 5.356 0 0 0 7.89 7.243l3.93-4.283-7.89-7.24-3.93 4.28z" fill="#FFD55B"/><path d="M32.273 287.524a5.365 5.365 0 0 0-7.572.322 5.356 5.356 0 0 0 .323 7.567l4.477 4.11 7.245-7.89-4.472-4.11zm16.451 15.106l-4.092-3.753-7.244 7.887 4.09 3.754a5.352 5.352 0 0 0 7.566-.32 5.353 5.353 0 0 0-.32-7.567" fill="#FFBE00"/><path fill="#FFBE00" d="M36.745 291.633l-7.246 7.89 7.888 7.24 7.244-7.886"/><path d="M41.507 299.473a.611.611 0 0 1-.035-.865.594.594 0 0 1 .436-.2.597.597 0 0 1 .54.135.588.588 0 0 1-.164.97.615.615 0 0 1-.777-.04zm-.61 1.635a.593.593 0 0 1-.2.142.612.612 0 0 1-.812-.91.616.616 0 0 1 .437-.2.59.59 0 0 1 .576.968zm-1.163-4.09c.12-.13.28-.19.44-.197a.592.592 0 0 1 .538.135.59.59 0 0 1 .037.832.571.571 0 0 1-.202.14.612.612 0 0 1-.772-.04.617.617 0 0 1-.042-.87zm-.426 5.824a.614.614 0 0 1-.197.143.613.613 0 1 1-.376-1.108.587.587 0 0 1 .574.965zm-1.16-4.09a.605.605 0 0 1 .438-.197.577.577 0 0 1 .538.135c.238.22.256.592.037.834a.584.584 0 0 1-.2.138.614.614 0 0 1-.772-.04.616.616 0 0 1-.04-.87zm-.428 5.826a.52.52 0 0 1-.197.14.61.61 0 0 1-.775-.042.616.616 0 0 1-.04-.867.593.593 0 0 1 .44-.198.586.586 0 0 1 .572.966zm-1.16-4.09a.63.63 0 0 1 .44-.2.587.587 0 0 1 .573.968.534.534 0 0 1-.2.14.608.608 0 0 1-.772-.04.616.616 0 0 1-.04-.87zm-.145-3.322a.6.6 0 0 1 .438-.2.589.589 0 0 1 .575.97.689.689 0 0 1-.2.14.61.61 0 0 1-.776-.044.611.611 0 0 1-.037-.866zm-.428 5.828a.593.593 0 0 1-.198.137.616.616 0 0 1-.777-.042.612.612 0 0 1 .4-1.065.59.59 0 0 1 .574.972zm-1.16-4.09a.601.601 0 0 1 .438-.202.594.594 0 0 1 .538.136.59.59 0 0 1-.161.972.62.62 0 0 1-.78-.042.611.611 0 0 1-.036-.865zm-.15-3.326a.632.632 0 0 1 .44-.2.586.586 0 0 1 .538.14c.24.22.257.588.04.83a.66.66 0 0 1-.202.14.613.613 0 0 1-.815-.91zm-.424 5.825a.665.665 0 0 1-.198.142.612.612 0 1 1-.377-1.107.584.584 0 0 1 .54.135c.238.22.255.59.036.83zm-1.162-4.092a.623.623 0 0 1 .44-.194.583.583 0 0 1 .54.138.592.592 0 0 1 .037.83.647.647 0 0 1-.2.14.618.618 0 0 1-.78-.044.622.622 0 0 1-.036-.87zm-.57 2.51a.595.595 0 0 1-.2.135.613.613 0 1 1-.379-1.108.587.587 0 0 1 .542.142.59.59 0 0 1 .037.83zm3.746-5.976a.606.606 0 0 1 .438-.197.582.582 0 0 1 .537.137.586.586 0 0 1-.16.97.615.615 0 0 1-.776-.043.615.615 0 0 1-.038-.866zm1.736 1.588a.597.597 0 0 1 .437-.2.59.59 0 0 1 .576.969.66.66 0 0 1-.2.14.619.619 0 0 1-.777-.045.607.607 0 0 1-.038-.865zm-1.257-3.8l-7.246 7.892 7.888 7.24 7.244-7.887-7.887-7.244z" fill="#FFD55B"/><path d="M37.08 294.754a.587.587 0 0 1-.634-.105.594.594 0 0 1-.037-.832.59.59 0 0 1 .294-.17.606.606 0 0 0-.44.196.615.615 0 1 0 .817.911" fill="#FFF"/><path d="M37.08 294.754a.587.587 0 0 1-.634-.105.594.594 0 0 1-.037-.832.59.59 0 0 1 .294-.17.606.606 0 0 0-.44.196.615.615 0 1 0 .817.911m1.735 1.588a.604.604 0 0 1-.633-.104.59.59 0 0 1 .255-1.005.59.59 0 0 0-.435.2.606.606 0 0 0 .037.864c.217.2.545.21.775.045" fill="#FFF"/><path d="M38.815 296.342a.604.604 0 0 1-.633-.104.59.59 0 0 1 .255-1.005.59.59 0 0 0-.435.2.606.606 0 0 0 .037.864c.217.2.545.21.775.045m1.734 1.584a.585.585 0 1 1-.374-1.104.61.61 0 0 0-.398 1.066c.22.196.545.208.772.038" fill="#FFF"/><path d="M40.548 297.926a.585.585 0 1 1-.374-1.104.61.61 0 0 0-.398 1.066c.22.196.545.208.772.038m1.104 1.484a.587.587 0 0 1 .256-1.003.614.614 0 1 0 .377 1.107.585.585 0 0 1-.632-.103" fill="#FFF"/><path d="M41.652 299.41a.587.587 0 0 1 .256-1.003.614.614 0 1 0 .377 1.107.585.585 0 0 1-.632-.103m-6.16-2.921a.59.59 0 0 1-.633-.106.59.59 0 0 1 .255-1.004.615.615 0 0 0-.397 1.066c.217.2.546.213.775.043" fill="#FFF"/><path d="M35.493 296.49a.59.59 0 0 1-.633-.106.59.59 0 0 1 .255-1.004.615.615 0 0 0-.397 1.066c.217.2.546.213.775.043m1.734 1.588a.588.588 0 1 1-.376-1.109.594.594 0 0 0-.436.2.608.608 0 0 0 .037.864.61.61 0 0 0 .774.045" fill="#FFF"/><path d="M37.227 298.077a.588.588 0 1 1-.376-1.109.594.594 0 0 0-.436.2.608.608 0 0 0 .037.864.61.61 0 0 0 .774.045m1.734 1.586a.577.577 0 0 1-.63-.104.59.59 0 0 1-.034-.833.554.554 0 0 1 .29-.17.601.601 0 0 0-.438.196c-.23.25-.21.638.04.87.22.196.545.208.772.04" fill="#FFF"/><path d="M38.96 299.663a.577.577 0 0 1-.63-.104.59.59 0 0 1-.034-.833.554.554 0 0 1 .29-.17.601.601 0 0 0-.438.196c-.23.25-.21.638.04.87.22.196.545.208.772.04m1.105 1.485a.591.591 0 0 1 .256-1.006.614.614 0 1 0 .38 1.111.586.586 0 0 1-.636-.103" fill="#FFF"/><path d="M40.065 301.147a.591.591 0 0 1 .256-1.006.614.614 0 1 0 .38 1.111.586.586 0 0 1-.636-.103m-6.159-2.926a.592.592 0 0 1-.634-.104.59.59 0 0 1 .258-1.004.616.616 0 0 0-.44.195.622.622 0 0 0 .038.87c.22.2.548.213.778.043" fill="#FFF"/><path d="M33.906 298.223a.592.592 0 0 1-.634-.104.59.59 0 0 1 .258-1.004.616.616 0 0 0-.44.195.622.622 0 0 0 .038.87c.22.2.548.213.778.043m1.737 1.587a.59.59 0 0 1-.634-.104.59.59 0 0 1 .255-1.004.607.607 0 0 0-.438.2.612.612 0 0 0 .038.866c.217.2.545.21.778.043" fill="#FFF"/><path d="M35.643 299.81a.59.59 0 0 1-.634-.104.59.59 0 0 1 .255-1.004.607.607 0 0 0-.438.2.612.612 0 0 0 .038.866c.217.2.545.21.778.043m1.732 1.586a.586.586 0 1 1-.376-1.106.62.62 0 0 0-.438.197.613.613 0 1 0 .814.91" fill="#FFF"/><path d="M37.374 301.397a.586.586 0 1 1-.376-1.106.62.62 0 0 0-.438.197.613.613 0 1 0 .814.91m1.103 1.482a.589.589 0 0 1-.038-.83.591.591 0 0 1 .294-.173.614.614 0 1 0 .377 1.107.588.588 0 0 1-.633-.105" fill="#FFF"/><path d="M38.477 302.88a.589.589 0 0 1-.038-.83.591.591 0 0 1 .294-.173.614.614 0 1 0 .377 1.107.588.588 0 0 1-.633-.105m-6.788-3.025a.583.583 0 0 1-.04-.83.606.606 0 0 1 .29-.176.633.633 0 0 0-.438.2.616.616 0 0 0 .042.867c.216.2.543.21.774.04a.577.577 0 0 1-.63-.1" fill="#FFF"/><path d="M31.689 299.854a.583.583 0 0 1-.04-.83.606.606 0 0 1 .29-.176.633.633 0 0 0-.438.2.616.616 0 0 0 .042.867c.216.2.543.21.774.04a.577.577 0 0 1-.63-.1m1.733 1.587a.594.594 0 0 1-.036-.832.575.575 0 0 1 .293-.172.615.615 0 0 0-.4 1.065c.22.2.545.21.78.043a.595.595 0 0 1-.635-.104" fill="#FFF"/><path d="M33.42 301.442a.594.594 0 0 1-.036-.832.575.575 0 0 1 .293-.172.615.615 0 0 0-.4 1.065c.22.2.545.21.78.043a.595.595 0 0 1-.635-.104m1.735 1.588a.593.593 0 0 1-.037-.834.59.59 0 0 1 .293-.172.612.612 0 1 0 .376 1.107.591.591 0 0 1-.633-.102" fill="#FFF"/><path d="M35.157 303.03a.593.593 0 0 1-.037-.834.59.59 0 0 1 .293-.172.612.612 0 1 0 .376 1.107.591.591 0 0 1-.633-.102m1.734 1.585a.586.586 0 0 1 .258-1.002.598.598 0 0 0-.44.197.614.614 0 0 0 .815.909.59.59 0 0 1-.633-.106" fill="#FFF"/><path d="M36.89 304.614a.586.586 0 0 1 .258-1.002.598.598 0 0 0-.44.197.614.614 0 0 0 .815.909.59.59 0 0 1-.633-.106" fill="#FFF"/><path d="M313.898 26.38c0 14.57-11.81 26.38-26.38 26.38-14.57 0-26.382-11.81-26.382-26.38C261.136 11.812 272.95 0 287.52 0s26.378 11.812 26.378 26.38" fill="#E7E4E5"/><path d="M295.22 51.612c7.61-2.32 13.75-7.987 16.726-15.283L292.93 13.175h-4.125l-4.765.625-1.932-.045-.352.274-.17 1.606.12 2.954.023 1.12.547.976.595 10.054-.494 5.235 12.843 15.637z" fill="#CFCCCD"/><path fill="#091A27" d="M284.16 31.453h8.568v-8.145h-8.568"/><path d="M291.952 25.736h-4.697a.313.313 0 0 1-.317-.305c0-.164.143-.3.317-.3h4.697c.176 0 .318.136.318.3a.313.313 0 0 1-.318.306zm-.047 2.65h-6.394a.358.358 0 0 1-.367-.35c0-.192.162-.348.368-.348h6.395c.202 0 .365.156.365.35 0 .19-.163.348-.365.348zm0 1.303h-6.394a.36.36 0 0 1-.367-.35c0-.194.162-.35.368-.35h6.395c.202 0 .365.156.365.35a.36.36 0 0 1-.365.35zm-9.798-9.303V34.82c0 1.544 1.316 2.792 2.94 2.792h4.942c1.623 0 2.94-1.248 2.94-2.79V20.386h-10.823z" fill="#FCCC04"/><path d="M284.35 14.116a.21.21 0 0 0-.21.21v3.803h.42v-3.804a.21.21 0 0 0-.21-.21m.793.001a.212.212 0 0 0-.213.21v3.803h.426v-3.804a.211.211 0 0 0-.213-.21m.792.001a.209.209 0 0 0-.21.21v3.803h.42v-3.804a.21.21 0 0 0-.21-.21m1.585.001a.212.212 0 0 0-.212.21v3.803h.42v-3.804a.21.21 0 0 0-.21-.21m-.793.001a.21.21 0 0 0-.208.21v3.803h.422v-3.804a.213.213 0 0 0-.215-.21m-3.164.001a.212.212 0 0 0-.213.21v3.803h.422v-3.804a.211.211 0 0 0-.21-.21m-1.586.001a.21.21 0 0 0-.21.21v3.803h.422v-3.804a.212.212 0 0 0-.212-.21m.793.001a.21.21 0 0 0-.212.21v3.803h.424v-3.804a.21.21 0 0 0-.212-.21m8.714.001a.21.21 0 0 0-.21.21v3.803h.422v-3.804a.212.212 0 0 0-.212-.21m-3.167.001a.212.212 0 0 0-.215.21v3.803h.424v-3.804a.21.21 0 0 0-.21-.21m3.958.001a.21.21 0 0 0-.21.21v3.803h.425v-3.804a.212.212 0 0 0-.214-.21m.792.001a.212.212 0 0 0-.21.21v3.803h.423v-3.804a.212.212 0 0 0-.214-.21m-3.959.001a.21.21 0 0 0-.21.21v3.803h.423v-3.804a.212.212 0 0 0-.213-.21m.791.001a.21.21 0 0 0-.21.21v3.803h.424v-3.804a.213.213 0 0 0-.214-.21m.794.001a.214.214 0 0 0-.214.21v3.803h.423v-3.804a.209.209 0 0 0-.21-.21" fill="#CFCCCD"/><path d="M293.275 18.13h-.423v-3.804a.212.212 0 0 1 .423 0v3.803zm-.79 0h-.425v-3.804a.212.212 0 0 1 .424 0v3.803zm-.794 0h-.42v-3.804a.21.21 0 0 1 .21-.21.21.21 0 0 1 .21.21v3.803zm-.793 0h-.423v-3.804c0-.116.098-.21.213-.21a.21.21 0 0 1 .21.21v3.803zm-.79 0h-.424v-3.804a.21.21 0 0 1 .21-.21c.116 0 .214.094.214.21v3.803zm-.792 0h-.423v-3.804a.212.212 0 0 1 .423 0v3.803zm-.793 0h-.425v-3.804c0-.116.096-.21.215-.21a.21.21 0 0 1 .21.21v3.803zm-.794 0h-.42v-3.804a.21.21 0 0 1 .21-.21.21.21 0 0 1 .21.21v3.803zm-.79 0h-.422v-3.804a.21.21 0 0 1 .208-.21c.118 0 .214.094.214.21v3.803zm-.794 0h-.42v-3.804a.21.21 0 1 1 .42 0v3.803zm-.79 0h-.425v-3.804c0-.116.095-.21.212-.21.118 0 .213.094.213.21v3.803zm-.794 0h-.42v-3.804a.21.21 0 0 1 .21-.21.21.21 0 0 1 .21.21v3.803zm-.792 0h-.422v-3.804a.21.21 0 1 1 .422 0v3.803zm-.79 0h-.425v-3.804a.21.21 0 0 1 .212-.21.21.21 0 0 1 .212.21v3.803zm-.794 0h-.422v-3.804a.21.21 0 0 1 .21-.21c.115 0 .212.094.212.21v3.803zm11.425 0h-.16v-3.223a2.377 2.377 0 0 0-2.375-2.378h-7.113a2.378 2.378 0 0 0-2.375 2.377v3.222h-.158c-.176 0-.32.14-.32.315v1.27c0 .174.144.314.32.314h12.18c.174 0 .315-.14.315-.316v-1.27a.315.315 0 0 0-.316-.315z" fill="#FFF"/><path d="M416 141.602c.59 20.605-15.64 37.787-36.243 38.377-20.605.587-37.787-15.64-38.376-36.243-.59-20.604 15.638-37.786 36.243-38.375 20.604-.59 37.787 15.638 38.377 36.24" fill="#004573"/><path d="M414.92 151.51l-22.137-25.428-2.615.793-4.147-1.05-4.506 2.197-5.112 6.334-4.804 5.66-1.535 6.14-3.31 3.602-2.048 3.922.083 2.877 19.92 22.912c14.896-2.42 26.708-13.59 30.21-27.96" fill="#003A61"/><path d="M370.57 149.213c-.02.025-.04.055-.057.08a2.184 2.184 0 0 0-2.39.67l-2.42 2.9a2.175 2.175 0 0 0 .28 3.07 2.174 2.174 0 0 0 3.075-.277l2.42-2.898c.596-.72.655-1.71.22-2.477a.436.436 0 0 0 .073-.07l1.866-2.235-1.207-.992-1.86 2.23z" fill="#FF6D3A"/><path d="M383.857 128.81l-10.01 12.017c-1.288 1.543-1.343 4.752-1.418 6.156l3.485-4.18-1.123-.933a.217.217 0 0 1-.03-.303c.08-.09.217-.108.306-.028l1.123.933 1.93-2.322-1.118-.93a.217.217 0 0 1-.028-.306.21.21 0 0 1 .302-.025l1.118.93 1.934-2.32-1.118-.93a.215.215 0 0 1-.027-.304.21.21 0 0 1 .303-.027l1.12.93 1.93-2.32-1.117-.928a.22.22 0 0 1-.03-.308.214.214 0 0 1 .3-.024l1.122.93 1.936-2.316-1.12-.936a.22.22 0 0 1-.03-.305c.076-.09.214-.1.3-.027l1.125.934.94-1.133a.786.786 0 0 1 1.105-.098c.33.273.376.765.098 1.097l-.946 1.134 1.12.933c.1.078.105.213.033.3a.21.21 0 0 1-.305.03l-1.12-.93-1.938 2.32 1.124.932c.09.077.104.21.028.303a.22.22 0 0 1-.307.028l-1.117-.934-1.935 2.318 1.122.934c.094.078.11.213.026.305a.214.214 0 0 1-.3.028l-1.12-.936-1.935 2.32 1.12.932a.217.217 0 0 1 .028.307.215.215 0 0 1-.303.026l-1.117-.933-1.934 2.322 1.118.928c.09.078.105.217.025.306a.213.213 0 0 1-.3.027l-1.12-.934-3.477 4.172c1.454-.24 4.508-.953 5.793-2.496l10.014-12.017a3.634 3.634 0 0 0-.466-5.12 3.64 3.64 0 0 0-5.12.466" fill="#63CAF6"/><path d="M389.444 133.463L379.43 145.48c-1.286 1.542-4.34 2.254-5.794 2.495l-1.865 2.236a.386.386 0 0 1-.07.07c.433.77.374 1.757-.222 2.478l-2.42 2.898a2.174 2.174 0 0 1-3.074.278 2.173 2.173 0 0 1-.28-3.07l2.42-2.9a2.178 2.178 0 0 1 2.39-.67c.017-.026.037-.056.056-.08l1.86-2.23c.074-1.406.13-4.615 1.416-6.158l10.01-12.017a3.642 3.642 0 0 1 5.122-.468 3.634 3.634 0 0 1 .466 5.12m2.64-8l-.826-.692a7.17 7.17 0 0 0-10.094.918l-11.555 13.865c-2.52 3.023-1.934 6.623-1.664 7.94l-3.335 4.003a3.899 3.899 0 1 0 5.987 4.992l3.338-4.005c2.737.035 4.977-.03 7.512-3.07L393 135.552a7.165 7.165 0 0 0-.916-10.092" fill="#85DCFF"/><path d="M378.232 144.737a.211.211 0 0 0 .3-.027.217.217 0 0 0-.024-.307l-1.12-.928 1.935-2.322 1.117.934a.216.216 0 1 0 .276-.331l-1.12-.934 1.935-2.317 1.12.935a.212.212 0 0 0 .3-.03.206.206 0 0 0-.025-.304l-1.122-.933 1.935-2.318 1.117.934a.22.22 0 0 0 .307-.028.214.214 0 0 0-.028-.302l-1.124-.932 1.937-2.32 1.12.93c.09.08.227.066.306-.03a.21.21 0 0 0-.032-.3l-1.12-.932.946-1.135a.783.783 0 0 0-1.202-1.001l-.94 1.133-1.125-.934a.219.219 0 0 0-.303.028.22.22 0 0 0 .03.304l1.12.936-1.935 2.316-1.12-.93a.217.217 0 0 0-.302.024.222.222 0 0 0 .03.31l1.116.926-1.93 2.32-1.12-.93a.21.21 0 0 0-.303.026.214.214 0 0 0 .027.303l1.118.93-1.934 2.32-1.118-.93a.207.207 0 0 0-.302.025.217.217 0 0 0 .028.306l1.117.93-1.93 2.323-1.122-.933a.215.215 0 0 0-.305.027.214.214 0 0 0 .03.303l1.122.933-3.486 4.18 1.206.992 3.477-4.172 1.12.934z" fill="#FF6D3A"/><path d="M144.434 76.304c0 21.994-17.828 39.822-39.824 39.822-21.99 0-39.822-17.828-39.822-39.822 0-21.99 17.832-39.822 39.822-39.822 21.996 0 39.824 17.832 39.824 39.822" fill="#88D9F0"/><path d="M142.428 88.738l-20.12-24.385-1.61 1.403h-2.9l-2.68-3.852-.82.018-3.31-4.413-2.54.667-3.838-.285-6.305-.383-.64 2.49.64 5.086-5.598.863-2.724-4.02-2.803 2.003-1.56 10.362v13.58l23.04 28.05c15.86-1.6 28.946-12.52 33.768-27.187" fill="#59B5CF"/><path fill="#004573" d="M89.983 90.357h27.86V61.93h-27.86"/><path d="M117.842 61.92v28.436h-.045c3.236-.19 5.8-2.888 5.8-6.203v-16.03c0-3.294-2.544-5.99-5.755-6.202m-7.395 16.514a.931.931 0 0 1-.93.935h-2.803v2.803c0 .512-.42.93-.935.93h-3.58a.934.934 0 0 1-.933-.93V79.37h-2.804a.934.934 0 0 1-.93-.935v-3.58c0-.514.418-.934.93-.934h2.804v-2.8c0-.515.42-.933.932-.933h3.58c.515 0 .934.418.934.933v2.8h2.803c.516 0 .93.42.93.935v3.58zM98.453 59.76c0-.515.416-.933.933-.933h8.998c.514 0 .938.418.938.932v2.144h-10.87V59.76zm12.8 2.144v-3.662c0-.686-.558-1.244-1.246-1.244H97.765c-.69 0-1.246.558-1.246 1.244v3.662h-3.813v28.474h22.41V61.904h-3.865zm-26.873 6.22v16.03c0 3.248 2.464 5.907 5.603 6.198v-28.42c-3.14.288-5.602 2.947-5.602 6.192" fill="#FFF"/><path d="M85.334 116.014c0 23.564-19.103 42.667-42.667 42.667S0 139.58 0 116.015C0 92.45 19.103 73.347 42.667 73.347s42.667 19.103 42.667 42.667" fill="#E7E4E5"/><path d="M17.757 125.975l33.406 31.857c16.8-3.395 30.02-16.66 33.352-33.483l-27.59-25.726-1.232-.062-2.352-2.105-35.583 29.518z" fill="#CFCCCD"/><path d="M54.09 100.115a2.04 2.04 0 1 1-4.08 0V98.05a2.04 2.04 0 0 1 4.08 0v2.065z" fill="#E53000"/><path d="M54.09 100.115a2.04 2.04 0 1 1-4.08 0V98.05a2.04 2.04 0 0 1 4.08 0v2.065z" fill="#FFF"/><path d="M73.67 118.012c-1.236-1.732-7.082-4.722-7.082-4.722s-8.49-14.724-9.935-14.75l-35.325-.002-.127.003c-2.14.422-3.67 2.015-3.67 4.28v19.312a4.66 4.66 0 0 0 3.756 4.57v.11h48.736c2.607 0 4.124-2.114 4.124-4.722 0 0 .136-3.22-.476-4.078" fill="#FFF"/><path d="M74.028 119.18H17.53v2.952a4.659 4.659 0 0 0 3.756 4.57v.11H70.02c2.237 0 3.668-1.556 4.03-3.643 0 0 .114-.54.122-1.85.004-.88-.12-1.986-.12-1.986-.007-.052-.017-.102-.024-.154M57.76 99.492l-38.685.004c-.305.21-1.147 1.09-1.356 2.005l41.545-.017a26.145 26.145 0 0 0-1.504-1.99" fill="#E53000"/><path d="M54.84 115.01a.484.484 0 0 1-.484.483h-2.468a.483.483 0 0 1 0-.964h2.468c.267 0 .483.215.483.483m-8.022.158c.266 0 .482.217.482.483v2.467a.484.484 0 1 1-.966 0v-2.467c0-.266.215-.483.483-.483m-22.876 7.633h-6.91a.243.243 0 0 0-.003.038v1.135a2.912 2.912 0 0 0 2.913 2.913h4v-4.085zm42.47-.063h7.375l.828.642v.53a2.913 2.913 0 0 1-2.913 2.913h-4l-1.29-4.086z" fill="#333745"/><path d="M68.45 126.835a5.672 5.672 0 0 0-5.673-5.66 5.673 5.673 0 0 0-5.674 5.66H68.45zm-34.92.035a5.673 5.673 0 0 0-5.674-5.66 5.673 5.673 0 0 0-5.674 5.66H33.53z" fill="#CCC"/><path d="M23.314 126.883a4.542 4.542 0 1 0 9.085 0 4.542 4.542 0 0 0-9.085.001m34.92-.034a4.541 4.541 0 0 0 4.543 4.54 4.54 4.54 0 0 0 4.542-4.54 4.543 4.543 0 1 0-9.086-.001" fill="#313540"/><path d="M59.935 126.85a2.84 2.84 0 0 0 2.843 2.84 2.842 2.842 0 1 0-2.843-2.842m-34.905.002a2.843 2.843 0 0 0 5.685 0 2.841 2.841 0 0 0-5.684-.002" fill="#515566"/><path d="M38.982 112.17c0 .422.347.77.77.77h6.61c.424 0 .77-.348.77-.77v-9.05a.772.772 0 0 0-.77-.77h-6.61a.773.773 0 0 0-.77.77v9.05zM64.68 111s-2.684-4.782-4.994-8.2h-.008a.77.77 0 0 0-.61-.304h-7.38a.774.774 0 0 0-.77.77v9.047c0 .267.14.502.348.64.067.08.158.127.262.127h.135c.01.002.017.004.026.004h6.61a.093.093 0 0 0 .023-.004h3.65l2.092.02c.202 0 .418-.176.48-.394l.295-1.035c.06-.216-.01-.52-.16-.67" fill="#32ABC2"/><path d="M32.486 110.132a4.812 4.812 0 1 1-9.625.001 4.812 4.812 0 0 1 9.625-.002" fill="#E53000"/><path fill="#FFF" d="M30.882 108.912h-1.99v-1.987h-2.438v1.987h-1.99v2.44h1.99v1.99h2.44v-1.99h1.988"/><path d="M74.084 122.97c.025-.183.04-.37.05-.56a15.332 15.332 0 0 0-.009-2.264c-.052-.85-.174-1.74-.455-2.134-1.236-1.732-7.082-4.722-7.082-4.722s-4.327-7.505-7.33-11.807h.007c-.3-.445-.617-.87-.915-1.255-.78-1.026-1.394-1.682-1.697-1.688l-35.325-.002-.127.003c-.808.162-1.53.49-2.116.955h-.01c-.304.21-1.146 1.09-1.355 2.005h.004c-.124.41-.194.85-.194 1.32l54.17 24.004a2.912 2.912 0 0 0 2.913-2.914v-.528l-.53-.412z" fill="#FFF"/><path d="M365.1 84.42c0 18.93-15.35 34.276-34.277 34.276-18.938 0-34.284-15.346-34.284-34.277 0-18.93 15.345-34.278 34.283-34.278 18.927 0 34.277 15.347 34.277 34.277" fill="#FF6D3A"/><path d="M364.533 90.65L341.4 67.637l1.545 2.44-1.06 1.453-1.637.923-5.182 5.064-2.81-2.99-2.34 2.507-2.61 2.473-3.27 3.254-2.112 2.032-1.13 1.692 2.83 4.17-2.202 2.195-3.873 4.507 18.026 21.012c13.566-1.745 26.273-12.447 28.957-27.72" fill="#E85725"/><path fill="#E7E4E5" d="M331.86 85.307l-2.634-2.632 12.946-12.95 2.632 2.633"/><path d="M341.4 67.638c-.23.568-.213 1.104.1 1.42l3.974 3.973c.313.313.85.33 1.42.1l-5.494-5.492z" fill="#E7E4E5"/><path fill="#CFCCCD" d="M324.037 90.872l-.617-.615-5.287 5.29-.584 1.81"/><path fill="#FFF" d="M330.87 84.25l-.407-.4 12.914-13.006.404.4"/><path d="M327.094 80.138l-.79.79 2.466 2.462a.22.22 0 0 1 .004.31.221.221 0 0 1-.31 0l-2.466-2.464-.924.922 2.112 2.11a.212.212 0 0 1 0 .306.214.214 0 0 1-.307 0l-2.112-2.108-3.897 3.896c-.272.274-.278 1.196 2.753 4.29v.003c3.24 3.235 4.2 3.235 4.49 2.948l6.223-6.224-7.242-7.242z" fill="#E1EFFB"/><path d="M323.842 90.427c-2.2-2.274-2.615-3.486-2.67-4.008-.027-.264.035-.384.05-.407l10.9-10.907 7.25 7.245-10.9 10.905c-.01.01-1.132.672-4.63-2.828m5.09 3.32l10.914-10.922 1.03 1.032a2.02 2.02 0 0 0 2.07.484l-12.81-12.81a2.018 2.018 0 0 0 .48 2.07l1.033 1.03-10.92 10.92c-.046.05-.288.326-.228.938.113 1.08 1.072 2.562 2.858 4.412 1.69 1.687 3.095 2.697 4.183 2.998.92.255 1.317-.08 1.39-.15" fill="#85DCFF"/><path d="M418.723 87.38c0 15.487-12.556 28.044-28.05 28.044-15.487 0-28.044-12.557-28.044-28.045 0-15.49 12.556-28.048 28.044-28.048 15.493 0 28.05 12.56 28.05 28.047" fill="#8CB302"/><path d="M417.45 95.75l-17.51-21.94-.676.547h-2.356l-.48.355v5.242l-5.022-6.118-.174.52h-2.659l-.278.306v5.622l-5.672-6.45-.63.55.323-.03h-1.594l-.292.23-.266.052v18.617l-3.622-.002v4.663l-.195.39 14.04 17.103c.1.002.192.015.287.015 12.577 0 23.215-8.276 26.775-19.676" fill="#7C9E02"/><path d="M379.027 73.952V96a1.816 1.816 0 0 0 3.634 0V73.952h-3.633z" fill="#E1EFFB"/><path d="M382.666 73.952c0 .283-.816.513-1.82.513-1.008 0-1.823-.23-1.823-.513 0-.28.815-.51 1.822-.51 1.005 0 1.82.23 1.82.51" fill="#C8DAEC"/><path d="M379.027 85.863V96a1.816 1.816 0 0 0 3.634 0V85.863h-3.633z" fill="#004573"/><path d="M382.413 73.952c0 .207-.702.373-1.568.373-.868 0-1.57-.166-1.57-.373 0-.205.702-.37 1.57-.37.866 0 1.568.165 1.568.37" fill="#E1EFFB"/><path d="M382.666 85.863c0 .282-.816.51-1.82.51-1.008 0-1.823-.228-1.823-.51 0-.282.815-.512 1.822-.512 1.005 0 1.82.23 1.82.513" fill="#005D9C"/><path d="M387.785 73.952V96c0 1.002.812 1.816 1.816 1.816s1.82-.814 1.82-1.816V73.952h-3.635z" fill="#E1EFFB"/><path d="M391.422 73.952c0 .283-.815.513-1.82.513-1.006 0-1.822-.23-1.822-.513 0-.28.816-.51 1.822-.51 1.005 0 1.82.23 1.82.51" fill="#C8DAEC"/><path d="M387.785 90.066V96c0 1.002.812 1.816 1.816 1.816s1.82-.814 1.82-1.816v-5.934h-3.635z" fill="#FF6D3A"/><path d="M391.17 73.952c0 .207-.7.373-1.568.373-.868 0-1.57-.166-1.57-.373 0-.205.702-.37 1.57-.37.867 0 1.568.165 1.568.37" fill="#E1EFFB"/><path d="M391.422 90.066c0 .28-.815.51-1.82.51-1.006 0-1.822-.23-1.822-.51 0-.282.816-.51 1.822-.51 1.005 0 1.82.228 1.82.51" fill="#FF8C63"/><path d="M396.366 73.952V96a1.817 1.817 0 0 0 3.635 0V73.952h-3.634z" fill="#E1EFFB"/><path d="M400.004 73.952c0 .283-.814.513-1.82.513-1.007 0-1.822-.23-1.822-.513 0-.28.815-.51 1.822-.51 1.006 0 1.82.23 1.82.51" fill="#C8DAEC"/><path d="M396.366 78.856V96a1.817 1.817 0 0 0 3.635 0V78.856h-3.634z" fill="#FCCC04"/><path d="M399.752 73.952c0 .207-.702.373-1.568.373-.868 0-1.57-.166-1.57-.373 0-.205.702-.37 1.57-.37.866 0 1.568.165 1.568.37" fill="#E1EFFB"/><path d="M400.004 78.873c0 .282-.814.51-1.82.51-1.007 0-1.822-.228-1.822-.51 0-.283.815-.513 1.822-.513 1.006 0 1.82.23 1.82.513" fill="#FCDE04"/><path fill="#333745" d="M376.586 93.895h2.453v-.783h-2.454m6.065.783h5.135v-.783h-5.135m8.747.783h4.97v-.783h-4.97m8.581.783h2.267v-.783h-2.267"/><path d="M399.99 93.107c-1.08.684-2.555.682-3.628-.01l-.007.007v.78c1.13.532 2.5.538 3.634.016v-.793zm-8.583 0c-1.078.684-2.554.682-3.627-.01l-.007.007v.78c1.13.532 2.5.538 3.634.016v-.793zm-8.757 0c-1.078.684-2.553.682-3.627-.01-.002.002-.004.006-.007.007v.78c1.13.532 2.5.538 3.634.016v-.793zm-6.105 5.563h.782v-5.56h-.782" fill="#333745"/><path fill="#333745" d="M375.775 98.732h2.32v-.78h-2.32"/><path fill="#333745" d="M377.228 98.733h25.79v-.782h-25.79"/><path fill="#333745" d="M401.474 98.67h.783v-5.56h-.783"/><path fill="#FFF" d="M241.346 247.154h55v-116h-55"/><path d="M291.596 138.03c0 .62-.504 1.124-1.125 1.124h-42.5a1.125 1.125 0 0 1 .001-2.251h42.5c.622 0 1.126.504 1.126 1.125m-.002 8.502c0 .62-.504 1.124-1.125 1.124h-42.5a1.125 1.125 0 0 1 .001-2.251h42.5c.622 0 1.126.504 1.126 1.125m-.002 8.502c0 .62-.504 1.124-1.125 1.124h-42.5a1.125 1.125 0 0 1 .001-2.251h42.5c.622 0 1.126.504 1.126 1.125m-.002 8.502c0 .62-.504 1.124-1.125 1.124h-42.5a1.125 1.125 0 0 1 .001-2.251h42.5c.622 0 1.126.504 1.126 1.125m-.002 8.502c0 .62-.504 1.124-1.125 1.124h-42.5a1.125 1.125 0 0 1 .001-2.251h42.5c.622 0 1.126.504 1.126 1.125m-.002 8.502c0 .62-.504 1.124-1.125 1.124h-42.5a1.125 1.125 0 0 1 .001-2.251h42.5c.622 0 1.126.504 1.126 1.125m-.002 8.502c0 .62-.504 1.124-1.125 1.124h-42.5a1.125 1.125 0 0 1 .001-2.251h42.5c.622 0 1.126.504 1.126 1.125m-.002 8.502c0 .62-.504 1.124-1.125 1.124h-42.5a1.125 1.125 0 0 1 .001-2.251h42.5c.622 0 1.126.504 1.126 1.125m-.002 8.502c0 .62-.504 1.124-1.125 1.124h-42.5a1.125 1.125 0 0 1 .001-2.251h42.5c.622 0 1.126.504 1.126 1.125m-.002 8.502c0 .62-.504 1.124-1.125 1.124h-42.5a1.125 1.125 0 0 1 .001-2.251h42.5c.622 0 1.126.504 1.126 1.125" fill="#A8A8A8"/><path d="M277.763 232.487a9.5 9.5 0 1 1-19 0 9.5 9.5 0 0 1 19 0" fill="#E53000"/><path fill="#FFF" d="M274.596 230.08h-3.926v-3.927h-4.814v3.927h-3.926v4.814h3.926v3.925h4.814v-3.926h3.926"/></g></svg>