<svg width="164" height="163" viewBox="224 271 164 163" version="1.1" xmlns="http://www.w3.org/2000/svg" xmlns:xlink="http://www.w3.org/1999/xlink"><defs><path id="path-1" d="M.663 61h60.39V.61H.663z"/></defs><g id="Group-2" stroke="none" stroke-width="1" fill="none" fill-rule="evenodd" transform="translate(224 271)"><path id="Shape" fill="#333745" d="M67.985 106.115L57.843 96.103 24.05 129.897l10.133 10.02"/><path d="M69.575 97.137l-.08-.075c-9.914-9.04-15.71-21.383-16.316-34.78-.624-13.406 4.024-26.246 13.048-36.144 18.637-20.415 50.423-21.91 70.868-3.327l.07.064c9.913 9.045 15.706 21.397 16.315 34.81.618 13.397-4.01 26.223-13.057 36.132-18.633 20.4-50.408 21.895-70.848 3.32m74.08-81.372c-.037-.027-.078-.047-.094-.074-24.41-22.186-62.172-20.423-84.42 3.943-22.285 24.434-20.558 62.262 3.87 84.543.026.02.057.05.09.072 24.41 22.198 62.192 20.416 84.436-3.955 22.254-24.416 20.527-62.262-3.88-84.53" id="Shape" fill="#333745"/><g id="Group" transform="translate(0 101.447)"><g id="Clipped"><mask id="mask-2" fill="#fff"><use xlink:href="#path-1"/></mask><path d="M59.452 10.976a5.47 5.47 0 0 1 0 7.734l-40.69 40.688a5.468 5.468 0 0 1-7.734 0l-8.764-8.764a5.47 5.47 0 0 1 0-7.734l40.69-40.69a5.47 5.47 0 0 1 7.732 0l8.766 8.766z" id="Shape" fill="#CD2C24" mask="url(#mask-2)"/></g></g><path d="M132.645 89.892c-16.377 16.375-43.02 16.375-59.397 0a1 1 0 0 1 1.415-1.414c15.595 15.597 40.97 15.597 56.569 0a1 1 0 1 1 1.413 1.415m.53-58.161a1 1 0 0 1-1.414 0c-15.595-15.596-40.972-15.596-56.567 0a1 1 0 0 1-1.414-1.414c16.374-16.374 43.02-16.374 59.395 0 .39.392.39 1.024 0 1.415" id="Shape" fill="#FFF"/></g></svg>