<svg width="37" height="69" viewBox="0 -1 37 69" version="1.1" xmlns="http://www.w3.org/2000/svg" xmlns:xlink="http://www.w3.org/1999/xlink"><defs><path id="path-1" d="M36.851.843V68H0V.843z"/><path d="M.623 11.133a14.305 14.305 0 0 0 6.805 1.71c2.461 0 4.778-.62 6.803-1.71V.772H.623v10.361z" id="path-3"/><path d="M.566 7.924a14.376 14.376 0 0 0 4.348 2.823V.887H.566v7.037z" id="path-5"/><path d="M.941 10.747a14.378 14.378 0 0 0 4.347-2.823V.888H.941v9.859z" id="path-7"/></defs><g id="icon-phone3" stroke="none" stroke-width="1" fill="none" fill-rule="evenodd" transform="translate(0 -1)"><g id="Group-8" transform="translate(0 .157)"><g id="Group-3"><mask id="mask-2" fill="#fff"><use xlink:href="#path-1"/></mask><path d="M36.852 63.661a4.352 4.352 0 0 1-4.341 4.34H4.341A4.353 4.353 0 0 1 0 63.66V5.182C0 2.795 1.956.843 4.343.843H32.51a4.354 4.354 0 0 1 4.34 4.34V63.66z" id="Fill-1" fill="#272E34" mask="url(#mask-2)"/></g><path d="M34.348 57.098c0 .955-.781 1.734-1.734 1.734H4.244a1.74 1.74 0 0 1-1.736-1.734V8.478c0-.952.78-1.735 1.736-1.735h28.37c.953 0 1.734.783 1.734 1.736v48.619z" id="Fill-4" fill="#F6F6F6"/><path d="M32.791 31.481c0-7.934-6.432-14.365-14.363-14.365-7.934 0-14.364 6.431-14.364 14.365s6.43 14.361 14.364 14.361c7.931 0 14.363-6.427 14.363-14.36" id="Fill-6" fill="#13B5E6"/></g><g id="Group-84" transform="translate(8 19.157)"><path id="Fill-9" fill="#E5BD99" d="M12.848 15.374l.074-.602-.261-.232v-1.715H8.19v1.827l-.26.12.093.602 2.415 2.052z"/><path d="M16.274 6.061c0 3.447-2.618 6.236-5.847 6.236-3.227 0-5.844-2.79-5.844-6.236 0-3.442 2.14-5.609 5.844-5.609 4.022 0 5.847 2.167 5.847 5.61" id="Fill-11" fill="#383C40"/><path d="M15.47 8.201c0 3.271-2.256 5.924-5.042 5.924-2.787 0-5.046-2.653-5.046-5.924 0-3.275 2.259-5.929 5.046-5.929 2.786 0 5.043 2.654 5.043 5.93" id="Fill-13" fill="#EFD0B4"/><path d="M7.168 8.68c0 .75-.512 1.358-1.145 1.358-.632 0-1.144-.607-1.144-1.357s.512-1.358 1.144-1.358c.633 0 1.145.609 1.145 1.358" id="Fill-15" fill="#EFD0B4"/><path d="M15.973 8.68c0 .75-.512 1.358-1.142 1.358-.633 0-1.145-.607-1.145-1.357s.512-1.358 1.145-1.358c.63 0 1.142.609 1.142 1.358" id="Fill-17" fill="#EFD0B4"/><path d="M14.827 3.837c.13-.243.111-.564-.198-.795C11.793.939 5.11 1.76 5.304 6.21c.005.096-.15.355-.086.384.215.994.387 2.24 1.228 2.98.13.113.236-.405.251-.574.142-1.776.131-3.961 1.713-5.163.005-.003.005-.01.011-.014.15.403.425.765.698 1.088.352.418.797.849 1.323 1.025.1.035.217-.055.212-.161a7.44 7.44 0 0 1 .025-1.27c.363.435.898.729 1.462.783.103.01.181-.088.183-.182.02-.341-.054-.828.048-1.207 1.618.4 1.687 1.88 1.994 3.267.068.3.18 2.423.463 2.022 1.155-1.637.697-4.167-.002-5.352" id="Fill-19" fill="#383C40"/><path id="Fill-21" fill="#FFF" d="M7.276 16.903l.458-2.232 1.274 2.232z"/><path id="Fill-23" fill="#FFF" d="M13.533 16.903l-.43-2.207-1.302 2.207z"/><g id="Group-27" transform="translate(3 14)"><mask id="mask-4" fill="#fff"><use xlink:href="#path-3"/></mask><path d="M14.231 13.795l-.504-11.308c0-.768-1.566-1.426-3.806-1.715 0 0-1.287 1.624-2.535 1.615C6.15 2.379 4.931.772 4.931.772c-2.236.289-3.804.947-3.804 1.715L.623 13.795h13.608z" id="Fill-25" fill="#A1B400" mask="url(#mask-4)"/></g><g id="Group-30" transform="translate(0 15)"><mask id="mask-6" fill="#fff"><use xlink:href="#path-5"/></mask><path d="M4.914 12.795c-.69-1.595-1.048-3.305-.934-5.22.099-1.665.482-6.687.482-6.687C2.717 2.088 1.21 4.13.873 6.264c-.38 2.385-.41 4.544-.077 6.53h4.118z" id="Fill-28" fill="#B3D246" mask="url(#mask-6)"/></g><path d="M12.104 23.293a.268.268 0 0 1-.357-.121.267.267 0 0 1 .12-.357l.657-.323a.268.268 0 1 1 .238.48l-.658.321z" id="Fill-31" fill="#9ED7E2"/><path d="M13.562 23.308a.763.763 0 0 1-1.018-.348l-.142-.291a.758.758 0 0 1 .348-1.015l5.006-2.456a.76.76 0 0 1 1.015.346l.143.289a.762.762 0 0 1-.347 1.018l-5.005 2.457z" id="Fill-33" fill="#9ED7E2"/><path d="M12.477 22.632a.674.674 0 0 1 .31-.901l5.005-2.457a.674.674 0 0 1 .904.307l.142.29a.679.679 0 0 1-.309.906l-5.006 2.455a.675.675 0 0 1-.902-.308l-.144-.292z" id="Fill-35" fill="#FFF"/><path d="M11.823 23.135a.18.18 0 0 1 .082-.243l.657-.324a.182.182 0 0 1 .245.085.182.182 0 0 1-.084.243l-.656.323a.181.181 0 0 1-.244-.084" id="Fill-37" fill="#FFF"/><path d="M12.027 22.83l-.122.062a.18.18 0 0 0-.082.243.182.182 0 0 0 .244.084l.121-.06-.16-.329z" id="Fill-39" fill="#ED5D54"/><path id="Fill-41" fill="#9ED7E2" d="M18.517 20.311l-.365-.744.072-.035.365.745z"/><path id="Fill-43" fill="#9ED7E2" d="M17.985 20.401l-.229-.469.072-.035.227.468z"/><path id="Fill-45" fill="#9ED7E2" d="M17.52 20.627l-.23-.466.075-.035.228.467z"/><path id="Fill-47" fill="#9ED7E2" d="M17.056 20.855l-.228-.465.072-.037.228.467z"/><path id="Fill-49" fill="#9ED7E2" d="M16.661 21.224l-.367-.745.074-.036.365.745z"/><path id="Fill-51" fill="#9ED7E2" d="M16.128 21.31l-.228-.465.072-.035.229.466z"/><path id="Fill-53" fill="#9ED7E2" d="M15.666 21.539l-.232-.468.074-.034.229.467z"/><path id="Fill-55" fill="#ED5D54" d="M15.2 21.766l-.229-.466.073-.036.228.469z"/><path id="Fill-57" fill="#ED5D54" d="M14.804 22.133l-.366-.744.074-.034.365.743z"/><path id="Fill-59" fill="#ED5D54" d="M14.271 22.223l-.229-.466.072-.036.23.466z"/><path id="Fill-61" fill="#ED5D54" d="M13.807 22.451l-.23-.469.074-.035.229.468z"/><path id="Fill-63" fill="#ED5D54" d="M13.344 22.678l-.23-.467.074-.035.229.466z"/><path id="Fill-65" fill="#ED5D54" d="M12.947 23.045l-.365-.746.072-.035.365.745z"/><path id="Fill-67" fill="#9ED7E2" d="M11.96 23.147l-.063-.13 6.408-3.144.064.128z"/><path id="Fill-69" fill="#ED5D54" d="M11.96 23.147l-.063-.13 3.423-1.68.065.128z"/><path d="M9.152 8.68c0-.37-.254-.672-.566-.672-.314 0-.565.302-.565.673 0 .369.251.67.565.67.312 0 .566-.301.566-.67" id="Fill-71" fill="#505457"/><path d="M12.835 8.68c0-.37-.253-.672-.565-.672-.312 0-.565.302-.565.673 0 .369.253.67.565.67.312 0 .565-.301.565-.67" id="Fill-73" fill="#505457"/><g id="Group-77" transform="translate(15 15)"><mask id="mask-8" fill="#fff"><use xlink:href="#path-7"/></mask><path d="M.941 12.795h4.117c.332-1.987.303-4.146-.076-6.531-.34-2.133-1.846-4.175-3.59-5.376 0 0 .381 5.022.481 6.688.115 1.914-.243 3.624-.932 5.219" id="Fill-75" fill="#B3D246" mask="url(#mask-8)"/></g><path id="Fill-78" fill="#C60018" d="M8.424 20.53l-2.355-1.052 1.815-4.072 2.354 1.05z"/><path id="Fill-80" fill="#DB062B" d="M11.442 22.343l-2.579.032-.085-6.476 2.58-.035z"/><path d="M14.337 14.125c-.191-.521-.534-.975-.71-1.184-.082-.096-.138-.142-.172-.112-.217.204-1.132 1.028-2.897 1.167a4.034 4.034 0 0 1-.381 0c-1.766-.139-2.683-.963-2.901-1.167-.031-.03-.088.016-.17.112-.176.209-.516.663-.71 1.184-.212.583-.523 1.167-.163 1.822.18.332 1.902 1.218 4.134 1.218s3.953-.886 4.134-1.218c.358-.655.049-1.239-.164-1.822" id="Fill-82" fill="#E90013"/></g><g id="Group-89" transform="translate(13 3.157)" fill="#F9F9FC"><path id="Fill-85" d="M.903 1.615h9.046V.742H.903z"/><path d="M8.12 62.291a.96.96 0 0 1-.962.96H3.692a.96.96 0 0 1-.962-.96v-3.468c0-.529.431-.96.962-.96h3.466c.531 0 .962.431.962.96v3.468z" id="Fill-87"/></g></g></svg>