<svg width="39" height="69" viewBox="-1 0 39 69" version="1.1" xmlns="http://www.w3.org/2000/svg" xmlns:xlink="http://www.w3.org/1999/xlink"><defs><path id="path-1" d="M0 68.367h37.514V0H0z"/></defs><g id="icon-phone4" stroke="none" stroke-width="1" fill="none" fill-rule="evenodd"><path d="M37.514 63.947a4.43 4.43 0 0 1-4.42 4.42H4.42A4.431 4.431 0 0 1 0 63.947V4.42A4.433 4.433 0 0 1 4.42 0h28.674a4.432 4.432 0 0 1 4.42 4.42v59.527z" id="Fill-1" fill="#272E34"/><path d="M34.962 57.267c0 .972-.795 1.767-1.766 1.767H4.317a1.773 1.773 0 0 1-1.767-1.767V7.774c0-.97.796-1.768 1.767-1.768h28.88c.97 0 1.765.798 1.765 1.768v49.493z" id="Fill-4" fill="#FFCA00"/><path d="M33.462 32.52c0-8.087-6.556-14.643-14.643-14.643S4.175 24.434 4.175 32.52s6.557 14.643 14.644 14.643 14.643-6.555 14.643-14.642" id="Fill-6" fill="#F9F9FC"/><path id="Fill-8" fill="#13B5E6" d="M21.021 36.473l.418-.716-.91 1.547v.005z"/><path id="Fill-10" fill="#13B5E6" d="M18.504 40.738l-1.68-2.855z"/><path id="Fill-12" fill="#13B5E6" d="M16.486 37.31v-.006l-.91-1.548.42.717z"/><path id="Fill-14" fill="#13B5E6" d="M20.19 37.883l-1.68 2.855 1.681-2.855z"/><path d="M25.15 36.969c-.75-.45-1.971-1.028-3.401-1.212l.492 2.399-1.196.163-.137.867-2.088 1.553-.002-.004-.001.004-.002-.001h-.001l-2.088-1.552-.135-.867-1.197-.163.49-2.4c-1.43.183-2.653.763-3.405 1.213-2.361 1.422-3.791 3.494-4.65 5.223a14.606 14.606 0 0 0 10.99 4.972c4.377 0 8.303-1.923 10.985-4.966-.86-1.73-2.287-3.805-4.653-5.23" id="Fill-16" fill="#13B5E6"/><path d="M23.959 29.137c-.125 2.337-1.372 4.313-3.12 5.187v1.35c.315.024.616.05.876.078a32.42 32.42 0 0 0 3.299-.127c2.058-.18-.51-3.009-.508-6.81-.104.444-.212.714-.212.714s-.122-.155-.335-.392" id="Fill-18" fill="#505457"/><path d="M16.8 34.324c-1.598-.8-2.781-2.525-3.065-4.6-.028.054-.058.108-.086.164-.244.52-.427.234-.545-.41-.261 3.463-2.421 5.975-.483 6.147 1.262.112 2.367.14 3.306.127.259-.028.558-.054.873-.078v-1.35z" id="Fill-20" fill="#505457"/><path id="Fill-22" fill="#13B5E6" d="M20.53 37.31v-.006l-.34.58h.001z"/><path id="Fill-24" fill="#FFF" d="M21.021 36.473l-.492.836-.338.574-1.681 2.855 2.089-1.552.136-.868 1.196-.163-.492-2.398z"/><path d="M16.847 28.915c.336 0 .609.323.609.721 0 .398-.273.722-.61.722-.335 0-.607-.324-.607-.722 0-.398.272-.721.608-.721m3.964 0c.336 0 .609.323.609.721 0 .398-.273.722-.61.722-.335 0-.606-.324-.606-.722 0-.398.27-.721.607-.721m3.148.222a9.89 9.89 0 0 0-1.547-1.371 5.725 5.725 0 0 1-2.098-2.863c-2.237 1.563-5.113 1.941-6.58 4.821.285 2.075 1.468 3.799 3.066 4.6a4.456 4.456 0 0 0 4.039 0c1.748-.874 2.996-2.85 3.12-5.187" id="Fill-26" fill="#EFD0B4"/><path d="M18.82 40.738l1.68-2.855.34-.579.908-1.547-.034-.005c-.26-.028-.56-.055-.875-.078v-1.35a4.47 4.47 0 0 1-.478.206 4.425 4.425 0 0 1-1.542.277 4.488 4.488 0 0 1-2.02-.483v1.35c-.315.023-.614.05-.873.078l-.036.004.91 1.548.34.58 1.678 2.851.001.003z" id="Fill-28" fill="#E5BD99"/><path id="Fill-30" fill="#13B5E6" d="M16.824 37.883l-.338-.58v.006z"/><path d="M21.277 24.1a7.19 7.19 0 0 1-.963.804 5.715 5.715 0 0 0 2.098 2.862 9.867 9.867 0 0 1 1.546 1.372c.214.236.335.39.335.39s.11-.27.213-.713c.21-.911.387-2.565-.468-4.215a10.455 10.455 0 0 0-1.018-1.603c-.135.433-.275.893-.45 1.459-.46-.143-.887-.26-1.293-.356" id="Fill-32" fill="#505457"/><path id="Fill-34" fill="#FFF" d="M16.281 38.318l.135.868 2.088 1.552-1.68-2.856-.339-.573-.49-.836-.42-.718-.49 2.4z"/><path d="M16.847 30.358c.336 0 .609-.324.609-.722 0-.399-.273-.72-.61-.72-.335 0-.607.321-.607.72 0 .398.272.722.608.722" id="Fill-36" fill="#505457"/><path d="M20.81 30.358c.337 0 .61-.324.61-.722 0-.399-.273-.72-.61-.72-.335 0-.606.321-.606.72 0 .398.27.722.607.722" id="Fill-38" fill="#505457"/><path d="M13.649 29.889c.028-.057.058-.11.086-.165 1.465-2.88 4.341-3.257 6.579-4.82a7.19 7.19 0 0 0 .963-.804c-2.182-.524-3.735-.407-6.21.356l-.51-1.663a6.168 6.168 0 0 0-1.322 1.899c-.336.739-.367 3.492-.131 4.786.118.645.301.929.545.41" id="Fill-40" fill="#505457"/><path d="M18.583 20.289h.462v1.349h1.35v.462h-1.35v1.35h-.462V22.1h-1.35v-.462h1.35v-1.35zm2.695 3.81c.406.098.832.214 1.292.357.176-.567.316-1.026.45-1.46l.7-2.276c-3.832-1.178-5.97-1.181-9.801 0 .258.839.445 1.44.638 2.073l.51 1.663c2.475-.763 4.029-.88 6.21-.356z" id="Fill-42" fill="#13B5E6"/><path id="Fill-44" fill="#FFF" d="M16.924 21.638v.462h1.35v1.35h.461V22.1h1.35v-.462h-1.35v-1.35h-.462v1.35z"/><mask id="mask-2" fill="#fff"><use xlink:href="#path-1"/></mask><path id="Fill-46" fill="#F9F9FC" mask="url(#mask-2)" d="M14.152 3.2h9.21v-.886h-9.21z"/><path d="M21.5 65.422a.98.98 0 0 1-.979.979h-3.53a.979.979 0 0 1-.977-.98v-3.528c0-.54.438-.978.977-.978h3.53c.54 0 .979.438.979.978v3.529z" id="Fill-48" fill="#F9F9FC" mask="url(#mask-2)"/></g></svg>