<svg width="40" height="71" viewBox="-1 0 40 71" version="1.1" xmlns="http://www.w3.org/2000/svg" xmlns:xlink="http://www.w3.org/1999/xlink"><defs><path id="path-1" d="M0 70.457h38.662V0H0z"/></defs><g id="Group" stroke="none" stroke-width="1" fill="none" fill-rule="evenodd"><g id="icon-phone2"><path d="M38.662 65.904a4.566 4.566 0 0 1-4.555 4.553H4.555A4.566 4.566 0 0 1 0 65.904V4.551C0 2.047 2.05.001 4.555.001h29.552c2.504 0 4.555 2.046 4.555 4.55v61.353z" id="Fill-1" fill="#272E34"/><path d="M36.033 59.019c0 1-.819 1.82-1.819 1.82H4.45a1.827 1.827 0 0 1-1.822-1.82V8.01c0-1.002.82-1.821 1.822-1.821h29.764c1 0 1.82.819 1.82 1.82V59.02z" id="Fill-4" fill="#9DE3F2"/><mask id="mask-2" fill="#fff"><use xlink:href="#path-1"/></mask><path id="Fill-6" fill="#F9F9FC" mask="url(#mask-2)" d="M14.633 3.961h9.395v-.905h-9.395z"/><path d="M22.13 67.448c0 .55-.448.996-.999.996h-3.6a.997.997 0 0 1-.999-.996v-3.602c0-.552.447-.999.998-.999h3.601c.551 0 .998.447.998 1v3.601z" id="Fill-8" fill="#F9F9FC" mask="url(#mask-2)"/><path d="M19.787 27.887v-4.881h-4.655v4.88c-3.101.728-5.348 2.864-5.348 5.389v13.757c0 .765.847 1.39 1.883 1.39h11.586c1.035 0 1.883-.625 1.883-1.39V33.275c0-2.525-2.25-4.661-5.35-5.388" id="Fill-9" fill="#1E495C" mask="url(#mask-2)"/><path id="Fill-10" fill="#F05927" mask="url(#mask-2)" d="M9.783 42.874h15.352v-7.16H9.783z"/><path id="Fill-11" fill="#1E495C" mask="url(#mask-2)" d="M15.132 27.628h4.655v-.618h-4.655z"/><path d="M20.44 26.799a.524.524 0 0 1-.524.523h-4.914a.525.525 0 0 1-.523-.523V23.53c0-.288.236-.525.523-.525h4.914c.289 0 .524.237.524.525v3.268z" id="Fill-12" fill="#F05927" mask="url(#mask-2)"/><path d="M6.02 28.99a1.817 1.817 0 0 0 1.483 1.924l.27-3.604a1.817 1.817 0 0 0-1.753 1.68" id="Fill-13" fill="#FFF" mask="url(#mask-2)"/><path d="M9.643 29.264A1.818 1.818 0 0 0 8.16 27.34l-.27 3.604a1.818 1.818 0 0 0 1.754-1.68" id="Fill-14" fill="#FFF" mask="url(#mask-2)"/><path d="M7.966 27.314a1.776 1.776 0 0 0-.193-.003l-.27 3.604c.063.01.127.018.192.026.065.003.13.004.193.003l.271-3.604a1.724 1.724 0 0 0-.193-.026" id="Fill-15" fill="#3D8DA8" mask="url(#mask-2)"/><path d="M18.155 15.992a1.82 1.82 0 0 0-1.623 1.807l3.593-.385a1.817 1.817 0 0 0-1.97-1.422" id="Fill-16" fill="#FFF" mask="url(#mask-2)"/><path d="M18.543 19.607a1.819 1.819 0 0 0 1.623-1.808l-3.593.387a1.816 1.816 0 0 0 1.97 1.42" id="Fill-17" fill="#FFF" mask="url(#mask-2)"/><path d="M20.155 17.605a1.491 1.491 0 0 0-.03-.19l-3.593.384c0 .066.003.13.01.195.006.066.018.13.031.192l3.593-.387c0-.064-.004-.13-.01-.194" id="Fill-18" fill="#3D8DA8" mask="url(#mask-2)"/><path d="M31.456 28.217a1.816 1.816 0 0 0-.505-2.375l-1.804 3.13a1.819 1.819 0 0 0 2.31-.755" id="Fill-19" fill="#FFF" mask="url(#mask-2)"/><path d="M28.308 26.402a1.816 1.816 0 0 0 .504 2.376l1.804-3.13a1.817 1.817 0 0 0-2.308.754" id="Fill-20" fill="#FFF" mask="url(#mask-2)"/><path d="M28.974 28.885c.057.033.116.06.174.088l1.804-3.131a1.815 1.815 0 0 0-.162-.107 2.351 2.351 0 0 0-.174-.087l-1.804 3.13c.052.038.106.075.162.107" id="Fill-21" fill="#3D8DA8" mask="url(#mask-2)"/><path id="Fill-22" fill="#FFF" mask="url(#mask-2)" d="M21.394 48.422h10.748v-9.899H21.394z"/><path id="Fill-23" fill="#FFCA00" mask="url(#mask-2)" d="M22.81 46.28h7.917v-4.226H22.81z"/><path id="Fill-24" fill="#E2E2E2" mask="url(#mask-2)" d="M21.394 41.06h10.748v-2.538H21.394z"/><path id="Fill-25" fill="#FFF" mask="url(#mask-2)" d="M20.89 40.104h11.757V36.97H20.89z"/></g></g></svg>