<svg width="64" height="72" viewBox="0 -1 64 72" version="1.1" xmlns="http://www.w3.org/2000/svg"><g id="Group-2" stroke="none" stroke-width="1" fill="none" fill-rule="evenodd"><g id="Group"><g id="Slim-vectorobject222"><path d="M61.944 60.555H18.3c-.77 0-1.391-.509-1.391-1.137V1.138C16.91.508 17.532 0 18.3 0h43.644c.768 0 1.39.51 1.39 1.137v58.281c0 .628-.622 1.137-1.39 1.137" id="Fill-1" fill="#3DC4AB"/><path id="Fill-4" fill="#C5E9F3" d="M20.724 52.337h38.797V5.122H20.724z"/><path d="M42.802 2.417a.44.44 0 1 1-.883 0 .441.441 0 0 1 .883 0" id="Fill-6" fill="#ABADAE"/><path d="M40.868 2.417c0 .244-.249.44-.556.44h-4.344c-.307 0-.556-.197-.556-.44 0-.244.25-.441.556-.441h4.344c.307 0 .556.196.556.44" id="Fill-7" fill="#ABADAE"/><path d="M41.337 55.938a1.301 1.301 0 1 1-2.602-.001 1.301 1.301 0 0 1 2.602 0" id="Fill-8" fill="#BFBFBF"/><path d="M37.524 50.325C24.917 48.812 23.512 20.63 24.163 14.703c.158-1.438.915-2.527 2.249-3.235 3.834-2.037 11.192-.021 11.504.065l-.54 1.295c-1.91-.531-7.437-1.604-10.053-.213-.893.475-1.381 1.198-1.492 2.21-.728 6.623 1.254 32.864 11.936 34.146l-.243 1.354z" id="Fill-9" fill="#AEAEAE"/><path d="M39.674 12.56s.797-2.459-2.037-1.908c-2.253.44-3.296-.153-3.296-.153l-.279.916-.28.918s1.261-.124 2.998 1.127c2.184 1.575 2.894-.9 2.894-.9" id="Fill-10" fill="#4D5053"/><path d="M42.669 50.325c12.608-1.513 14.012-29.695 13.36-35.622-.158-1.438-.914-2.527-2.248-3.235-3.834-2.037-11.192-.021-11.505.065l.54 1.295c1.91-.531 7.438-1.604 10.053-.213.894.475 1.382 1.198 1.493 2.21.727 6.623-1.255 32.864-11.937 34.146l.244 1.354z" id="Fill-11" fill="#AEAEAE"/><path d="M40.519 12.56s-.797-2.459 2.037-1.908c2.253.44 3.295-.153 3.295-.153l.28.916.28.918s-1.261-.124-2.998 1.127c-2.185 1.575-2.894-.9-2.894-.9" id="Fill-12" fill="#4D5053"/><path d="M39 49.947v4.687c0 7.562-6.973 13.714-15.544 13.714h-.34c-8.572 0-15.544-6.152-15.544-13.714v-38.51h-2.5v38.51c0 8.864 8.094 16.075 18.044 16.075h.34c9.95 0 18.044-7.211 18.044-16.075v-4.687H39z" id="Fill-13" fill="#2F8BC5"/><path d="M53.986 38.234H50.5c-2.292 5.615-4.325 8.658-8.916 9.482l-3.41.014c-4.364-1.01-6.261-4.06-8.481-9.496h-3.486c2.527 6.356 6.339 11.39 11.968 12.38v4.035c0 2.897-1.361 5.452-2.706 7.897l3.255 1.445c1.715-2.43 2.86-5.951 2.86-9.342v-3.963c5.869-.801 9.81-5.933 12.402-12.452" id="Fill-14" fill="#4D5053"/><path d="M12.5 14.214c0 3.26-2.798 5.903-6.25 5.903S0 17.474 0 14.214 2.798 8.31 6.25 8.31s6.25 2.643 6.25 5.903" id="Fill-15" fill="#4D5053"/><path d="M9.766 14.214c0 1.834-1.574 3.32-3.516 3.32-1.941 0-3.515-1.486-3.515-3.32 0-1.833 1.574-3.32 3.515-3.32 1.942 0 3.516 1.487 3.516 3.32" id="Fill-16" fill="#C5E9F3"/><path d="M20.724 52.337h38.797V5.122H20.724v47.215zm19.312 4.902a1.302 1.302 0 1 1 0-2.604 1.302 1.302 0 0 1 0 2.604zM35.968 1.975h4.344c.307 0 .556.198.556.442s-.249.44-.556.44h-4.344c-.307 0-.556-.196-.556-.44s.249-.442.556-.442zm6.392 0a.442.442 0 1 1 .001.883.442.442 0 0 1-.001-.883zM61.944 0H18.3c-.768 0-1.39.509-1.39 1.137v58.28c0 .629.622 1.138 1.39 1.138h43.644c.768 0 1.391-.51 1.391-1.137V1.137C63.335.509 62.712 0 61.944 0z" id="Fill-17" fill="#FFF"/><path d="M41.895 55.938a1.86 1.86 0 1 1-3.72-.001 1.86 1.86 0 0 1 3.72 0" id="Fill-18" fill="#ABADAE"/></g></g></g></svg>