<svg width="164px" height="163px" viewBox="224 271 164 163" version="1.1" xmlns="http://www.w3.org/2000/svg" xmlns:xlink="http://www.w3.org/1999/xlink">
    <!-- Generator: Sketch 41.1 (35376) - http://www.bohemiancoding.com/sketch -->
    <desc>Created with Sketch.</desc>
    <defs>
        <polygon id="path-1" points="0.663 61 61.053 61 61.053 0.61 0.663 0.61"></polygon>
    </defs>
    <g id="Group-2" stroke="none" stroke-width="1" fill="none" fill-rule="evenodd" transform="translate(224.000000, 271.000000)">
        <polyline id="Shape" fill="#333745" points="67.985 106.115 57.843 96.103 24.05 129.897 34.183 139.917"></polyline>
        <path d="M69.575,97.137 L69.495,97.062 C59.581,88.022 53.785,75.679 53.179,62.282 C52.555,48.876 57.203,36.036 66.227,26.138 C84.864,5.723 116.65,4.228 137.095,22.811 L137.165,22.875 C147.078,31.92 152.871,44.272 153.48,57.685 C154.098,71.082 149.47,83.908 140.423,93.817 C121.79,114.217 90.015,115.712 69.575,97.137 M143.655,15.765 C143.618,15.738 143.577,15.718 143.561,15.691 C119.151,-6.495 81.389,-4.732 59.141,19.634 C36.856,44.068 38.583,81.896 63.011,104.177 C63.037,104.197 63.068,104.227 63.101,104.249 C87.511,126.447 125.293,124.665 147.537,100.294 C169.791,75.878 168.064,38.032 143.657,15.764" id="Shape" fill="#333745"></path>
        <g id="Group" transform="translate(0.000000, 101.447000)">
            <g id="Clipped">
                <mask id="mask-2" fill="white">
                    <use xlink:href="#path-1"></use>
                </mask>
                <g id="i"></g>
                <path d="M59.452,10.976 C61.587,13.113 61.587,16.576 59.452,18.71 L18.762,59.398 C16.628,61.535 13.165,61.533 11.028,59.398 L2.264,50.634 C0.128,48.497 0.13,45.034 2.264,42.9 L42.954,2.21 C45.088,0.076 48.55,0.076 50.686,2.21 L59.452,10.976 Z" id="Shape" fill="#CD2C24" mask="url(#mask-2)"></path>
            </g>
        </g>
        <path d="M132.645,89.892 C116.268,106.267 89.625,106.267 73.248,89.892 C72.858,89.502 72.858,88.869 73.248,88.478 C73.638,88.088 74.272,88.088 74.663,88.478 C90.258,104.075 115.633,104.075 131.232,88.478 C131.62,88.088 132.255,88.088 132.645,88.478 C133.035,88.87 133.035,89.502 132.645,89.893 M133.175,31.732 C132.785,32.122 132.152,32.122 131.761,31.732 C116.166,16.136 90.789,16.136 75.194,31.732 C74.804,32.122 74.17,32.122 73.78,31.732 C73.388,31.342 73.388,30.709 73.78,30.318 C90.154,13.944 116.8,13.944 133.175,30.318 C133.565,30.71 133.565,31.342 133.175,31.733" id="Shape" fill="#FFFFFF"></path>
    </g>
</svg>