
<svg width="37px" height="69px" viewBox="0 -1 37 69" version="1.1" xmlns="http://www.w3.org/2000/svg" xmlns:xlink="http://www.w3.org/1999/xlink">
    <!-- Generator: Sketch 41.1 (35376) - http://www.bohemiancoding.com/sketch -->
    <desc>Created with Sketch.</desc>
    <defs>
        <polygon id="path-1" points="36.851 0.8431 36.851 68 0 68 0 0.8431"></polygon>
        <path d="M0.6234,11.133059 C2.64862363,12.2239795 4.96589373,12.843 7.428,12.843 C9.88932017,12.843 12.2062687,12.2239066 14.2314,11.1328664 L14.2314,0.7719 L0.6234,0.7719 L0.6234,11.133059 L0.6234,11.133059 Z" id="path-3"></path>
        <path d="M0.565620295,7.92390221 C1.8222141,9.11065049 3.29301355,10.0730705 4.914,10.7471826 L4.914,0.8879 L0.565620295,0.8879 L0.565620295,7.92390221 L0.565620295,7.92390221 Z" id="path-5"></path>
        <path d="M0.9414,10.7468451 C2.56172627,10.0727966 4.03210701,9.11058738 5.28847817,7.92415168 L5.28847817,0.8879 L0.9414,0.8879 L0.9414,10.7468451 L0.9414,10.7468451 Z" id="path-7"></path>
    </defs>
    <g id="icon-phone3" stroke="none" stroke-width="1" fill="none" fill-rule="evenodd" transform="translate(0.000000, -1.000000)">
        <g id="Group-8" transform="translate(0.000000, 0.157200)">
            <g id="Group-3">
                <mask id="mask-2" fill="white">
                    <use xlink:href="#path-1"></use>
                </mask>
                <g id="Clip-2"></g>
                <path d="M36.8515,63.6611 C36.8515,66.0511 34.8955,68.0001 32.5105,68.0001 L4.3425,68.0001 C1.9555,68.0001 -0.0005,66.0511 -0.0005,63.6611 L-0.0005,5.1821 C-0.0005,2.7951 1.9555,0.8431 4.3425,0.8431 L32.5105,0.8431 C34.8955,0.8431 36.8515,2.7951 36.8515,5.1821 L36.8515,63.6611 Z" id="Fill-1" fill="#272E34" mask="url(#mask-2)"></path>
            </g>
            <path d="M34.3476,57.0976 C34.3476,58.0526 33.5666,58.8316 32.6136,58.8316 L4.2436,58.8316 C3.2886,58.8316 2.5076,58.0526 2.5076,57.0976 L2.5076,8.4786 C2.5076,7.5256 3.2886,6.7426 4.2436,6.7426 L32.6136,6.7426 C33.5666,6.7426 34.3476,7.5256 34.3476,8.4786 L34.3476,57.0976 Z" id="Fill-4" fill="#F6F6F6"></path>
            <path d="M32.791,31.4814 C32.791,23.5474 26.359,17.1164 18.428,17.1164 C10.494,17.1164 4.064,23.5474 4.064,31.4814 C4.064,39.4154 10.494,45.8424 18.428,45.8424 C26.359,45.8424 32.791,39.4154 32.791,31.4814" id="Fill-6" fill="#13B5E6"></path>
        </g>
        <g id="Group-84" transform="translate(8.000000, 19.157200)">
            <polygon id="Fill-9" fill="#E5BD99" points="12.8476 15.374 12.9216 14.772 12.6606 14.54 12.6606 12.825 8.1916 12.825 8.1916 14.652 7.9316 14.772 8.0236 15.374 10.4386 17.426"></polygon>
            <path d="M16.2744,6.0615 C16.2744,9.5075 13.6564,12.2975 10.4274,12.2975 C7.2004,12.2975 4.5834,9.5075 4.5834,6.0615 C4.5834,2.6185 6.7224,0.4525 10.4274,0.4525 C14.4494,0.4525 16.2744,2.6185 16.2744,6.0615" id="Fill-11" fill="#383C40"></path>
            <path d="M15.4707,8.2012 C15.4707,11.4722 13.2137,14.1252 10.4277,14.1252 C7.6407,14.1252 5.3817,11.4722 5.3817,8.2012 C5.3817,4.9262 7.6407,2.2722 10.4277,2.2722 C13.2137,2.2722 15.4707,4.9262 15.4707,8.2012" id="Fill-13" fill="#EFD0B4"></path>
            <path d="M7.1679,8.6806 C7.1679,9.4306 6.6559,10.0376 6.0229,10.0376 C5.3909,10.0376 4.8789,9.4306 4.8789,8.6806 C4.8789,7.9316 5.3909,7.3226 6.0229,7.3226 C6.6559,7.3226 7.1679,7.9316 7.1679,8.6806" id="Fill-15" fill="#EFD0B4"></path>
            <path d="M15.9726,8.6806 C15.9726,9.4306 15.4606,10.0376 14.8306,10.0376 C14.1976,10.0376 13.6856,9.4306 13.6856,8.6806 C13.6856,7.9316 14.1976,7.3226 14.8306,7.3226 C15.4606,7.3226 15.9726,7.9316 15.9726,8.6806" id="Fill-17" fill="#EFD0B4"></path>
            <path d="M14.8271,3.8369 C14.9561,3.5939 14.9381,3.2729 14.6291,3.0419 C11.7931,0.9389 5.1091,1.7609 5.3041,6.2109 C5.3091,6.3069 5.1541,6.5659 5.2181,6.5949 C5.4331,7.5889 5.6051,8.8359 6.4461,9.5759 C6.5761,9.6879 6.6821,9.1699 6.6971,9.0009 C6.8391,7.2249 6.8281,5.0399 8.4101,3.8379 C8.4151,3.8349 8.4151,3.8289 8.4211,3.8239 C8.5701,4.2269 8.8461,4.5889 9.1191,4.9119 C9.4711,5.3299 9.9161,5.7609 10.4421,5.9369 C10.5411,5.9719 10.6591,5.8819 10.6541,5.7759 C10.6281,5.3369 10.6331,4.9299 10.6791,4.5069 C11.0421,4.9409 11.5771,5.2349 12.1411,5.2889 C12.2441,5.2989 12.3221,5.2009 12.3241,5.1069 C12.3441,4.7659 12.2701,4.2789 12.3721,3.8999 C13.9901,4.2999 14.0591,5.7799 14.3661,7.1669 C14.4341,7.4679 14.5461,9.5899 14.8291,9.1889 C15.9841,7.5519 15.5261,5.0219 14.8271,3.8369" id="Fill-19" fill="#383C40"></path>
            <polygon id="Fill-21" fill="#FFFFFF" points="7.2763 16.9033 7.7343 14.6713 9.0083 16.9033"></polygon>
            <polygon id="Fill-23" fill="#FFFFFF" points="13.5332 16.9033 13.1022 14.6963 11.8012 16.9033"></polygon>
            <g id="Group-27" transform="translate(3.000000, 14.000000)">
                <mask id="mask-4" fill="white">
                    <use xlink:href="#path-3"></use>
                </mask>
                <g id="Clip-26"></g>
                <path d="M14.2314,13.7949 L13.7274,2.4869 C13.7274,1.7189 12.1614,1.0609 9.9214,0.7719 C9.9214,0.7719 8.6344,2.3959 7.3864,2.3869 C6.1494,2.3789 4.9314,0.7719 4.9314,0.7719 C2.6954,1.0609 1.1274,1.7189 1.1274,2.4869 L0.6234,13.7949 L14.2314,13.7949 Z" id="Fill-25" fill="#A1B400" mask="url(#mask-4)"></path>
            </g>
            <g id="Group-30" transform="translate(0.000000, 15.000000)">
                <mask id="mask-6" fill="white">
                    <use xlink:href="#path-5"></use>
                </mask>
                <g id="Clip-29"></g>
                <path d="M4.914,12.7949 C4.224,11.1999 3.866,9.4899 3.98,7.5759 C4.079,5.9099 4.462,0.8879 4.462,0.8879 C2.717,2.0889 1.21,4.1309 0.873,6.2639 C0.493,8.6489 0.463,10.8079 0.796,12.7949 L4.914,12.7949 Z" id="Fill-28" fill="#B3D246" mask="url(#mask-6)"></path>
            </g>
            <path d="M12.1045,23.293 C11.9715,23.357 11.8115,23.304 11.7465,23.172 C11.6815,23.04 11.7365,22.879 11.8675,22.815 L12.5245,22.492 C12.6575,22.427 12.8185,22.481 12.8825,22.612 C12.9485,22.745 12.8945,22.908 12.7615,22.972 L12.1045,23.293 Z" id="Fill-31" fill="#9ED7E2"></path>
            <path d="M13.5615,23.3076 C13.1845,23.4926 12.7295,23.3346 12.5435,22.9596 L12.4025,22.6686 C12.2175,22.2936 12.3735,21.8366 12.7495,21.6536 L17.7565,19.1976 C18.1295,19.0126 18.5875,19.1696 18.7715,19.5436 L18.9145,19.8326 C19.0995,20.2086 18.9425,20.6676 18.5675,20.8506 L13.5615,23.3076 Z" id="Fill-33" fill="#9ED7E2"></path>
            <path d="M12.4775,22.6318 C12.3155,22.2988 12.4515,21.8928 12.7865,21.7308 L17.7925,19.2738 C18.1275,19.1088 18.5335,19.2458 18.6965,19.5808 L18.8385,19.8708 C19.0025,20.2058 18.8645,20.6098 18.5295,20.7768 L13.5225,23.2318 C13.1905,23.3968 12.7845,23.2568 12.6205,22.9238 L12.4775,22.6318 Z" id="Fill-35" fill="#FFFFFF"></path>
            <path d="M11.8232,23.1348 C11.7782,23.0448 11.8152,22.9338 11.9052,22.8918 L12.5622,22.5678 C12.6542,22.5228 12.7622,22.5608 12.8072,22.6528 C12.8522,22.7398 12.8142,22.8508 12.7232,22.8958 L12.0672,23.2188 C11.9762,23.2628 11.8672,23.2268 11.8232,23.1348" id="Fill-37" fill="#FFFFFF"></path>
            <path d="M12.0273,22.8301 L11.9053,22.8921 C11.8153,22.9341 11.7783,23.0451 11.8233,23.1351 C11.8673,23.2261 11.9763,23.2631 12.0673,23.2191 L12.1883,23.1581 L12.0273,22.8301 Z" id="Fill-39" fill="#ED5D54"></path>
            <polygon id="Fill-41" fill="#9ED7E2" points="18.5166 20.3115 18.1516 19.5665 18.2236 19.5315 18.5886 20.2775"></polygon>
            <polygon id="Fill-43" fill="#9ED7E2" points="17.9853 20.4014 17.7563 19.9324 17.8283 19.8974 18.0553 20.3654"></polygon>
            <polygon id="Fill-45" fill="#9ED7E2" points="17.5205 20.6269 17.2895 20.1609 17.3645 20.1259 17.5925 20.5929"></polygon>
            <polygon id="Fill-47" fill="#9ED7E2" points="17.0556 20.8555 16.8276 20.3895 16.8996 20.3535 17.1276 20.8205"></polygon>
            <polygon id="Fill-49" fill="#9ED7E2" points="16.6611 21.2236 16.2941 20.4786 16.3681 20.4426 16.7331 21.1876"></polygon>
            <polygon id="Fill-51" fill="#9ED7E2" points="16.1279 21.3105 15.8999 20.8445 15.9719 20.8095 16.2009 21.2755"></polygon>
            <polygon id="Fill-53" fill="#9ED7E2" points="15.666 21.539 15.434 21.071 15.508 21.037 15.737 21.504"></polygon>
            <polygon id="Fill-55" fill="#ED5D54" points="15.2002 21.7656 14.9712 21.2996 15.0442 21.2636 15.2722 21.7326"></polygon>
            <polygon id="Fill-57" fill="#ED5D54" points="14.8037 22.1328 14.4377 21.3888 14.5117 21.3548 14.8767 22.0978"></polygon>
            <polygon id="Fill-59" fill="#ED5D54" points="14.2715 22.2226 14.0425 21.7566 14.1145 21.7206 14.3435 22.1866"></polygon>
            <polygon id="Fill-61" fill="#ED5D54" points="13.8066 22.4512 13.5776 21.9822 13.6506 21.9472 13.8796 22.4152"></polygon>
            <polygon id="Fill-63" fill="#ED5D54" points="13.3437 22.6777 13.1137 22.2107 13.1877 22.1757 13.4167 22.6417"></polygon>
            <polygon id="Fill-65" fill="#ED5D54" points="12.9472 23.0449 12.5822 22.2989 12.6542 22.2639 13.0192 23.0089"></polygon>
            <polygon id="Fill-67" fill="#9ED7E2" points="11.9599 23.1474 11.8969 23.0174 18.3049 19.8734 18.3689 20.0014"></polygon>
            <polygon id="Fill-69" fill="#ED5D54" points="11.9599 23.1474 11.8969 23.0174 15.3199 21.3364 15.3849 21.4654"></polygon>
            <path d="M9.1523,8.6806 C9.1523,8.3096 8.8983,8.0076 8.5863,8.0076 C8.2723,8.0076 8.0213,8.3096 8.0213,8.6806 C8.0213,9.0496 8.2723,9.3506 8.5863,9.3506 C8.8983,9.3506 9.1523,9.0496 9.1523,8.6806" id="Fill-71" fill="#505457"></path>
            <path d="M12.8349,8.6806 C12.8349,8.3096 12.5819,8.0076 12.2699,8.0076 C11.9579,8.0076 11.7049,8.3096 11.7049,8.6806 C11.7049,9.0496 11.9579,9.3506 12.2699,9.3506 C12.5819,9.3506 12.8349,9.0496 12.8349,8.6806" id="Fill-73" fill="#505457"></path>
            <g id="Group-77" transform="translate(15.000000, 15.000000)">
                <mask id="mask-8" fill="white">
                    <use xlink:href="#path-7"></use>
                </mask>
                <g id="Clip-76"></g>
                <path d="M0.9414,12.7949 L5.0584,12.7949 C5.3904,10.8079 5.3614,8.6489 4.9824,6.2639 C4.6424,4.1309 3.1364,2.0889 1.3924,0.8879 C1.3924,0.8879 1.7734,5.9099 1.8734,7.5759 C1.9884,9.4899 1.6304,11.1999 0.9414,12.7949" id="Fill-75" fill="#B3D246" mask="url(#mask-8)"></path>
            </g>
            <polygon id="Fill-78" fill="#C60018" points="8.4238 20.5293 6.0688 19.4783 7.8838 15.4063 10.2378 16.4553"></polygon>
            <polygon id="Fill-80" fill="#DB062B" points="11.4424 22.3428 8.8634 22.3748 8.7784 15.8988 11.3574 15.8638"></polygon>
            <path d="M14.3369,14.125 C14.1459,13.604 13.8029,13.15 13.6269,12.941 C13.5449,12.845 13.4889,12.799 13.4549,12.829 C13.2379,13.033 12.3229,13.857 10.5579,13.996 C10.4929,14.002 10.2389,14.002 10.1769,13.996 C8.4109,13.857 7.4939,13.033 7.2759,12.829 C7.2449,12.799 7.1879,12.845 7.1069,12.941 C6.9299,13.15 6.5899,13.604 6.3969,14.125 C6.1839,14.708 5.8729,15.292 6.2329,15.947 C6.4129,16.279 8.1349,17.165 10.3669,17.165 C12.5989,17.165 14.3199,16.279 14.5009,15.947 C14.8589,15.292 14.5499,14.708 14.3369,14.125" id="Fill-82" fill="#E90013"></path>
        </g>
        <g id="Group-89" transform="translate(13.000000, 3.157200)" fill="#F9F9FC">
            <polygon id="Fill-85" points="0.903 1.615 9.949 1.615 9.949 0.742 0.903 0.742"></polygon>
            <path d="M8.1201,62.291 C8.1201,62.822 7.6891,63.251 7.1581,63.251 L3.6921,63.251 C3.1611,63.251 2.7301,62.822 2.7301,62.291 L2.7301,58.823 C2.7301,58.294 3.1611,57.863 3.6921,57.863 L7.1581,57.863 C7.6891,57.863 8.1201,58.294 8.1201,58.823 L8.1201,62.291 Z" id="Fill-87"></path>
        </g>
    </g>
</svg>