
<svg width="40px" height="71px" viewBox="-1 0 40 71" version="1.1" xmlns="http://www.w3.org/2000/svg" xmlns:xlink="http://www.w3.org/1999/xlink">
    <!-- Generator: Sketch 41.1 (35376) - http://www.bohemiancoding.com/sketch -->
    <desc>Created with Sketch.</desc>
    <defs>
        <polygon id="path-1" points="0 70.4571 38.662 70.4571 38.662 0.0001 0 0.0001"></polygon>
    </defs>
    <g id="Group" stroke="none" stroke-width="1" fill="none" fill-rule="evenodd">
        <g id="icon-phone2">
            <path d="M38.6616,65.9043 C38.6616,68.4113 36.6106,70.4573 34.1066,70.4573 L4.5546,70.4573 C2.0496,70.4573 -0.0004,68.4113 -0.0004,65.9043 L-0.0004,4.5513 C-0.0004,2.0473 2.0496,0.0003 4.5546,0.0003 L34.1066,0.0003 C36.6106,0.0003 38.6616,2.0473 38.6616,4.5513 L38.6616,65.9043 Z" id="Fill-1" fill="#272E34"></path>
            <path d="M36.0332,59.0186 C36.0332,60.0186 35.2142,60.8386 34.2142,60.8386 L4.4502,60.8386 C3.4482,60.8386 2.6282,60.0186 2.6282,59.0186 L2.6282,8.0106 C2.6282,7.0086 3.4482,6.1896 4.4502,6.1896 L34.2142,6.1896 C35.2142,6.1896 36.0332,7.0086 36.0332,8.0106 L36.0332,59.0186 Z" id="Fill-4" fill="#9DE3F2"></path>
            <mask id="mask-2" fill="white">
                <use xlink:href="#path-1"></use>
            </mask>
            <g id="Clip-7"></g>
            <polygon id="Fill-6" fill="#F9F9FC" mask="url(#mask-2)" points="14.633 3.9611 24.028 3.9611 24.028 3.0561 14.633 3.0561"></polygon>
            <path d="M22.1294,67.4483 C22.1294,67.9983 21.6824,68.4443 21.1314,68.4443 L17.5304,68.4443 C16.9794,68.4443 16.5324,67.9983 16.5324,67.4483 L16.5324,63.8463 C16.5324,63.2943 16.9794,62.8473 17.5304,62.8473 L21.1314,62.8473 C21.6824,62.8473 22.1294,63.2943 22.1294,63.8463 L22.1294,67.4483 Z" id="Fill-8" fill="#F9F9FC" mask="url(#mask-2)"></path>
            <path d="M19.7866,27.8868 L19.7866,23.0058 L15.1316,23.0058 L15.1316,27.8868 C12.0306,28.6138 9.7836,30.7498 9.7836,33.2748 L9.7836,47.0318 C9.7836,47.7968 10.6306,48.4218 11.6666,48.4218 L23.2526,48.4218 C24.2876,48.4218 25.1356,47.7968 25.1356,47.0318 L25.1356,33.2748 C25.1356,30.7498 22.8866,28.6138 19.7866,27.8868" id="Fill-9" fill="#1E495C" mask="url(#mask-2)"></path>
            <polygon id="Fill-10" fill="#F05927" mask="url(#mask-2)" points="9.783 42.8741 25.135 42.8741 25.135 35.7141 9.783 35.7141"></polygon>
            <polygon id="Fill-11" fill="#1E495C" mask="url(#mask-2)" points="15.132 27.6281 19.787 27.6281 19.787 27.0101 15.132 27.0101"></polygon>
            <path d="M20.4399,26.7989 C20.4399,27.0869 20.2049,27.3219 19.9159,27.3219 L15.0019,27.3219 C14.7149,27.3219 14.4789,27.0869 14.4789,26.7989 L14.4789,23.5309 C14.4789,23.2429 14.7149,23.0059 15.0019,23.0059 L19.9159,23.0059 C20.2049,23.0059 20.4399,23.2429 20.4399,23.5309 L20.4399,26.7989 Z" id="Fill-12" fill="#F05927" mask="url(#mask-2)"></path>
            <path d="M6.0195,28.9903 C5.9485,29.9263 6.5995,30.7483 7.5025,30.9143 L7.7725,27.3103 C6.8555,27.3403 6.0885,28.0553 6.0195,28.9903" id="Fill-13" fill="#FFFFFF" mask="url(#mask-2)"></path>
            <path d="M9.6431,29.2637 C9.7131,28.3277 9.0621,27.5047 8.1591,27.3397 L7.8891,30.9437 C8.8061,30.9147 9.5731,30.1987 9.6431,29.2637" id="Fill-14" fill="#FFFFFF" mask="url(#mask-2)"></path>
            <path d="M7.9663,27.3145 C7.9023,27.3095 7.8373,27.3085 7.7733,27.3105 L7.5033,30.9145 C7.5663,30.9245 7.6303,30.9335 7.6953,30.9405 C7.7603,30.9435 7.8243,30.9445 7.8883,30.9435 L8.1593,27.3395 C8.0963,27.3285 8.0323,27.3185 7.9663,27.3145" id="Fill-15" fill="#3D8DA8" mask="url(#mask-2)"></path>
            <path d="M18.1548,15.9922 C17.2218,16.0942 16.5298,16.8842 16.5318,17.7992 L20.1248,17.4142 C19.9308,16.5162 19.0878,15.8912 18.1548,15.9922" id="Fill-16" fill="#FFFFFF" mask="url(#mask-2)"></path>
            <path d="M18.5425,19.6065 C19.4755,19.5055 20.1675,18.7175 20.1665,17.7985 L16.5735,18.1865 C16.7665,19.0825 17.6105,19.7075 18.5425,19.6065" id="Fill-17" fill="#FFFFFF" mask="url(#mask-2)"></path>
            <path d="M20.1553,17.6055 C20.1493,17.5405 20.1383,17.4765 20.1243,17.4145 L16.5323,17.7985 C16.5323,17.8645 16.5353,17.9295 16.5413,17.9945 C16.5483,18.0595 16.5603,18.1235 16.5733,18.1865 L20.1663,17.7985 C20.1663,17.7355 20.1623,17.6695 20.1553,17.6055" id="Fill-18" fill="#3D8DA8" mask="url(#mask-2)"></path>
            <path d="M31.4561,28.2168 C31.9241,27.4048 31.6941,26.3798 30.9511,25.8418 L29.1471,28.9728 C29.9861,29.3438 30.9881,29.0298 31.4561,28.2168" id="Fill-19" fill="#FFFFFF" mask="url(#mask-2)"></path>
            <path d="M28.3076,26.4024 C27.8386,27.2144 28.0686,28.2384 28.8116,28.7784 L30.6156,25.6474 C29.7766,25.2764 28.7756,25.5894 28.3076,26.4024" id="Fill-20" fill="#FFFFFF" mask="url(#mask-2)"></path>
            <path d="M28.9736,28.8848 C29.0306,28.9178 29.0896,28.9458 29.1476,28.9728 L30.9516,25.8418 C30.9006,25.8038 30.8456,25.7678 30.7896,25.7348 C30.7316,25.7028 30.6736,25.6738 30.6156,25.6478 L28.8116,28.7788 C28.8636,28.8158 28.9176,28.8528 28.9736,28.8848" id="Fill-21" fill="#3D8DA8" mask="url(#mask-2)"></path>
            <polygon id="Fill-22" fill="#FFFFFF" mask="url(#mask-2)" points="21.394 48.4221 32.142 48.4221 32.142 38.5231 21.394 38.5231"></polygon>
            <polygon id="Fill-23" fill="#FFCA00" mask="url(#mask-2)" points="22.81 46.2801 30.727 46.2801 30.727 42.0541 22.81 42.0541"></polygon>
            <polygon id="Fill-24" fill="#E2E2E2" mask="url(#mask-2)" points="21.394 41.0591 32.142 41.0591 32.142 38.5221 21.394 38.5221"></polygon>
            <polygon id="Fill-25" fill="#FFFFFF" mask="url(#mask-2)" points="20.89 40.1041 32.647 40.1041 32.647 36.9701 20.89 36.9701"></polygon>
        </g>
    </g>
</svg>