
<svg width="64px" height="72px" viewBox="0 -1 64 72" version="1.1" xmlns="http://www.w3.org/2000/svg" xmlns:xlink="http://www.w3.org/1999/xlink">
    <g id="Group-2" stroke="none" stroke-width="1" fill="none" fill-rule="evenodd">
        <g id="Group">
            <g id="Slim-vectorobject222">
                <path d="M61.9438,60.5551 L18.3008,60.5551 C17.5318,60.5551 16.9098,60.0461 16.9098,59.4181 L16.9098,1.1371 C16.9098,0.5091 17.5318,0.0001 18.3008,0.0001 L61.9438,0.0001 C62.7118,0.0001 63.3348,0.5091 63.3348,1.1371 L63.3348,59.4181 C63.3348,60.0461 62.7118,60.5551 61.9438,60.5551" id="Fill-1" fill="#3DC4AB"></path>
                <polygon id="Fill-4" fill="#C5E9F3" points="20.724 52.3369 59.521 52.3369 59.521 5.1219 20.724 5.1219"></polygon>
                <path d="M42.8018,2.4165 C42.8018,2.6605 42.6048,2.8575 42.3608,2.8575 C42.1168,2.8575 41.9188,2.6605 41.9188,2.4165 C41.9188,2.1725 42.1168,1.9755 42.3608,1.9755 C42.6048,1.9755 42.8018,2.1725 42.8018,2.4165" id="Fill-6" fill="#ABADAE"></path>
                <path d="M40.8682,2.4165 C40.8682,2.6605 40.6192,2.8575 40.3122,2.8575 L35.9682,2.8575 C35.6612,2.8575 35.4122,2.6605 35.4122,2.4165 C35.4122,2.1725 35.6612,1.9755 35.9682,1.9755 L40.3122,1.9755 C40.6192,1.9755 40.8682,2.1725 40.8682,2.4165" id="Fill-7" fill="#ABADAE"></path>
                <path d="M41.3374,55.9375 C41.3374,56.6565 40.7544,57.2385 40.0354,57.2385 C39.3164,57.2385 38.7344,56.6565 38.7344,55.9375 C38.7344,55.2185 39.3164,54.6365 40.0354,54.6365 C40.7544,54.6365 41.3374,55.2185 41.3374,55.9375" id="Fill-8" fill="#BFBFBF"></path>
                <path d="M37.5239,50.3247 C24.9169,48.8117 23.5119,20.6297 24.1629,14.7027 C24.3209,13.2647 25.0779,12.1757 26.4119,11.4677 C30.2459,9.4307 37.6039,11.4467 37.9159,11.5327 L37.3759,12.8277 C35.4669,12.2967 29.9389,11.2237 27.3229,12.6147 C26.4299,13.0897 25.9419,13.8127 25.8309,14.8257 C25.1029,21.4477 27.0849,47.6887 37.7669,48.9707 L37.5239,50.3247 Z" id="Fill-9" fill="#AEAEAE"></path>
                <path d="M39.6743,12.5595 C39.6743,12.5595 40.4713,10.1015 37.6373,10.6525 C35.3843,11.0915 34.3413,10.4985 34.3413,10.4985 L34.0623,11.4155 L33.7823,12.3325 C33.7823,12.3325 35.0433,12.2085 36.7803,13.4605 C38.9643,15.0355 39.6743,12.5595 39.6743,12.5595" id="Fill-10" fill="#4D5053"></path>
                <path d="M42.6685,50.3247 C55.2765,48.8117 56.6805,20.6297 56.0295,14.7027 C55.8715,13.2647 55.1155,12.1757 53.7805,11.4677 C49.9465,9.4307 42.5885,11.4467 42.2765,11.5327 L42.8165,12.8277 C44.7265,12.2967 50.2535,11.2237 52.8695,12.6147 C53.7625,13.0897 54.2505,13.8127 54.3625,14.8257 C55.0895,21.4477 53.1075,47.6887 42.4255,48.9707 L42.6685,50.3247 Z" id="Fill-11" fill="#AEAEAE"></path>
                <path d="M40.5186,12.5595 C40.5186,12.5595 39.7216,10.1015 42.5556,10.6525 C44.8086,11.0915 45.8506,10.4985 45.8506,10.4985 L46.1306,11.4155 L46.4106,12.3325 C46.4106,12.3325 45.1496,12.2085 43.4126,13.4605 C41.2276,15.0355 40.5186,12.5595 40.5186,12.5595" id="Fill-12" fill="#4D5053"></path>
                <path d="M39,49.9467 L39,54.6337 C39,62.1957 32.027,68.3477 23.456,68.3477 L23.116,68.3477 C14.544,68.3477 7.572,62.1957 7.572,54.6337 L7.572,16.1237 L5.072,16.1237 L5.072,54.6337 C5.072,63.4977 13.166,70.7087 23.116,70.7087 L23.456,70.7087 C33.406,70.7087 41.5,63.4977 41.5,54.6337 L41.5,49.9467 L39,49.9467 Z" id="Fill-13" fill="#2F8BC5"></path>
                <path d="M53.9858,38.2338 L50.4998,38.2338 C48.2078,43.8488 46.1748,46.8918 41.5838,47.7158 L38.1748,47.7298 C33.8098,46.7198 31.9128,43.6708 29.6928,38.2338 L26.2068,38.2338 C28.7338,44.5898 32.5458,49.6248 38.1748,50.6148 L38.1748,54.6488 C38.1748,57.5458 36.8138,60.1008 35.4688,62.5458 L38.7238,63.9908 C40.4388,61.5618 41.5838,58.0398 41.5838,54.6488 L41.5838,50.6858 C47.4528,49.8848 51.3948,44.7528 53.9858,38.2338" id="Fill-14" fill="#4D5053"></path>
                <path d="M12.5,14.2138 C12.5,17.4738 9.702,20.1168 6.25,20.1168 C2.798,20.1168 0,17.4738 0,14.2138 C0,10.9538 2.798,8.3108 6.25,8.3108 C9.702,8.3108 12.5,10.9538 12.5,14.2138" id="Fill-15" fill="#4D5053"></path>
                <path d="M9.7656,14.2138 C9.7656,16.0478 8.1916,17.5348 6.2496,17.5348 C4.3086,17.5348 2.7346,16.0478 2.7346,14.2138 C2.7346,12.3808 4.3086,10.8938 6.2496,10.8938 C8.1916,10.8938 9.7656,12.3808 9.7656,14.2138" id="Fill-16" fill="#C5E9F3"></path>
                <path d="M20.724,52.3369 L59.521,52.3369 L59.521,5.1219 L20.724,5.1219 L20.724,52.3369 Z M40.036,57.2389 C39.317,57.2389 38.734,56.6559 38.734,55.9379 C38.734,55.2189 39.317,54.6359 40.036,54.6359 C40.754,54.6359 41.337,55.2189 41.337,55.9379 C41.337,56.6559 40.754,57.2389 40.036,57.2389 L40.036,57.2389 Z M35.968,1.9749 L40.312,1.9749 C40.619,1.9749 40.868,2.1729 40.868,2.4169 C40.868,2.6609 40.619,2.8579 40.312,2.8579 L35.968,2.8579 C35.661,2.8579 35.412,2.6609 35.412,2.4169 C35.412,2.1729 35.661,1.9749 35.968,1.9749 L35.968,1.9749 Z M42.36,1.9749 C42.605,1.9749 42.802,2.1729 42.802,2.4169 C42.802,2.6609 42.605,2.8579 42.36,2.8579 C42.117,2.8579 41.919,2.6609 41.919,2.4169 C41.919,2.1729 42.117,1.9749 42.36,1.9749 L42.36,1.9749 Z M61.944,-0.0001 L18.3,-0.0001 C17.532,-0.0001 16.91,0.5089 16.91,1.1369 L16.91,59.4179 C16.91,60.0459 17.532,60.5549 18.3,60.5549 L61.944,60.5549 C62.712,60.5549 63.335,60.0459 63.335,59.4179 L63.335,1.1369 C63.335,0.5089 62.712,-0.0001 61.944,-0.0001 L61.944,-0.0001 Z" id="Fill-17" fill="#FFFFFF"></path>
                <path d="M41.8955,55.9375 C41.8955,56.9645 41.0625,57.7975 40.0355,57.7975 C39.0085,57.7975 38.1755,56.9645 38.1755,55.9375 C38.1755,54.9105 39.0085,54.0775 40.0355,54.0775 C41.0625,54.0775 41.8955,54.9105 41.8955,55.9375" id="Fill-18" fill="#ABADAE"></path>
            </g>
        </g>
    </g>
</svg>