
<svg width="39px" height="69px" viewBox="-1 0 39 69" version="1.1" xmlns="http://www.w3.org/2000/svg" xmlns:xlink="http://www.w3.org/1999/xlink">
    <!-- Generator: Sketch 41.1 (35376) - http://www.bohemiancoding.com/sketch -->
    <desc>Created with Sketch.</desc>
    <defs>
        <polygon id="path-1" points="0 68.3672 37.514 68.3672 37.514 0.0002 0 0.0002"></polygon>
    </defs>
    <g id="icon-phone4" stroke="none" stroke-width="1" fill="none" fill-rule="evenodd">
        <path d="M37.5137,63.9472 C37.5137,66.3822 35.5247,68.3672 33.0937,68.3672 L4.4197,68.3672 C1.9897,68.3672 -0.0003,66.3822 -0.0003,63.9472 L-0.0003,4.4192 C-0.0003,1.9882 1.9897,0.0002 4.4197,0.0002 L33.0937,0.0002 C35.5247,0.0002 37.5137,1.9882 37.5137,4.4192 L37.5137,63.9472 Z" id="Fill-1" fill="#272E34"></path>
        <path d="M34.9624,57.2671 C34.9624,58.2391 34.1674,59.0341 33.1964,59.0341 L4.3174,59.0341 C3.3464,59.0341 2.5504,58.2391 2.5504,57.2671 L2.5504,7.7741 C2.5504,6.8041 3.3464,6.0061 4.3174,6.0061 L33.1964,6.0061 C34.1674,6.0061 34.9624,6.8041 34.9624,7.7741 L34.9624,57.2671 Z" id="Fill-4" fill="#FFCA00"></path>
        <path d="M33.4624,32.5205 C33.4624,24.4335 26.9064,17.8775 18.8194,17.8775 C10.7324,17.8775 4.1754,24.4335 4.1754,32.5205 C4.1754,40.6075 10.7324,47.1635 18.8194,47.1635 C26.9064,47.1635 33.4624,40.6075 33.4624,32.5205" id="Fill-6" fill="#F9F9FC"></path>
        <polygon id="Fill-8" fill="#13B5E6" points="21.021 36.4731 21.439 35.7571 20.529 37.3041 20.529 37.3091"></polygon>
        <polygon id="Fill-10" fill="#13B5E6" points="18.5039 40.7383 16.8249 37.8833 16.8239 37.8833"></polygon>
        <polygon id="Fill-12" fill="#13B5E6" points="16.4858 37.3091 16.4858 37.3041 15.5758 35.7561 15.9958 36.4731"></polygon>
        <polygon id="Fill-14" fill="#13B5E6" points="20.1904 37.8828 18.5094 40.7378 20.1914 37.8828"></polygon>
        <path d="M25.1509,36.9687 C24.4009,36.5187 23.1789,35.9407 21.7489,35.7567 L22.2409,38.1557 L21.0449,38.3187 L20.9079,39.1857 L18.8199,40.7387 L18.8179,40.7347 L18.8169,40.7387 L18.8149,40.7377 L18.8139,40.7377 L18.8139,40.7387 L16.7259,39.1857 L16.5909,38.3187 L15.3939,38.1557 L15.8849,35.7557 C14.4549,35.9387 13.2309,36.5187 12.4789,36.9687 C10.1179,38.3907 8.6879,40.4627 7.8289,42.1917 C10.5119,45.2387 14.4409,47.1637 18.8199,47.1637 C23.1959,47.1637 27.1219,45.2407 29.8039,42.1977 C28.9449,40.4687 27.5169,38.3927 25.1509,36.9687" id="Fill-16" fill="#13B5E6"></path>
        <path d="M23.9585,29.1372 C23.8345,31.4742 22.5865,33.4502 20.8385,34.3242 L20.8385,35.6742 C21.1535,35.6982 21.4545,35.7242 21.7145,35.7522 C22.6505,35.7652 23.7555,35.7362 25.0135,35.6252 C27.0715,35.4442 24.5035,32.6162 24.5055,28.8142 C24.4025,29.2592 24.2935,29.5292 24.2935,29.5292 C24.2935,29.5292 24.1725,29.3742 23.9585,29.1372" id="Fill-18" fill="#505457"></path>
        <path d="M16.7998,34.3242 C15.2018,33.5232 14.0188,31.7992 13.7348,29.7232 C13.7068,29.7782 13.6768,29.8322 13.6488,29.8882 C13.4048,30.4072 13.2218,30.1222 13.1038,29.4772 C12.8428,32.9412 10.6828,35.4532 12.6208,35.6252 C13.8828,35.7372 14.9878,35.7652 15.9268,35.7522 C16.1858,35.7242 16.4848,35.6982 16.7998,35.6742 L16.7998,34.3242 Z" id="Fill-20" fill="#505457"></path>
        <polygon id="Fill-22" fill="#13B5E6" points="20.5293 37.3091 20.5293 37.3041 20.1903 37.8831 20.1913 37.8831"></polygon>
        <polygon id="Fill-24" fill="#FFFFFF" points="21.021 36.4731 20.529 37.3091 20.191 37.8831 18.51 40.7381 20.599 39.1861 20.735 38.3181 21.931 38.1551 21.439 35.7571 21.439 35.7561 21.439 35.7571"></polygon>
        <path d="M16.8467,28.915 C17.1827,28.915 17.4557,29.238 17.4557,29.636 C17.4557,30.034 17.1827,30.358 16.8467,30.358 C16.5107,30.358 16.2387,30.034 16.2387,29.636 C16.2387,29.238 16.5107,28.915 16.8467,28.915 M20.8107,28.915 C21.1467,28.915 21.4197,29.238 21.4197,29.636 C21.4197,30.034 21.1467,30.358 20.8107,30.358 C20.4747,30.358 20.2037,30.034 20.2037,29.636 C20.2037,29.238 20.4747,28.915 20.8107,28.915 M23.9587,29.137 C23.6427,28.791 23.1137,28.265 22.4117,27.766 C21.5097,27.127 20.6997,26.109 20.3137,24.903 C18.0767,26.466 15.2007,26.844 13.7347,29.724 C14.0187,31.799 15.2017,33.523 16.7997,34.324 C17.4207,34.635 18.1027,34.807 18.8197,34.807 C19.3567,34.807 19.8747,34.71 20.3617,34.531 C20.5237,34.471 20.6837,34.402 20.8387,34.324 C22.5867,33.45 23.8347,31.474 23.9587,29.137" id="Fill-26" fill="#EFD0B4"></path>
        <path d="M18.8194,40.7383 L18.8194,40.7383 L20.5004,37.8833 L20.8394,37.3043 L21.7484,35.7573 L21.7484,35.7563 C21.7384,35.7553 21.7254,35.7533 21.7144,35.7523 C21.4544,35.7243 21.1534,35.6973 20.8394,35.6743 L20.8394,34.3243 C20.6844,34.4023 20.5234,34.4713 20.3614,34.5303 C19.8754,34.7103 19.3574,34.8073 18.8194,34.8073 C18.1024,34.8073 17.4204,34.6353 16.7994,34.3243 L16.7994,35.6743 C16.4844,35.6973 16.1854,35.7243 15.9264,35.7523 C15.9164,35.7533 15.9014,35.7553 15.8904,35.7563 L16.7994,37.3043 L17.1394,37.8833 L18.8184,40.7353 L18.8194,40.7383 Z" id="Fill-28" fill="#E5BD99"></path>
        <polygon id="Fill-30" fill="#13B5E6" points="16.8237 37.8828 16.8247 37.8828 16.4857 37.3038 16.4857 37.3088"></polygon>
        <path d="M21.2774,24.0996 C20.9754,24.4026 20.6514,24.6666 20.3144,24.9036 C20.6994,26.1086 21.5094,27.1266 22.4124,27.7656 C23.1134,28.2646 23.6424,28.7906 23.9584,29.1376 C24.1724,29.3736 24.2934,29.5286 24.2934,29.5286 C24.2934,29.5286 24.4024,29.2586 24.5064,28.8146 C24.7154,27.9036 24.8934,26.2496 24.0384,24.5996 C23.7624,24.0666 23.3954,23.4706 23.0204,22.9966 C22.8854,23.4296 22.7454,23.8896 22.5694,24.4556 C22.1094,24.3126 21.6834,24.1966 21.2774,24.0996" id="Fill-32" fill="#505457"></path>
        <polygon id="Fill-34" fill="#FFFFFF" points="16.2813 38.3183 16.4163 39.1863 18.5043 40.7383 16.8233 37.8823 16.4853 37.3093 15.9953 36.4733 15.5753 35.7553 15.0843 38.1553"></polygon>
        <path d="M16.8467,30.3584 C17.1827,30.3584 17.4557,30.0344 17.4557,29.6364 C17.4557,29.2374 17.1827,28.9154 16.8467,28.9154 C16.5107,28.9154 16.2387,29.2374 16.2387,29.6364 C16.2387,30.0344 16.5107,30.3584 16.8467,30.3584" id="Fill-36" fill="#505457"></path>
        <path d="M20.8106,30.3584 C21.1466,30.3584 21.4196,30.0344 21.4196,29.6364 C21.4196,29.2374 21.1466,28.9154 20.8106,28.9154 C20.4746,28.9154 20.2036,29.2374 20.2036,29.6364 C20.2036,30.0344 20.4746,30.3584 20.8106,30.3584" id="Fill-38" fill="#505457"></path>
        <path d="M13.649,29.8886 C13.677,29.8316 13.707,29.7786 13.735,29.7236 C15.2,26.8436 18.076,26.4666 20.314,24.9036 C20.651,24.6666 20.975,24.4026 21.277,24.0996 C19.095,23.5756 17.542,23.6926 15.067,24.4556 C14.866,23.7986 14.709,23.2866 14.557,22.7926 C14.05,23.2836 13.594,23.9036 13.235,24.6916 C12.899,25.4306 12.868,28.1836 13.104,29.4776 C13.222,30.1226 13.405,30.4066 13.649,29.8886" id="Fill-40" fill="#505457"></path>
        <path d="M18.5826,20.2886 L19.0446,20.2886 L19.0446,21.6376 L20.3946,21.6376 L20.3946,22.0996 L19.0446,22.0996 L19.0446,23.4496 L18.5826,23.4496 L18.5826,22.0996 L17.2336,22.0996 L17.2336,21.6376 L18.5826,21.6376 L18.5826,20.2886 Z M21.2776,24.0996 C21.6836,24.1966 22.1096,24.3126 22.5696,24.4556 C22.7456,23.8886 22.8856,23.4296 23.0196,22.9966 C23.2376,22.2866 23.4346,21.6486 23.7206,20.7196 C19.8876,19.5416 17.7506,19.5386 13.9186,20.7196 C14.1766,21.5586 14.3636,22.1606 14.5566,22.7926 C14.7086,23.2856 14.8656,23.7986 15.0666,24.4556 C17.5416,23.6926 19.0956,23.5756 21.2776,24.0996 L21.2776,24.0996 Z" id="Fill-42" fill="#13B5E6"></path>
        <polygon id="Fill-44" fill="#FFFFFF" points="16.9243 21.6377 16.9243 22.0997 18.2733 22.0997 18.2733 23.4497 18.7353 23.4497 18.7353 22.0997 20.0853 22.0997 20.0853 21.6377 18.7353 21.6377 18.7353 20.2887 18.2733 20.2887 18.2733 21.6377"></polygon>
        <mask id="mask-2" fill="white">
            <use xlink:href="#path-1"></use>
        </mask>
        <g id="Clip-47"></g>
        <polygon id="Fill-46" fill="#F9F9FC" mask="url(#mask-2)" points="14.152 3.2002 23.362 3.2002 23.362 2.3142 14.152 2.3142"></polygon>
        <path d="M21.5,65.4219 C21.5,65.9619 21.061,66.4009 20.521,66.4009 L16.991,66.4009 C16.452,66.4009 16.014,65.9619 16.014,65.4219 L16.014,61.8929 C16.014,61.3529 16.452,60.9149 16.991,60.9149 L20.521,60.9149 C21.061,60.9149 21.5,61.3529 21.5,61.8929 L21.5,65.4219 Z" id="Fill-48" fill="#F9F9FC" mask="url(#mask-2)"></path>
    </g>
</svg>